%TF.GenerationSoftware,KiCad,Pcbnew,9.0.6*%
%TF.CreationDate,2026-03-10T21:33:07+03:00*%
%TF.ProjectId,R_esc,525f6573-632e-46b6-9963-61645f706362,rev?*%
%TF.SameCoordinates,Original*%
%TF.FileFunction,Copper,L2,Inr*%
%TF.FilePolarity,Positive*%
%FSLAX46Y46*%
G04 Gerber Fmt 4.6, Leading zero omitted, Abs format (unit mm)*
G04 Created by KiCad (PCBNEW 9.0.6) date 2026-03-10 21:33:07*
%MOMM*%
%LPD*%
G01*
G04 APERTURE LIST*
%TA.AperFunction,ComponentPad*%
%ADD10R,1.700000X1.700000*%
%TD*%
%TA.AperFunction,ComponentPad*%
%ADD11C,1.700000*%
%TD*%
%TA.AperFunction,ViaPad*%
%ADD12C,0.600000*%
%TD*%
%TA.AperFunction,Conductor*%
%ADD13C,0.400000*%
%TD*%
%TA.AperFunction,Conductor*%
%ADD14C,0.500000*%
%TD*%
%TA.AperFunction,Conductor*%
%ADD15C,0.250000*%
%TD*%
%TA.AperFunction,Conductor*%
%ADD16C,0.350000*%
%TD*%
%TA.AperFunction,Conductor*%
%ADD17C,0.150000*%
%TD*%
G04 APERTURE END LIST*
D10*
%TO.N,Vcc*%
%TO.C,J7*%
X147828000Y-68326000D03*
%TD*%
%TO.N,/Motor1_A*%
%TO.C,J3*%
X178816000Y-67056000D03*
%TD*%
%TO.N,/Motor1_C*%
%TO.C,J5*%
X178689000Y-81407000D03*
%TD*%
%TO.N,gnd_p*%
%TO.C,J6*%
X147850000Y-64600000D03*
%TD*%
%TO.N,/Signalin*%
%TO.C,J1*%
X127609600Y-70408800D03*
D11*
%TO.N,/UART_TX*%
X130149600Y-70408800D03*
%TO.N,gnd_d*%
X132689600Y-70408800D03*
%TD*%
D10*
%TO.N,VDD*%
%TO.C,J2*%
X126085600Y-66802000D03*
D11*
%TO.N,/SWCLK*%
X128625600Y-66802000D03*
%TO.N,/SWDIO*%
X131165600Y-66802000D03*
%TO.N,gnd_d*%
X133705600Y-66802000D03*
%TD*%
D10*
%TO.N,/Motor1_B*%
%TO.C,J4*%
X178689000Y-73279000D03*
%TD*%
D12*
%TO.N,*%
X181610000Y-96520000D03*
X181610000Y-95250000D03*
X181610000Y-93980000D03*
X181610000Y-92710000D03*
X181610000Y-91440000D03*
X181610000Y-90170000D03*
X181610000Y-88900000D03*
X181610000Y-87630000D03*
X137160000Y-68580000D03*
X138430000Y-68580000D03*
X139700000Y-68580000D03*
X139700000Y-67310000D03*
X138430000Y-67310000D03*
X137160000Y-67310000D03*
X175260000Y-93980000D03*
X175260000Y-96520000D03*
X172720000Y-96520000D03*
X172720000Y-93980000D03*
X170180000Y-93980000D03*
X170180000Y-96520000D03*
X165100000Y-96520000D03*
X167640000Y-96520000D03*
X167640000Y-93980000D03*
X165100000Y-93980000D03*
X162560000Y-93980000D03*
X162560000Y-96520000D03*
X160020000Y-96520000D03*
X160020000Y-93980000D03*
X154940000Y-93980000D03*
X157480000Y-93980000D03*
X157480000Y-96520000D03*
X154940000Y-96520000D03*
X154940000Y-96520000D03*
X172900000Y-85850000D03*
X173650000Y-85850000D03*
X164400000Y-82600000D03*
X166650000Y-84650000D03*
%TO.N,gnd_p*%
X127000000Y-87884000D03*
X161349051Y-75302101D03*
X141732000Y-69088000D03*
X161349051Y-75302101D03*
X141986000Y-68326000D03*
X160528000Y-74168000D03*
X162052000Y-74168000D03*
X160528000Y-75692000D03*
X129032000Y-91440000D03*
X141732000Y-68580000D03*
X161036000Y-74676000D03*
X138684000Y-84328000D03*
%TO.N,/+10v*%
X158648400Y-83515200D03*
X153009600Y-75539600D03*
X140554795Y-84569000D03*
%TO.N,VDD*%
X129392253Y-83977053D03*
X152263414Y-82660102D03*
X127200000Y-84450000D03*
X149860000Y-90932000D03*
X148339638Y-93868885D03*
%TO.N,gnd_d*%
X145745200Y-89865200D03*
X145747963Y-88545082D03*
X149308913Y-78638400D03*
X159613600Y-83820000D03*
X135940800Y-73914000D03*
X145745200Y-89103200D03*
%TO.N,Vcc_M*%
X143764000Y-74676000D03*
X144780000Y-76708000D03*
%TO.N,/ADC_vcc*%
X151513904Y-85702763D03*
X145474427Y-92750839D03*
%TO.N,Net-(D3-K)*%
X163367037Y-67487000D03*
X162179000Y-71501000D03*
X162693976Y-78598934D03*
%TO.N,/Motor1_C*%
X168733146Y-77895532D03*
X163648488Y-73369000D03*
%TO.N,/Motor1_A*%
X163271200Y-82296000D03*
X155971445Y-77062800D03*
%TO.N,Net-(D2-K)*%
X158384871Y-71587083D03*
X160284871Y-71359646D03*
X160274000Y-67487000D03*
%TO.N,/Motor1_B*%
X167132000Y-72263000D03*
X161872749Y-70708085D03*
X169950000Y-78950000D03*
X158398083Y-70719337D03*
X170800000Y-85550000D03*
%TO.N,/Motor1_B_gatelow*%
X164308874Y-74654928D03*
%TO.N,/Motor1_A_gatelow*%
X164593769Y-71538000D03*
%TO.N,/Motor1_C_gatelow*%
X164084000Y-77724000D03*
%TO.N,/UART_TX*%
X150012400Y-69189600D03*
%TO.N,/Signalin*%
X151028400Y-69310000D03*
%TO.N,/SWCLK*%
X150195965Y-85801665D03*
%TO.N,/SWDIO*%
X150815923Y-86383177D03*
%TO.N,/ADC_Cur*%
X142290800Y-92760800D03*
X143408400Y-83667600D03*
%TO.N,Net-(U1-BOOT0)*%
X153720720Y-83447488D03*
X145128311Y-84877597D03*
%TO.N,/BackEMF_Ortak*%
X142041674Y-91144326D03*
X152110000Y-91236800D03*
%TO.N,/BackEMF_A*%
X148576200Y-77888400D03*
X158771284Y-84803245D03*
X152196800Y-78333600D03*
X142014000Y-89829046D03*
%TO.N,/BackEMF_B*%
X150114000Y-75539600D03*
X146369642Y-93797990D03*
X158464819Y-85596077D03*
%TO.N,/BackEMF_C*%
X150809083Y-82905430D03*
X145515680Y-93562951D03*
X158125142Y-86375258D03*
X152095200Y-81788000D03*
%TO.N,Net-(U1-PB3{slash}SPI1_SCK{slash}I2S1_CK{slash}TIM2_CH2{slash}TSC_G5_IO1{slash}EVENTOUT)*%
X149367857Y-85734400D03*
X151942800Y-75082400D03*
%TO.N,Net-(U1-PB6{slash}I2C1_SCL{slash}USART1_TX{slash}TIM16_CH1N{slash}TSC_G5_IO3)*%
X153009600Y-69748400D03*
X145040405Y-85689654D03*
%TD*%
D13*
%TO.N,gnd_p*%
X127000000Y-87884000D02*
X134112000Y-87884000D01*
X134112000Y-87884000D02*
X135128000Y-87884000D01*
X132588000Y-87884000D02*
X129032000Y-91440000D01*
X161036000Y-74989050D02*
X161349051Y-75302101D01*
X161036000Y-74676000D02*
X161036000Y-74989050D01*
X135128000Y-87884000D02*
X138684000Y-84328000D01*
X134112000Y-87884000D02*
X132588000Y-87884000D01*
D14*
%TO.N,/+10v*%
X154123979Y-84175600D02*
X157988000Y-84175600D01*
X152996800Y-78002229D02*
X152552400Y-77557829D01*
X144268715Y-84569000D02*
X140554795Y-84569000D01*
X146209549Y-84469000D02*
X145661171Y-83920622D01*
X152552400Y-84175600D02*
X152552400Y-83460102D01*
X152259000Y-84469000D02*
X146209549Y-84469000D01*
X144917093Y-83920622D02*
X144268715Y-84569000D01*
X154052091Y-84247488D02*
X154123979Y-84175600D01*
X152552400Y-83460102D02*
X153047600Y-82964902D01*
X152624288Y-84247488D02*
X154052091Y-84247488D01*
X152552400Y-79109371D02*
X152996800Y-78664971D01*
X157988000Y-84175600D02*
X158648400Y-83515200D01*
X152552400Y-77557829D02*
X152552400Y-75996800D01*
X153047600Y-81609029D02*
X152552400Y-81113829D01*
X152552400Y-84175600D02*
X152259000Y-84469000D01*
X152552400Y-75996800D02*
X153009600Y-75539600D01*
X152996800Y-78664971D02*
X152996800Y-78002229D01*
X152552400Y-84175600D02*
X152624288Y-84247488D01*
X152552400Y-81113829D02*
X152552400Y-79109371D01*
X153047600Y-82964902D02*
X153047600Y-81609029D01*
X145661171Y-83920622D02*
X144917093Y-83920622D01*
D13*
%TO.N,VDD*%
X152188298Y-82660102D02*
X151029400Y-83819000D01*
X145610226Y-83270622D02*
X144909904Y-82570300D01*
X151029400Y-83819000D02*
X146478788Y-83819000D01*
X139563477Y-83369000D02*
X139222477Y-83028000D01*
X138145523Y-83028000D02*
X137354523Y-83819000D01*
D15*
X126085600Y-83335600D02*
X127200000Y-84450000D01*
X126085600Y-66802000D02*
X126085600Y-83335600D01*
D13*
X145930409Y-83270622D02*
X145610226Y-83270622D01*
X139222477Y-83028000D02*
X138145523Y-83028000D01*
D15*
X149860000Y-92348523D02*
X148339638Y-93868885D01*
D13*
X143457100Y-82570300D02*
X142658400Y-83369000D01*
X137354523Y-83819000D02*
X129550306Y-83819000D01*
D15*
X149860000Y-90932000D02*
X149860000Y-92348523D01*
D13*
X152263414Y-82660102D02*
X152188298Y-82660102D01*
X129550306Y-83819000D02*
X129392253Y-83977053D01*
X144909904Y-82570300D02*
X143457100Y-82570300D01*
X146478788Y-83819000D02*
X145930409Y-83270622D01*
X142658400Y-83369000D02*
X139563477Y-83369000D01*
D14*
%TO.N,gnd_d*%
X132689600Y-67818000D02*
X133705600Y-66802000D01*
D16*
X153924000Y-74117200D02*
X150368000Y-74117200D01*
X138984305Y-83603000D02*
X138383695Y-83603000D01*
X145747963Y-88545082D02*
X145747963Y-89862437D01*
D14*
X149258113Y-78689200D02*
X149308913Y-78638400D01*
D16*
X137150695Y-84836000D02*
X128711306Y-84836000D01*
X128711306Y-84836000D02*
X128109653Y-84234347D01*
D14*
X132689600Y-70408800D02*
X132689600Y-67818000D01*
D16*
X138684000Y-85861305D02*
X139409000Y-85136305D01*
X133705600Y-78638400D02*
X140665200Y-78638400D01*
X128109653Y-84234347D02*
X133705600Y-78638400D01*
D14*
X140665200Y-78638400D02*
X149308913Y-78638400D01*
D16*
X145747963Y-89862437D02*
X145745200Y-89865200D01*
X150368000Y-74117200D02*
X149301200Y-75184000D01*
D14*
X135940800Y-73914000D02*
X140665200Y-78638400D01*
D16*
X145745200Y-89865200D02*
X145745200Y-90474800D01*
X139409000Y-84027695D02*
X138984305Y-83603000D01*
X159613600Y-82092800D02*
X153924000Y-76403200D01*
X138684000Y-90932000D02*
X138684000Y-85861305D01*
X138383695Y-83603000D02*
X137150695Y-84836000D01*
X149301200Y-78630687D02*
X149308913Y-78638400D01*
X139409000Y-85136305D02*
X139409000Y-84027695D01*
X142748000Y-93472000D02*
X141224000Y-93472000D01*
X149301200Y-75184000D02*
X149301200Y-78630687D01*
X159613600Y-83820000D02*
X159613600Y-82092800D01*
D14*
X149199600Y-78689200D02*
X149258113Y-78689200D01*
D16*
X141224000Y-93472000D02*
X138684000Y-90932000D01*
X145745200Y-90474800D02*
X142748000Y-93472000D01*
X153924000Y-76403200D02*
X153924000Y-74117200D01*
%TO.N,Vcc_M*%
X144780000Y-76708000D02*
X144780000Y-75692000D01*
X144780000Y-75692000D02*
X143764000Y-74676000D01*
D15*
%TO.N,/ADC_vcc*%
X145474427Y-92750839D02*
X145490576Y-92750839D01*
X151513904Y-86727511D02*
X151513904Y-85702763D01*
X145490576Y-92750839D02*
X151513904Y-86727511D01*
D17*
%TO.N,/Motor1_A*%
X163271200Y-82296000D02*
X161204645Y-82296000D01*
X161204645Y-82296000D02*
X155971445Y-77062800D01*
D15*
%TO.N,/Motor1_B*%
X170800000Y-85550000D02*
X170800000Y-79800000D01*
X170800000Y-79800000D02*
X169950000Y-78950000D01*
%TO.N,/UART_TX*%
X132638800Y-72593200D02*
X132588000Y-72542400D01*
X148255284Y-70946716D02*
X134285284Y-70946716D01*
X132588000Y-72542400D02*
X132283200Y-72542400D01*
X132283200Y-72542400D02*
X130149600Y-70408800D01*
X134285284Y-70946716D02*
X132638800Y-72593200D01*
X150012400Y-69189600D02*
X148255284Y-70946716D01*
%TO.N,/Signalin*%
X151028400Y-69310000D02*
X148753600Y-71584800D01*
X131037604Y-72034800D02*
X128135600Y-72034800D01*
X132046004Y-73043200D02*
X131037604Y-72034800D01*
X132825196Y-73043200D02*
X132046004Y-73043200D01*
X148753600Y-71584800D02*
X134283596Y-71584800D01*
X134283596Y-71584800D02*
X132825196Y-73043200D01*
X128135600Y-72034800D02*
X127609600Y-71508800D01*
X127609600Y-71508800D02*
X127609600Y-70408800D01*
%TO.N,/ADC_Cur*%
X142290800Y-92760800D02*
X140970000Y-91440000D01*
X140970000Y-87528774D02*
X143254774Y-85244000D01*
X140970000Y-91440000D02*
X140970000Y-87528774D01*
X139909000Y-84930772D02*
X139909000Y-84207227D01*
X143182000Y-83894000D02*
X143408400Y-83667600D01*
X139909000Y-84207227D02*
X140222227Y-83894000D01*
X140222227Y-83894000D02*
X143182000Y-83894000D01*
X140222228Y-85244000D02*
X139909000Y-84930772D01*
X143254774Y-85244000D02*
X140222228Y-85244000D01*
%TD*%
%TA.AperFunction,NonConductor*%
G36*
X181981529Y-62449113D02*
G01*
X182048500Y-62469018D01*
X182094081Y-62521973D01*
X182105113Y-62572073D01*
X182308989Y-86901272D01*
X182289867Y-86968474D01*
X182237448Y-87014670D01*
X182168375Y-87025192D01*
X182116102Y-87005413D01*
X181989185Y-86920609D01*
X181989172Y-86920602D01*
X181843501Y-86860264D01*
X181843489Y-86860261D01*
X181688845Y-86829500D01*
X181688842Y-86829500D01*
X181531158Y-86829500D01*
X181531155Y-86829500D01*
X181376510Y-86860261D01*
X181376498Y-86860264D01*
X181230827Y-86920602D01*
X181230814Y-86920609D01*
X181099711Y-87008210D01*
X181099707Y-87008213D01*
X180988213Y-87119707D01*
X180988210Y-87119711D01*
X180900609Y-87250814D01*
X180900602Y-87250827D01*
X180840264Y-87396498D01*
X180840261Y-87396510D01*
X180809500Y-87551153D01*
X180809500Y-87708846D01*
X180840261Y-87863489D01*
X180840264Y-87863501D01*
X180900602Y-88009172D01*
X180900609Y-88009185D01*
X180988210Y-88140288D01*
X180988213Y-88140292D01*
X181025240Y-88177319D01*
X181058725Y-88238642D01*
X181053741Y-88308334D01*
X181025240Y-88352681D01*
X180988213Y-88389707D01*
X180988210Y-88389711D01*
X180900609Y-88520814D01*
X180900602Y-88520827D01*
X180840264Y-88666498D01*
X180840261Y-88666510D01*
X180809500Y-88821153D01*
X180809500Y-88978846D01*
X180840261Y-89133489D01*
X180840264Y-89133501D01*
X180900602Y-89279172D01*
X180900609Y-89279185D01*
X180988210Y-89410288D01*
X180988213Y-89410292D01*
X181025240Y-89447319D01*
X181058725Y-89508642D01*
X181053741Y-89578334D01*
X181025240Y-89622681D01*
X180988213Y-89659707D01*
X180988210Y-89659711D01*
X180900609Y-89790814D01*
X180900602Y-89790827D01*
X180840264Y-89936498D01*
X180840261Y-89936510D01*
X180809500Y-90091153D01*
X180809500Y-90248846D01*
X180840261Y-90403489D01*
X180840264Y-90403501D01*
X180900602Y-90549172D01*
X180900609Y-90549185D01*
X180988210Y-90680288D01*
X180988213Y-90680292D01*
X181025240Y-90717319D01*
X181058725Y-90778642D01*
X181053741Y-90848334D01*
X181025240Y-90892681D01*
X180988213Y-90929707D01*
X180988210Y-90929711D01*
X180900609Y-91060814D01*
X180900602Y-91060827D01*
X180840264Y-91206498D01*
X180840261Y-91206510D01*
X180809500Y-91361153D01*
X180809500Y-91518846D01*
X180840261Y-91673489D01*
X180840264Y-91673501D01*
X180900602Y-91819172D01*
X180900609Y-91819185D01*
X180988210Y-91950288D01*
X180988213Y-91950292D01*
X181025240Y-91987319D01*
X181058725Y-92048642D01*
X181053741Y-92118334D01*
X181025240Y-92162681D01*
X180988213Y-92199707D01*
X180988210Y-92199711D01*
X180900609Y-92330814D01*
X180900602Y-92330827D01*
X180840264Y-92476498D01*
X180840261Y-92476510D01*
X180809500Y-92631153D01*
X180809500Y-92788846D01*
X180840261Y-92943489D01*
X180840264Y-92943501D01*
X180900602Y-93089172D01*
X180900609Y-93089185D01*
X180988210Y-93220288D01*
X180988213Y-93220292D01*
X181025240Y-93257319D01*
X181058725Y-93318642D01*
X181053741Y-93388334D01*
X181025240Y-93432681D01*
X180988213Y-93469707D01*
X180988210Y-93469711D01*
X180900609Y-93600814D01*
X180900602Y-93600827D01*
X180840264Y-93746498D01*
X180840261Y-93746510D01*
X180809500Y-93901153D01*
X180809500Y-94058846D01*
X180840261Y-94213489D01*
X180840264Y-94213501D01*
X180900602Y-94359172D01*
X180900609Y-94359185D01*
X180988210Y-94490288D01*
X180988213Y-94490292D01*
X181025240Y-94527319D01*
X181058725Y-94588642D01*
X181053741Y-94658334D01*
X181025240Y-94702681D01*
X180988213Y-94739707D01*
X180988210Y-94739711D01*
X180900609Y-94870814D01*
X180900602Y-94870827D01*
X180840264Y-95016498D01*
X180840261Y-95016510D01*
X180809500Y-95171153D01*
X180809500Y-95328846D01*
X180840261Y-95483489D01*
X180840264Y-95483501D01*
X180900602Y-95629172D01*
X180900609Y-95629185D01*
X180988210Y-95760288D01*
X180988213Y-95760292D01*
X181025240Y-95797319D01*
X181058725Y-95858642D01*
X181053741Y-95928334D01*
X181025240Y-95972681D01*
X180988213Y-96009707D01*
X180988210Y-96009711D01*
X180900609Y-96140814D01*
X180900602Y-96140827D01*
X180840264Y-96286498D01*
X180840261Y-96286510D01*
X180809500Y-96441153D01*
X180809500Y-96598846D01*
X180840261Y-96753489D01*
X180840264Y-96753501D01*
X180900602Y-96899172D01*
X180900609Y-96899185D01*
X180972388Y-97006609D01*
X180993266Y-97073287D01*
X180974782Y-97140667D01*
X180922803Y-97187357D01*
X180869286Y-97199500D01*
X176000714Y-97199500D01*
X175933675Y-97179815D01*
X175887920Y-97127011D01*
X175877976Y-97057853D01*
X175897612Y-97006609D01*
X175969390Y-96899185D01*
X175969390Y-96899184D01*
X175969394Y-96899179D01*
X176029737Y-96753497D01*
X176060500Y-96598842D01*
X176060500Y-96441158D01*
X176060500Y-96441155D01*
X176060499Y-96441153D01*
X176029738Y-96286510D01*
X176029737Y-96286503D01*
X176029735Y-96286498D01*
X175969397Y-96140827D01*
X175969390Y-96140814D01*
X175881789Y-96009711D01*
X175881786Y-96009707D01*
X175770292Y-95898213D01*
X175770288Y-95898210D01*
X175639185Y-95810609D01*
X175639172Y-95810602D01*
X175493501Y-95750264D01*
X175493489Y-95750261D01*
X175338845Y-95719500D01*
X175338842Y-95719500D01*
X175181158Y-95719500D01*
X175181155Y-95719500D01*
X175026510Y-95750261D01*
X175026498Y-95750264D01*
X174880827Y-95810602D01*
X174880814Y-95810609D01*
X174749711Y-95898210D01*
X174749707Y-95898213D01*
X174638213Y-96009707D01*
X174638210Y-96009711D01*
X174550609Y-96140814D01*
X174550602Y-96140827D01*
X174490264Y-96286498D01*
X174490261Y-96286510D01*
X174459500Y-96441153D01*
X174459500Y-96598846D01*
X174490261Y-96753489D01*
X174490264Y-96753501D01*
X174550602Y-96899172D01*
X174550609Y-96899185D01*
X174622388Y-97006609D01*
X174643266Y-97073287D01*
X174624782Y-97140667D01*
X174572803Y-97187357D01*
X174519286Y-97199500D01*
X173460714Y-97199500D01*
X173393675Y-97179815D01*
X173347920Y-97127011D01*
X173337976Y-97057853D01*
X173357612Y-97006609D01*
X173429390Y-96899185D01*
X173429390Y-96899184D01*
X173429394Y-96899179D01*
X173489737Y-96753497D01*
X173520500Y-96598842D01*
X173520500Y-96441158D01*
X173520500Y-96441155D01*
X173520499Y-96441153D01*
X173489738Y-96286510D01*
X173489737Y-96286503D01*
X173489735Y-96286498D01*
X173429397Y-96140827D01*
X173429390Y-96140814D01*
X173341789Y-96009711D01*
X173341786Y-96009707D01*
X173230292Y-95898213D01*
X173230288Y-95898210D01*
X173099185Y-95810609D01*
X173099172Y-95810602D01*
X172953501Y-95750264D01*
X172953489Y-95750261D01*
X172798845Y-95719500D01*
X172798842Y-95719500D01*
X172641158Y-95719500D01*
X172641155Y-95719500D01*
X172486510Y-95750261D01*
X172486498Y-95750264D01*
X172340827Y-95810602D01*
X172340814Y-95810609D01*
X172209711Y-95898210D01*
X172209707Y-95898213D01*
X172098213Y-96009707D01*
X172098210Y-96009711D01*
X172010609Y-96140814D01*
X172010602Y-96140827D01*
X171950264Y-96286498D01*
X171950261Y-96286510D01*
X171919500Y-96441153D01*
X171919500Y-96598846D01*
X171950261Y-96753489D01*
X171950264Y-96753501D01*
X172010602Y-96899172D01*
X172010609Y-96899185D01*
X172082388Y-97006609D01*
X172103266Y-97073287D01*
X172084782Y-97140667D01*
X172032803Y-97187357D01*
X171979286Y-97199500D01*
X170920714Y-97199500D01*
X170853675Y-97179815D01*
X170807920Y-97127011D01*
X170797976Y-97057853D01*
X170817612Y-97006609D01*
X170889390Y-96899185D01*
X170889390Y-96899184D01*
X170889394Y-96899179D01*
X170949737Y-96753497D01*
X170980500Y-96598842D01*
X170980500Y-96441158D01*
X170980500Y-96441155D01*
X170980499Y-96441153D01*
X170949738Y-96286510D01*
X170949737Y-96286503D01*
X170949735Y-96286498D01*
X170889397Y-96140827D01*
X170889390Y-96140814D01*
X170801789Y-96009711D01*
X170801786Y-96009707D01*
X170690292Y-95898213D01*
X170690288Y-95898210D01*
X170559185Y-95810609D01*
X170559172Y-95810602D01*
X170413501Y-95750264D01*
X170413489Y-95750261D01*
X170258845Y-95719500D01*
X170258842Y-95719500D01*
X170101158Y-95719500D01*
X170101155Y-95719500D01*
X169946510Y-95750261D01*
X169946498Y-95750264D01*
X169800827Y-95810602D01*
X169800814Y-95810609D01*
X169669711Y-95898210D01*
X169669707Y-95898213D01*
X169558213Y-96009707D01*
X169558210Y-96009711D01*
X169470609Y-96140814D01*
X169470602Y-96140827D01*
X169410264Y-96286498D01*
X169410261Y-96286510D01*
X169379500Y-96441153D01*
X169379500Y-96598846D01*
X169410261Y-96753489D01*
X169410264Y-96753501D01*
X169470602Y-96899172D01*
X169470609Y-96899185D01*
X169542388Y-97006609D01*
X169563266Y-97073287D01*
X169544782Y-97140667D01*
X169492803Y-97187357D01*
X169439286Y-97199500D01*
X168380714Y-97199500D01*
X168313675Y-97179815D01*
X168267920Y-97127011D01*
X168257976Y-97057853D01*
X168277612Y-97006609D01*
X168349390Y-96899185D01*
X168349390Y-96899184D01*
X168349394Y-96899179D01*
X168409737Y-96753497D01*
X168440500Y-96598842D01*
X168440500Y-96441158D01*
X168440500Y-96441155D01*
X168440499Y-96441153D01*
X168409738Y-96286510D01*
X168409737Y-96286503D01*
X168409735Y-96286498D01*
X168349397Y-96140827D01*
X168349390Y-96140814D01*
X168261789Y-96009711D01*
X168261786Y-96009707D01*
X168150292Y-95898213D01*
X168150288Y-95898210D01*
X168019185Y-95810609D01*
X168019172Y-95810602D01*
X167873501Y-95750264D01*
X167873489Y-95750261D01*
X167718845Y-95719500D01*
X167718842Y-95719500D01*
X167561158Y-95719500D01*
X167561155Y-95719500D01*
X167406510Y-95750261D01*
X167406498Y-95750264D01*
X167260827Y-95810602D01*
X167260814Y-95810609D01*
X167129711Y-95898210D01*
X167129707Y-95898213D01*
X167018213Y-96009707D01*
X167018210Y-96009711D01*
X166930609Y-96140814D01*
X166930602Y-96140827D01*
X166870264Y-96286498D01*
X166870261Y-96286510D01*
X166839500Y-96441153D01*
X166839500Y-96598846D01*
X166870261Y-96753489D01*
X166870264Y-96753501D01*
X166930602Y-96899172D01*
X166930609Y-96899185D01*
X167002388Y-97006609D01*
X167023266Y-97073287D01*
X167004782Y-97140667D01*
X166952803Y-97187357D01*
X166899286Y-97199500D01*
X165840714Y-97199500D01*
X165773675Y-97179815D01*
X165727920Y-97127011D01*
X165717976Y-97057853D01*
X165737612Y-97006609D01*
X165809390Y-96899185D01*
X165809390Y-96899184D01*
X165809394Y-96899179D01*
X165869737Y-96753497D01*
X165900500Y-96598842D01*
X165900500Y-96441158D01*
X165900500Y-96441155D01*
X165900499Y-96441153D01*
X165869738Y-96286510D01*
X165869737Y-96286503D01*
X165869735Y-96286498D01*
X165809397Y-96140827D01*
X165809390Y-96140814D01*
X165721789Y-96009711D01*
X165721786Y-96009707D01*
X165610292Y-95898213D01*
X165610288Y-95898210D01*
X165479185Y-95810609D01*
X165479172Y-95810602D01*
X165333501Y-95750264D01*
X165333489Y-95750261D01*
X165178845Y-95719500D01*
X165178842Y-95719500D01*
X165021158Y-95719500D01*
X165021155Y-95719500D01*
X164866510Y-95750261D01*
X164866498Y-95750264D01*
X164720827Y-95810602D01*
X164720814Y-95810609D01*
X164589711Y-95898210D01*
X164589707Y-95898213D01*
X164478213Y-96009707D01*
X164478210Y-96009711D01*
X164390609Y-96140814D01*
X164390602Y-96140827D01*
X164330264Y-96286498D01*
X164330261Y-96286510D01*
X164299500Y-96441153D01*
X164299500Y-96598846D01*
X164330261Y-96753489D01*
X164330264Y-96753501D01*
X164390602Y-96899172D01*
X164390609Y-96899185D01*
X164462388Y-97006609D01*
X164483266Y-97073287D01*
X164464782Y-97140667D01*
X164412803Y-97187357D01*
X164359286Y-97199500D01*
X163300714Y-97199500D01*
X163233675Y-97179815D01*
X163187920Y-97127011D01*
X163177976Y-97057853D01*
X163197612Y-97006609D01*
X163269390Y-96899185D01*
X163269390Y-96899184D01*
X163269394Y-96899179D01*
X163329737Y-96753497D01*
X163360500Y-96598842D01*
X163360500Y-96441158D01*
X163360500Y-96441155D01*
X163360499Y-96441153D01*
X163329738Y-96286510D01*
X163329737Y-96286503D01*
X163329735Y-96286498D01*
X163269397Y-96140827D01*
X163269390Y-96140814D01*
X163181789Y-96009711D01*
X163181786Y-96009707D01*
X163070292Y-95898213D01*
X163070288Y-95898210D01*
X162939185Y-95810609D01*
X162939172Y-95810602D01*
X162793501Y-95750264D01*
X162793489Y-95750261D01*
X162638845Y-95719500D01*
X162638842Y-95719500D01*
X162481158Y-95719500D01*
X162481155Y-95719500D01*
X162326510Y-95750261D01*
X162326498Y-95750264D01*
X162180827Y-95810602D01*
X162180814Y-95810609D01*
X162049711Y-95898210D01*
X162049707Y-95898213D01*
X161938213Y-96009707D01*
X161938210Y-96009711D01*
X161850609Y-96140814D01*
X161850602Y-96140827D01*
X161790264Y-96286498D01*
X161790261Y-96286510D01*
X161759500Y-96441153D01*
X161759500Y-96598846D01*
X161790261Y-96753489D01*
X161790264Y-96753501D01*
X161850602Y-96899172D01*
X161850609Y-96899185D01*
X161922388Y-97006609D01*
X161925425Y-97016309D01*
X161932080Y-97023989D01*
X161935688Y-97049088D01*
X161943266Y-97073287D01*
X161940577Y-97083087D01*
X161942024Y-97093147D01*
X161931490Y-97116211D01*
X161924782Y-97140667D01*
X161917220Y-97147459D01*
X161912999Y-97156703D01*
X161891668Y-97170411D01*
X161872803Y-97187357D01*
X161861205Y-97189988D01*
X161854221Y-97194477D01*
X161819286Y-97199500D01*
X161697145Y-97199500D01*
X161696544Y-97199499D01*
X160763133Y-97194978D01*
X160696190Y-97174969D01*
X160650691Y-97121944D01*
X160641083Y-97052738D01*
X160660632Y-97002088D01*
X160664390Y-96996464D01*
X160729394Y-96899179D01*
X160789737Y-96753497D01*
X160820500Y-96598842D01*
X160820500Y-96441158D01*
X160820500Y-96441155D01*
X160820499Y-96441153D01*
X160789738Y-96286510D01*
X160789737Y-96286503D01*
X160789735Y-96286498D01*
X160729397Y-96140827D01*
X160729390Y-96140814D01*
X160641789Y-96009711D01*
X160641786Y-96009707D01*
X160530292Y-95898213D01*
X160530288Y-95898210D01*
X160399185Y-95810609D01*
X160399172Y-95810602D01*
X160253501Y-95750264D01*
X160253489Y-95750261D01*
X160098845Y-95719500D01*
X160098842Y-95719500D01*
X159941158Y-95719500D01*
X159941155Y-95719500D01*
X159786510Y-95750261D01*
X159786498Y-95750264D01*
X159640827Y-95810602D01*
X159640814Y-95810609D01*
X159509711Y-95898210D01*
X159509707Y-95898213D01*
X159398213Y-96009707D01*
X159398210Y-96009711D01*
X159310609Y-96140814D01*
X159310602Y-96140827D01*
X159250264Y-96286498D01*
X159250261Y-96286510D01*
X159219500Y-96441153D01*
X159219500Y-96598846D01*
X159250261Y-96753489D01*
X159250264Y-96753501D01*
X159310602Y-96899172D01*
X159310609Y-96899185D01*
X159374539Y-96994862D01*
X159395417Y-97061539D01*
X159376933Y-97128920D01*
X159324954Y-97175610D01*
X159270836Y-97187752D01*
X158231325Y-97182717D01*
X158164382Y-97162708D01*
X158118883Y-97109683D01*
X158109275Y-97040477D01*
X158128824Y-96989827D01*
X158189394Y-96899179D01*
X158249737Y-96753497D01*
X158280500Y-96598842D01*
X158280500Y-96441158D01*
X158280500Y-96441155D01*
X158280499Y-96441153D01*
X158249738Y-96286510D01*
X158249737Y-96286503D01*
X158249735Y-96286498D01*
X158189397Y-96140827D01*
X158189390Y-96140814D01*
X158101789Y-96009711D01*
X158101786Y-96009707D01*
X157990292Y-95898213D01*
X157990288Y-95898210D01*
X157859185Y-95810609D01*
X157859172Y-95810602D01*
X157713501Y-95750264D01*
X157713489Y-95750261D01*
X157558845Y-95719500D01*
X157558842Y-95719500D01*
X157401158Y-95719500D01*
X157401155Y-95719500D01*
X157246510Y-95750261D01*
X157246498Y-95750264D01*
X157100827Y-95810602D01*
X157100814Y-95810609D01*
X156969711Y-95898210D01*
X156969707Y-95898213D01*
X156858213Y-96009707D01*
X156858210Y-96009711D01*
X156770609Y-96140814D01*
X156770602Y-96140827D01*
X156710264Y-96286498D01*
X156710261Y-96286510D01*
X156679500Y-96441153D01*
X156679500Y-96598846D01*
X156710261Y-96753489D01*
X156710264Y-96753501D01*
X156770602Y-96899172D01*
X156770609Y-96899185D01*
X156826293Y-96982521D01*
X156847171Y-97049198D01*
X156828687Y-97116579D01*
X156776708Y-97163269D01*
X156722591Y-97175411D01*
X155699518Y-97170457D01*
X155632574Y-97150448D01*
X155587076Y-97097423D01*
X155577467Y-97028217D01*
X155597017Y-96977566D01*
X155601953Y-96970180D01*
X155649394Y-96899179D01*
X155709737Y-96753497D01*
X155740500Y-96598842D01*
X155740500Y-96441158D01*
X155740500Y-96441155D01*
X155740499Y-96441153D01*
X155709738Y-96286510D01*
X155709737Y-96286503D01*
X155709735Y-96286498D01*
X155649397Y-96140827D01*
X155649390Y-96140814D01*
X155561789Y-96009711D01*
X155561786Y-96009707D01*
X155450292Y-95898213D01*
X155450288Y-95898210D01*
X155319185Y-95810609D01*
X155319172Y-95810602D01*
X155173501Y-95750264D01*
X155173489Y-95750261D01*
X155018845Y-95719500D01*
X155018842Y-95719500D01*
X154861158Y-95719500D01*
X154861155Y-95719500D01*
X154706510Y-95750261D01*
X154706498Y-95750264D01*
X154560827Y-95810602D01*
X154560814Y-95810609D01*
X154429711Y-95898210D01*
X154429707Y-95898213D01*
X154318213Y-96009707D01*
X154318210Y-96009711D01*
X154230609Y-96140814D01*
X154230602Y-96140827D01*
X154170264Y-96286498D01*
X154170261Y-96286510D01*
X154139500Y-96441153D01*
X154139500Y-96598846D01*
X154170261Y-96753489D01*
X154170264Y-96753501D01*
X154230602Y-96899172D01*
X154230609Y-96899185D01*
X154278047Y-96970180D01*
X154298925Y-97036857D01*
X154280441Y-97104238D01*
X154228462Y-97150928D01*
X154174345Y-97163070D01*
X141201010Y-97100247D01*
X141134066Y-97080238D01*
X141113929Y-97063929D01*
X139950000Y-95900000D01*
X139949998Y-95899999D01*
X129548686Y-95800465D01*
X129481838Y-95780140D01*
X129464637Y-95766531D01*
X129055188Y-95379017D01*
X128965178Y-95293829D01*
X176902444Y-95293829D01*
X176902444Y-95506170D01*
X176935662Y-95715899D01*
X176935662Y-95715902D01*
X177001277Y-95917844D01*
X177078605Y-96069609D01*
X177097680Y-96107045D01*
X177222491Y-96278832D01*
X177372640Y-96428981D01*
X177544427Y-96553792D01*
X177632843Y-96598842D01*
X177733627Y-96650194D01*
X177935570Y-96715809D01*
X177935571Y-96715809D01*
X177935574Y-96715810D01*
X178145301Y-96749028D01*
X178145302Y-96749028D01*
X178357642Y-96749028D01*
X178357643Y-96749028D01*
X178567370Y-96715810D01*
X178567373Y-96715809D01*
X178567374Y-96715809D01*
X178769316Y-96650194D01*
X178769316Y-96650193D01*
X178769319Y-96650193D01*
X178958517Y-96553792D01*
X179130304Y-96428981D01*
X179280453Y-96278832D01*
X179405264Y-96107045D01*
X179501665Y-95917847D01*
X179507464Y-95899999D01*
X179567281Y-95715902D01*
X179567281Y-95715901D01*
X179567282Y-95715898D01*
X179600500Y-95506171D01*
X179600500Y-95293829D01*
X179567282Y-95084102D01*
X179567281Y-95084098D01*
X179567281Y-95084097D01*
X179501666Y-94882155D01*
X179495891Y-94870821D01*
X179405264Y-94692955D01*
X179280453Y-94521168D01*
X179130304Y-94371019D01*
X178958517Y-94246208D01*
X178894318Y-94213497D01*
X178769316Y-94149805D01*
X178567373Y-94084190D01*
X178407331Y-94058842D01*
X178357643Y-94050972D01*
X178145301Y-94050972D01*
X178075392Y-94062044D01*
X177935572Y-94084190D01*
X177935569Y-94084190D01*
X177733627Y-94149805D01*
X177544426Y-94246208D01*
X177458995Y-94308278D01*
X177372640Y-94371019D01*
X177372638Y-94371021D01*
X177372637Y-94371021D01*
X177222493Y-94521165D01*
X177222493Y-94521166D01*
X177222491Y-94521168D01*
X177188665Y-94567725D01*
X177097680Y-94692954D01*
X177001277Y-94882155D01*
X176935662Y-95084097D01*
X176935662Y-95084100D01*
X176902444Y-95293829D01*
X128965178Y-95293829D01*
X128533185Y-94884979D01*
X126700000Y-93150000D01*
X126699999Y-93149999D01*
X126699998Y-93149999D01*
X126569713Y-93148656D01*
X126551601Y-93143134D01*
X126532673Y-93142594D01*
X126508657Y-93130043D01*
X126502880Y-93128282D01*
X126501000Y-93127022D01*
X126493801Y-93122100D01*
X126492281Y-93120596D01*
X126488201Y-93118270D01*
X126484012Y-93115406D01*
X126482406Y-93113442D01*
X126472926Y-93106621D01*
X126471642Y-93105745D01*
X126471641Y-93105744D01*
X126426861Y-93083128D01*
X126421373Y-93080181D01*
X126377786Y-93055339D01*
X126365418Y-93052098D01*
X126354007Y-93046336D01*
X126301856Y-93035446D01*
X126298832Y-93034654D01*
X126298830Y-93034653D01*
X126250306Y-93021941D01*
X126237518Y-93022011D01*
X126225005Y-93019399D01*
X126171832Y-93022375D01*
X126168685Y-93022393D01*
X126168685Y-93022394D01*
X121973535Y-93045741D01*
X121906387Y-93026430D01*
X121860339Y-92973881D01*
X121848849Y-92922554D01*
X121822663Y-88883375D01*
X121822662Y-88882380D01*
X121931735Y-65904135D01*
X124735100Y-65904135D01*
X124735100Y-67699870D01*
X124735101Y-67699876D01*
X124741508Y-67759483D01*
X124791802Y-67894328D01*
X124791806Y-67894335D01*
X124878052Y-68009544D01*
X124878055Y-68009547D01*
X124993264Y-68095793D01*
X124993271Y-68095797D01*
X125028097Y-68108786D01*
X125128117Y-68146091D01*
X125187727Y-68152500D01*
X125336100Y-68152499D01*
X125403139Y-68172183D01*
X125448894Y-68224987D01*
X125460100Y-68276499D01*
X125460100Y-83273993D01*
X125460100Y-83397207D01*
X125460100Y-83397209D01*
X125460099Y-83397209D01*
X125467692Y-83435379D01*
X125467697Y-83435402D01*
X125468213Y-83437993D01*
X125484137Y-83518052D01*
X125489472Y-83530931D01*
X125531288Y-83631886D01*
X125531289Y-83631888D01*
X125531290Y-83631889D01*
X125531291Y-83631892D01*
X125564094Y-83680982D01*
X125564095Y-83680986D01*
X125564096Y-83680986D01*
X125599738Y-83734328D01*
X125599739Y-83734329D01*
X125599742Y-83734333D01*
X125686867Y-83821458D01*
X125686869Y-83821459D01*
X125693935Y-83828525D01*
X125693934Y-83828525D01*
X125693938Y-83828528D01*
X126374205Y-84508795D01*
X126407690Y-84570118D01*
X126408141Y-84572285D01*
X126430261Y-84683489D01*
X126430264Y-84683501D01*
X126490602Y-84829172D01*
X126490609Y-84829185D01*
X126578210Y-84960288D01*
X126578213Y-84960292D01*
X126689707Y-85071786D01*
X126689711Y-85071789D01*
X126820814Y-85159390D01*
X126820827Y-85159397D01*
X126947493Y-85211863D01*
X126966503Y-85219737D01*
X127121153Y-85250499D01*
X127121156Y-85250500D01*
X127121158Y-85250500D01*
X127278844Y-85250500D01*
X127278845Y-85250499D01*
X127433497Y-85219737D01*
X127579179Y-85159394D01*
X127710289Y-85071789D01*
X127763362Y-85018715D01*
X127824681Y-84985232D01*
X127894373Y-84990215D01*
X127938722Y-85018717D01*
X128280696Y-85360692D01*
X128280700Y-85360695D01*
X128391330Y-85434616D01*
X128391334Y-85434618D01*
X128391337Y-85434620D01*
X128514270Y-85485541D01*
X128642307Y-85511009D01*
X128644770Y-85511499D01*
X128644774Y-85511500D01*
X128644775Y-85511500D01*
X128777837Y-85511500D01*
X136210482Y-85511500D01*
X136277521Y-85531185D01*
X136323276Y-85583989D01*
X136333220Y-85653147D01*
X136304195Y-85716703D01*
X136298164Y-85723179D01*
X135577553Y-86443790D01*
X134874162Y-87147181D01*
X134812839Y-87180666D01*
X134786481Y-87183500D01*
X127425316Y-87183500D01*
X127377864Y-87174061D01*
X127233501Y-87114264D01*
X127233489Y-87114261D01*
X127078845Y-87083500D01*
X127078842Y-87083500D01*
X126921158Y-87083500D01*
X126921155Y-87083500D01*
X126766510Y-87114261D01*
X126766498Y-87114264D01*
X126620827Y-87174602D01*
X126620814Y-87174609D01*
X126489711Y-87262210D01*
X126489707Y-87262213D01*
X126378213Y-87373707D01*
X126378210Y-87373711D01*
X126290609Y-87504814D01*
X126290602Y-87504827D01*
X126230264Y-87650498D01*
X126230261Y-87650510D01*
X126199500Y-87805153D01*
X126199500Y-87962846D01*
X126230261Y-88117489D01*
X126230264Y-88117501D01*
X126290602Y-88263172D01*
X126290609Y-88263185D01*
X126378210Y-88394288D01*
X126378213Y-88394292D01*
X126489707Y-88505786D01*
X126489711Y-88505789D01*
X126620814Y-88593390D01*
X126620827Y-88593397D01*
X126766498Y-88653735D01*
X126766503Y-88653737D01*
X126921153Y-88684499D01*
X126921156Y-88684500D01*
X126921158Y-88684500D01*
X127078844Y-88684500D01*
X127078845Y-88684499D01*
X127233497Y-88653737D01*
X127312969Y-88620819D01*
X127377864Y-88593939D01*
X127425316Y-88584500D01*
X130597482Y-88584500D01*
X130664521Y-88604185D01*
X130710276Y-88656989D01*
X130720220Y-88726147D01*
X130691195Y-88789703D01*
X130685163Y-88796181D01*
X128837414Y-90643928D01*
X128797186Y-90670808D01*
X128652823Y-90730604D01*
X128652814Y-90730609D01*
X128521711Y-90818210D01*
X128521707Y-90818213D01*
X128410213Y-90929707D01*
X128410210Y-90929711D01*
X128322609Y-91060814D01*
X128322602Y-91060827D01*
X128262264Y-91206498D01*
X128262261Y-91206510D01*
X128231500Y-91361153D01*
X128231500Y-91518846D01*
X128262261Y-91673489D01*
X128262264Y-91673501D01*
X128322602Y-91819172D01*
X128322609Y-91819185D01*
X128410210Y-91950288D01*
X128410213Y-91950292D01*
X128521707Y-92061786D01*
X128521711Y-92061789D01*
X128652814Y-92149390D01*
X128652827Y-92149397D01*
X128774288Y-92199707D01*
X128798503Y-92209737D01*
X128953153Y-92240499D01*
X128953156Y-92240500D01*
X128953158Y-92240500D01*
X129110844Y-92240500D01*
X129110845Y-92240499D01*
X129265497Y-92209737D01*
X129411179Y-92149394D01*
X129542289Y-92061789D01*
X129653789Y-91950289D01*
X129741394Y-91819179D01*
X129801193Y-91674809D01*
X129828070Y-91634584D01*
X132841837Y-88620819D01*
X132903160Y-88587334D01*
X132929518Y-88584500D01*
X135196996Y-88584500D01*
X135288040Y-88566389D01*
X135332328Y-88557580D01*
X135421058Y-88520827D01*
X135459807Y-88504777D01*
X135459808Y-88504776D01*
X135459811Y-88504775D01*
X135574543Y-88428114D01*
X137796819Y-86205836D01*
X137858142Y-86172352D01*
X137927834Y-86177336D01*
X137983767Y-86219208D01*
X138008184Y-86284672D01*
X138008500Y-86293518D01*
X138008500Y-90998535D01*
X138034457Y-91129028D01*
X138034459Y-91129036D01*
X138085378Y-91251965D01*
X138085383Y-91251975D01*
X138159304Y-91362605D01*
X138159307Y-91362609D01*
X140699305Y-93902606D01*
X140793394Y-93996695D01*
X140793397Y-93996697D01*
X140793398Y-93996698D01*
X140904020Y-94070613D01*
X140904023Y-94070614D01*
X140904031Y-94070620D01*
X140904037Y-94070622D01*
X140904038Y-94070623D01*
X141026959Y-94121538D01*
X141026964Y-94121540D01*
X141026968Y-94121540D01*
X141026969Y-94121541D01*
X141157466Y-94147500D01*
X141157469Y-94147500D01*
X142814532Y-94147500D01*
X142814533Y-94147499D01*
X142945036Y-94121541D01*
X143067969Y-94070620D01*
X143178606Y-93996695D01*
X144462246Y-92713053D01*
X144523569Y-92679569D01*
X144593260Y-92684553D01*
X144649194Y-92726424D01*
X144673611Y-92791889D01*
X144673927Y-92800735D01*
X144673927Y-92829685D01*
X144704688Y-92984328D01*
X144704691Y-92984340D01*
X144765029Y-93130011D01*
X144765033Y-93130019D01*
X144767418Y-93133587D01*
X144788299Y-93200264D01*
X144778881Y-93249932D01*
X144745943Y-93329454D01*
X144745942Y-93329458D01*
X144745941Y-93329461D01*
X144745940Y-93329462D01*
X144715180Y-93484104D01*
X144715180Y-93641797D01*
X144745941Y-93796440D01*
X144745944Y-93796452D01*
X144806282Y-93942123D01*
X144806289Y-93942136D01*
X144893890Y-94073239D01*
X144893893Y-94073243D01*
X145005387Y-94184737D01*
X145005391Y-94184740D01*
X145136494Y-94272341D01*
X145136507Y-94272348D01*
X145223261Y-94308282D01*
X145282183Y-94332688D01*
X145415392Y-94359185D01*
X145436833Y-94363450D01*
X145436836Y-94363451D01*
X145436838Y-94363451D01*
X145594524Y-94363451D01*
X145703425Y-94341789D01*
X145773017Y-94348016D01*
X145815298Y-94375725D01*
X145859349Y-94419776D01*
X145859353Y-94419779D01*
X145990456Y-94507380D01*
X145990469Y-94507387D01*
X146136140Y-94567725D01*
X146136145Y-94567727D01*
X146290795Y-94598489D01*
X146290798Y-94598490D01*
X146290800Y-94598490D01*
X146448486Y-94598490D01*
X146448487Y-94598489D01*
X146603139Y-94567727D01*
X146748821Y-94507384D01*
X146879931Y-94419779D01*
X146991431Y-94308279D01*
X147079036Y-94177169D01*
X147139379Y-94031487D01*
X147170142Y-93876832D01*
X147170142Y-93790038D01*
X147539138Y-93790038D01*
X147539138Y-93947731D01*
X147569899Y-94102374D01*
X147569902Y-94102386D01*
X147630240Y-94248057D01*
X147630247Y-94248070D01*
X147717848Y-94379173D01*
X147717851Y-94379177D01*
X147829345Y-94490671D01*
X147829349Y-94490674D01*
X147960452Y-94578275D01*
X147960465Y-94578282D01*
X148081006Y-94628211D01*
X148106141Y-94638622D01*
X148260791Y-94669384D01*
X148260794Y-94669385D01*
X148260796Y-94669385D01*
X148418482Y-94669385D01*
X148418483Y-94669384D01*
X148573135Y-94638622D01*
X148718817Y-94578279D01*
X148849927Y-94490674D01*
X148961427Y-94379174D01*
X149049032Y-94248064D01*
X149109375Y-94102382D01*
X149131496Y-93991167D01*
X149140260Y-93974412D01*
X149144280Y-93955934D01*
X149163019Y-93930901D01*
X149163878Y-93929260D01*
X149165370Y-93927741D01*
X149191958Y-93901153D01*
X154139500Y-93901153D01*
X154139500Y-94058846D01*
X154170261Y-94213489D01*
X154170264Y-94213501D01*
X154230602Y-94359172D01*
X154230609Y-94359185D01*
X154318210Y-94490288D01*
X154318213Y-94490292D01*
X154429707Y-94601786D01*
X154429711Y-94601789D01*
X154560814Y-94689390D01*
X154560827Y-94689397D01*
X154682288Y-94739707D01*
X154706503Y-94749737D01*
X154861153Y-94780499D01*
X154861156Y-94780500D01*
X154861158Y-94780500D01*
X155018844Y-94780500D01*
X155018845Y-94780499D01*
X155173497Y-94749737D01*
X155310582Y-94692955D01*
X155319172Y-94689397D01*
X155319172Y-94689396D01*
X155319179Y-94689394D01*
X155450289Y-94601789D01*
X155561789Y-94490289D01*
X155649394Y-94359179D01*
X155709737Y-94213497D01*
X155740500Y-94058842D01*
X155740500Y-93901158D01*
X155740500Y-93901155D01*
X155740499Y-93901153D01*
X156679500Y-93901153D01*
X156679500Y-94058846D01*
X156710261Y-94213489D01*
X156710264Y-94213501D01*
X156770602Y-94359172D01*
X156770609Y-94359185D01*
X156858210Y-94490288D01*
X156858213Y-94490292D01*
X156969707Y-94601786D01*
X156969711Y-94601789D01*
X157100814Y-94689390D01*
X157100827Y-94689397D01*
X157222288Y-94739707D01*
X157246503Y-94749737D01*
X157401153Y-94780499D01*
X157401156Y-94780500D01*
X157401158Y-94780500D01*
X157558844Y-94780500D01*
X157558845Y-94780499D01*
X157713497Y-94749737D01*
X157850582Y-94692955D01*
X157859172Y-94689397D01*
X157859172Y-94689396D01*
X157859179Y-94689394D01*
X157990289Y-94601789D01*
X158101789Y-94490289D01*
X158189394Y-94359179D01*
X158249737Y-94213497D01*
X158280500Y-94058842D01*
X158280500Y-93901158D01*
X158280500Y-93901155D01*
X158280499Y-93901153D01*
X159219500Y-93901153D01*
X159219500Y-94058846D01*
X159250261Y-94213489D01*
X159250264Y-94213501D01*
X159310602Y-94359172D01*
X159310609Y-94359185D01*
X159398210Y-94490288D01*
X159398213Y-94490292D01*
X159509707Y-94601786D01*
X159509711Y-94601789D01*
X159640814Y-94689390D01*
X159640827Y-94689397D01*
X159762288Y-94739707D01*
X159786503Y-94749737D01*
X159941153Y-94780499D01*
X159941156Y-94780500D01*
X159941158Y-94780500D01*
X160098844Y-94780500D01*
X160098845Y-94780499D01*
X160253497Y-94749737D01*
X160390582Y-94692955D01*
X160399172Y-94689397D01*
X160399172Y-94689396D01*
X160399179Y-94689394D01*
X160530289Y-94601789D01*
X160641789Y-94490289D01*
X160729394Y-94359179D01*
X160789737Y-94213497D01*
X160820500Y-94058842D01*
X160820500Y-93901158D01*
X160820500Y-93901155D01*
X160820499Y-93901153D01*
X161759500Y-93901153D01*
X161759500Y-94058846D01*
X161790261Y-94213489D01*
X161790264Y-94213501D01*
X161850602Y-94359172D01*
X161850609Y-94359185D01*
X161938210Y-94490288D01*
X161938213Y-94490292D01*
X162049707Y-94601786D01*
X162049711Y-94601789D01*
X162180814Y-94689390D01*
X162180827Y-94689397D01*
X162302288Y-94739707D01*
X162326503Y-94749737D01*
X162481153Y-94780499D01*
X162481156Y-94780500D01*
X162481158Y-94780500D01*
X162638844Y-94780500D01*
X162638845Y-94780499D01*
X162793497Y-94749737D01*
X162930582Y-94692955D01*
X162939172Y-94689397D01*
X162939172Y-94689396D01*
X162939179Y-94689394D01*
X163070289Y-94601789D01*
X163181789Y-94490289D01*
X163269394Y-94359179D01*
X163329737Y-94213497D01*
X163360500Y-94058842D01*
X163360500Y-93901158D01*
X163360500Y-93901155D01*
X163360499Y-93901153D01*
X164299500Y-93901153D01*
X164299500Y-94058846D01*
X164330261Y-94213489D01*
X164330264Y-94213501D01*
X164390602Y-94359172D01*
X164390609Y-94359185D01*
X164478210Y-94490288D01*
X164478213Y-94490292D01*
X164589707Y-94601786D01*
X164589711Y-94601789D01*
X164720814Y-94689390D01*
X164720827Y-94689397D01*
X164842288Y-94739707D01*
X164866503Y-94749737D01*
X165021153Y-94780499D01*
X165021156Y-94780500D01*
X165021158Y-94780500D01*
X165178844Y-94780500D01*
X165178845Y-94780499D01*
X165333497Y-94749737D01*
X165470582Y-94692955D01*
X165479172Y-94689397D01*
X165479172Y-94689396D01*
X165479179Y-94689394D01*
X165610289Y-94601789D01*
X165721789Y-94490289D01*
X165809394Y-94359179D01*
X165869737Y-94213497D01*
X165900500Y-94058842D01*
X165900500Y-93901158D01*
X165900500Y-93901155D01*
X165900499Y-93901153D01*
X166839500Y-93901153D01*
X166839500Y-94058846D01*
X166870261Y-94213489D01*
X166870264Y-94213501D01*
X166930602Y-94359172D01*
X166930609Y-94359185D01*
X167018210Y-94490288D01*
X167018213Y-94490292D01*
X167129707Y-94601786D01*
X167129711Y-94601789D01*
X167260814Y-94689390D01*
X167260827Y-94689397D01*
X167382288Y-94739707D01*
X167406503Y-94749737D01*
X167561153Y-94780499D01*
X167561156Y-94780500D01*
X167561158Y-94780500D01*
X167718844Y-94780500D01*
X167718845Y-94780499D01*
X167873497Y-94749737D01*
X168010582Y-94692955D01*
X168019172Y-94689397D01*
X168019172Y-94689396D01*
X168019179Y-94689394D01*
X168150289Y-94601789D01*
X168261789Y-94490289D01*
X168349394Y-94359179D01*
X168409737Y-94213497D01*
X168440500Y-94058842D01*
X168440500Y-93901158D01*
X168440500Y-93901155D01*
X168440499Y-93901153D01*
X169379500Y-93901153D01*
X169379500Y-94058846D01*
X169410261Y-94213489D01*
X169410264Y-94213501D01*
X169470602Y-94359172D01*
X169470609Y-94359185D01*
X169558210Y-94490288D01*
X169558213Y-94490292D01*
X169669707Y-94601786D01*
X169669711Y-94601789D01*
X169800814Y-94689390D01*
X169800827Y-94689397D01*
X169922288Y-94739707D01*
X169946503Y-94749737D01*
X170101153Y-94780499D01*
X170101156Y-94780500D01*
X170101158Y-94780500D01*
X170258844Y-94780500D01*
X170258845Y-94780499D01*
X170413497Y-94749737D01*
X170550582Y-94692955D01*
X170559172Y-94689397D01*
X170559172Y-94689396D01*
X170559179Y-94689394D01*
X170690289Y-94601789D01*
X170801789Y-94490289D01*
X170889394Y-94359179D01*
X170949737Y-94213497D01*
X170980500Y-94058842D01*
X170980500Y-93901158D01*
X170980500Y-93901155D01*
X170980499Y-93901153D01*
X171919500Y-93901153D01*
X171919500Y-94058846D01*
X171950261Y-94213489D01*
X171950264Y-94213501D01*
X172010602Y-94359172D01*
X172010609Y-94359185D01*
X172098210Y-94490288D01*
X172098213Y-94490292D01*
X172209707Y-94601786D01*
X172209711Y-94601789D01*
X172340814Y-94689390D01*
X172340827Y-94689397D01*
X172462288Y-94739707D01*
X172486503Y-94749737D01*
X172641153Y-94780499D01*
X172641156Y-94780500D01*
X172641158Y-94780500D01*
X172798844Y-94780500D01*
X172798845Y-94780499D01*
X172953497Y-94749737D01*
X173090582Y-94692955D01*
X173099172Y-94689397D01*
X173099172Y-94689396D01*
X173099179Y-94689394D01*
X173230289Y-94601789D01*
X173341789Y-94490289D01*
X173429394Y-94359179D01*
X173489737Y-94213497D01*
X173520500Y-94058842D01*
X173520500Y-93901158D01*
X173520500Y-93901155D01*
X173520499Y-93901153D01*
X174459500Y-93901153D01*
X174459500Y-94058846D01*
X174490261Y-94213489D01*
X174490264Y-94213501D01*
X174550602Y-94359172D01*
X174550609Y-94359185D01*
X174638210Y-94490288D01*
X174638213Y-94490292D01*
X174749707Y-94601786D01*
X174749711Y-94601789D01*
X174880814Y-94689390D01*
X174880827Y-94689397D01*
X175002288Y-94739707D01*
X175026503Y-94749737D01*
X175181153Y-94780499D01*
X175181156Y-94780500D01*
X175181158Y-94780500D01*
X175338844Y-94780500D01*
X175338845Y-94780499D01*
X175493497Y-94749737D01*
X175630582Y-94692955D01*
X175639172Y-94689397D01*
X175639172Y-94689396D01*
X175639179Y-94689394D01*
X175770289Y-94601789D01*
X175881789Y-94490289D01*
X175969394Y-94359179D01*
X176029737Y-94213497D01*
X176060500Y-94058842D01*
X176060500Y-93901158D01*
X176060500Y-93901155D01*
X176060499Y-93901153D01*
X176040466Y-93800442D01*
X176029737Y-93746503D01*
X176018404Y-93719143D01*
X175969397Y-93600827D01*
X175969390Y-93600814D01*
X175881789Y-93469711D01*
X175881786Y-93469707D01*
X175770292Y-93358213D01*
X175770288Y-93358210D01*
X175639185Y-93270609D01*
X175639172Y-93270602D01*
X175493501Y-93210264D01*
X175493489Y-93210261D01*
X175338845Y-93179500D01*
X175338842Y-93179500D01*
X175181158Y-93179500D01*
X175181155Y-93179500D01*
X175026510Y-93210261D01*
X175026498Y-93210264D01*
X174880827Y-93270602D01*
X174880814Y-93270609D01*
X174749711Y-93358210D01*
X174749707Y-93358213D01*
X174638213Y-93469707D01*
X174638210Y-93469711D01*
X174550609Y-93600814D01*
X174550602Y-93600827D01*
X174490264Y-93746498D01*
X174490261Y-93746510D01*
X174459500Y-93901153D01*
X173520499Y-93901153D01*
X173500466Y-93800442D01*
X173489737Y-93746503D01*
X173478404Y-93719143D01*
X173429397Y-93600827D01*
X173429390Y-93600814D01*
X173341789Y-93469711D01*
X173341786Y-93469707D01*
X173230292Y-93358213D01*
X173230288Y-93358210D01*
X173099185Y-93270609D01*
X173099172Y-93270602D01*
X172953501Y-93210264D01*
X172953489Y-93210261D01*
X172798845Y-93179500D01*
X172798842Y-93179500D01*
X172641158Y-93179500D01*
X172641155Y-93179500D01*
X172486510Y-93210261D01*
X172486498Y-93210264D01*
X172340827Y-93270602D01*
X172340814Y-93270609D01*
X172209711Y-93358210D01*
X172209707Y-93358213D01*
X172098213Y-93469707D01*
X172098210Y-93469711D01*
X172010609Y-93600814D01*
X172010602Y-93600827D01*
X171950264Y-93746498D01*
X171950261Y-93746510D01*
X171919500Y-93901153D01*
X170980499Y-93901153D01*
X170960466Y-93800442D01*
X170949737Y-93746503D01*
X170938404Y-93719143D01*
X170889397Y-93600827D01*
X170889390Y-93600814D01*
X170801789Y-93469711D01*
X170801786Y-93469707D01*
X170690292Y-93358213D01*
X170690288Y-93358210D01*
X170559185Y-93270609D01*
X170559172Y-93270602D01*
X170413501Y-93210264D01*
X170413489Y-93210261D01*
X170258845Y-93179500D01*
X170258842Y-93179500D01*
X170101158Y-93179500D01*
X170101155Y-93179500D01*
X169946510Y-93210261D01*
X169946498Y-93210264D01*
X169800827Y-93270602D01*
X169800814Y-93270609D01*
X169669711Y-93358210D01*
X169669707Y-93358213D01*
X169558213Y-93469707D01*
X169558210Y-93469711D01*
X169470609Y-93600814D01*
X169470602Y-93600827D01*
X169410264Y-93746498D01*
X169410261Y-93746510D01*
X169379500Y-93901153D01*
X168440499Y-93901153D01*
X168420466Y-93800442D01*
X168409737Y-93746503D01*
X168398404Y-93719143D01*
X168349397Y-93600827D01*
X168349390Y-93600814D01*
X168261789Y-93469711D01*
X168261786Y-93469707D01*
X168150292Y-93358213D01*
X168150288Y-93358210D01*
X168019185Y-93270609D01*
X168019172Y-93270602D01*
X167873501Y-93210264D01*
X167873489Y-93210261D01*
X167718845Y-93179500D01*
X167718842Y-93179500D01*
X167561158Y-93179500D01*
X167561155Y-93179500D01*
X167406510Y-93210261D01*
X167406498Y-93210264D01*
X167260827Y-93270602D01*
X167260814Y-93270609D01*
X167129711Y-93358210D01*
X167129707Y-93358213D01*
X167018213Y-93469707D01*
X167018210Y-93469711D01*
X166930609Y-93600814D01*
X166930602Y-93600827D01*
X166870264Y-93746498D01*
X166870261Y-93746510D01*
X166839500Y-93901153D01*
X165900499Y-93901153D01*
X165880466Y-93800442D01*
X165869737Y-93746503D01*
X165858404Y-93719143D01*
X165809397Y-93600827D01*
X165809390Y-93600814D01*
X165721789Y-93469711D01*
X165721786Y-93469707D01*
X165610292Y-93358213D01*
X165610288Y-93358210D01*
X165479185Y-93270609D01*
X165479172Y-93270602D01*
X165333501Y-93210264D01*
X165333489Y-93210261D01*
X165178845Y-93179500D01*
X165178842Y-93179500D01*
X165021158Y-93179500D01*
X165021155Y-93179500D01*
X164866510Y-93210261D01*
X164866498Y-93210264D01*
X164720827Y-93270602D01*
X164720814Y-93270609D01*
X164589711Y-93358210D01*
X164589707Y-93358213D01*
X164478213Y-93469707D01*
X164478210Y-93469711D01*
X164390609Y-93600814D01*
X164390602Y-93600827D01*
X164330264Y-93746498D01*
X164330261Y-93746510D01*
X164299500Y-93901153D01*
X163360499Y-93901153D01*
X163340466Y-93800442D01*
X163329737Y-93746503D01*
X163318404Y-93719143D01*
X163269397Y-93600827D01*
X163269390Y-93600814D01*
X163181789Y-93469711D01*
X163181786Y-93469707D01*
X163070292Y-93358213D01*
X163070288Y-93358210D01*
X162939185Y-93270609D01*
X162939172Y-93270602D01*
X162793501Y-93210264D01*
X162793489Y-93210261D01*
X162638845Y-93179500D01*
X162638842Y-93179500D01*
X162481158Y-93179500D01*
X162481155Y-93179500D01*
X162326510Y-93210261D01*
X162326498Y-93210264D01*
X162180827Y-93270602D01*
X162180814Y-93270609D01*
X162049711Y-93358210D01*
X162049707Y-93358213D01*
X161938213Y-93469707D01*
X161938210Y-93469711D01*
X161850609Y-93600814D01*
X161850602Y-93600827D01*
X161790264Y-93746498D01*
X161790261Y-93746510D01*
X161759500Y-93901153D01*
X160820499Y-93901153D01*
X160800466Y-93800442D01*
X160789737Y-93746503D01*
X160778404Y-93719143D01*
X160729397Y-93600827D01*
X160729390Y-93600814D01*
X160641789Y-93469711D01*
X160641786Y-93469707D01*
X160530292Y-93358213D01*
X160530288Y-93358210D01*
X160399185Y-93270609D01*
X160399172Y-93270602D01*
X160253501Y-93210264D01*
X160253489Y-93210261D01*
X160098845Y-93179500D01*
X160098842Y-93179500D01*
X159941158Y-93179500D01*
X159941155Y-93179500D01*
X159786510Y-93210261D01*
X159786498Y-93210264D01*
X159640827Y-93270602D01*
X159640814Y-93270609D01*
X159509711Y-93358210D01*
X159509707Y-93358213D01*
X159398213Y-93469707D01*
X159398210Y-93469711D01*
X159310609Y-93600814D01*
X159310602Y-93600827D01*
X159250264Y-93746498D01*
X159250261Y-93746510D01*
X159219500Y-93901153D01*
X158280499Y-93901153D01*
X158260466Y-93800442D01*
X158249737Y-93746503D01*
X158238404Y-93719143D01*
X158189397Y-93600827D01*
X158189390Y-93600814D01*
X158101789Y-93469711D01*
X158101786Y-93469707D01*
X157990292Y-93358213D01*
X157990288Y-93358210D01*
X157859185Y-93270609D01*
X157859172Y-93270602D01*
X157713501Y-93210264D01*
X157713489Y-93210261D01*
X157558845Y-93179500D01*
X157558842Y-93179500D01*
X157401158Y-93179500D01*
X157401155Y-93179500D01*
X157246510Y-93210261D01*
X157246498Y-93210264D01*
X157100827Y-93270602D01*
X157100814Y-93270609D01*
X156969711Y-93358210D01*
X156969707Y-93358213D01*
X156858213Y-93469707D01*
X156858210Y-93469711D01*
X156770609Y-93600814D01*
X156770602Y-93600827D01*
X156710264Y-93746498D01*
X156710261Y-93746510D01*
X156679500Y-93901153D01*
X155740499Y-93901153D01*
X155720466Y-93800442D01*
X155709737Y-93746503D01*
X155698404Y-93719143D01*
X155649397Y-93600827D01*
X155649390Y-93600814D01*
X155561789Y-93469711D01*
X155561786Y-93469707D01*
X155450292Y-93358213D01*
X155450288Y-93358210D01*
X155319185Y-93270609D01*
X155319172Y-93270602D01*
X155173501Y-93210264D01*
X155173489Y-93210261D01*
X155018845Y-93179500D01*
X155018842Y-93179500D01*
X154861158Y-93179500D01*
X154861155Y-93179500D01*
X154706510Y-93210261D01*
X154706498Y-93210264D01*
X154560827Y-93270602D01*
X154560814Y-93270609D01*
X154429711Y-93358210D01*
X154429707Y-93358213D01*
X154318213Y-93469707D01*
X154318210Y-93469711D01*
X154230609Y-93600814D01*
X154230602Y-93600827D01*
X154170264Y-93746498D01*
X154170261Y-93746510D01*
X154139500Y-93901153D01*
X149191958Y-93901153D01*
X150345858Y-92747256D01*
X150414312Y-92644808D01*
X150461463Y-92530974D01*
X150485501Y-92410129D01*
X150485501Y-92286916D01*
X150485501Y-92281806D01*
X150485500Y-92281780D01*
X150485500Y-91474350D01*
X150505185Y-91407311D01*
X150506398Y-91405459D01*
X150524869Y-91377815D01*
X150569394Y-91311179D01*
X150629737Y-91165497D01*
X150631238Y-91157953D01*
X151309500Y-91157953D01*
X151309500Y-91315646D01*
X151340261Y-91470289D01*
X151340264Y-91470301D01*
X151400602Y-91615972D01*
X151400609Y-91615985D01*
X151488210Y-91747088D01*
X151488213Y-91747092D01*
X151599707Y-91858586D01*
X151599711Y-91858589D01*
X151730814Y-91946190D01*
X151730827Y-91946197D01*
X151830106Y-91987319D01*
X151876503Y-92006537D01*
X152031153Y-92037299D01*
X152031156Y-92037300D01*
X152031158Y-92037300D01*
X152188844Y-92037300D01*
X152188845Y-92037299D01*
X152343497Y-92006537D01*
X152479172Y-91950339D01*
X152489172Y-91946197D01*
X152489172Y-91946196D01*
X152489179Y-91946194D01*
X152620289Y-91858589D01*
X152731789Y-91747089D01*
X152819394Y-91615979D01*
X152879737Y-91470297D01*
X152910500Y-91315642D01*
X152910500Y-91157958D01*
X152910500Y-91157955D01*
X152910499Y-91157953D01*
X152903163Y-91121075D01*
X152879737Y-91003303D01*
X152877760Y-90998531D01*
X152819397Y-90857627D01*
X152819390Y-90857614D01*
X152731789Y-90726511D01*
X152731786Y-90726507D01*
X152620292Y-90615013D01*
X152620288Y-90615010D01*
X152489185Y-90527409D01*
X152489172Y-90527402D01*
X152343501Y-90467064D01*
X152343489Y-90467061D01*
X152188845Y-90436300D01*
X152188842Y-90436300D01*
X152031158Y-90436300D01*
X152031155Y-90436300D01*
X151876510Y-90467061D01*
X151876498Y-90467064D01*
X151730827Y-90527402D01*
X151730814Y-90527409D01*
X151599711Y-90615010D01*
X151599707Y-90615013D01*
X151488213Y-90726507D01*
X151488210Y-90726511D01*
X151400609Y-90857614D01*
X151400602Y-90857627D01*
X151340264Y-91003298D01*
X151340261Y-91003310D01*
X151309500Y-91157953D01*
X150631238Y-91157953D01*
X150636990Y-91129036D01*
X150637261Y-91127674D01*
X150637261Y-91127673D01*
X150660499Y-91010846D01*
X150660500Y-91010844D01*
X150660500Y-90853155D01*
X150660499Y-90853153D01*
X150653549Y-90818213D01*
X150629737Y-90698503D01*
X150618691Y-90671836D01*
X150569397Y-90552827D01*
X150569390Y-90552814D01*
X150481789Y-90421711D01*
X150481786Y-90421707D01*
X150370292Y-90310213D01*
X150370288Y-90310210D01*
X150239185Y-90222609D01*
X150239172Y-90222602D01*
X150093501Y-90162264D01*
X150093489Y-90162261D01*
X149938845Y-90131500D01*
X149938842Y-90131500D01*
X149781158Y-90131500D01*
X149781155Y-90131500D01*
X149626510Y-90162261D01*
X149626498Y-90162264D01*
X149480827Y-90222602D01*
X149480814Y-90222609D01*
X149349711Y-90310210D01*
X149349707Y-90310213D01*
X149238213Y-90421707D01*
X149238210Y-90421711D01*
X149150609Y-90552814D01*
X149150602Y-90552827D01*
X149090264Y-90698498D01*
X149090261Y-90698510D01*
X149059500Y-90853153D01*
X149059500Y-91010846D01*
X149090261Y-91165489D01*
X149090264Y-91165501D01*
X149150602Y-91311172D01*
X149150609Y-91311184D01*
X149213602Y-91405459D01*
X149234480Y-91472136D01*
X149234500Y-91474350D01*
X149234500Y-92038070D01*
X149214815Y-92105109D01*
X149198181Y-92125751D01*
X148280841Y-93043090D01*
X148219518Y-93076575D01*
X148217352Y-93077026D01*
X148106146Y-93099146D01*
X148106136Y-93099149D01*
X147960465Y-93159487D01*
X147960452Y-93159494D01*
X147829349Y-93247095D01*
X147829345Y-93247098D01*
X147717851Y-93358592D01*
X147717848Y-93358596D01*
X147630247Y-93489699D01*
X147630240Y-93489712D01*
X147569902Y-93635383D01*
X147569899Y-93635395D01*
X147539138Y-93790038D01*
X147170142Y-93790038D01*
X147170142Y-93719148D01*
X147170142Y-93719145D01*
X147170141Y-93719143D01*
X147153480Y-93635383D01*
X147139379Y-93564493D01*
X147108404Y-93489712D01*
X147079039Y-93418817D01*
X147079032Y-93418804D01*
X146991431Y-93287701D01*
X146991428Y-93287697D01*
X146879934Y-93176203D01*
X146879930Y-93176200D01*
X146748827Y-93088599D01*
X146748814Y-93088592D01*
X146603143Y-93028254D01*
X146603131Y-93028251D01*
X146448487Y-92997490D01*
X146448484Y-92997490D01*
X146427876Y-92997490D01*
X146360837Y-92977805D01*
X146315082Y-92925001D01*
X146305138Y-92855843D01*
X146334163Y-92792287D01*
X146340195Y-92785809D01*
X147721128Y-91404876D01*
X151912633Y-87213371D01*
X151912637Y-87213369D01*
X151999762Y-87126244D01*
X152048345Y-87053535D01*
X152068216Y-87023797D01*
X152115367Y-86909962D01*
X152139404Y-86789118D01*
X152139404Y-86665904D01*
X152139404Y-86245113D01*
X152159089Y-86178074D01*
X152160302Y-86176222D01*
X152183766Y-86141106D01*
X152223298Y-86081942D01*
X152226297Y-86074703D01*
X152270535Y-85967901D01*
X152283641Y-85936260D01*
X152314404Y-85781605D01*
X152314404Y-85623921D01*
X152314404Y-85623918D01*
X152314403Y-85623916D01*
X152297767Y-85540283D01*
X152283641Y-85469266D01*
X152249631Y-85387160D01*
X152242163Y-85317691D01*
X152273438Y-85255212D01*
X152333527Y-85219560D01*
X152340002Y-85218091D01*
X152371311Y-85211863D01*
X152477913Y-85190658D01*
X152614495Y-85134084D01*
X152679273Y-85090801D01*
X152737416Y-85051952D01*
X152761004Y-85028363D01*
X152767689Y-85023281D01*
X152792799Y-85013700D01*
X152816384Y-85000822D01*
X152830541Y-84999299D01*
X152832968Y-84998374D01*
X152835064Y-84998813D01*
X152842742Y-84997988D01*
X154126011Y-84997988D01*
X154245154Y-84974288D01*
X154271004Y-84969146D01*
X154352138Y-84935538D01*
X154399591Y-84926100D01*
X157717742Y-84926100D01*
X157784781Y-84945785D01*
X157830536Y-84998589D01*
X157840480Y-85067747D01*
X157820844Y-85118991D01*
X157755428Y-85216891D01*
X157755421Y-85216904D01*
X157695083Y-85362575D01*
X157695080Y-85362587D01*
X157664319Y-85517230D01*
X157664319Y-85654225D01*
X157644634Y-85721264D01*
X157618985Y-85750077D01*
X157614852Y-85753468D01*
X157503355Y-85864965D01*
X157503352Y-85864969D01*
X157415751Y-85996072D01*
X157415744Y-85996085D01*
X157355406Y-86141756D01*
X157355403Y-86141768D01*
X157324642Y-86296411D01*
X157324642Y-86454104D01*
X157355403Y-86608747D01*
X157355406Y-86608759D01*
X157415744Y-86754430D01*
X157415751Y-86754443D01*
X157503352Y-86885546D01*
X157503355Y-86885550D01*
X157614849Y-86997044D01*
X157614853Y-86997047D01*
X157745956Y-87084648D01*
X157745969Y-87084655D01*
X157891640Y-87144993D01*
X157891645Y-87144995D01*
X158040509Y-87174606D01*
X158046295Y-87175757D01*
X158046298Y-87175758D01*
X158046300Y-87175758D01*
X158203986Y-87175758D01*
X158203987Y-87175757D01*
X158358639Y-87144995D01*
X158504321Y-87084652D01*
X158635431Y-86997047D01*
X158746931Y-86885547D01*
X158834536Y-86754437D01*
X158894879Y-86608755D01*
X158925642Y-86454100D01*
X158925642Y-86317109D01*
X158945327Y-86250070D01*
X158970977Y-86221256D01*
X158975100Y-86217870D01*
X158975108Y-86217866D01*
X159086608Y-86106366D01*
X159174213Y-85975256D01*
X159177265Y-85967889D01*
X159193301Y-85929172D01*
X159234556Y-85829574D01*
X159265319Y-85674919D01*
X159265319Y-85517235D01*
X159265319Y-85517232D01*
X159264722Y-85511170D01*
X159266356Y-85511009D01*
X159271871Y-85449314D01*
X159299584Y-85407022D01*
X159393073Y-85313534D01*
X159480678Y-85182424D01*
X159541021Y-85036742D01*
X159571784Y-84882087D01*
X159571784Y-84744500D01*
X159591469Y-84677461D01*
X159644273Y-84631706D01*
X159686521Y-84622514D01*
X159686382Y-84621097D01*
X159692436Y-84620500D01*
X159692442Y-84620500D01*
X159847097Y-84589737D01*
X159891963Y-84571153D01*
X165849500Y-84571153D01*
X165849500Y-84728846D01*
X165880261Y-84883489D01*
X165880264Y-84883501D01*
X165940602Y-85029172D01*
X165940609Y-85029185D01*
X166028210Y-85160288D01*
X166028213Y-85160292D01*
X166139707Y-85271786D01*
X166139711Y-85271789D01*
X166270814Y-85359390D01*
X166270827Y-85359397D01*
X166385801Y-85407020D01*
X166416503Y-85419737D01*
X166545705Y-85445437D01*
X166571153Y-85450499D01*
X166571156Y-85450500D01*
X166571158Y-85450500D01*
X166728844Y-85450500D01*
X166728845Y-85450499D01*
X166883497Y-85419737D01*
X166996166Y-85373067D01*
X167029172Y-85359397D01*
X167029172Y-85359396D01*
X167029179Y-85359394D01*
X167160289Y-85271789D01*
X167271789Y-85160289D01*
X167359394Y-85029179D01*
X167363728Y-85018717D01*
X167393937Y-84945785D01*
X167419737Y-84883497D01*
X167450500Y-84728842D01*
X167450500Y-84571158D01*
X167450500Y-84571155D01*
X167450499Y-84571153D01*
X167442193Y-84529397D01*
X167419737Y-84416503D01*
X167384028Y-84330292D01*
X167359397Y-84270827D01*
X167359390Y-84270814D01*
X167271789Y-84139711D01*
X167271786Y-84139707D01*
X167160292Y-84028213D01*
X167160288Y-84028210D01*
X167029185Y-83940609D01*
X167029172Y-83940602D01*
X166883501Y-83880264D01*
X166883489Y-83880261D01*
X166728845Y-83849500D01*
X166728842Y-83849500D01*
X166571158Y-83849500D01*
X166571155Y-83849500D01*
X166416510Y-83880261D01*
X166416498Y-83880264D01*
X166270827Y-83940602D01*
X166270814Y-83940609D01*
X166139711Y-84028210D01*
X166139707Y-84028213D01*
X166028213Y-84139707D01*
X166028210Y-84139711D01*
X165940609Y-84270814D01*
X165940602Y-84270827D01*
X165880264Y-84416498D01*
X165880261Y-84416510D01*
X165849500Y-84571153D01*
X159891963Y-84571153D01*
X159992779Y-84529394D01*
X160023608Y-84508795D01*
X160093696Y-84461964D01*
X160108694Y-84451941D01*
X160123889Y-84441789D01*
X160235389Y-84330289D01*
X160322994Y-84199179D01*
X160383337Y-84053497D01*
X160414100Y-83898842D01*
X160414100Y-83741158D01*
X160414100Y-83741155D01*
X160414099Y-83741153D01*
X160383338Y-83586510D01*
X160383337Y-83586503D01*
X160363972Y-83539752D01*
X160322997Y-83440827D01*
X160322990Y-83440814D01*
X160309998Y-83421370D01*
X160289120Y-83354692D01*
X160289100Y-83352479D01*
X160289100Y-82493697D01*
X160308785Y-82426658D01*
X160361589Y-82380903D01*
X160430747Y-82370959D01*
X160494303Y-82399984D01*
X160500781Y-82406016D01*
X160744130Y-82649365D01*
X160851280Y-82756515D01*
X160982510Y-82832281D01*
X161128878Y-82871500D01*
X161128879Y-82871500D01*
X162663259Y-82871500D01*
X162730298Y-82891185D01*
X162750940Y-82907819D01*
X162760907Y-82917786D01*
X162760911Y-82917789D01*
X162892014Y-83005390D01*
X162892027Y-83005397D01*
X163037698Y-83065735D01*
X163037703Y-83065737D01*
X163192353Y-83096499D01*
X163192356Y-83096500D01*
X163192358Y-83096500D01*
X163350044Y-83096500D01*
X163350045Y-83096499D01*
X163504697Y-83065737D01*
X163559804Y-83042910D01*
X163601588Y-83025604D01*
X163671057Y-83018135D01*
X163733536Y-83049410D01*
X163752143Y-83071275D01*
X163778212Y-83110291D01*
X163889707Y-83221786D01*
X163889711Y-83221789D01*
X164020814Y-83309390D01*
X164020827Y-83309397D01*
X164163869Y-83368646D01*
X164166503Y-83369737D01*
X164304603Y-83397207D01*
X164321153Y-83400499D01*
X164321156Y-83400500D01*
X164321158Y-83400500D01*
X164478844Y-83400500D01*
X164478845Y-83400499D01*
X164633497Y-83369737D01*
X164779179Y-83309394D01*
X164910289Y-83221789D01*
X165021789Y-83110289D01*
X165109394Y-82979179D01*
X165110358Y-82976853D01*
X165169735Y-82833501D01*
X165169737Y-82833497D01*
X165200500Y-82678842D01*
X165200500Y-82521158D01*
X165200500Y-82521155D01*
X165200499Y-82521153D01*
X165193086Y-82483886D01*
X165169737Y-82366503D01*
X165153582Y-82327500D01*
X165109397Y-82220827D01*
X165109390Y-82220814D01*
X165021789Y-82089711D01*
X165021786Y-82089707D01*
X164910292Y-81978213D01*
X164910288Y-81978210D01*
X164779185Y-81890609D01*
X164779172Y-81890602D01*
X164633501Y-81830264D01*
X164633489Y-81830261D01*
X164478845Y-81799500D01*
X164478842Y-81799500D01*
X164321158Y-81799500D01*
X164321155Y-81799500D01*
X164166510Y-81830261D01*
X164166503Y-81830263D01*
X164069611Y-81870396D01*
X164000142Y-81877864D01*
X163937663Y-81846588D01*
X163919058Y-81824725D01*
X163892989Y-81785711D01*
X163892986Y-81785707D01*
X163781492Y-81674213D01*
X163781488Y-81674210D01*
X163650385Y-81586609D01*
X163650372Y-81586602D01*
X163504701Y-81526264D01*
X163504689Y-81526261D01*
X163350045Y-81495500D01*
X163350042Y-81495500D01*
X163192358Y-81495500D01*
X163192355Y-81495500D01*
X163037710Y-81526261D01*
X163037698Y-81526264D01*
X162892027Y-81586602D01*
X162892014Y-81586609D01*
X162760911Y-81674210D01*
X162760907Y-81674213D01*
X162750940Y-81684181D01*
X162689617Y-81717666D01*
X162663259Y-81720500D01*
X161494387Y-81720500D01*
X161427348Y-81700815D01*
X161406706Y-81684181D01*
X158242612Y-78520087D01*
X161893476Y-78520087D01*
X161893476Y-78677780D01*
X161924237Y-78832423D01*
X161924240Y-78832435D01*
X161984578Y-78978106D01*
X161984585Y-78978119D01*
X162072186Y-79109222D01*
X162072189Y-79109226D01*
X162183683Y-79220720D01*
X162183687Y-79220723D01*
X162314790Y-79308324D01*
X162314803Y-79308331D01*
X162460474Y-79368669D01*
X162460479Y-79368671D01*
X162609629Y-79398339D01*
X162615129Y-79399433D01*
X162615132Y-79399434D01*
X162615134Y-79399434D01*
X162772820Y-79399434D01*
X162772821Y-79399433D01*
X162927473Y-79368671D01*
X163073155Y-79308328D01*
X163204265Y-79220723D01*
X163315765Y-79109223D01*
X163403370Y-78978113D01*
X163463713Y-78832431D01*
X163494476Y-78677776D01*
X163494476Y-78524834D01*
X163514161Y-78457795D01*
X163566965Y-78412040D01*
X163636123Y-78402096D01*
X163687367Y-78421731D01*
X163704821Y-78433394D01*
X163704823Y-78433395D01*
X163704827Y-78433397D01*
X163850498Y-78493735D01*
X163850503Y-78493737D01*
X163969052Y-78517318D01*
X164005153Y-78524499D01*
X164005156Y-78524500D01*
X164005158Y-78524500D01*
X164162844Y-78524500D01*
X164162845Y-78524499D01*
X164317497Y-78493737D01*
X164463179Y-78433394D01*
X164594289Y-78345789D01*
X164705789Y-78234289D01*
X164793394Y-78103179D01*
X164853737Y-77957497D01*
X164869048Y-77880520D01*
X164881747Y-77816685D01*
X167932646Y-77816685D01*
X167932646Y-77974378D01*
X167963407Y-78129021D01*
X167963410Y-78129033D01*
X168023748Y-78274704D01*
X168023755Y-78274717D01*
X168111356Y-78405820D01*
X168111359Y-78405824D01*
X168222853Y-78517318D01*
X168222857Y-78517321D01*
X168353960Y-78604922D01*
X168353973Y-78604929D01*
X168470072Y-78653018D01*
X168499649Y-78665269D01*
X168654299Y-78696031D01*
X168654302Y-78696032D01*
X168654304Y-78696032D01*
X168811990Y-78696032D01*
X168811991Y-78696031D01*
X168966643Y-78665269D01*
X168996220Y-78653017D01*
X169065688Y-78645548D01*
X169128167Y-78676822D01*
X169163821Y-78736910D01*
X169165291Y-78791768D01*
X169149500Y-78871158D01*
X169149500Y-79028846D01*
X169180261Y-79183489D01*
X169180264Y-79183501D01*
X169240602Y-79329172D01*
X169240609Y-79329185D01*
X169328210Y-79460288D01*
X169328213Y-79460292D01*
X169439707Y-79571786D01*
X169439711Y-79571789D01*
X169570814Y-79659390D01*
X169570827Y-79659397D01*
X169658230Y-79695599D01*
X169716503Y-79719737D01*
X169827716Y-79741858D01*
X169889623Y-79774241D01*
X169891203Y-79775793D01*
X170138181Y-80022771D01*
X170171666Y-80084094D01*
X170174500Y-80110452D01*
X170174500Y-85007650D01*
X170154815Y-85074689D01*
X170153626Y-85076503D01*
X170142671Y-85092900D01*
X170090609Y-85170815D01*
X170090602Y-85170828D01*
X170030264Y-85316498D01*
X170030261Y-85316510D01*
X169999500Y-85471153D01*
X169999500Y-85628846D01*
X170030261Y-85783489D01*
X170030264Y-85783501D01*
X170090602Y-85929172D01*
X170090609Y-85929185D01*
X170178210Y-86060288D01*
X170178213Y-86060292D01*
X170289707Y-86171786D01*
X170289711Y-86171789D01*
X170420814Y-86259390D01*
X170420827Y-86259397D01*
X170546472Y-86311440D01*
X170566503Y-86319737D01*
X170721153Y-86350499D01*
X170721156Y-86350500D01*
X170721158Y-86350500D01*
X170878844Y-86350500D01*
X170878845Y-86350499D01*
X171033497Y-86319737D01*
X171179179Y-86259394D01*
X171310289Y-86171789D01*
X171421789Y-86060289D01*
X171509394Y-85929179D01*
X171569737Y-85783497D01*
X171572192Y-85771153D01*
X172099500Y-85771153D01*
X172099500Y-85928846D01*
X172130261Y-86083489D01*
X172130264Y-86083501D01*
X172190602Y-86229172D01*
X172190609Y-86229185D01*
X172278210Y-86360288D01*
X172278213Y-86360292D01*
X172389707Y-86471786D01*
X172389711Y-86471789D01*
X172520814Y-86559390D01*
X172520827Y-86559397D01*
X172659108Y-86616674D01*
X172666503Y-86619737D01*
X172802145Y-86646718D01*
X172821153Y-86650499D01*
X172821156Y-86650500D01*
X172821158Y-86650500D01*
X172978844Y-86650500D01*
X172978845Y-86650499D01*
X173133497Y-86619737D01*
X173227550Y-86580778D01*
X173297016Y-86573310D01*
X173322443Y-86580775D01*
X173416503Y-86619737D01*
X173552145Y-86646718D01*
X173571153Y-86650499D01*
X173571156Y-86650500D01*
X173571158Y-86650500D01*
X173728844Y-86650500D01*
X173728845Y-86650499D01*
X173883497Y-86619737D01*
X174000194Y-86571400D01*
X174029172Y-86559397D01*
X174029172Y-86559396D01*
X174029179Y-86559394D01*
X174160289Y-86471789D01*
X174271789Y-86360289D01*
X174359394Y-86229179D01*
X174368375Y-86207498D01*
X174382932Y-86172352D01*
X174419737Y-86083497D01*
X174450500Y-85928842D01*
X174450500Y-85771158D01*
X174450500Y-85771155D01*
X174450499Y-85771153D01*
X174437039Y-85703484D01*
X174419737Y-85616503D01*
X174417380Y-85610812D01*
X174359397Y-85470827D01*
X174359390Y-85470814D01*
X174271789Y-85339711D01*
X174271786Y-85339707D01*
X174160292Y-85228213D01*
X174160288Y-85228210D01*
X174029185Y-85140609D01*
X174029172Y-85140602D01*
X173883501Y-85080264D01*
X173883489Y-85080261D01*
X173728845Y-85049500D01*
X173728842Y-85049500D01*
X173571158Y-85049500D01*
X173571155Y-85049500D01*
X173416510Y-85080261D01*
X173416498Y-85080264D01*
X173322452Y-85119219D01*
X173252982Y-85126688D01*
X173227548Y-85119219D01*
X173133501Y-85080264D01*
X173133489Y-85080261D01*
X172978845Y-85049500D01*
X172978842Y-85049500D01*
X172821158Y-85049500D01*
X172821155Y-85049500D01*
X172666510Y-85080261D01*
X172666498Y-85080264D01*
X172520827Y-85140602D01*
X172520814Y-85140609D01*
X172389711Y-85228210D01*
X172389707Y-85228213D01*
X172278213Y-85339707D01*
X172278210Y-85339711D01*
X172190609Y-85470814D01*
X172190602Y-85470827D01*
X172130264Y-85616498D01*
X172130261Y-85616510D01*
X172099500Y-85771153D01*
X171572192Y-85771153D01*
X171575710Y-85753469D01*
X171578216Y-85740874D01*
X171578216Y-85740873D01*
X171600499Y-85628846D01*
X171600500Y-85628844D01*
X171600500Y-85471155D01*
X171600499Y-85471153D01*
X171583792Y-85387161D01*
X171569737Y-85316503D01*
X171569735Y-85316498D01*
X171509397Y-85170828D01*
X171509396Y-85170827D01*
X171509394Y-85170821D01*
X171446397Y-85076539D01*
X171425520Y-85009863D01*
X171425500Y-85007650D01*
X171425500Y-80509135D01*
X177338500Y-80509135D01*
X177338500Y-82304870D01*
X177338501Y-82304876D01*
X177344908Y-82364483D01*
X177395202Y-82499328D01*
X177395206Y-82499335D01*
X177481452Y-82614544D01*
X177481455Y-82614547D01*
X177596664Y-82700793D01*
X177596671Y-82700797D01*
X177731517Y-82751091D01*
X177731516Y-82751091D01*
X177738444Y-82751835D01*
X177791127Y-82757500D01*
X179586872Y-82757499D01*
X179646483Y-82751091D01*
X179781331Y-82700796D01*
X179896546Y-82614546D01*
X179982796Y-82499331D01*
X180033091Y-82364483D01*
X180039500Y-82304873D01*
X180039499Y-80509128D01*
X180033091Y-80449517D01*
X179982796Y-80314669D01*
X179982795Y-80314668D01*
X179982793Y-80314664D01*
X179896547Y-80199455D01*
X179896544Y-80199452D01*
X179781335Y-80113206D01*
X179781328Y-80113202D01*
X179646482Y-80062908D01*
X179646483Y-80062908D01*
X179586883Y-80056501D01*
X179586881Y-80056500D01*
X179586873Y-80056500D01*
X179586864Y-80056500D01*
X177791129Y-80056500D01*
X177791123Y-80056501D01*
X177731516Y-80062908D01*
X177596671Y-80113202D01*
X177596664Y-80113206D01*
X177481455Y-80199452D01*
X177481452Y-80199455D01*
X177395206Y-80314664D01*
X177395202Y-80314671D01*
X177344908Y-80449517D01*
X177338501Y-80509116D01*
X177338501Y-80509123D01*
X177338500Y-80509135D01*
X171425500Y-80509135D01*
X171425500Y-79867741D01*
X171425501Y-79867720D01*
X171425501Y-79738391D01*
X171401464Y-79617555D01*
X171401463Y-79617549D01*
X171354312Y-79503715D01*
X171285858Y-79401267D01*
X171285855Y-79401263D01*
X170775793Y-78891203D01*
X170742308Y-78829880D01*
X170741887Y-78827864D01*
X170719737Y-78716503D01*
X170673519Y-78604922D01*
X170659397Y-78570827D01*
X170659390Y-78570814D01*
X170571789Y-78439711D01*
X170571786Y-78439707D01*
X170460292Y-78328213D01*
X170460288Y-78328210D01*
X170329185Y-78240609D01*
X170329172Y-78240602D01*
X170183501Y-78180264D01*
X170183489Y-78180261D01*
X170028845Y-78149500D01*
X170028842Y-78149500D01*
X169871158Y-78149500D01*
X169871155Y-78149500D01*
X169716510Y-78180261D01*
X169716502Y-78180263D01*
X169686923Y-78192515D01*
X169617453Y-78199982D01*
X169554974Y-78168706D01*
X169519323Y-78108617D01*
X169517855Y-78053761D01*
X169533646Y-77974376D01*
X169533646Y-77816687D01*
X169533645Y-77816685D01*
X169512785Y-77711817D01*
X169502883Y-77662035D01*
X169491421Y-77634362D01*
X169442543Y-77516359D01*
X169442536Y-77516346D01*
X169354935Y-77385243D01*
X169354932Y-77385239D01*
X169243438Y-77273745D01*
X169243434Y-77273742D01*
X169112331Y-77186141D01*
X169112318Y-77186134D01*
X168966647Y-77125796D01*
X168966635Y-77125793D01*
X168811991Y-77095032D01*
X168811988Y-77095032D01*
X168654304Y-77095032D01*
X168654301Y-77095032D01*
X168499656Y-77125793D01*
X168499644Y-77125796D01*
X168353973Y-77186134D01*
X168353960Y-77186141D01*
X168222857Y-77273742D01*
X168222853Y-77273745D01*
X168111359Y-77385239D01*
X168111356Y-77385243D01*
X168023755Y-77516346D01*
X168023748Y-77516359D01*
X167963410Y-77662030D01*
X167963407Y-77662042D01*
X167932646Y-77816685D01*
X164881747Y-77816685D01*
X164884500Y-77802845D01*
X164884500Y-77645155D01*
X164884499Y-77645153D01*
X164882573Y-77635469D01*
X164853737Y-77490503D01*
X164823456Y-77417397D01*
X164793397Y-77344827D01*
X164793390Y-77344814D01*
X164705789Y-77213711D01*
X164705786Y-77213707D01*
X164594292Y-77102213D01*
X164594288Y-77102210D01*
X164463185Y-77014609D01*
X164463172Y-77014602D01*
X164317501Y-76954264D01*
X164317489Y-76954261D01*
X164162845Y-76923500D01*
X164162842Y-76923500D01*
X164005158Y-76923500D01*
X164005155Y-76923500D01*
X163850510Y-76954261D01*
X163850498Y-76954264D01*
X163704827Y-77014602D01*
X163704814Y-77014609D01*
X163573711Y-77102210D01*
X163573707Y-77102213D01*
X163462213Y-77213707D01*
X163462210Y-77213711D01*
X163374609Y-77344814D01*
X163374602Y-77344827D01*
X163314264Y-77490498D01*
X163314261Y-77490510D01*
X163283500Y-77645153D01*
X163283500Y-77798099D01*
X163263815Y-77865138D01*
X163211011Y-77910893D01*
X163141853Y-77920837D01*
X163090612Y-77901203D01*
X163073162Y-77889544D01*
X163073148Y-77889536D01*
X162927477Y-77829198D01*
X162927465Y-77829195D01*
X162772821Y-77798434D01*
X162772818Y-77798434D01*
X162615134Y-77798434D01*
X162615131Y-77798434D01*
X162460486Y-77829195D01*
X162460474Y-77829198D01*
X162314803Y-77889536D01*
X162314790Y-77889543D01*
X162183687Y-77977144D01*
X162183683Y-77977147D01*
X162072189Y-78088641D01*
X162072186Y-78088645D01*
X161984585Y-78219748D01*
X161984578Y-78219761D01*
X161924240Y-78365432D01*
X161924237Y-78365444D01*
X161893476Y-78520087D01*
X158242612Y-78520087D01*
X156808264Y-77085739D01*
X156774779Y-77024416D01*
X156771945Y-76998058D01*
X156771945Y-76983955D01*
X156771944Y-76983953D01*
X156758034Y-76914025D01*
X156741182Y-76829303D01*
X156710810Y-76755978D01*
X156680842Y-76683627D01*
X156680835Y-76683614D01*
X156593234Y-76552511D01*
X156593231Y-76552507D01*
X156481737Y-76441013D01*
X156481733Y-76441010D01*
X156350630Y-76353409D01*
X156350617Y-76353402D01*
X156204946Y-76293064D01*
X156204934Y-76293061D01*
X156050290Y-76262300D01*
X156050287Y-76262300D01*
X155892603Y-76262300D01*
X155892600Y-76262300D01*
X155737955Y-76293061D01*
X155737943Y-76293064D01*
X155592272Y-76353402D01*
X155592259Y-76353409D01*
X155461156Y-76441010D01*
X155461152Y-76441013D01*
X155349658Y-76552507D01*
X155349653Y-76552513D01*
X155305005Y-76619333D01*
X155251393Y-76664137D01*
X155182067Y-76672844D01*
X155119040Y-76642689D01*
X155114223Y-76638122D01*
X154635819Y-76159718D01*
X154602334Y-76098395D01*
X154599500Y-76072037D01*
X154599500Y-74089153D01*
X159727500Y-74089153D01*
X159727500Y-74246846D01*
X159758261Y-74401489D01*
X159758264Y-74401501D01*
X159818602Y-74547172D01*
X159818609Y-74547185D01*
X159906210Y-74678288D01*
X159906213Y-74678292D01*
X160017707Y-74789786D01*
X160017715Y-74789792D01*
X160073246Y-74826897D01*
X160118052Y-74880509D01*
X160126759Y-74949834D01*
X160096605Y-75012861D01*
X160073249Y-75033100D01*
X160017709Y-75070211D01*
X159906213Y-75181707D01*
X159906210Y-75181711D01*
X159818609Y-75312814D01*
X159818602Y-75312827D01*
X159758264Y-75458498D01*
X159758261Y-75458510D01*
X159727500Y-75613153D01*
X159727500Y-75770846D01*
X159758261Y-75925489D01*
X159758264Y-75925501D01*
X159818602Y-76071172D01*
X159818609Y-76071185D01*
X159906210Y-76202288D01*
X159906213Y-76202292D01*
X160017707Y-76313786D01*
X160017711Y-76313789D01*
X160148814Y-76401390D01*
X160148827Y-76401397D01*
X160244470Y-76441013D01*
X160294503Y-76461737D01*
X160449153Y-76492499D01*
X160449156Y-76492500D01*
X160449158Y-76492500D01*
X160606844Y-76492500D01*
X160606845Y-76492499D01*
X160761497Y-76461737D01*
X160907179Y-76401394D01*
X161038289Y-76313789D01*
X161149789Y-76202289D01*
X161179574Y-76157711D01*
X161233185Y-76112906D01*
X161282677Y-76102601D01*
X161427895Y-76102601D01*
X161427896Y-76102600D01*
X161582548Y-76071838D01*
X161728230Y-76011495D01*
X161859340Y-75923890D01*
X161970840Y-75812390D01*
X162058445Y-75681280D01*
X162118788Y-75535598D01*
X162149551Y-75380943D01*
X162149551Y-75223259D01*
X162149551Y-75223256D01*
X162124284Y-75096234D01*
X162130511Y-75026642D01*
X162173374Y-74971465D01*
X162221707Y-74950425D01*
X162285497Y-74937737D01*
X162431179Y-74877394D01*
X162562289Y-74789789D01*
X162673789Y-74678289D01*
X162761394Y-74547179D01*
X162821737Y-74401497D01*
X162852500Y-74246842D01*
X162852500Y-74089158D01*
X162852500Y-74089155D01*
X162836883Y-74010645D01*
X162843110Y-73941053D01*
X162885973Y-73885876D01*
X162951863Y-73862631D01*
X163019860Y-73878699D01*
X163046181Y-73898772D01*
X163138195Y-73990786D01*
X163138199Y-73990789D01*
X163269302Y-74078390D01*
X163269315Y-74078397D01*
X163356718Y-74114599D01*
X163414991Y-74138737D01*
X163489680Y-74153593D01*
X163551588Y-74185977D01*
X163586162Y-74246693D01*
X163582423Y-74316462D01*
X163580048Y-74322662D01*
X163539137Y-74421431D01*
X163539136Y-74421434D01*
X163539136Y-74421435D01*
X163539135Y-74421438D01*
X163508374Y-74576081D01*
X163508374Y-74733774D01*
X163539135Y-74888417D01*
X163539138Y-74888429D01*
X163599476Y-75034100D01*
X163599483Y-75034113D01*
X163687084Y-75165216D01*
X163687087Y-75165220D01*
X163798581Y-75276714D01*
X163798585Y-75276717D01*
X163929688Y-75364318D01*
X163929701Y-75364325D01*
X164075372Y-75424663D01*
X164075377Y-75424665D01*
X164204247Y-75450299D01*
X164230027Y-75455427D01*
X164230030Y-75455428D01*
X164230032Y-75455428D01*
X164387718Y-75455428D01*
X164387719Y-75455427D01*
X164542371Y-75424665D01*
X164655040Y-75377995D01*
X164688046Y-75364325D01*
X164688046Y-75364324D01*
X164688053Y-75364322D01*
X164819163Y-75276717D01*
X164930663Y-75165217D01*
X165018268Y-75034107D01*
X165078611Y-74888425D01*
X165109374Y-74733770D01*
X165109374Y-74576086D01*
X165109374Y-74576083D01*
X165109373Y-74576081D01*
X165099995Y-74528935D01*
X165078611Y-74421431D01*
X165026999Y-74296827D01*
X165018271Y-74275755D01*
X165018264Y-74275742D01*
X164930663Y-74144639D01*
X164930660Y-74144635D01*
X164819166Y-74033141D01*
X164819162Y-74033138D01*
X164688059Y-73945537D01*
X164688046Y-73945530D01*
X164542375Y-73885192D01*
X164542365Y-73885189D01*
X164467683Y-73870334D01*
X164405772Y-73837949D01*
X164371198Y-73777233D01*
X164374938Y-73707464D01*
X164377305Y-73701285D01*
X164418225Y-73602497D01*
X164448988Y-73447842D01*
X164448988Y-73290158D01*
X164448988Y-73290155D01*
X164448987Y-73290153D01*
X164431971Y-73204609D01*
X164418225Y-73135503D01*
X164375659Y-73032738D01*
X164357885Y-72989827D01*
X164357878Y-72989814D01*
X164270277Y-72858711D01*
X164270274Y-72858707D01*
X164158780Y-72747213D01*
X164158776Y-72747210D01*
X164027673Y-72659609D01*
X164027660Y-72659602D01*
X163881989Y-72599264D01*
X163881977Y-72599261D01*
X163727333Y-72568500D01*
X163727330Y-72568500D01*
X163569646Y-72568500D01*
X163569643Y-72568500D01*
X163414998Y-72599261D01*
X163414986Y-72599264D01*
X163269315Y-72659602D01*
X163269302Y-72659609D01*
X163138199Y-72747210D01*
X163138195Y-72747213D01*
X163026701Y-72858707D01*
X163026698Y-72858711D01*
X162939097Y-72989814D01*
X162939090Y-72989827D01*
X162878752Y-73135498D01*
X162878749Y-73135510D01*
X162847988Y-73290153D01*
X162847988Y-73290158D01*
X162847988Y-73447842D01*
X162847989Y-73447846D01*
X162863605Y-73526356D01*
X162857377Y-73595947D01*
X162814513Y-73651124D01*
X162748623Y-73674368D01*
X162680626Y-73658300D01*
X162654306Y-73638227D01*
X162562292Y-73546213D01*
X162562288Y-73546210D01*
X162431185Y-73458609D01*
X162431172Y-73458602D01*
X162285501Y-73398264D01*
X162285489Y-73398261D01*
X162130845Y-73367500D01*
X162130842Y-73367500D01*
X161973158Y-73367500D01*
X161973155Y-73367500D01*
X161818510Y-73398261D01*
X161818498Y-73398264D01*
X161672827Y-73458602D01*
X161672814Y-73458609D01*
X161541711Y-73546210D01*
X161541707Y-73546213D01*
X161430211Y-73657709D01*
X161393100Y-73713249D01*
X161339487Y-73758053D01*
X161270162Y-73766759D01*
X161207135Y-73736603D01*
X161186897Y-73713246D01*
X161149792Y-73657715D01*
X161149786Y-73657707D01*
X161038292Y-73546213D01*
X161038288Y-73546210D01*
X160907185Y-73458609D01*
X160907172Y-73458602D01*
X160761501Y-73398264D01*
X160761489Y-73398261D01*
X160606845Y-73367500D01*
X160606842Y-73367500D01*
X160449158Y-73367500D01*
X160449155Y-73367500D01*
X160294510Y-73398261D01*
X160294498Y-73398264D01*
X160148827Y-73458602D01*
X160148814Y-73458609D01*
X160017711Y-73546210D01*
X160017707Y-73546213D01*
X159906213Y-73657707D01*
X159906210Y-73657711D01*
X159818609Y-73788814D01*
X159818602Y-73788827D01*
X159758264Y-73934498D01*
X159758261Y-73934510D01*
X159727500Y-74089153D01*
X154599500Y-74089153D01*
X154599500Y-74050666D01*
X154573541Y-73920169D01*
X154573540Y-73920168D01*
X154573540Y-73920164D01*
X154571208Y-73914534D01*
X154522623Y-73797238D01*
X154522622Y-73797237D01*
X154522620Y-73797231D01*
X154502259Y-73766759D01*
X154448698Y-73686598D01*
X154448692Y-73686590D01*
X154354609Y-73592507D01*
X154354601Y-73592501D01*
X154243979Y-73518586D01*
X154243972Y-73518582D01*
X154243969Y-73518580D01*
X154243965Y-73518578D01*
X154243961Y-73518576D01*
X154121040Y-73467661D01*
X154121030Y-73467658D01*
X153990533Y-73441700D01*
X153990531Y-73441700D01*
X150434531Y-73441700D01*
X150301469Y-73441700D01*
X150301467Y-73441700D01*
X150170969Y-73467658D01*
X150170959Y-73467661D01*
X150048038Y-73518576D01*
X150048020Y-73518586D01*
X149937398Y-73592501D01*
X149937390Y-73592507D01*
X148776507Y-74753390D01*
X148776504Y-74753394D01*
X148702583Y-74864024D01*
X148702578Y-74864034D01*
X148651659Y-74986963D01*
X148651657Y-74986971D01*
X148631031Y-75090668D01*
X148631031Y-75090671D01*
X148625700Y-75117469D01*
X148625700Y-76963900D01*
X148606015Y-77030939D01*
X148553211Y-77076694D01*
X148501700Y-77087900D01*
X148497355Y-77087900D01*
X148342710Y-77118661D01*
X148342698Y-77118664D01*
X148197027Y-77179002D01*
X148197014Y-77179009D01*
X148065911Y-77266610D01*
X148065907Y-77266613D01*
X147954413Y-77378107D01*
X147954410Y-77378111D01*
X147866809Y-77509214D01*
X147866802Y-77509227D01*
X147806464Y-77654898D01*
X147806461Y-77654908D01*
X147779969Y-77788092D01*
X147747584Y-77850003D01*
X147686868Y-77884577D01*
X147658352Y-77887900D01*
X141027429Y-77887900D01*
X140960390Y-77868215D01*
X140939748Y-77851581D01*
X137766915Y-74678747D01*
X137685321Y-74597153D01*
X142963500Y-74597153D01*
X142963500Y-74754846D01*
X142994261Y-74909489D01*
X142994264Y-74909501D01*
X143054602Y-75055172D01*
X143054609Y-75055185D01*
X143142210Y-75186288D01*
X143142213Y-75186292D01*
X143253707Y-75297786D01*
X143253711Y-75297789D01*
X143384814Y-75385390D01*
X143384827Y-75385397D01*
X143530498Y-75445735D01*
X143530503Y-75445737D01*
X143553443Y-75450300D01*
X143615353Y-75482682D01*
X143616935Y-75484236D01*
X144068181Y-75935482D01*
X144082884Y-75962409D01*
X144099477Y-75988228D01*
X144100368Y-75994428D01*
X144101666Y-75996805D01*
X144104500Y-76023163D01*
X144104500Y-76240479D01*
X144084815Y-76307518D01*
X144083602Y-76309370D01*
X144070609Y-76328814D01*
X144070602Y-76328827D01*
X144010264Y-76474498D01*
X144010261Y-76474510D01*
X143979500Y-76629153D01*
X143979500Y-76786846D01*
X144010261Y-76941489D01*
X144010264Y-76941501D01*
X144070602Y-77087172D01*
X144070609Y-77087185D01*
X144158210Y-77218288D01*
X144158213Y-77218292D01*
X144269707Y-77329786D01*
X144269711Y-77329789D01*
X144400814Y-77417390D01*
X144400827Y-77417397D01*
X144546498Y-77477735D01*
X144546503Y-77477737D01*
X144701153Y-77508499D01*
X144701156Y-77508500D01*
X144701158Y-77508500D01*
X144858844Y-77508500D01*
X144858845Y-77508499D01*
X145013497Y-77477737D01*
X145159179Y-77417394D01*
X145290289Y-77329789D01*
X145401789Y-77218289D01*
X145489394Y-77087179D01*
X145489991Y-77085739D01*
X145540457Y-76963900D01*
X145549737Y-76941497D01*
X145580500Y-76786842D01*
X145580500Y-76629158D01*
X145580500Y-76629155D01*
X145580499Y-76629153D01*
X145553317Y-76492500D01*
X145549737Y-76474503D01*
X145519456Y-76401397D01*
X145489397Y-76328827D01*
X145489390Y-76328814D01*
X145476398Y-76309370D01*
X145455520Y-76242692D01*
X145455500Y-76240479D01*
X145455500Y-75625469D01*
X145455499Y-75625465D01*
X145451164Y-75603665D01*
X145451164Y-75603664D01*
X145429542Y-75494969D01*
X145429541Y-75494968D01*
X145429541Y-75494964D01*
X145378620Y-75372031D01*
X145378618Y-75372028D01*
X145378616Y-75372024D01*
X145304695Y-75261394D01*
X145304692Y-75261390D01*
X144572236Y-74528935D01*
X144538751Y-74467612D01*
X144538314Y-74465514D01*
X144533737Y-74442503D01*
X144525012Y-74421438D01*
X144473397Y-74296827D01*
X144473390Y-74296814D01*
X144385789Y-74165711D01*
X144385786Y-74165707D01*
X144274292Y-74054213D01*
X144274288Y-74054210D01*
X144143185Y-73966609D01*
X144143172Y-73966602D01*
X143997501Y-73906264D01*
X143997489Y-73906261D01*
X143842845Y-73875500D01*
X143842842Y-73875500D01*
X143685158Y-73875500D01*
X143685155Y-73875500D01*
X143530510Y-73906261D01*
X143530498Y-73906264D01*
X143384827Y-73966602D01*
X143384814Y-73966609D01*
X143253711Y-74054210D01*
X143253707Y-74054213D01*
X143142213Y-74165707D01*
X143142210Y-74165711D01*
X143054609Y-74296814D01*
X143054602Y-74296827D01*
X142994264Y-74442498D01*
X142994261Y-74442510D01*
X142963500Y-74597153D01*
X137685321Y-74597153D01*
X136686871Y-73598703D01*
X136659991Y-73558475D01*
X136650194Y-73534821D01*
X136639342Y-73518580D01*
X136562589Y-73403710D01*
X136451092Y-73292213D01*
X136451088Y-73292210D01*
X136319985Y-73204609D01*
X136319972Y-73204602D01*
X136174301Y-73144264D01*
X136174289Y-73144261D01*
X136019645Y-73113500D01*
X136019642Y-73113500D01*
X135861958Y-73113500D01*
X135861955Y-73113500D01*
X135707310Y-73144261D01*
X135707298Y-73144264D01*
X135561627Y-73204602D01*
X135561614Y-73204609D01*
X135430511Y-73292210D01*
X135430507Y-73292213D01*
X135319013Y-73403707D01*
X135319010Y-73403711D01*
X135231409Y-73534814D01*
X135231402Y-73534827D01*
X135171064Y-73680498D01*
X135171061Y-73680510D01*
X135140300Y-73835153D01*
X135140300Y-73992846D01*
X135171061Y-74147489D01*
X135171064Y-74147501D01*
X135231402Y-74293172D01*
X135231409Y-74293185D01*
X135319010Y-74424288D01*
X135319013Y-74424292D01*
X135430510Y-74535789D01*
X135522356Y-74597158D01*
X135561621Y-74623394D01*
X135585275Y-74633191D01*
X135625503Y-74660071D01*
X137258496Y-76293064D01*
X138716652Y-77751219D01*
X138750137Y-77812542D01*
X138745153Y-77882234D01*
X138703281Y-77938167D01*
X138637817Y-77962584D01*
X138628971Y-77962900D01*
X133639067Y-77962900D01*
X133508569Y-77988858D01*
X133508559Y-77988861D01*
X133385638Y-78039776D01*
X133385620Y-78039786D01*
X133274998Y-78113701D01*
X133274990Y-78113707D01*
X127686495Y-83702203D01*
X127625172Y-83735688D01*
X127555480Y-83730704D01*
X127551362Y-83729083D01*
X127433501Y-83680264D01*
X127433489Y-83680261D01*
X127322285Y-83658141D01*
X127260374Y-83625756D01*
X127258795Y-83624205D01*
X126747419Y-83112828D01*
X126713934Y-83051505D01*
X126711100Y-83025147D01*
X126711100Y-71883299D01*
X126713650Y-71874613D01*
X126712362Y-71865652D01*
X126723340Y-71841611D01*
X126730785Y-71816260D01*
X126737625Y-71810332D01*
X126741387Y-71802096D01*
X126763621Y-71787806D01*
X126783589Y-71770505D01*
X126794103Y-71768217D01*
X126800165Y-71764322D01*
X126835095Y-71759299D01*
X126958415Y-71759299D01*
X127025454Y-71778984D01*
X127061514Y-71814404D01*
X127086869Y-71852349D01*
X127123740Y-71907531D01*
X127123741Y-71907532D01*
X127123742Y-71907533D01*
X127210867Y-71994658D01*
X127210868Y-71994658D01*
X127217935Y-72001725D01*
X127217934Y-72001725D01*
X127217937Y-72001727D01*
X127649741Y-72433532D01*
X127649742Y-72433533D01*
X127712698Y-72496489D01*
X127736868Y-72520659D01*
X127839307Y-72589107D01*
X127839313Y-72589110D01*
X127839314Y-72589111D01*
X127953148Y-72636263D01*
X127982891Y-72642179D01*
X128073991Y-72660299D01*
X128073992Y-72660300D01*
X128073993Y-72660300D01*
X128073994Y-72660300D01*
X130727152Y-72660300D01*
X130794191Y-72679985D01*
X130814833Y-72696619D01*
X131560143Y-73441929D01*
X131560146Y-73441933D01*
X131647271Y-73529058D01*
X131709795Y-73570835D01*
X131749719Y-73597512D01*
X131816401Y-73625132D01*
X131863552Y-73644663D01*
X131923975Y-73656681D01*
X131984397Y-73668700D01*
X132886803Y-73668700D01*
X132947225Y-73656681D01*
X133007648Y-73644663D01*
X133040988Y-73630852D01*
X133121482Y-73597512D01*
X133179857Y-73558506D01*
X133223929Y-73529058D01*
X133311054Y-73441933D01*
X133311055Y-73441930D01*
X133318121Y-73434865D01*
X133318123Y-73434861D01*
X134506367Y-72246619D01*
X134567690Y-72213134D01*
X134594048Y-72210300D01*
X148815208Y-72210300D01*
X148815208Y-72210299D01*
X148924805Y-72188500D01*
X148936052Y-72186263D01*
X148969392Y-72172452D01*
X149049886Y-72139112D01*
X149101109Y-72104884D01*
X149152333Y-72070658D01*
X149239458Y-71983533D01*
X149239459Y-71983531D01*
X149246525Y-71976465D01*
X149246528Y-71976461D01*
X149714753Y-71508236D01*
X157584371Y-71508236D01*
X157584371Y-71665929D01*
X157615132Y-71820572D01*
X157615135Y-71820584D01*
X157675473Y-71966255D01*
X157675480Y-71966268D01*
X157763081Y-72097371D01*
X157763084Y-72097375D01*
X157874578Y-72208869D01*
X157874582Y-72208872D01*
X158005685Y-72296473D01*
X158005698Y-72296480D01*
X158115223Y-72341846D01*
X158151374Y-72356820D01*
X158273553Y-72381123D01*
X158306024Y-72387582D01*
X158306027Y-72387583D01*
X158306029Y-72387583D01*
X158463715Y-72387583D01*
X158463716Y-72387582D01*
X158618368Y-72356820D01*
X158764050Y-72296477D01*
X158895160Y-72208872D01*
X159006660Y-72097372D01*
X159094265Y-71966262D01*
X159154608Y-71820580D01*
X159185371Y-71665925D01*
X159185371Y-71508241D01*
X159185371Y-71508238D01*
X159185370Y-71508236D01*
X159171497Y-71438492D01*
X159154608Y-71353586D01*
X159145211Y-71330899D01*
X159141593Y-71322164D01*
X159124459Y-71280799D01*
X159484371Y-71280799D01*
X159484371Y-71438492D01*
X159515132Y-71593135D01*
X159515135Y-71593147D01*
X159575473Y-71738818D01*
X159575480Y-71738831D01*
X159663081Y-71869934D01*
X159663084Y-71869938D01*
X159774578Y-71981432D01*
X159774582Y-71981435D01*
X159905685Y-72069036D01*
X159905698Y-72069043D01*
X160051369Y-72129381D01*
X160051374Y-72129383D01*
X160204219Y-72159786D01*
X160206024Y-72160145D01*
X160206027Y-72160146D01*
X160206029Y-72160146D01*
X160363715Y-72160146D01*
X160363716Y-72160145D01*
X160518368Y-72129383D01*
X160664050Y-72069040D01*
X160795160Y-71981435D01*
X160906660Y-71869935D01*
X160994265Y-71738825D01*
X161054608Y-71593143D01*
X161085371Y-71438488D01*
X161085371Y-71352147D01*
X161091610Y-71330899D01*
X161093190Y-71308812D01*
X161101261Y-71298029D01*
X161105056Y-71285108D01*
X161121789Y-71270607D01*
X161135062Y-71252879D01*
X161147682Y-71248172D01*
X161157860Y-71239353D01*
X161179777Y-71236201D01*
X161200526Y-71228463D01*
X161213686Y-71231325D01*
X161227018Y-71229409D01*
X161247160Y-71238607D01*
X161268799Y-71243315D01*
X161286523Y-71256584D01*
X161290574Y-71258434D01*
X161297053Y-71264467D01*
X161344283Y-71311698D01*
X161377767Y-71373021D01*
X161378154Y-71416002D01*
X161379097Y-71416095D01*
X161378500Y-71422157D01*
X161378500Y-71579846D01*
X161409261Y-71734489D01*
X161409264Y-71734501D01*
X161469602Y-71880172D01*
X161469609Y-71880185D01*
X161557210Y-72011288D01*
X161557213Y-72011292D01*
X161668707Y-72122786D01*
X161668711Y-72122789D01*
X161799814Y-72210390D01*
X161799827Y-72210397D01*
X161945498Y-72270735D01*
X161945503Y-72270737D01*
X162074886Y-72296473D01*
X162100153Y-72301499D01*
X162100156Y-72301500D01*
X162100158Y-72301500D01*
X162257844Y-72301500D01*
X162257845Y-72301499D01*
X162412497Y-72270737D01*
X162558179Y-72210394D01*
X162689289Y-72122789D01*
X162800789Y-72011289D01*
X162888394Y-71880179D01*
X162890700Y-71874613D01*
X162913079Y-71820584D01*
X162948737Y-71734497D01*
X162979500Y-71579842D01*
X162979500Y-71459153D01*
X163793269Y-71459153D01*
X163793269Y-71616846D01*
X163824030Y-71771489D01*
X163824033Y-71771501D01*
X163884371Y-71917172D01*
X163884378Y-71917185D01*
X163971979Y-72048288D01*
X163971982Y-72048292D01*
X164083476Y-72159786D01*
X164083480Y-72159789D01*
X164214583Y-72247390D01*
X164214596Y-72247397D01*
X164333095Y-72296480D01*
X164360272Y-72307737D01*
X164514922Y-72338499D01*
X164514925Y-72338500D01*
X164514927Y-72338500D01*
X164672613Y-72338500D01*
X164672614Y-72338499D01*
X164827266Y-72307737D01*
X164972948Y-72247394D01*
X165067595Y-72184153D01*
X166331500Y-72184153D01*
X166331500Y-72341846D01*
X166362261Y-72496489D01*
X166362264Y-72496501D01*
X166422602Y-72642172D01*
X166422609Y-72642185D01*
X166510210Y-72773288D01*
X166510213Y-72773292D01*
X166621707Y-72884786D01*
X166621711Y-72884789D01*
X166752814Y-72972390D01*
X166752827Y-72972397D01*
X166898498Y-73032735D01*
X166898503Y-73032737D01*
X167053153Y-73063499D01*
X167053156Y-73063500D01*
X167053158Y-73063500D01*
X167210844Y-73063500D01*
X167210845Y-73063499D01*
X167365497Y-73032737D01*
X167511179Y-72972394D01*
X167642289Y-72884789D01*
X167753789Y-72773289D01*
X167841394Y-72642179D01*
X167843845Y-72636263D01*
X167863377Y-72589107D01*
X167901737Y-72496497D01*
X167914262Y-72433532D01*
X167924684Y-72381135D01*
X177338500Y-72381135D01*
X177338500Y-74176870D01*
X177338501Y-74176876D01*
X177344908Y-74236483D01*
X177395202Y-74371328D01*
X177395206Y-74371335D01*
X177481452Y-74486544D01*
X177481455Y-74486547D01*
X177596664Y-74572793D01*
X177596671Y-74572797D01*
X177731517Y-74623091D01*
X177731516Y-74623091D01*
X177734335Y-74623394D01*
X177791127Y-74629500D01*
X179586872Y-74629499D01*
X179646483Y-74623091D01*
X179781331Y-74572796D01*
X179896546Y-74486546D01*
X179982796Y-74371331D01*
X180033091Y-74236483D01*
X180039500Y-74176873D01*
X180039499Y-72381128D01*
X180033091Y-72321517D01*
X180027951Y-72307737D01*
X179982797Y-72186671D01*
X179982793Y-72186664D01*
X179896547Y-72071455D01*
X179896544Y-72071452D01*
X179781335Y-71985206D01*
X179781328Y-71985202D01*
X179646482Y-71934908D01*
X179646483Y-71934908D01*
X179586883Y-71928501D01*
X179586881Y-71928500D01*
X179586873Y-71928500D01*
X179586864Y-71928500D01*
X177791129Y-71928500D01*
X177791123Y-71928501D01*
X177731516Y-71934908D01*
X177596671Y-71985202D01*
X177596664Y-71985206D01*
X177481455Y-72071452D01*
X177481452Y-72071455D01*
X177395206Y-72186664D01*
X177395202Y-72186671D01*
X177344908Y-72321517D01*
X177341113Y-72356820D01*
X177338501Y-72381123D01*
X177338500Y-72381135D01*
X167924684Y-72381135D01*
X167930153Y-72353643D01*
X167930158Y-72353615D01*
X167932500Y-72341840D01*
X167932500Y-72184155D01*
X167932499Y-72184153D01*
X167901737Y-72029503D01*
X167881827Y-71981435D01*
X167841397Y-71883827D01*
X167841390Y-71883814D01*
X167753789Y-71752711D01*
X167753786Y-71752707D01*
X167642292Y-71641213D01*
X167642288Y-71641210D01*
X167511185Y-71553609D01*
X167511172Y-71553602D01*
X167365501Y-71493264D01*
X167365489Y-71493261D01*
X167210845Y-71462500D01*
X167210842Y-71462500D01*
X167053158Y-71462500D01*
X167053155Y-71462500D01*
X166898510Y-71493261D01*
X166898498Y-71493264D01*
X166752827Y-71553602D01*
X166752814Y-71553609D01*
X166621711Y-71641210D01*
X166621707Y-71641213D01*
X166510213Y-71752707D01*
X166510210Y-71752711D01*
X166422609Y-71883814D01*
X166422602Y-71883827D01*
X166362264Y-72029498D01*
X166362261Y-72029510D01*
X166331500Y-72184153D01*
X165067595Y-72184153D01*
X165104058Y-72159789D01*
X165134466Y-72129381D01*
X165173463Y-72090385D01*
X165215555Y-72048292D01*
X165215558Y-72048289D01*
X165303163Y-71917179D01*
X165307159Y-71907533D01*
X165330016Y-71852349D01*
X165363506Y-71771497D01*
X165394269Y-71616842D01*
X165394269Y-71459158D01*
X165394269Y-71459155D01*
X165394268Y-71459153D01*
X165386909Y-71422157D01*
X165363506Y-71304503D01*
X165360824Y-71298029D01*
X165303166Y-71158827D01*
X165303159Y-71158814D01*
X165215558Y-71027711D01*
X165215555Y-71027707D01*
X165104061Y-70916213D01*
X165104057Y-70916210D01*
X164972954Y-70828609D01*
X164972941Y-70828602D01*
X164827270Y-70768264D01*
X164827258Y-70768261D01*
X164672614Y-70737500D01*
X164672611Y-70737500D01*
X164514927Y-70737500D01*
X164514924Y-70737500D01*
X164360279Y-70768261D01*
X164360267Y-70768264D01*
X164214596Y-70828602D01*
X164214583Y-70828609D01*
X164083480Y-70916210D01*
X164083476Y-70916213D01*
X163971982Y-71027707D01*
X163971979Y-71027711D01*
X163884378Y-71158814D01*
X163884371Y-71158827D01*
X163824033Y-71304498D01*
X163824030Y-71304510D01*
X163793269Y-71459153D01*
X162979500Y-71459153D01*
X162979500Y-71422158D01*
X162979500Y-71422157D01*
X162979500Y-71422155D01*
X162979499Y-71422153D01*
X162965574Y-71352147D01*
X162948737Y-71267503D01*
X162948735Y-71267498D01*
X162888397Y-71121827D01*
X162888390Y-71121814D01*
X162800789Y-70990711D01*
X162800786Y-70990707D01*
X162707466Y-70897387D01*
X162673981Y-70836064D01*
X162673601Y-70793087D01*
X162672652Y-70792994D01*
X162673249Y-70786931D01*
X162673249Y-70629240D01*
X162673248Y-70629238D01*
X162665425Y-70589909D01*
X162642486Y-70474588D01*
X162599242Y-70370186D01*
X162582146Y-70328912D01*
X162582139Y-70328899D01*
X162494538Y-70197796D01*
X162494535Y-70197792D01*
X162383041Y-70086298D01*
X162383037Y-70086295D01*
X162251934Y-69998694D01*
X162251921Y-69998687D01*
X162106250Y-69938349D01*
X162106238Y-69938346D01*
X161951594Y-69907585D01*
X161951591Y-69907585D01*
X161793907Y-69907585D01*
X161793904Y-69907585D01*
X161639259Y-69938346D01*
X161639247Y-69938349D01*
X161493576Y-69998687D01*
X161493563Y-69998694D01*
X161362460Y-70086295D01*
X161362456Y-70086298D01*
X161250962Y-70197792D01*
X161250959Y-70197796D01*
X161163358Y-70328899D01*
X161163351Y-70328912D01*
X161103013Y-70474583D01*
X161103010Y-70474595D01*
X161072249Y-70629238D01*
X161072249Y-70715583D01*
X161052564Y-70782622D01*
X160999760Y-70828377D01*
X160930602Y-70838321D01*
X160867046Y-70809296D01*
X160860568Y-70803264D01*
X160795163Y-70737859D01*
X160795159Y-70737856D01*
X160664056Y-70650255D01*
X160664043Y-70650248D01*
X160518372Y-70589910D01*
X160518360Y-70589907D01*
X160363716Y-70559146D01*
X160363713Y-70559146D01*
X160206029Y-70559146D01*
X160206026Y-70559146D01*
X160051381Y-70589907D01*
X160051369Y-70589910D01*
X159905698Y-70650248D01*
X159905685Y-70650255D01*
X159774582Y-70737856D01*
X159774578Y-70737859D01*
X159663084Y-70849353D01*
X159663081Y-70849357D01*
X159575480Y-70980460D01*
X159575473Y-70980473D01*
X159515135Y-71126144D01*
X159515132Y-71126156D01*
X159484371Y-71280799D01*
X159124459Y-71280799D01*
X159108933Y-71243315D01*
X159096713Y-71213816D01*
X159089245Y-71144347D01*
X159105413Y-71104313D01*
X159104608Y-71103883D01*
X159107473Y-71098521D01*
X159107477Y-71098516D01*
X159167820Y-70952834D01*
X159198583Y-70798179D01*
X159198583Y-70640495D01*
X159198583Y-70640492D01*
X159198582Y-70640490D01*
X159188520Y-70589907D01*
X159167820Y-70485840D01*
X159156203Y-70457794D01*
X159107480Y-70340164D01*
X159107473Y-70340151D01*
X159019872Y-70209048D01*
X159019869Y-70209044D01*
X158908375Y-70097550D01*
X158908371Y-70097547D01*
X158777268Y-70009946D01*
X158777255Y-70009939D01*
X158631584Y-69949601D01*
X158631572Y-69949598D01*
X158476928Y-69918837D01*
X158476925Y-69918837D01*
X158319241Y-69918837D01*
X158319238Y-69918837D01*
X158164593Y-69949598D01*
X158164581Y-69949601D01*
X158018910Y-70009939D01*
X158018897Y-70009946D01*
X157887794Y-70097547D01*
X157887790Y-70097550D01*
X157776296Y-70209044D01*
X157776293Y-70209048D01*
X157688692Y-70340151D01*
X157688685Y-70340164D01*
X157628347Y-70485835D01*
X157628344Y-70485847D01*
X157597583Y-70640490D01*
X157597583Y-70798183D01*
X157628344Y-70952826D01*
X157628347Y-70952838D01*
X157686239Y-71092603D01*
X157693708Y-71162072D01*
X157677546Y-71202100D01*
X157678350Y-71202530D01*
X157675473Y-71207911D01*
X157615135Y-71353581D01*
X157615132Y-71353593D01*
X157584371Y-71508236D01*
X149714753Y-71508236D01*
X151087197Y-70135791D01*
X151148518Y-70102308D01*
X151150528Y-70101889D01*
X151261897Y-70079737D01*
X151407579Y-70019394D01*
X151538689Y-69931789D01*
X151650189Y-69820289D01*
X151737794Y-69689179D01*
X151743047Y-69676498D01*
X151745924Y-69669553D01*
X152209100Y-69669553D01*
X152209100Y-69827246D01*
X152239861Y-69981889D01*
X152239864Y-69981901D01*
X152300202Y-70127572D01*
X152300209Y-70127585D01*
X152387810Y-70258688D01*
X152387813Y-70258692D01*
X152499307Y-70370186D01*
X152499311Y-70370189D01*
X152630414Y-70457790D01*
X152630427Y-70457797D01*
X152698147Y-70485847D01*
X152776103Y-70518137D01*
X152930753Y-70548899D01*
X152930756Y-70548900D01*
X152930758Y-70548900D01*
X153088444Y-70548900D01*
X153088445Y-70548899D01*
X153243097Y-70518137D01*
X153388779Y-70457794D01*
X153519889Y-70370189D01*
X153631389Y-70258689D01*
X153718994Y-70127579D01*
X153779337Y-69981897D01*
X153810100Y-69827242D01*
X153810100Y-69669558D01*
X153810100Y-69669555D01*
X153810099Y-69669553D01*
X153795924Y-69598292D01*
X153779337Y-69514903D01*
X153759569Y-69467179D01*
X153718997Y-69369227D01*
X153718990Y-69369214D01*
X153631389Y-69238111D01*
X153631386Y-69238107D01*
X153519892Y-69126613D01*
X153519888Y-69126610D01*
X153388785Y-69039009D01*
X153388772Y-69039002D01*
X153243101Y-68978664D01*
X153243089Y-68978661D01*
X153088445Y-68947900D01*
X153088442Y-68947900D01*
X152930758Y-68947900D01*
X152930755Y-68947900D01*
X152776110Y-68978661D01*
X152776098Y-68978664D01*
X152630427Y-69039002D01*
X152630414Y-69039009D01*
X152499311Y-69126610D01*
X152499307Y-69126613D01*
X152387813Y-69238107D01*
X152387810Y-69238111D01*
X152300209Y-69369214D01*
X152300202Y-69369227D01*
X152239864Y-69514898D01*
X152239861Y-69514910D01*
X152209100Y-69669553D01*
X151745924Y-69669553D01*
X151768100Y-69616014D01*
X151798135Y-69543501D01*
X151798137Y-69543497D01*
X151828900Y-69388842D01*
X151828900Y-69231158D01*
X151828900Y-69231155D01*
X151828899Y-69231153D01*
X151798137Y-69076503D01*
X151782607Y-69039009D01*
X151737797Y-68930827D01*
X151737790Y-68930814D01*
X151650189Y-68799711D01*
X151650186Y-68799707D01*
X151538692Y-68688213D01*
X151538688Y-68688210D01*
X151407585Y-68600609D01*
X151407572Y-68600602D01*
X151261901Y-68540264D01*
X151261889Y-68540261D01*
X151107245Y-68509500D01*
X151107242Y-68509500D01*
X150949558Y-68509500D01*
X150949555Y-68509500D01*
X150794910Y-68540261D01*
X150794907Y-68540262D01*
X150794906Y-68540262D01*
X150794903Y-68540263D01*
X150728398Y-68567810D01*
X150659485Y-68596354D01*
X150590015Y-68603822D01*
X150527536Y-68572546D01*
X150524352Y-68569473D01*
X150522692Y-68567813D01*
X150522688Y-68567810D01*
X150391585Y-68480209D01*
X150391572Y-68480202D01*
X150245901Y-68419864D01*
X150245889Y-68419861D01*
X150091245Y-68389100D01*
X150091242Y-68389100D01*
X149933558Y-68389100D01*
X149933555Y-68389100D01*
X149778910Y-68419861D01*
X149778898Y-68419864D01*
X149633227Y-68480202D01*
X149633214Y-68480209D01*
X149502111Y-68567810D01*
X149502107Y-68567813D01*
X149390180Y-68679741D01*
X149328857Y-68713226D01*
X149259165Y-68708242D01*
X149203232Y-68666370D01*
X149178815Y-68600906D01*
X149178499Y-68592060D01*
X149178499Y-67428129D01*
X149178499Y-67428128D01*
X149176352Y-67408153D01*
X159473500Y-67408153D01*
X159473500Y-67565846D01*
X159504261Y-67720489D01*
X159504264Y-67720501D01*
X159564602Y-67866172D01*
X159564609Y-67866185D01*
X159652210Y-67997288D01*
X159652213Y-67997292D01*
X159763707Y-68108786D01*
X159763711Y-68108789D01*
X159894814Y-68196390D01*
X159894827Y-68196397D01*
X160017377Y-68247158D01*
X160040503Y-68256737D01*
X160119583Y-68272467D01*
X160195153Y-68287499D01*
X160195156Y-68287500D01*
X160195158Y-68287500D01*
X160352844Y-68287500D01*
X160352845Y-68287499D01*
X160507497Y-68256737D01*
X160653179Y-68196394D01*
X160784289Y-68108789D01*
X160895789Y-67997289D01*
X160983394Y-67866179D01*
X161043737Y-67720497D01*
X161074500Y-67565842D01*
X161074500Y-67408158D01*
X161074500Y-67408155D01*
X161074499Y-67408153D01*
X162566537Y-67408153D01*
X162566537Y-67565846D01*
X162597298Y-67720489D01*
X162597301Y-67720501D01*
X162657639Y-67866172D01*
X162657646Y-67866185D01*
X162745247Y-67997288D01*
X162745250Y-67997292D01*
X162856744Y-68108786D01*
X162856748Y-68108789D01*
X162987851Y-68196390D01*
X162987864Y-68196397D01*
X163110414Y-68247158D01*
X163133540Y-68256737D01*
X163212620Y-68272467D01*
X163288190Y-68287499D01*
X163288193Y-68287500D01*
X163288195Y-68287500D01*
X163445881Y-68287500D01*
X163445882Y-68287499D01*
X163600534Y-68256737D01*
X163746216Y-68196394D01*
X163877326Y-68108789D01*
X163988826Y-67997289D01*
X164076431Y-67866179D01*
X164136774Y-67720497D01*
X164167537Y-67565842D01*
X164167537Y-67408158D01*
X164167537Y-67408155D01*
X164167536Y-67408153D01*
X164159652Y-67368516D01*
X164136774Y-67253503D01*
X164136772Y-67253498D01*
X164076434Y-67107827D01*
X164076427Y-67107814D01*
X163988826Y-66976711D01*
X163988823Y-66976707D01*
X163877329Y-66865213D01*
X163877325Y-66865210D01*
X163746222Y-66777609D01*
X163746209Y-66777602D01*
X163600538Y-66717264D01*
X163600526Y-66717261D01*
X163445882Y-66686500D01*
X163445879Y-66686500D01*
X163288195Y-66686500D01*
X163288192Y-66686500D01*
X163133547Y-66717261D01*
X163133535Y-66717264D01*
X162987864Y-66777602D01*
X162987851Y-66777609D01*
X162856748Y-66865210D01*
X162856744Y-66865213D01*
X162745250Y-66976707D01*
X162745247Y-66976711D01*
X162657646Y-67107814D01*
X162657639Y-67107827D01*
X162597301Y-67253498D01*
X162597298Y-67253510D01*
X162566537Y-67408153D01*
X161074499Y-67408153D01*
X161066615Y-67368516D01*
X161043737Y-67253503D01*
X161043735Y-67253498D01*
X160983397Y-67107827D01*
X160983390Y-67107814D01*
X160895789Y-66976711D01*
X160895786Y-66976707D01*
X160784292Y-66865213D01*
X160784288Y-66865210D01*
X160653185Y-66777609D01*
X160653172Y-66777602D01*
X160507501Y-66717264D01*
X160507489Y-66717261D01*
X160352845Y-66686500D01*
X160352842Y-66686500D01*
X160195158Y-66686500D01*
X160195155Y-66686500D01*
X160040510Y-66717261D01*
X160040498Y-66717264D01*
X159894827Y-66777602D01*
X159894814Y-66777609D01*
X159763711Y-66865210D01*
X159763707Y-66865213D01*
X159652213Y-66976707D01*
X159652210Y-66976711D01*
X159564609Y-67107814D01*
X159564602Y-67107827D01*
X159504264Y-67253498D01*
X159504261Y-67253510D01*
X159473500Y-67408153D01*
X149176352Y-67408153D01*
X149172091Y-67368517D01*
X149121796Y-67233669D01*
X149121795Y-67233668D01*
X149121793Y-67233664D01*
X149035547Y-67118455D01*
X149035544Y-67118452D01*
X148920335Y-67032206D01*
X148920328Y-67032202D01*
X148785482Y-66981908D01*
X148785483Y-66981908D01*
X148725883Y-66975501D01*
X148725881Y-66975500D01*
X148725873Y-66975500D01*
X148725864Y-66975500D01*
X146930129Y-66975500D01*
X146930123Y-66975501D01*
X146870516Y-66981908D01*
X146735671Y-67032202D01*
X146735664Y-67032206D01*
X146620455Y-67118452D01*
X146620452Y-67118455D01*
X146534206Y-67233664D01*
X146534202Y-67233671D01*
X146483908Y-67368517D01*
X146477501Y-67428116D01*
X146477500Y-67428135D01*
X146477500Y-69223870D01*
X146477501Y-69223876D01*
X146483908Y-69283483D01*
X146534202Y-69418328D01*
X146534206Y-69418335D01*
X146620452Y-69533544D01*
X146620455Y-69533547D01*
X146735664Y-69619793D01*
X146735671Y-69619797D01*
X146870517Y-69670091D01*
X146870516Y-69670091D01*
X146877444Y-69670835D01*
X146930127Y-69676500D01*
X148341548Y-69676499D01*
X148408587Y-69696184D01*
X148454342Y-69748987D01*
X148464286Y-69818146D01*
X148435261Y-69881702D01*
X148429229Y-69888180D01*
X148032513Y-70284897D01*
X147971190Y-70318382D01*
X147944832Y-70321216D01*
X134346891Y-70321216D01*
X134223677Y-70321216D01*
X134175065Y-70330884D01*
X134105474Y-70324656D01*
X134050298Y-70281793D01*
X134028403Y-70228664D01*
X134023513Y-70197792D01*
X134012392Y-70127572D01*
X134006847Y-70092561D01*
X134006846Y-70092560D01*
X134006846Y-70092557D01*
X133941157Y-69890388D01*
X133844651Y-69700984D01*
X133844649Y-69700981D01*
X133844648Y-69700979D01*
X133719709Y-69529013D01*
X133569394Y-69378698D01*
X133569388Y-69378693D01*
X133491215Y-69321897D01*
X133448549Y-69266567D01*
X133440100Y-69221579D01*
X133440100Y-68272467D01*
X133459785Y-68205428D01*
X133512589Y-68159673D01*
X133581747Y-68149729D01*
X133583358Y-68149972D01*
X133599313Y-68152500D01*
X133599315Y-68152500D01*
X133811886Y-68152500D01*
X133811887Y-68152500D01*
X134021843Y-68119246D01*
X134224012Y-68053557D01*
X134413416Y-67957051D01*
X134479100Y-67909329D01*
X134585386Y-67832109D01*
X134585388Y-67832106D01*
X134585392Y-67832104D01*
X134735704Y-67681792D01*
X134735706Y-67681788D01*
X134735709Y-67681786D01*
X134860648Y-67509820D01*
X134860647Y-67509820D01*
X134860651Y-67509816D01*
X134957157Y-67320412D01*
X134986159Y-67231153D01*
X136359500Y-67231153D01*
X136359500Y-67388846D01*
X136390261Y-67543489D01*
X136390264Y-67543501D01*
X136450602Y-67689172D01*
X136450609Y-67689185D01*
X136538210Y-67820288D01*
X136538213Y-67820292D01*
X136575240Y-67857319D01*
X136608725Y-67918642D01*
X136603741Y-67988334D01*
X136575240Y-68032681D01*
X136538213Y-68069707D01*
X136538210Y-68069711D01*
X136450609Y-68200814D01*
X136450602Y-68200827D01*
X136390264Y-68346498D01*
X136390261Y-68346510D01*
X136359500Y-68501153D01*
X136359500Y-68658846D01*
X136390261Y-68813489D01*
X136390264Y-68813501D01*
X136450602Y-68959172D01*
X136450609Y-68959185D01*
X136538210Y-69090288D01*
X136538213Y-69090292D01*
X136649707Y-69201786D01*
X136649711Y-69201789D01*
X136780814Y-69289390D01*
X136780827Y-69289397D01*
X136926498Y-69349735D01*
X136926503Y-69349737D01*
X137072054Y-69378689D01*
X137081153Y-69380499D01*
X137081156Y-69380500D01*
X137081158Y-69380500D01*
X137238844Y-69380500D01*
X137238845Y-69380499D01*
X137393497Y-69349737D01*
X137539179Y-69289394D01*
X137670289Y-69201789D01*
X137670826Y-69201252D01*
X137707319Y-69164760D01*
X137768642Y-69131275D01*
X137838334Y-69136259D01*
X137882681Y-69164760D01*
X137919707Y-69201786D01*
X137919711Y-69201789D01*
X138050814Y-69289390D01*
X138050827Y-69289397D01*
X138196498Y-69349735D01*
X138196503Y-69349737D01*
X138342054Y-69378689D01*
X138351153Y-69380499D01*
X138351156Y-69380500D01*
X138351158Y-69380500D01*
X138508844Y-69380500D01*
X138508845Y-69380499D01*
X138663497Y-69349737D01*
X138809179Y-69289394D01*
X138940289Y-69201789D01*
X138940826Y-69201252D01*
X138977319Y-69164760D01*
X139038642Y-69131275D01*
X139108334Y-69136259D01*
X139152681Y-69164760D01*
X139189707Y-69201786D01*
X139189711Y-69201789D01*
X139320814Y-69289390D01*
X139320827Y-69289397D01*
X139466498Y-69349735D01*
X139466503Y-69349737D01*
X139612054Y-69378689D01*
X139621153Y-69380499D01*
X139621156Y-69380500D01*
X139621158Y-69380500D01*
X139778844Y-69380500D01*
X139778845Y-69380499D01*
X139933497Y-69349737D01*
X140079179Y-69289394D01*
X140210289Y-69201789D01*
X140321789Y-69090289D01*
X140409394Y-68959179D01*
X140469737Y-68813497D01*
X140500500Y-68658844D01*
X140931499Y-68658844D01*
X140961529Y-68809808D01*
X140961529Y-68858192D01*
X140931500Y-69009155D01*
X140931500Y-69166846D01*
X140962261Y-69321489D01*
X140962264Y-69321501D01*
X141022602Y-69467172D01*
X141022609Y-69467185D01*
X141110210Y-69598288D01*
X141110213Y-69598292D01*
X141221707Y-69709786D01*
X141221711Y-69709789D01*
X141352814Y-69797390D01*
X141352827Y-69797397D01*
X141498498Y-69857735D01*
X141498503Y-69857737D01*
X141651549Y-69888180D01*
X141653153Y-69888499D01*
X141653156Y-69888500D01*
X141653158Y-69888500D01*
X141810844Y-69888500D01*
X141810845Y-69888499D01*
X141965497Y-69857737D01*
X142111179Y-69797394D01*
X142242289Y-69709789D01*
X142353789Y-69598289D01*
X142441394Y-69467179D01*
X142501737Y-69321497D01*
X142532500Y-69166842D01*
X142532500Y-69009158D01*
X142532499Y-69009155D01*
X142529241Y-68992774D01*
X142535468Y-68923182D01*
X142563177Y-68880900D01*
X142607789Y-68836289D01*
X142695394Y-68705179D01*
X142702422Y-68688213D01*
X142752293Y-68567811D01*
X142755737Y-68559497D01*
X142786500Y-68404842D01*
X142786500Y-68247158D01*
X142786500Y-68247155D01*
X142786499Y-68247153D01*
X142777283Y-68200821D01*
X142755737Y-68092503D01*
X142754486Y-68089482D01*
X142695397Y-67946827D01*
X142695390Y-67946814D01*
X142607789Y-67815711D01*
X142607786Y-67815707D01*
X142496292Y-67704213D01*
X142496288Y-67704210D01*
X142365185Y-67616609D01*
X142365172Y-67616602D01*
X142219501Y-67556264D01*
X142219489Y-67556261D01*
X142064845Y-67525500D01*
X142064842Y-67525500D01*
X141907158Y-67525500D01*
X141907155Y-67525500D01*
X141752510Y-67556261D01*
X141752498Y-67556264D01*
X141606827Y-67616602D01*
X141606814Y-67616609D01*
X141475711Y-67704210D01*
X141475707Y-67704213D01*
X141364217Y-67815704D01*
X141364211Y-67815711D01*
X141320835Y-67880626D01*
X141286626Y-67914835D01*
X141221711Y-67958211D01*
X141221704Y-67958217D01*
X141110213Y-68069707D01*
X141110210Y-68069711D01*
X141022609Y-68200814D01*
X141022602Y-68200827D01*
X140962264Y-68346498D01*
X140962261Y-68346510D01*
X140931500Y-68501153D01*
X140931500Y-68501158D01*
X140931500Y-68658842D01*
X140931500Y-68658844D01*
X140931499Y-68658844D01*
X140500500Y-68658844D01*
X140500500Y-68658842D01*
X140500500Y-68501158D01*
X140500500Y-68501155D01*
X140500499Y-68501153D01*
X140496332Y-68480202D01*
X140469737Y-68346503D01*
X140469735Y-68346498D01*
X140409397Y-68200827D01*
X140409390Y-68200814D01*
X140321789Y-68069711D01*
X140321786Y-68069707D01*
X140284760Y-68032681D01*
X140251275Y-67971358D01*
X140256259Y-67901666D01*
X140284760Y-67857319D01*
X140321786Y-67820292D01*
X140321789Y-67820289D01*
X140409394Y-67689179D01*
X140469737Y-67543497D01*
X140500500Y-67388842D01*
X140500500Y-67231158D01*
X140500500Y-67231155D01*
X140500499Y-67231153D01*
X140478082Y-67118455D01*
X140469737Y-67076503D01*
X140451387Y-67032202D01*
X140409397Y-66930827D01*
X140409390Y-66930814D01*
X140321789Y-66799711D01*
X140321786Y-66799707D01*
X140210292Y-66688213D01*
X140210288Y-66688210D01*
X140079185Y-66600609D01*
X140079172Y-66600602D01*
X139933501Y-66540264D01*
X139933489Y-66540261D01*
X139778845Y-66509500D01*
X139778842Y-66509500D01*
X139621158Y-66509500D01*
X139621155Y-66509500D01*
X139466510Y-66540261D01*
X139466498Y-66540264D01*
X139320827Y-66600602D01*
X139320814Y-66600609D01*
X139189711Y-66688210D01*
X139189707Y-66688213D01*
X139152681Y-66725240D01*
X139091358Y-66758725D01*
X139021666Y-66753741D01*
X138977319Y-66725240D01*
X138940292Y-66688213D01*
X138940288Y-66688210D01*
X138809185Y-66600609D01*
X138809172Y-66600602D01*
X138663501Y-66540264D01*
X138663489Y-66540261D01*
X138508845Y-66509500D01*
X138508842Y-66509500D01*
X138351158Y-66509500D01*
X138351155Y-66509500D01*
X138196510Y-66540261D01*
X138196498Y-66540264D01*
X138050827Y-66600602D01*
X138050814Y-66600609D01*
X137919711Y-66688210D01*
X137919707Y-66688213D01*
X137882681Y-66725240D01*
X137821358Y-66758725D01*
X137751666Y-66753741D01*
X137707319Y-66725240D01*
X137670292Y-66688213D01*
X137670288Y-66688210D01*
X137539185Y-66600609D01*
X137539172Y-66600602D01*
X137393501Y-66540264D01*
X137393489Y-66540261D01*
X137238845Y-66509500D01*
X137238842Y-66509500D01*
X137081158Y-66509500D01*
X137081155Y-66509500D01*
X136926510Y-66540261D01*
X136926498Y-66540264D01*
X136780827Y-66600602D01*
X136780814Y-66600609D01*
X136649711Y-66688210D01*
X136649707Y-66688213D01*
X136538213Y-66799707D01*
X136538210Y-66799711D01*
X136450609Y-66930814D01*
X136450602Y-66930827D01*
X136390264Y-67076498D01*
X136390261Y-67076510D01*
X136359500Y-67231153D01*
X134986159Y-67231153D01*
X135022846Y-67118243D01*
X135056100Y-66908287D01*
X135056100Y-66695713D01*
X135022846Y-66485757D01*
X134957157Y-66283588D01*
X134893236Y-66158135D01*
X177465500Y-66158135D01*
X177465500Y-67953870D01*
X177465501Y-67953876D01*
X177471908Y-68013483D01*
X177522202Y-68148328D01*
X177522206Y-68148335D01*
X177608452Y-68263544D01*
X177608455Y-68263547D01*
X177723664Y-68349793D01*
X177723671Y-68349797D01*
X177858517Y-68400091D01*
X177858516Y-68400091D01*
X177865444Y-68400835D01*
X177918127Y-68406500D01*
X179713872Y-68406499D01*
X179773483Y-68400091D01*
X179908331Y-68349796D01*
X180023546Y-68263546D01*
X180109796Y-68148331D01*
X180160091Y-68013483D01*
X180166500Y-67953873D01*
X180166499Y-66158128D01*
X180160091Y-66098517D01*
X180158474Y-66094182D01*
X180109797Y-65963671D01*
X180109793Y-65963664D01*
X180023547Y-65848455D01*
X180023544Y-65848452D01*
X179908335Y-65762206D01*
X179908328Y-65762202D01*
X179773482Y-65711908D01*
X179773483Y-65711908D01*
X179713883Y-65705501D01*
X179713881Y-65705500D01*
X179713873Y-65705500D01*
X179713864Y-65705500D01*
X177918129Y-65705500D01*
X177918123Y-65705501D01*
X177858516Y-65711908D01*
X177723671Y-65762202D01*
X177723664Y-65762206D01*
X177608455Y-65848452D01*
X177608452Y-65848455D01*
X177522206Y-65963664D01*
X177522202Y-65963671D01*
X177471908Y-66098517D01*
X177466589Y-66147998D01*
X177465501Y-66158123D01*
X177465500Y-66158135D01*
X134893236Y-66158135D01*
X134860651Y-66094184D01*
X134860649Y-66094181D01*
X134860648Y-66094179D01*
X134735709Y-65922213D01*
X134585386Y-65771890D01*
X134413420Y-65646951D01*
X134224014Y-65550444D01*
X134224013Y-65550443D01*
X134224012Y-65550443D01*
X134021843Y-65484754D01*
X134021841Y-65484753D01*
X134021840Y-65484753D01*
X133860557Y-65459208D01*
X133811887Y-65451500D01*
X133599313Y-65451500D01*
X133550642Y-65459208D01*
X133389360Y-65484753D01*
X133187185Y-65550444D01*
X132997779Y-65646951D01*
X132825813Y-65771890D01*
X132675490Y-65922213D01*
X132550549Y-66094182D01*
X132546084Y-66102946D01*
X132498109Y-66153742D01*
X132430288Y-66170536D01*
X132364153Y-66147998D01*
X132325116Y-66102946D01*
X132320650Y-66094182D01*
X132195709Y-65922213D01*
X132045386Y-65771890D01*
X131873420Y-65646951D01*
X131684014Y-65550444D01*
X131684013Y-65550443D01*
X131684012Y-65550443D01*
X131481843Y-65484754D01*
X131481841Y-65484753D01*
X131481840Y-65484753D01*
X131320557Y-65459208D01*
X131271887Y-65451500D01*
X131059313Y-65451500D01*
X131010642Y-65459208D01*
X130849360Y-65484753D01*
X130647185Y-65550444D01*
X130457779Y-65646951D01*
X130285813Y-65771890D01*
X130135490Y-65922213D01*
X130010549Y-66094182D01*
X130006084Y-66102946D01*
X129958109Y-66153742D01*
X129890288Y-66170536D01*
X129824153Y-66147998D01*
X129785116Y-66102946D01*
X129780650Y-66094182D01*
X129655709Y-65922213D01*
X129505386Y-65771890D01*
X129333420Y-65646951D01*
X129144014Y-65550444D01*
X129144013Y-65550443D01*
X129144012Y-65550443D01*
X128941843Y-65484754D01*
X128941841Y-65484753D01*
X128941840Y-65484753D01*
X128780557Y-65459208D01*
X128731887Y-65451500D01*
X128519313Y-65451500D01*
X128470642Y-65459208D01*
X128309360Y-65484753D01*
X128107185Y-65550444D01*
X127917779Y-65646951D01*
X127745815Y-65771889D01*
X127632273Y-65885431D01*
X127570950Y-65918915D01*
X127501258Y-65913931D01*
X127445325Y-65872059D01*
X127428410Y-65841082D01*
X127379397Y-65709671D01*
X127379393Y-65709664D01*
X127293147Y-65594455D01*
X127293144Y-65594452D01*
X127177935Y-65508206D01*
X127177928Y-65508202D01*
X127043082Y-65457908D01*
X127043083Y-65457908D01*
X126983483Y-65451501D01*
X126983481Y-65451500D01*
X126983473Y-65451500D01*
X126983464Y-65451500D01*
X125187729Y-65451500D01*
X125187723Y-65451501D01*
X125128116Y-65457908D01*
X124993271Y-65508202D01*
X124993264Y-65508206D01*
X124878055Y-65594452D01*
X124878052Y-65594455D01*
X124791806Y-65709664D01*
X124791802Y-65709671D01*
X124741508Y-65844517D01*
X124735101Y-65904116D01*
X124735100Y-65904135D01*
X121931735Y-65904135D01*
X121942187Y-63702135D01*
X146499500Y-63702135D01*
X146499500Y-65497870D01*
X146499501Y-65497876D01*
X146505908Y-65557483D01*
X146556202Y-65692328D01*
X146556206Y-65692335D01*
X146642452Y-65807544D01*
X146642455Y-65807547D01*
X146757664Y-65893793D01*
X146757671Y-65893797D01*
X146892517Y-65944091D01*
X146892516Y-65944091D01*
X146899444Y-65944835D01*
X146952127Y-65950500D01*
X148747872Y-65950499D01*
X148807483Y-65944091D01*
X148942331Y-65893796D01*
X149057546Y-65807546D01*
X149143796Y-65692331D01*
X149194091Y-65557483D01*
X149200500Y-65497873D01*
X149200499Y-63702128D01*
X149194091Y-63642517D01*
X149143796Y-63507669D01*
X149143795Y-63507668D01*
X149143793Y-63507664D01*
X149057547Y-63392455D01*
X149057544Y-63392452D01*
X148942335Y-63306206D01*
X148942328Y-63306202D01*
X148807482Y-63255908D01*
X148807483Y-63255908D01*
X148747883Y-63249501D01*
X148747881Y-63249500D01*
X148747873Y-63249500D01*
X148747864Y-63249500D01*
X146952129Y-63249500D01*
X146952123Y-63249501D01*
X146892516Y-63255908D01*
X146757671Y-63306202D01*
X146757664Y-63306206D01*
X146642455Y-63392452D01*
X146642452Y-63392455D01*
X146556206Y-63507664D01*
X146556202Y-63507671D01*
X146505908Y-63642517D01*
X146499920Y-63698217D01*
X146499501Y-63702123D01*
X146499500Y-63702135D01*
X121942187Y-63702135D01*
X121947545Y-62573400D01*
X121967548Y-62506458D01*
X122020568Y-62460954D01*
X122071442Y-62449992D01*
X170299260Y-62410558D01*
X181981529Y-62449113D01*
G37*
%TD.AperFunction*%
%TA.AperFunction,NonConductor*%
G36*
X129967044Y-67455999D02*
G01*
X130006086Y-67501056D01*
X130010551Y-67509820D01*
X130135490Y-67681786D01*
X130285813Y-67832109D01*
X130457779Y-67957048D01*
X130457781Y-67957049D01*
X130457784Y-67957051D01*
X130647188Y-68053557D01*
X130849357Y-68119246D01*
X131059313Y-68152500D01*
X131059314Y-68152500D01*
X131271886Y-68152500D01*
X131271887Y-68152500D01*
X131481843Y-68119246D01*
X131684012Y-68053557D01*
X131758805Y-68015447D01*
X131827474Y-68002552D01*
X131892215Y-68028828D01*
X131932472Y-68085935D01*
X131939100Y-68125933D01*
X131939100Y-69221579D01*
X131919415Y-69288618D01*
X131887985Y-69321897D01*
X131809811Y-69378693D01*
X131809805Y-69378698D01*
X131659490Y-69529013D01*
X131534549Y-69700982D01*
X131530084Y-69709746D01*
X131482109Y-69760542D01*
X131414288Y-69777336D01*
X131348153Y-69754798D01*
X131309116Y-69709746D01*
X131304650Y-69700982D01*
X131179709Y-69529013D01*
X131029386Y-69378690D01*
X130857420Y-69253751D01*
X130668014Y-69157244D01*
X130668013Y-69157243D01*
X130668012Y-69157243D01*
X130465843Y-69091554D01*
X130465841Y-69091553D01*
X130465840Y-69091553D01*
X130304557Y-69066008D01*
X130255887Y-69058300D01*
X130043313Y-69058300D01*
X129994642Y-69066008D01*
X129833360Y-69091553D01*
X129631185Y-69157244D01*
X129441779Y-69253751D01*
X129269815Y-69378689D01*
X129156273Y-69492231D01*
X129094950Y-69525715D01*
X129025258Y-69520731D01*
X128969325Y-69478859D01*
X128952410Y-69447882D01*
X128903397Y-69316471D01*
X128903393Y-69316464D01*
X128817147Y-69201255D01*
X128817144Y-69201252D01*
X128701935Y-69115006D01*
X128701928Y-69115002D01*
X128567082Y-69064708D01*
X128567083Y-69064708D01*
X128507483Y-69058301D01*
X128507481Y-69058300D01*
X128507473Y-69058300D01*
X128507465Y-69058300D01*
X126835100Y-69058300D01*
X126768061Y-69038615D01*
X126722306Y-68985811D01*
X126711100Y-68934300D01*
X126711100Y-68276499D01*
X126730785Y-68209460D01*
X126783589Y-68163705D01*
X126835100Y-68152499D01*
X126983471Y-68152499D01*
X126983472Y-68152499D01*
X127043083Y-68146091D01*
X127177931Y-68095796D01*
X127293146Y-68009546D01*
X127379396Y-67894331D01*
X127428410Y-67762916D01*
X127470281Y-67706984D01*
X127535745Y-67682566D01*
X127604018Y-67697417D01*
X127632273Y-67718569D01*
X127745813Y-67832109D01*
X127917779Y-67957048D01*
X127917781Y-67957049D01*
X127917784Y-67957051D01*
X128107188Y-68053557D01*
X128309357Y-68119246D01*
X128519313Y-68152500D01*
X128519314Y-68152500D01*
X128731886Y-68152500D01*
X128731887Y-68152500D01*
X128941843Y-68119246D01*
X129144012Y-68053557D01*
X129333416Y-67957051D01*
X129399100Y-67909329D01*
X129505386Y-67832109D01*
X129505388Y-67832106D01*
X129505392Y-67832104D01*
X129655704Y-67681792D01*
X129655706Y-67681788D01*
X129655709Y-67681786D01*
X129780648Y-67509820D01*
X129780647Y-67509820D01*
X129780651Y-67509816D01*
X129785114Y-67501054D01*
X129833088Y-67450259D01*
X129900908Y-67433463D01*
X129967044Y-67455999D01*
G37*
%TD.AperFunction*%
%TA.AperFunction,NonConductor*%
G36*
X151100187Y-74812385D02*
G01*
X151145942Y-74865189D01*
X151155886Y-74934347D01*
X151154765Y-74940892D01*
X151142300Y-75003555D01*
X151142300Y-75161246D01*
X151173061Y-75315889D01*
X151173064Y-75315901D01*
X151233402Y-75461572D01*
X151233409Y-75461585D01*
X151321010Y-75592688D01*
X151321013Y-75592692D01*
X151432507Y-75704186D01*
X151432511Y-75704189D01*
X151563614Y-75791790D01*
X151563627Y-75791797D01*
X151672882Y-75837051D01*
X151709303Y-75852137D01*
X151709306Y-75852137D01*
X151713893Y-75853529D01*
X151772333Y-75891825D01*
X151800790Y-75955637D01*
X151801900Y-75972190D01*
X151801900Y-77568430D01*
X151782215Y-77635469D01*
X151746793Y-77671531D01*
X151686506Y-77711814D01*
X151686504Y-77711817D01*
X151575013Y-77823307D01*
X151575010Y-77823311D01*
X151487409Y-77954414D01*
X151487402Y-77954427D01*
X151427064Y-78100098D01*
X151427061Y-78100110D01*
X151396300Y-78254753D01*
X151396300Y-78412446D01*
X151427061Y-78567089D01*
X151427064Y-78567101D01*
X151487402Y-78712772D01*
X151487409Y-78712785D01*
X151575010Y-78843888D01*
X151575013Y-78843892D01*
X151686510Y-78955389D01*
X151746791Y-78995667D01*
X151791596Y-79049279D01*
X151801900Y-79098769D01*
X151801900Y-80960179D01*
X151782215Y-81027218D01*
X151729411Y-81072973D01*
X151725355Y-81074739D01*
X151716026Y-81078603D01*
X151716014Y-81078609D01*
X151584911Y-81166210D01*
X151584909Y-81166212D01*
X151473413Y-81277707D01*
X151473410Y-81277711D01*
X151385809Y-81408814D01*
X151385802Y-81408827D01*
X151325464Y-81554498D01*
X151325461Y-81554510D01*
X151294700Y-81709153D01*
X151294700Y-81866846D01*
X151325461Y-82021489D01*
X151325464Y-82021499D01*
X151326589Y-82024216D01*
X151326754Y-82025751D01*
X151327231Y-82027324D01*
X151326932Y-82027414D01*
X151334054Y-82093685D01*
X151302775Y-82156163D01*
X151242684Y-82191812D01*
X151172859Y-82189314D01*
X151164573Y-82186223D01*
X151042584Y-82135694D01*
X151042572Y-82135691D01*
X150887928Y-82104930D01*
X150887925Y-82104930D01*
X150730241Y-82104930D01*
X150730238Y-82104930D01*
X150575593Y-82135691D01*
X150575581Y-82135694D01*
X150429910Y-82196032D01*
X150429897Y-82196039D01*
X150298794Y-82283640D01*
X150298790Y-82283643D01*
X150187296Y-82395137D01*
X150187293Y-82395141D01*
X150099692Y-82526244D01*
X150099685Y-82526257D01*
X150039347Y-82671928D01*
X150039344Y-82671940D01*
X150008583Y-82826583D01*
X150008583Y-82990364D01*
X150006875Y-82990364D01*
X149995369Y-83051001D01*
X149947300Y-83101708D01*
X149884990Y-83118500D01*
X146820306Y-83118500D01*
X146753267Y-83098815D01*
X146732625Y-83082181D01*
X146376954Y-82726510D01*
X146376950Y-82726507D01*
X146262226Y-82649850D01*
X146262213Y-82649843D01*
X146134741Y-82597043D01*
X146134731Y-82597040D01*
X145999404Y-82570122D01*
X145999402Y-82570122D01*
X145951745Y-82570122D01*
X145884706Y-82550437D01*
X145864064Y-82533803D01*
X145356450Y-82026188D01*
X145356449Y-82026187D01*
X145241711Y-81949522D01*
X145114236Y-81896721D01*
X145114226Y-81896718D01*
X144978900Y-81869800D01*
X144978898Y-81869800D01*
X144978897Y-81869800D01*
X143388107Y-81869800D01*
X143388104Y-81869800D01*
X143284722Y-81890363D01*
X143284723Y-81890364D01*
X143252777Y-81896718D01*
X143252764Y-81896722D01*
X143204242Y-81916820D01*
X143204243Y-81916821D01*
X143125291Y-81949523D01*
X143125283Y-81949528D01*
X143014526Y-82023535D01*
X143014523Y-82023537D01*
X143010555Y-82026187D01*
X143010553Y-82026189D01*
X142404562Y-82632181D01*
X142343239Y-82665666D01*
X142316881Y-82668500D01*
X139904996Y-82668500D01*
X139837957Y-82648815D01*
X139817319Y-82632185D01*
X139669020Y-82483886D01*
X139583372Y-82426658D01*
X139554284Y-82407222D01*
X139426809Y-82354421D01*
X139426799Y-82354418D01*
X139291473Y-82327500D01*
X139291471Y-82327500D01*
X139291470Y-82327500D01*
X138214517Y-82327500D01*
X138076529Y-82327500D01*
X138076527Y-82327500D01*
X137941200Y-82354418D01*
X137941190Y-82354421D01*
X137813715Y-82407222D01*
X137698977Y-82483887D01*
X137698976Y-82483888D01*
X137100685Y-83082181D01*
X137039362Y-83115666D01*
X137013004Y-83118500D01*
X130480163Y-83118500D01*
X130413124Y-83098815D01*
X130367369Y-83046011D01*
X130357425Y-82976853D01*
X130386450Y-82913297D01*
X130392482Y-82906819D01*
X133949082Y-79350219D01*
X134010405Y-79316734D01*
X134036763Y-79313900D01*
X140310187Y-79313900D01*
X140345081Y-79318911D01*
X140351478Y-79320787D01*
X140446288Y-79360059D01*
X140562441Y-79383163D01*
X140587182Y-79388084D01*
X140591281Y-79388900D01*
X140591282Y-79388900D01*
X140591283Y-79388900D01*
X140739118Y-79388900D01*
X148903011Y-79388900D01*
X148950463Y-79398338D01*
X148980687Y-79410858D01*
X148980691Y-79410858D01*
X148980692Y-79410859D01*
X149125679Y-79439700D01*
X149125682Y-79439700D01*
X149332032Y-79439700D01*
X149334093Y-79439497D01*
X149346246Y-79438900D01*
X149387757Y-79438900D01*
X149387758Y-79438899D01*
X149542410Y-79408137D01*
X149658481Y-79360059D01*
X149688085Y-79347797D01*
X149688085Y-79347796D01*
X149688092Y-79347794D01*
X149819202Y-79260189D01*
X149930702Y-79148689D01*
X150018307Y-79017579D01*
X150078650Y-78871897D01*
X150109413Y-78717242D01*
X150109413Y-78559558D01*
X150109413Y-78559555D01*
X150109412Y-78559553D01*
X150089171Y-78457795D01*
X150078650Y-78404903D01*
X150018307Y-78259221D01*
X149997596Y-78228225D01*
X149976720Y-78161548D01*
X149976700Y-78159336D01*
X149976700Y-76464100D01*
X149996385Y-76397061D01*
X150049189Y-76351306D01*
X150100700Y-76340100D01*
X150192844Y-76340100D01*
X150192845Y-76340099D01*
X150347497Y-76309337D01*
X150493179Y-76248994D01*
X150624289Y-76161389D01*
X150735789Y-76049889D01*
X150823394Y-75918779D01*
X150883737Y-75773097D01*
X150914500Y-75618442D01*
X150914500Y-75460758D01*
X150914500Y-75460755D01*
X150914499Y-75460753D01*
X150907320Y-75424663D01*
X150883737Y-75306103D01*
X150865218Y-75261394D01*
X150823397Y-75160427D01*
X150823390Y-75160414D01*
X150735789Y-75029311D01*
X150735786Y-75029307D01*
X150710860Y-75004381D01*
X150700247Y-74984944D01*
X150685747Y-74968211D01*
X150683830Y-74954879D01*
X150677375Y-74943058D01*
X150678954Y-74920971D01*
X150675803Y-74899053D01*
X150681398Y-74886801D01*
X150682359Y-74873366D01*
X150695629Y-74855639D01*
X150704828Y-74835497D01*
X150716159Y-74828214D01*
X150724231Y-74817433D01*
X150744976Y-74809695D01*
X150763606Y-74797723D01*
X150785524Y-74794571D01*
X150789695Y-74793016D01*
X150798541Y-74792700D01*
X151033148Y-74792700D01*
X151100187Y-74812385D01*
G37*
%TD.AperFunction*%
%TA.AperFunction,NonConductor*%
G36*
X153508103Y-76943050D02*
G01*
X153514581Y-76949082D01*
X158901781Y-82336282D01*
X158916484Y-82363209D01*
X158933077Y-82389028D01*
X158933968Y-82395228D01*
X158935266Y-82397605D01*
X158938100Y-82423963D01*
X158938100Y-82605547D01*
X158918415Y-82672586D01*
X158865611Y-82718341D01*
X158796453Y-82728285D01*
X158789910Y-82727165D01*
X158727242Y-82714700D01*
X158569558Y-82714700D01*
X158569555Y-82714700D01*
X158414910Y-82745461D01*
X158414898Y-82745464D01*
X158269227Y-82805802D01*
X158269214Y-82805809D01*
X158138111Y-82893410D01*
X158138107Y-82893413D01*
X158026613Y-83004907D01*
X158026607Y-83004915D01*
X157939007Y-83136018D01*
X157939006Y-83136019D01*
X157929205Y-83159680D01*
X157902327Y-83199903D01*
X157713449Y-83388782D01*
X157652129Y-83422266D01*
X157625770Y-83425100D01*
X154634214Y-83425100D01*
X154567175Y-83405415D01*
X154521420Y-83352611D01*
X154512597Y-83325292D01*
X154490458Y-83213996D01*
X154490457Y-83213995D01*
X154490457Y-83213991D01*
X154449730Y-83115666D01*
X154430117Y-83068315D01*
X154430110Y-83068302D01*
X154342509Y-82937199D01*
X154342506Y-82937195D01*
X154231012Y-82825701D01*
X154231008Y-82825698D01*
X154099905Y-82738097D01*
X154099892Y-82738090D01*
X153954221Y-82677752D01*
X153954212Y-82677749D01*
X153897907Y-82666549D01*
X153835996Y-82634163D01*
X153801423Y-82573446D01*
X153798100Y-82544932D01*
X153798100Y-81535110D01*
X153798099Y-81535109D01*
X153785014Y-81469323D01*
X153769259Y-81390117D01*
X153713257Y-81254919D01*
X153712914Y-81253879D01*
X153712684Y-81253534D01*
X153654337Y-81166211D01*
X153630552Y-81130614D01*
X153630550Y-81130612D01*
X153630548Y-81130609D01*
X153339219Y-80839280D01*
X153305734Y-80777957D01*
X153302900Y-80751599D01*
X153302900Y-79471600D01*
X153322585Y-79404561D01*
X153339219Y-79383919D01*
X153414814Y-79308324D01*
X153579752Y-79143386D01*
X153607005Y-79102598D01*
X153661884Y-79020466D01*
X153690800Y-78950656D01*
X153718459Y-78883883D01*
X153747300Y-78738888D01*
X153747300Y-78591053D01*
X153747300Y-77928311D01*
X153745813Y-77920837D01*
X153741908Y-77901203D01*
X153728249Y-77832537D01*
X153718459Y-77783317D01*
X153683391Y-77698656D01*
X153661884Y-77646734D01*
X153586729Y-77534256D01*
X153579752Y-77523814D01*
X153339219Y-77283280D01*
X153324515Y-77256352D01*
X153307923Y-77230534D01*
X153307031Y-77224333D01*
X153305734Y-77221957D01*
X153302900Y-77195599D01*
X153302900Y-77036763D01*
X153322585Y-76969724D01*
X153375389Y-76923969D01*
X153444547Y-76914025D01*
X153508103Y-76943050D01*
G37*
%TD.AperFunction*%
%TA.AperFunction,NonConductor*%
G36*
X139850930Y-85752187D02*
G01*
X139876488Y-85765267D01*
X139925942Y-85798311D01*
X140039776Y-85845463D01*
X140100199Y-85857481D01*
X140160621Y-85869500D01*
X140160622Y-85869500D01*
X141445321Y-85869500D01*
X141512360Y-85889185D01*
X141558115Y-85941989D01*
X141568059Y-86011147D01*
X141539034Y-86074703D01*
X141533002Y-86081181D01*
X140571269Y-87042914D01*
X140571267Y-87042916D01*
X140542771Y-87071412D01*
X140484144Y-87130038D01*
X140484142Y-87130041D01*
X140468859Y-87152914D01*
X140468858Y-87152916D01*
X140468857Y-87152915D01*
X140415689Y-87232486D01*
X140415685Y-87232493D01*
X140395254Y-87281821D01*
X140395254Y-87281822D01*
X140368538Y-87346319D01*
X140368535Y-87346329D01*
X140344500Y-87467163D01*
X140344500Y-91337837D01*
X140324815Y-91404876D01*
X140272011Y-91450631D01*
X140202853Y-91460575D01*
X140139297Y-91431550D01*
X140132819Y-91425518D01*
X139395819Y-90688518D01*
X139362334Y-90627195D01*
X139359500Y-90600837D01*
X139359500Y-86192467D01*
X139379185Y-86125428D01*
X139395815Y-86104790D01*
X139719918Y-85780686D01*
X139781239Y-85747203D01*
X139850930Y-85752187D01*
G37*
%TD.AperFunction*%
%TA.AperFunction,NonConductor*%
G36*
X145955967Y-85185466D02*
G01*
X145975830Y-85186692D01*
X145986300Y-85188862D01*
X145990637Y-85190659D01*
X146096745Y-85211765D01*
X146128548Y-85218091D01*
X146135630Y-85219500D01*
X146135631Y-85219500D01*
X146135632Y-85219500D01*
X146283467Y-85219500D01*
X148529101Y-85219500D01*
X148596140Y-85239185D01*
X148641895Y-85291989D01*
X148651839Y-85361147D01*
X148643662Y-85390952D01*
X148598121Y-85500898D01*
X148598118Y-85500910D01*
X148567357Y-85655553D01*
X148567357Y-85813246D01*
X148598118Y-85967889D01*
X148598121Y-85967901D01*
X148658459Y-86113572D01*
X148658466Y-86113585D01*
X148746067Y-86244688D01*
X148746070Y-86244692D01*
X148857564Y-86356186D01*
X148857568Y-86356189D01*
X148988671Y-86443790D01*
X148988684Y-86443797D01*
X149134355Y-86504135D01*
X149134360Y-86504137D01*
X149289010Y-86534899D01*
X149289013Y-86534900D01*
X149289015Y-86534900D01*
X149446701Y-86534900D01*
X149446702Y-86534899D01*
X149601354Y-86504137D01*
X149666715Y-86477063D01*
X149736181Y-86469594D01*
X149783058Y-86488523D01*
X149816777Y-86511054D01*
X149816792Y-86511062D01*
X149904195Y-86547264D01*
X149962468Y-86571402D01*
X149968256Y-86572553D01*
X150030168Y-86604936D01*
X150058630Y-86646718D01*
X150106527Y-86762353D01*
X150106532Y-86762362D01*
X150194133Y-86893465D01*
X150194136Y-86893469D01*
X150241064Y-86940397D01*
X150274549Y-87001720D01*
X150269565Y-87071412D01*
X150241064Y-87115759D01*
X146611717Y-90745107D01*
X146550394Y-90778592D01*
X146480702Y-90773608D01*
X146424769Y-90731736D01*
X146400352Y-90666272D01*
X146402419Y-90633234D01*
X146420700Y-90541331D01*
X146420700Y-90408269D01*
X146420700Y-90332719D01*
X146440385Y-90265680D01*
X146441598Y-90263828D01*
X146454594Y-90244379D01*
X146514937Y-90098697D01*
X146545700Y-89944042D01*
X146545700Y-89786358D01*
X146545700Y-89786355D01*
X146545699Y-89786353D01*
X146514938Y-89631710D01*
X146514937Y-89631703D01*
X146473494Y-89531652D01*
X146466026Y-89462183D01*
X146473495Y-89436747D01*
X146484454Y-89410289D01*
X146514937Y-89336697D01*
X146545700Y-89182042D01*
X146545700Y-89024358D01*
X146545700Y-89024355D01*
X146545699Y-89024353D01*
X146530981Y-88950360D01*
X146514937Y-88869703D01*
X146514932Y-88869692D01*
X146513169Y-88863876D01*
X146515849Y-88863062D01*
X146509610Y-88805585D01*
X146517103Y-88780018D01*
X146517700Y-88778579D01*
X146548463Y-88623924D01*
X146548463Y-88466240D01*
X146548463Y-88466237D01*
X146548462Y-88466235D01*
X146540879Y-88428111D01*
X146517700Y-88311585D01*
X146492932Y-88251789D01*
X146457360Y-88165909D01*
X146457353Y-88165896D01*
X146369752Y-88034793D01*
X146369749Y-88034789D01*
X146258255Y-87923295D01*
X146258251Y-87923292D01*
X146127148Y-87835691D01*
X146127135Y-87835684D01*
X145981464Y-87775346D01*
X145981452Y-87775343D01*
X145826808Y-87744582D01*
X145826805Y-87744582D01*
X145669121Y-87744582D01*
X145669118Y-87744582D01*
X145514473Y-87775343D01*
X145514461Y-87775346D01*
X145368790Y-87835684D01*
X145368777Y-87835691D01*
X145237674Y-87923292D01*
X145237670Y-87923295D01*
X145126176Y-88034789D01*
X145126173Y-88034793D01*
X145038572Y-88165896D01*
X145038565Y-88165909D01*
X144978227Y-88311580D01*
X144978224Y-88311592D01*
X144947463Y-88466235D01*
X144947463Y-88623928D01*
X144978224Y-88778576D01*
X144979995Y-88784412D01*
X144977313Y-88785225D01*
X144983552Y-88842696D01*
X144976064Y-88868250D01*
X144975465Y-88869695D01*
X144975462Y-88869705D01*
X144944700Y-89024355D01*
X144944700Y-89182046D01*
X144975461Y-89336689D01*
X144975463Y-89336697D01*
X145016905Y-89436747D01*
X145024374Y-89506217D01*
X145016905Y-89531650D01*
X145010046Y-89548211D01*
X144975463Y-89631702D01*
X144975461Y-89631710D01*
X144944700Y-89786353D01*
X144944700Y-89944046D01*
X144975461Y-90098689D01*
X144975464Y-90098701D01*
X144999563Y-90156881D01*
X145007032Y-90226350D01*
X144975756Y-90288829D01*
X144972683Y-90292014D01*
X143051069Y-92213628D01*
X142989746Y-92247113D01*
X142920054Y-92242129D01*
X142875707Y-92213628D01*
X142801092Y-92139013D01*
X142801088Y-92139010D01*
X142669985Y-92051409D01*
X142669972Y-92051402D01*
X142547880Y-92000831D01*
X142493476Y-91956990D01*
X142471411Y-91890696D01*
X142488690Y-91822997D01*
X142526443Y-91783167D01*
X142530410Y-91780515D01*
X142551963Y-91766115D01*
X142663463Y-91654615D01*
X142751068Y-91523505D01*
X142753000Y-91518842D01*
X142764741Y-91490492D01*
X142811411Y-91377823D01*
X142842174Y-91223168D01*
X142842174Y-91065484D01*
X142842174Y-91065481D01*
X142842173Y-91065479D01*
X142811412Y-90910836D01*
X142811411Y-90910829D01*
X142803894Y-90892681D01*
X142751071Y-90765153D01*
X142751064Y-90765140D01*
X142663463Y-90634037D01*
X142663460Y-90634033D01*
X142589957Y-90560530D01*
X142556472Y-90499207D01*
X142561456Y-90429515D01*
X142589957Y-90385168D01*
X142635786Y-90339338D01*
X142635789Y-90339335D01*
X142723394Y-90208225D01*
X142783737Y-90062543D01*
X142814500Y-89907888D01*
X142814500Y-89750204D01*
X142814500Y-89750201D01*
X142814499Y-89750199D01*
X142783737Y-89595549D01*
X142753185Y-89521789D01*
X142723397Y-89449873D01*
X142723390Y-89449860D01*
X142635789Y-89318757D01*
X142635786Y-89318753D01*
X142524292Y-89207259D01*
X142524288Y-89207256D01*
X142393185Y-89119655D01*
X142393172Y-89119648D01*
X142247501Y-89059310D01*
X142247489Y-89059307D01*
X142092845Y-89028546D01*
X142092842Y-89028546D01*
X141935158Y-89028546D01*
X141935155Y-89028546D01*
X141780510Y-89059307D01*
X141780503Y-89059309D01*
X141766949Y-89064923D01*
X141697479Y-89072389D01*
X141635001Y-89041112D01*
X141599351Y-88981022D01*
X141595500Y-88950360D01*
X141595500Y-87839226D01*
X141615185Y-87772187D01*
X141631819Y-87751545D01*
X143740626Y-85642739D01*
X143740626Y-85642738D01*
X143740631Y-85642734D01*
X143743331Y-85638694D01*
X143753206Y-85623916D01*
X143809081Y-85540292D01*
X143809081Y-85540291D01*
X143809085Y-85540286D01*
X143856237Y-85426452D01*
X143857657Y-85419308D01*
X143872372Y-85391178D01*
X143885562Y-85362297D01*
X143888451Y-85360440D01*
X143890042Y-85357399D01*
X143917625Y-85341690D01*
X143944340Y-85324523D01*
X143948933Y-85323862D01*
X143950757Y-85322824D01*
X143979275Y-85319500D01*
X144146756Y-85319500D01*
X144213795Y-85339185D01*
X144259550Y-85391989D01*
X144269494Y-85461147D01*
X144268373Y-85467691D01*
X144239905Y-85610807D01*
X144239905Y-85768500D01*
X144270666Y-85923143D01*
X144270669Y-85923155D01*
X144331007Y-86068826D01*
X144331014Y-86068839D01*
X144418615Y-86199942D01*
X144418618Y-86199946D01*
X144530112Y-86311440D01*
X144530116Y-86311443D01*
X144661219Y-86399044D01*
X144661232Y-86399051D01*
X144769253Y-86443794D01*
X144806908Y-86459391D01*
X144961558Y-86490153D01*
X144961561Y-86490154D01*
X144961563Y-86490154D01*
X145119249Y-86490154D01*
X145119250Y-86490153D01*
X145273902Y-86459391D01*
X145419584Y-86399048D01*
X145550694Y-86311443D01*
X145662194Y-86199943D01*
X145749799Y-86068833D01*
X145753339Y-86060288D01*
X145788557Y-85975262D01*
X145810142Y-85923151D01*
X145840905Y-85768496D01*
X145840905Y-85610812D01*
X145840905Y-85610809D01*
X145840904Y-85610807D01*
X145810142Y-85456157D01*
X145801221Y-85434620D01*
X145795072Y-85419774D01*
X145787603Y-85350305D01*
X145806532Y-85303430D01*
X145837702Y-85256781D01*
X145840573Y-85251410D01*
X145842665Y-85252528D01*
X145856299Y-85235588D01*
X145875380Y-85209574D01*
X145878069Y-85208540D01*
X145879876Y-85206296D01*
X145910482Y-85196089D01*
X145940603Y-85184518D01*
X145944464Y-85184756D01*
X145946157Y-85184192D01*
X145955967Y-85185466D01*
G37*
%TD.AperFunction*%
M02*
