%TF.GenerationSoftware,KiCad,Pcbnew,9.0.6*%
%TF.CreationDate,2026-03-10T21:33:07+03:00*%
%TF.ProjectId,R_esc,525f6573-632e-46b6-9963-61645f706362,rev?*%
%TF.SameCoordinates,Original*%
%TF.FileFunction,Legend,Bot*%
%TF.FilePolarity,Positive*%
%FSLAX46Y46*%
G04 Gerber Fmt 4.6, Leading zero omitted, Abs format (unit mm)*
G04 Created by KiCad (PCBNEW 9.0.6) date 2026-03-10 21:33:07*
%MOMM*%
%LPD*%
G01*
G04 APERTURE LIST*
%ADD10C,0.150000*%
%ADD11C,0.120000*%
%ADD12C,0.152400*%
G04 APERTURE END LIST*
D10*
X166410819Y-73657142D02*
X165934628Y-73323809D01*
X166410819Y-73085714D02*
X165410819Y-73085714D01*
X165410819Y-73085714D02*
X165410819Y-73466666D01*
X165410819Y-73466666D02*
X165458438Y-73561904D01*
X165458438Y-73561904D02*
X165506057Y-73609523D01*
X165506057Y-73609523D02*
X165601295Y-73657142D01*
X165601295Y-73657142D02*
X165744152Y-73657142D01*
X165744152Y-73657142D02*
X165839390Y-73609523D01*
X165839390Y-73609523D02*
X165887009Y-73561904D01*
X165887009Y-73561904D02*
X165934628Y-73466666D01*
X165934628Y-73466666D02*
X165934628Y-73085714D01*
X166410819Y-74609523D02*
X166410819Y-74038095D01*
X166410819Y-74323809D02*
X165410819Y-74323809D01*
X165410819Y-74323809D02*
X165553676Y-74228571D01*
X165553676Y-74228571D02*
X165648914Y-74133333D01*
X165648914Y-74133333D02*
X165696533Y-74038095D01*
X165410819Y-74942857D02*
X165410819Y-75609523D01*
X165410819Y-75609523D02*
X166410819Y-75180952D01*
X166939119Y-68381142D02*
X166462928Y-68047809D01*
X166939119Y-67809714D02*
X165939119Y-67809714D01*
X165939119Y-67809714D02*
X165939119Y-68190666D01*
X165939119Y-68190666D02*
X165986738Y-68285904D01*
X165986738Y-68285904D02*
X166034357Y-68333523D01*
X166034357Y-68333523D02*
X166129595Y-68381142D01*
X166129595Y-68381142D02*
X166272452Y-68381142D01*
X166272452Y-68381142D02*
X166367690Y-68333523D01*
X166367690Y-68333523D02*
X166415309Y-68285904D01*
X166415309Y-68285904D02*
X166462928Y-68190666D01*
X166462928Y-68190666D02*
X166462928Y-67809714D01*
X166939119Y-69333523D02*
X166939119Y-68762095D01*
X166939119Y-69047809D02*
X165939119Y-69047809D01*
X165939119Y-69047809D02*
X166081976Y-68952571D01*
X166081976Y-68952571D02*
X166177214Y-68857333D01*
X166177214Y-68857333D02*
X166224833Y-68762095D01*
X165939119Y-69952571D02*
X165939119Y-70047809D01*
X165939119Y-70047809D02*
X165986738Y-70143047D01*
X165986738Y-70143047D02*
X166034357Y-70190666D01*
X166034357Y-70190666D02*
X166129595Y-70238285D01*
X166129595Y-70238285D02*
X166320071Y-70285904D01*
X166320071Y-70285904D02*
X166558166Y-70285904D01*
X166558166Y-70285904D02*
X166748642Y-70238285D01*
X166748642Y-70238285D02*
X166843880Y-70190666D01*
X166843880Y-70190666D02*
X166891500Y-70143047D01*
X166891500Y-70143047D02*
X166939119Y-70047809D01*
X166939119Y-70047809D02*
X166939119Y-69952571D01*
X166939119Y-69952571D02*
X166891500Y-69857333D01*
X166891500Y-69857333D02*
X166843880Y-69809714D01*
X166843880Y-69809714D02*
X166748642Y-69762095D01*
X166748642Y-69762095D02*
X166558166Y-69714476D01*
X166558166Y-69714476D02*
X166320071Y-69714476D01*
X166320071Y-69714476D02*
X166129595Y-69762095D01*
X166129595Y-69762095D02*
X166034357Y-69809714D01*
X166034357Y-69809714D02*
X165986738Y-69857333D01*
X165986738Y-69857333D02*
X165939119Y-69952571D01*
X164759819Y-81526142D02*
X164283628Y-81192809D01*
X164759819Y-80954714D02*
X163759819Y-80954714D01*
X163759819Y-80954714D02*
X163759819Y-81335666D01*
X163759819Y-81335666D02*
X163807438Y-81430904D01*
X163807438Y-81430904D02*
X163855057Y-81478523D01*
X163855057Y-81478523D02*
X163950295Y-81526142D01*
X163950295Y-81526142D02*
X164093152Y-81526142D01*
X164093152Y-81526142D02*
X164188390Y-81478523D01*
X164188390Y-81478523D02*
X164236009Y-81430904D01*
X164236009Y-81430904D02*
X164283628Y-81335666D01*
X164283628Y-81335666D02*
X164283628Y-80954714D01*
X164759819Y-82478523D02*
X164759819Y-81907095D01*
X164759819Y-82192809D02*
X163759819Y-82192809D01*
X163759819Y-82192809D02*
X163902676Y-82097571D01*
X163902676Y-82097571D02*
X163997914Y-82002333D01*
X163997914Y-82002333D02*
X164045533Y-81907095D01*
X163759819Y-82811857D02*
X163759819Y-83430904D01*
X163759819Y-83430904D02*
X164140771Y-83097571D01*
X164140771Y-83097571D02*
X164140771Y-83240428D01*
X164140771Y-83240428D02*
X164188390Y-83335666D01*
X164188390Y-83335666D02*
X164236009Y-83383285D01*
X164236009Y-83383285D02*
X164331247Y-83430904D01*
X164331247Y-83430904D02*
X164569342Y-83430904D01*
X164569342Y-83430904D02*
X164664580Y-83383285D01*
X164664580Y-83383285D02*
X164712200Y-83335666D01*
X164712200Y-83335666D02*
X164759819Y-83240428D01*
X164759819Y-83240428D02*
X164759819Y-82954714D01*
X164759819Y-82954714D02*
X164712200Y-82859476D01*
X164712200Y-82859476D02*
X164664580Y-82811857D01*
X166283819Y-67556142D02*
X165807628Y-67222809D01*
X166283819Y-66984714D02*
X165283819Y-66984714D01*
X165283819Y-66984714D02*
X165283819Y-67365666D01*
X165283819Y-67365666D02*
X165331438Y-67460904D01*
X165331438Y-67460904D02*
X165379057Y-67508523D01*
X165379057Y-67508523D02*
X165474295Y-67556142D01*
X165474295Y-67556142D02*
X165617152Y-67556142D01*
X165617152Y-67556142D02*
X165712390Y-67508523D01*
X165712390Y-67508523D02*
X165760009Y-67460904D01*
X165760009Y-67460904D02*
X165807628Y-67365666D01*
X165807628Y-67365666D02*
X165807628Y-66984714D01*
X166283819Y-68508523D02*
X166283819Y-67937095D01*
X166283819Y-68222809D02*
X165283819Y-68222809D01*
X165283819Y-68222809D02*
X165426676Y-68127571D01*
X165426676Y-68127571D02*
X165521914Y-68032333D01*
X165521914Y-68032333D02*
X165569533Y-67937095D01*
X165283819Y-69365666D02*
X165283819Y-69175190D01*
X165283819Y-69175190D02*
X165331438Y-69079952D01*
X165331438Y-69079952D02*
X165379057Y-69032333D01*
X165379057Y-69032333D02*
X165521914Y-68937095D01*
X165521914Y-68937095D02*
X165712390Y-68889476D01*
X165712390Y-68889476D02*
X166093342Y-68889476D01*
X166093342Y-68889476D02*
X166188580Y-68937095D01*
X166188580Y-68937095D02*
X166236200Y-68984714D01*
X166236200Y-68984714D02*
X166283819Y-69079952D01*
X166283819Y-69079952D02*
X166283819Y-69270428D01*
X166283819Y-69270428D02*
X166236200Y-69365666D01*
X166236200Y-69365666D02*
X166188580Y-69413285D01*
X166188580Y-69413285D02*
X166093342Y-69460904D01*
X166093342Y-69460904D02*
X165855247Y-69460904D01*
X165855247Y-69460904D02*
X165760009Y-69413285D01*
X165760009Y-69413285D02*
X165712390Y-69365666D01*
X165712390Y-69365666D02*
X165664771Y-69270428D01*
X165664771Y-69270428D02*
X165664771Y-69079952D01*
X165664771Y-69079952D02*
X165712390Y-68984714D01*
X165712390Y-68984714D02*
X165760009Y-68937095D01*
X165760009Y-68937095D02*
X165855247Y-68889476D01*
X173582280Y-68656904D02*
X172772757Y-68656904D01*
X172772757Y-68656904D02*
X172677519Y-68609285D01*
X172677519Y-68609285D02*
X172629900Y-68561666D01*
X172629900Y-68561666D02*
X172582280Y-68466428D01*
X172582280Y-68466428D02*
X172582280Y-68275952D01*
X172582280Y-68275952D02*
X172629900Y-68180714D01*
X172629900Y-68180714D02*
X172677519Y-68133095D01*
X172677519Y-68133095D02*
X172772757Y-68085476D01*
X172772757Y-68085476D02*
X173582280Y-68085476D01*
X173582280Y-67180714D02*
X173582280Y-67371190D01*
X173582280Y-67371190D02*
X173534661Y-67466428D01*
X173534661Y-67466428D02*
X173487042Y-67514047D01*
X173487042Y-67514047D02*
X173344185Y-67609285D01*
X173344185Y-67609285D02*
X173153709Y-67656904D01*
X173153709Y-67656904D02*
X172772757Y-67656904D01*
X172772757Y-67656904D02*
X172677519Y-67609285D01*
X172677519Y-67609285D02*
X172629900Y-67561666D01*
X172629900Y-67561666D02*
X172582280Y-67466428D01*
X172582280Y-67466428D02*
X172582280Y-67275952D01*
X172582280Y-67275952D02*
X172629900Y-67180714D01*
X172629900Y-67180714D02*
X172677519Y-67133095D01*
X172677519Y-67133095D02*
X172772757Y-67085476D01*
X172772757Y-67085476D02*
X173010852Y-67085476D01*
X173010852Y-67085476D02*
X173106090Y-67133095D01*
X173106090Y-67133095D02*
X173153709Y-67180714D01*
X173153709Y-67180714D02*
X173201328Y-67275952D01*
X173201328Y-67275952D02*
X173201328Y-67466428D01*
X173201328Y-67466428D02*
X173153709Y-67561666D01*
X173153709Y-67561666D02*
X173106090Y-67609285D01*
X173106090Y-67609285D02*
X173010852Y-67656904D01*
X169126819Y-70866000D02*
X169364914Y-70866000D01*
X169269676Y-70627905D02*
X169364914Y-70866000D01*
X169364914Y-70866000D02*
X169269676Y-71104095D01*
X169555390Y-70723143D02*
X169364914Y-70866000D01*
X169364914Y-70866000D02*
X169555390Y-71008857D01*
X170217180Y-70865999D02*
X169979085Y-70865999D01*
X170074323Y-71104094D02*
X169979085Y-70865999D01*
X169979085Y-70865999D02*
X170074323Y-70627904D01*
X169788609Y-71008856D02*
X169979085Y-70865999D01*
X169979085Y-70865999D02*
X169788609Y-70723142D01*
X173575280Y-83407094D02*
X172765757Y-83407094D01*
X172765757Y-83407094D02*
X172670519Y-83359475D01*
X172670519Y-83359475D02*
X172622900Y-83311856D01*
X172622900Y-83311856D02*
X172575280Y-83216618D01*
X172575280Y-83216618D02*
X172575280Y-83026142D01*
X172575280Y-83026142D02*
X172622900Y-82930904D01*
X172622900Y-82930904D02*
X172670519Y-82883285D01*
X172670519Y-82883285D02*
X172765757Y-82835666D01*
X172765757Y-82835666D02*
X173575280Y-82835666D01*
X172575280Y-81835666D02*
X172575280Y-82407094D01*
X172575280Y-82121380D02*
X173575280Y-82121380D01*
X173575280Y-82121380D02*
X173432423Y-82216618D01*
X173432423Y-82216618D02*
X173337185Y-82311856D01*
X173337185Y-82311856D02*
X173289566Y-82407094D01*
X173575280Y-81216618D02*
X173575280Y-81121380D01*
X173575280Y-81121380D02*
X173527661Y-81026142D01*
X173527661Y-81026142D02*
X173480042Y-80978523D01*
X173480042Y-80978523D02*
X173384804Y-80930904D01*
X173384804Y-80930904D02*
X173194328Y-80883285D01*
X173194328Y-80883285D02*
X172956233Y-80883285D01*
X172956233Y-80883285D02*
X172765757Y-80930904D01*
X172765757Y-80930904D02*
X172670519Y-80978523D01*
X172670519Y-80978523D02*
X172622900Y-81026142D01*
X172622900Y-81026142D02*
X172575280Y-81121380D01*
X172575280Y-81121380D02*
X172575280Y-81216618D01*
X172575280Y-81216618D02*
X172622900Y-81311856D01*
X172622900Y-81311856D02*
X172670519Y-81359475D01*
X172670519Y-81359475D02*
X172765757Y-81407094D01*
X172765757Y-81407094D02*
X172956233Y-81454713D01*
X172956233Y-81454713D02*
X173194328Y-81454713D01*
X173194328Y-81454713D02*
X173384804Y-81407094D01*
X173384804Y-81407094D02*
X173480042Y-81359475D01*
X173480042Y-81359475D02*
X173527661Y-81311856D01*
X173527661Y-81311856D02*
X173575280Y-81216618D01*
X169968480Y-85343999D02*
X169730385Y-85343999D01*
X169825623Y-85582094D02*
X169730385Y-85343999D01*
X169730385Y-85343999D02*
X169825623Y-85105904D01*
X169539909Y-85486856D02*
X169730385Y-85343999D01*
X169730385Y-85343999D02*
X169539909Y-85201142D01*
X168878119Y-85344000D02*
X169116214Y-85344000D01*
X169020976Y-85105905D02*
X169116214Y-85344000D01*
X169116214Y-85344000D02*
X169020976Y-85582095D01*
X169306690Y-85201143D02*
X169116214Y-85344000D01*
X169116214Y-85344000D02*
X169306690Y-85486857D01*
X173551980Y-75206904D02*
X172742457Y-75206904D01*
X172742457Y-75206904D02*
X172647219Y-75159285D01*
X172647219Y-75159285D02*
X172599600Y-75111666D01*
X172599600Y-75111666D02*
X172551980Y-75016428D01*
X172551980Y-75016428D02*
X172551980Y-74825952D01*
X172551980Y-74825952D02*
X172599600Y-74730714D01*
X172599600Y-74730714D02*
X172647219Y-74683095D01*
X172647219Y-74683095D02*
X172742457Y-74635476D01*
X172742457Y-74635476D02*
X173551980Y-74635476D01*
X173123409Y-74016428D02*
X173171028Y-74111666D01*
X173171028Y-74111666D02*
X173218647Y-74159285D01*
X173218647Y-74159285D02*
X173313885Y-74206904D01*
X173313885Y-74206904D02*
X173361504Y-74206904D01*
X173361504Y-74206904D02*
X173456742Y-74159285D01*
X173456742Y-74159285D02*
X173504361Y-74111666D01*
X173504361Y-74111666D02*
X173551980Y-74016428D01*
X173551980Y-74016428D02*
X173551980Y-73825952D01*
X173551980Y-73825952D02*
X173504361Y-73730714D01*
X173504361Y-73730714D02*
X173456742Y-73683095D01*
X173456742Y-73683095D02*
X173361504Y-73635476D01*
X173361504Y-73635476D02*
X173313885Y-73635476D01*
X173313885Y-73635476D02*
X173218647Y-73683095D01*
X173218647Y-73683095D02*
X173171028Y-73730714D01*
X173171028Y-73730714D02*
X173123409Y-73825952D01*
X173123409Y-73825952D02*
X173123409Y-74016428D01*
X173123409Y-74016428D02*
X173075790Y-74111666D01*
X173075790Y-74111666D02*
X173028171Y-74159285D01*
X173028171Y-74159285D02*
X172932933Y-74206904D01*
X172932933Y-74206904D02*
X172742457Y-74206904D01*
X172742457Y-74206904D02*
X172647219Y-74159285D01*
X172647219Y-74159285D02*
X172599600Y-74111666D01*
X172599600Y-74111666D02*
X172551980Y-74016428D01*
X172551980Y-74016428D02*
X172551980Y-73825952D01*
X172551980Y-73825952D02*
X172599600Y-73730714D01*
X172599600Y-73730714D02*
X172647219Y-73683095D01*
X172647219Y-73683095D02*
X172742457Y-73635476D01*
X172742457Y-73635476D02*
X172932933Y-73635476D01*
X172932933Y-73635476D02*
X173028171Y-73683095D01*
X173028171Y-73683095D02*
X173075790Y-73730714D01*
X173075790Y-73730714D02*
X173123409Y-73825952D01*
X169109919Y-77539000D02*
X169348014Y-77539000D01*
X169252776Y-77300905D02*
X169348014Y-77539000D01*
X169348014Y-77539000D02*
X169252776Y-77777095D01*
X169538490Y-77396143D02*
X169348014Y-77539000D01*
X169348014Y-77539000D02*
X169538490Y-77681857D01*
X170200280Y-77538999D02*
X169962185Y-77538999D01*
X170057423Y-77777094D02*
X169962185Y-77538999D01*
X169962185Y-77538999D02*
X170057423Y-77300904D01*
X169771709Y-77681856D02*
X169962185Y-77538999D01*
X169962185Y-77538999D02*
X169771709Y-77396142D01*
X167619819Y-73652142D02*
X167143628Y-73318809D01*
X167619819Y-73080714D02*
X166619819Y-73080714D01*
X166619819Y-73080714D02*
X166619819Y-73461666D01*
X166619819Y-73461666D02*
X166667438Y-73556904D01*
X166667438Y-73556904D02*
X166715057Y-73604523D01*
X166715057Y-73604523D02*
X166810295Y-73652142D01*
X166810295Y-73652142D02*
X166953152Y-73652142D01*
X166953152Y-73652142D02*
X167048390Y-73604523D01*
X167048390Y-73604523D02*
X167096009Y-73556904D01*
X167096009Y-73556904D02*
X167143628Y-73461666D01*
X167143628Y-73461666D02*
X167143628Y-73080714D01*
X167619819Y-74604523D02*
X167619819Y-74033095D01*
X167619819Y-74318809D02*
X166619819Y-74318809D01*
X166619819Y-74318809D02*
X166762676Y-74223571D01*
X166762676Y-74223571D02*
X166857914Y-74128333D01*
X166857914Y-74128333D02*
X166905533Y-74033095D01*
X167619819Y-75556904D02*
X167619819Y-74985476D01*
X167619819Y-75271190D02*
X166619819Y-75271190D01*
X166619819Y-75271190D02*
X166762676Y-75175952D01*
X166762676Y-75175952D02*
X166857914Y-75080714D01*
X166857914Y-75080714D02*
X166905533Y-74985476D01*
X166410819Y-81526142D02*
X165934628Y-81192809D01*
X166410819Y-80954714D02*
X165410819Y-80954714D01*
X165410819Y-80954714D02*
X165410819Y-81335666D01*
X165410819Y-81335666D02*
X165458438Y-81430904D01*
X165458438Y-81430904D02*
X165506057Y-81478523D01*
X165506057Y-81478523D02*
X165601295Y-81526142D01*
X165601295Y-81526142D02*
X165744152Y-81526142D01*
X165744152Y-81526142D02*
X165839390Y-81478523D01*
X165839390Y-81478523D02*
X165887009Y-81430904D01*
X165887009Y-81430904D02*
X165934628Y-81335666D01*
X165934628Y-81335666D02*
X165934628Y-80954714D01*
X166410819Y-82478523D02*
X166410819Y-81907095D01*
X166410819Y-82192809D02*
X165410819Y-82192809D01*
X165410819Y-82192809D02*
X165553676Y-82097571D01*
X165553676Y-82097571D02*
X165648914Y-82002333D01*
X165648914Y-82002333D02*
X165696533Y-81907095D01*
X166410819Y-82954714D02*
X166410819Y-83145190D01*
X166410819Y-83145190D02*
X166363200Y-83240428D01*
X166363200Y-83240428D02*
X166315580Y-83288047D01*
X166315580Y-83288047D02*
X166172723Y-83383285D01*
X166172723Y-83383285D02*
X165982247Y-83430904D01*
X165982247Y-83430904D02*
X165601295Y-83430904D01*
X165601295Y-83430904D02*
X165506057Y-83383285D01*
X165506057Y-83383285D02*
X165458438Y-83335666D01*
X165458438Y-83335666D02*
X165410819Y-83240428D01*
X165410819Y-83240428D02*
X165410819Y-83049952D01*
X165410819Y-83049952D02*
X165458438Y-82954714D01*
X165458438Y-82954714D02*
X165506057Y-82907095D01*
X165506057Y-82907095D02*
X165601295Y-82859476D01*
X165601295Y-82859476D02*
X165839390Y-82859476D01*
X165839390Y-82859476D02*
X165934628Y-82907095D01*
X165934628Y-82907095D02*
X165982247Y-82954714D01*
X165982247Y-82954714D02*
X166029866Y-83049952D01*
X166029866Y-83049952D02*
X166029866Y-83240428D01*
X166029866Y-83240428D02*
X165982247Y-83335666D01*
X165982247Y-83335666D02*
X165934628Y-83383285D01*
X165934628Y-83383285D02*
X165839390Y-83430904D01*
D11*
%TO.C,R17*%
X166863500Y-74062742D02*
X166863500Y-74537258D01*
X167908500Y-74062742D02*
X167908500Y-74537258D01*
%TO.C,R10*%
X165339500Y-68436258D02*
X165339500Y-67961742D01*
X166384500Y-68436258D02*
X166384500Y-67961742D01*
%TO.C,R13*%
X165212500Y-81931742D02*
X165212500Y-82406258D01*
X166257500Y-81931742D02*
X166257500Y-82406258D01*
%TO.C,R16*%
X166736500Y-67961742D02*
X166736500Y-68436258D01*
X167781500Y-67961742D02*
X167781500Y-68436258D01*
D12*
%TO.C,U6*%
X170674900Y-65266100D02*
X175399300Y-65266100D01*
X170674900Y-70523900D02*
X170674900Y-65266100D01*
X175399300Y-65266100D02*
X175399300Y-65504860D01*
X175399300Y-70285140D02*
X175399300Y-70523900D01*
X175399300Y-70523900D02*
X170674900Y-70523900D01*
%TO.C,U10*%
X170667900Y-79540100D02*
X175392300Y-79540100D01*
X170667900Y-84797900D02*
X170667900Y-79540100D01*
X175392300Y-79540100D02*
X175392300Y-79778860D01*
X175392300Y-84559140D02*
X175392300Y-84797900D01*
X175392300Y-84797900D02*
X170667900Y-84797900D01*
%TO.C,U8*%
X170644600Y-71816100D02*
X175369000Y-71816100D01*
X170644600Y-77073900D02*
X170644600Y-71816100D01*
X175369000Y-71816100D02*
X175369000Y-72054860D01*
X175369000Y-76835140D02*
X175369000Y-77073900D01*
X175369000Y-77073900D02*
X170644600Y-77073900D01*
D11*
%TO.C,R11*%
X165212500Y-74532258D02*
X165212500Y-74057742D01*
X166257500Y-74532258D02*
X166257500Y-74057742D01*
%TO.C,R19*%
X166863500Y-81931742D02*
X166863500Y-82406258D01*
X167908500Y-81931742D02*
X167908500Y-82406258D01*
%TD*%
M02*
