%TF.GenerationSoftware,KiCad,Pcbnew,9.0.6*%
%TF.CreationDate,2026-03-10T21:33:07+03:00*%
%TF.ProjectId,R_esc,525f6573-632e-46b6-9963-61645f706362,rev?*%
%TF.SameCoordinates,Original*%
%TF.FileFunction,Copper,L3,Inr*%
%TF.FilePolarity,Positive*%
%FSLAX46Y46*%
G04 Gerber Fmt 4.6, Leading zero omitted, Abs format (unit mm)*
G04 Created by KiCad (PCBNEW 9.0.6) date 2026-03-10 21:33:07*
%MOMM*%
%LPD*%
G01*
G04 APERTURE LIST*
%TA.AperFunction,ComponentPad*%
%ADD10R,1.700000X1.700000*%
%TD*%
%TA.AperFunction,ComponentPad*%
%ADD11C,1.700000*%
%TD*%
%TA.AperFunction,ViaPad*%
%ADD12C,0.600000*%
%TD*%
%TA.AperFunction,Conductor*%
%ADD13C,0.250000*%
%TD*%
%TA.AperFunction,Conductor*%
%ADD14C,0.350000*%
%TD*%
%TA.AperFunction,Conductor*%
%ADD15C,0.150000*%
%TD*%
G04 APERTURE END LIST*
D10*
%TO.N,Vcc*%
%TO.C,J7*%
X147828000Y-68326000D03*
%TD*%
%TO.N,/Motor1_A*%
%TO.C,J3*%
X178816000Y-67056000D03*
%TD*%
%TO.N,/Motor1_C*%
%TO.C,J5*%
X178689000Y-81407000D03*
%TD*%
%TO.N,gnd_p*%
%TO.C,J6*%
X147850000Y-64600000D03*
%TD*%
%TO.N,/Signalin*%
%TO.C,J1*%
X127609600Y-70408800D03*
D11*
%TO.N,/UART_TX*%
X130149600Y-70408800D03*
%TO.N,gnd_d*%
X132689600Y-70408800D03*
%TD*%
D10*
%TO.N,VDD*%
%TO.C,J2*%
X126085600Y-66802000D03*
D11*
%TO.N,/SWCLK*%
X128625600Y-66802000D03*
%TO.N,/SWDIO*%
X131165600Y-66802000D03*
%TO.N,gnd_d*%
X133705600Y-66802000D03*
%TD*%
D10*
%TO.N,/Motor1_B*%
%TO.C,J4*%
X178689000Y-73279000D03*
%TD*%
D12*
%TO.N,*%
X181610000Y-96520000D03*
X181610000Y-95250000D03*
X181610000Y-93980000D03*
X181610000Y-92710000D03*
X181610000Y-91440000D03*
X181610000Y-90170000D03*
X181610000Y-88900000D03*
X181610000Y-87630000D03*
X137160000Y-68580000D03*
X138430000Y-68580000D03*
X139700000Y-68580000D03*
X139700000Y-67310000D03*
X138430000Y-67310000D03*
X137160000Y-67310000D03*
X175260000Y-93980000D03*
X175260000Y-96520000D03*
X172720000Y-96520000D03*
X172720000Y-93980000D03*
X170180000Y-93980000D03*
X170180000Y-96520000D03*
X165100000Y-96520000D03*
X167640000Y-96520000D03*
X167640000Y-93980000D03*
X165100000Y-93980000D03*
X162560000Y-93980000D03*
X162560000Y-96520000D03*
X160020000Y-96520000D03*
X160020000Y-93980000D03*
X154940000Y-93980000D03*
X157480000Y-93980000D03*
X157480000Y-96520000D03*
X154940000Y-96520000D03*
X154940000Y-96520000D03*
X172900000Y-85850000D03*
X173650000Y-85850000D03*
X164400000Y-82600000D03*
X166650000Y-84650000D03*
%TO.N,gnd_p*%
X127000000Y-87884000D03*
X161349051Y-75302101D03*
X141732000Y-69088000D03*
X161349051Y-75302101D03*
X141986000Y-68326000D03*
X160528000Y-74168000D03*
X162052000Y-74168000D03*
X160528000Y-75692000D03*
X129032000Y-91440000D03*
X141732000Y-68580000D03*
X161036000Y-74676000D03*
X138684000Y-84328000D03*
%TO.N,/+10v*%
X158648400Y-83515200D03*
X153009600Y-75539600D03*
X140554795Y-84569000D03*
%TO.N,VDD*%
X129392253Y-83977053D03*
X152263414Y-82660102D03*
X127200000Y-84450000D03*
X149860000Y-90932000D03*
X148339638Y-93868885D03*
%TO.N,gnd_d*%
X145745200Y-89865200D03*
X145747963Y-88545082D03*
X149308913Y-78638400D03*
X159613600Y-83820000D03*
X135940800Y-73914000D03*
X145745200Y-89103200D03*
%TO.N,Vcc_M*%
X143764000Y-74676000D03*
X144780000Y-76708000D03*
%TO.N,/ADC_vcc*%
X151513904Y-85702763D03*
X145474427Y-92750839D03*
%TO.N,Net-(D3-K)*%
X163367037Y-67487000D03*
X162179000Y-71501000D03*
X162693976Y-78598934D03*
%TO.N,/Motor1_C*%
X168733146Y-77895532D03*
X163648488Y-73369000D03*
%TO.N,/Motor1_A*%
X163271200Y-82296000D03*
X155971445Y-77062800D03*
%TO.N,Net-(D2-K)*%
X158384871Y-71587083D03*
X160284871Y-71359646D03*
X160274000Y-67487000D03*
%TO.N,/Motor1_B*%
X167132000Y-72263000D03*
X161872749Y-70708085D03*
X169950000Y-78950000D03*
X158398083Y-70719337D03*
X170800000Y-85550000D03*
%TO.N,/Motor1_B_gatelow*%
X164308874Y-74654928D03*
%TO.N,/Motor1_A_gatelow*%
X164593769Y-71538000D03*
%TO.N,/Motor1_C_gatelow*%
X164084000Y-77724000D03*
%TO.N,/UART_TX*%
X150012400Y-69189600D03*
%TO.N,/Signalin*%
X151028400Y-69310000D03*
%TO.N,/SWCLK*%
X150195965Y-85801665D03*
%TO.N,/SWDIO*%
X150815923Y-86383177D03*
%TO.N,/ADC_Cur*%
X142290800Y-92760800D03*
X143408400Y-83667600D03*
%TO.N,Net-(U1-BOOT0)*%
X153720720Y-83447488D03*
X145128311Y-84877597D03*
%TO.N,/BackEMF_Ortak*%
X142041674Y-91144326D03*
X152110000Y-91236800D03*
%TO.N,/BackEMF_A*%
X148576200Y-77888400D03*
X158771284Y-84803245D03*
X152196800Y-78333600D03*
X142014000Y-89829046D03*
%TO.N,/BackEMF_B*%
X150114000Y-75539600D03*
X146369642Y-93797990D03*
X158464819Y-85596077D03*
%TO.N,/BackEMF_C*%
X150809083Y-82905430D03*
X145515680Y-93562951D03*
X158125142Y-86375258D03*
X152095200Y-81788000D03*
%TO.N,Net-(U1-PB3{slash}SPI1_SCK{slash}I2S1_CK{slash}TIM2_CH2{slash}TSC_G5_IO1{slash}EVENTOUT)*%
X149367857Y-85734400D03*
X151942800Y-75082400D03*
%TO.N,Net-(U1-PB6{slash}I2C1_SCL{slash}USART1_TX{slash}TIM16_CH1N{slash}TSC_G5_IO3)*%
X153009600Y-69748400D03*
X145040405Y-85689654D03*
%TD*%
D13*
%TO.N,Net-(D3-K)*%
X162727000Y-74422000D02*
X162306000Y-74843000D01*
X162306000Y-71628000D02*
X162306000Y-73467405D01*
X162306000Y-74843000D02*
X162306000Y-78210958D01*
X162306000Y-73467405D02*
X162727000Y-73888405D01*
X162498749Y-70448787D02*
X162498749Y-71181251D01*
X162132047Y-70082085D02*
X162498749Y-70448787D01*
X162727000Y-73888405D02*
X162727000Y-74422000D01*
X162262894Y-67487000D02*
X162132047Y-67617847D01*
X162306000Y-78210958D02*
X162693976Y-78598934D01*
X162179000Y-71501000D02*
X162306000Y-71628000D01*
X162498749Y-71181251D02*
X162179000Y-71501000D01*
X163367037Y-67487000D02*
X162262894Y-67487000D01*
X162132047Y-67617847D02*
X162132047Y-70082085D01*
%TO.N,Net-(D2-K)*%
X157772083Y-70978635D02*
X158138785Y-71345337D01*
X160274000Y-67487000D02*
X158384871Y-69376129D01*
X160131250Y-71587083D02*
X158384871Y-71587083D01*
X158138785Y-70093337D02*
X157772083Y-70460039D01*
X157772083Y-70460039D02*
X157772083Y-70978635D01*
X158384871Y-71345337D02*
X158384871Y-71587083D01*
X158384871Y-70093337D02*
X158138785Y-70093337D01*
X160284871Y-71359646D02*
X160284871Y-71433462D01*
X158384871Y-69376129D02*
X158384871Y-70093337D01*
X160284871Y-71433462D02*
X160131250Y-71587083D01*
X158138785Y-71345337D02*
X158384871Y-71345337D01*
D14*
%TO.N,/Motor1_B*%
X158398083Y-70719337D02*
X158461931Y-70655489D01*
X158461931Y-70655489D02*
X161820153Y-70655489D01*
X161820153Y-70655489D02*
X161872749Y-70708085D01*
D13*
%TO.N,/SWCLK*%
X128625600Y-66802000D02*
X128785600Y-66962000D01*
X139359000Y-84048405D02*
X139359000Y-84510200D01*
X138963595Y-83653000D02*
X139359000Y-84048405D01*
X144264600Y-91396600D02*
X145121000Y-90540200D01*
X146024795Y-90540200D02*
X146420200Y-90144795D01*
X128785600Y-73936800D02*
X138501800Y-83653000D01*
X128785600Y-66962000D02*
X128785600Y-73936800D01*
X142780795Y-91396600D02*
X144264600Y-91396600D01*
X149682395Y-86577800D02*
X150195965Y-86064230D01*
X145121000Y-90540200D02*
X146024795Y-90540200D01*
X146420200Y-89241000D02*
X149083400Y-86577800D01*
X149083400Y-86577800D02*
X149682395Y-86577800D01*
X150195965Y-86064230D02*
X150195965Y-85801665D01*
X146420200Y-90144795D02*
X146420200Y-89241000D01*
X139359000Y-84510200D02*
X140759400Y-85910600D01*
X141706405Y-91911800D02*
X142265595Y-91911800D01*
X138501800Y-83653000D02*
X138963595Y-83653000D01*
X140759400Y-85910600D02*
X140759400Y-90964795D01*
X140759400Y-90964795D02*
X141706405Y-91911800D01*
X142265595Y-91911800D02*
X142780795Y-91396600D01*
%TO.N,/SWDIO*%
X145070200Y-88315605D02*
X145465605Y-87920200D01*
X150475560Y-85126665D02*
X150870965Y-85522070D01*
X145735796Y-87920200D02*
X148596596Y-85059400D01*
X150870965Y-86328135D02*
X150815923Y-86383177D01*
X145070200Y-88585796D02*
X145070200Y-88315605D01*
X141209400Y-89986195D02*
X141714546Y-90491341D01*
X145465605Y-87920200D02*
X145735796Y-87920200D01*
X131165600Y-66802000D02*
X141209400Y-76845800D01*
X149714717Y-85126665D02*
X150475560Y-85126665D01*
X150870965Y-85522070D02*
X150870965Y-86328135D01*
X141209400Y-76845800D02*
X141209400Y-89986195D01*
X141714546Y-90491341D02*
X143164655Y-90491341D01*
X143164655Y-90491341D02*
X145070200Y-88585796D01*
X149647452Y-85059400D02*
X149714717Y-85126665D01*
X148596596Y-85059400D02*
X149647452Y-85059400D01*
D15*
%TO.N,/BackEMF_A*%
X152196800Y-78333600D02*
X152196800Y-78486000D01*
D13*
X143655000Y-88551800D02*
X143655000Y-87800405D01*
X148633913Y-83572887D02*
X148633913Y-77946113D01*
X148633913Y-77946113D02*
X148576200Y-77888400D01*
X142377754Y-89829046D02*
X143655000Y-88551800D01*
X144500405Y-86955000D02*
X145251800Y-86955000D01*
X145251800Y-86955000D02*
X148633913Y-83572887D01*
X143655000Y-87800405D02*
X144500405Y-86955000D01*
D15*
X152196800Y-78486000D02*
X158514045Y-84803245D01*
X158514045Y-84803245D02*
X158771284Y-84803245D01*
D13*
X142014000Y-89829046D02*
X142377754Y-89829046D01*
%TO.N,/BackEMF_B*%
X150012400Y-75641200D02*
X150012400Y-81889600D01*
X151195400Y-84206765D02*
X151608897Y-84206765D01*
X151485600Y-83362800D02*
X151485600Y-83916565D01*
X150012400Y-81889600D02*
X150441359Y-82318559D01*
X151395954Y-83273154D02*
X151485600Y-83362800D01*
X150139595Y-91607000D02*
X149326796Y-91607000D01*
X152638904Y-86168754D02*
X151195400Y-87612258D01*
D15*
X150114000Y-75539600D02*
X150114000Y-77470000D01*
D13*
X152638904Y-85236772D02*
X152638904Y-86168754D01*
D15*
X150114000Y-77470000D02*
X158240077Y-85596077D01*
X158240077Y-85596077D02*
X158464819Y-85596077D01*
D13*
X151195400Y-90551195D02*
X150139595Y-91607000D01*
X151484083Y-82625835D02*
X151484083Y-83185025D01*
X151195400Y-87612258D02*
X151195400Y-90551195D01*
X150114000Y-75539600D02*
X150012400Y-75641200D01*
X147135806Y-93797990D02*
X146369642Y-93797990D01*
X151608897Y-84206765D02*
X152638904Y-85236772D01*
X151485600Y-83916565D02*
X151195400Y-84206765D01*
X150529488Y-82230430D02*
X151088678Y-82230430D01*
X151484083Y-83185025D02*
X151395954Y-83273154D01*
X150441359Y-82318559D02*
X150529488Y-82230430D01*
X149326796Y-91607000D02*
X147135806Y-93797990D01*
X151088678Y-82230430D02*
X151484083Y-82625835D01*
%TO.N,/BackEMF_C*%
X150520400Y-88747600D02*
X150520400Y-87650862D01*
X151209378Y-84945587D02*
X150744290Y-84480499D01*
X145515680Y-93562951D02*
X145705049Y-93562951D01*
X145705049Y-93562951D02*
X150520400Y-88747600D01*
D15*
X157952458Y-86375258D02*
X158125142Y-86375258D01*
D13*
X152188904Y-85982358D02*
X152188904Y-85423168D01*
X151711323Y-84945587D02*
X151209378Y-84945587D01*
X150520400Y-87650862D02*
X152188904Y-85982358D01*
X150744290Y-84480499D02*
X150744290Y-82970223D01*
X150744290Y-82970223D02*
X150809083Y-82905430D01*
D15*
X153365200Y-81788000D02*
X157952458Y-86375258D01*
D13*
X152188904Y-85423168D02*
X151711323Y-84945587D01*
D15*
X152095200Y-81788000D02*
X153365200Y-81788000D01*
%TD*%
%TA.AperFunction,NonConductor*%
G36*
X182047668Y-62420636D02*
G01*
X182093466Y-62473402D01*
X182104710Y-62523967D01*
X182308989Y-86901272D01*
X182289867Y-86968474D01*
X182237448Y-87014670D01*
X182168375Y-87025192D01*
X182116102Y-87005413D01*
X181989185Y-86920609D01*
X181989172Y-86920602D01*
X181843501Y-86860264D01*
X181843489Y-86860261D01*
X181688845Y-86829500D01*
X181688842Y-86829500D01*
X181531158Y-86829500D01*
X181531155Y-86829500D01*
X181376510Y-86860261D01*
X181376498Y-86860264D01*
X181230827Y-86920602D01*
X181230814Y-86920609D01*
X181099711Y-87008210D01*
X181099707Y-87008213D01*
X180988213Y-87119707D01*
X180988210Y-87119711D01*
X180900609Y-87250814D01*
X180900602Y-87250827D01*
X180840264Y-87396498D01*
X180840261Y-87396510D01*
X180809500Y-87551153D01*
X180809500Y-87708846D01*
X180840261Y-87863489D01*
X180840264Y-87863501D01*
X180900602Y-88009172D01*
X180900609Y-88009185D01*
X180988210Y-88140288D01*
X180988213Y-88140292D01*
X181025240Y-88177319D01*
X181058725Y-88238642D01*
X181053741Y-88308334D01*
X181025240Y-88352681D01*
X180988213Y-88389707D01*
X180988210Y-88389711D01*
X180900609Y-88520814D01*
X180900602Y-88520827D01*
X180840264Y-88666498D01*
X180840261Y-88666510D01*
X180809500Y-88821153D01*
X180809500Y-88978846D01*
X180840261Y-89133489D01*
X180840264Y-89133501D01*
X180900602Y-89279172D01*
X180900609Y-89279185D01*
X180988210Y-89410288D01*
X180988213Y-89410292D01*
X181025240Y-89447319D01*
X181058725Y-89508642D01*
X181053741Y-89578334D01*
X181025240Y-89622681D01*
X180988213Y-89659707D01*
X180988210Y-89659711D01*
X180900609Y-89790814D01*
X180900602Y-89790827D01*
X180840264Y-89936498D01*
X180840261Y-89936510D01*
X180809500Y-90091153D01*
X180809500Y-90248846D01*
X180840261Y-90403489D01*
X180840264Y-90403501D01*
X180900602Y-90549172D01*
X180900609Y-90549185D01*
X180988210Y-90680288D01*
X180988213Y-90680292D01*
X181025240Y-90717319D01*
X181058725Y-90778642D01*
X181053741Y-90848334D01*
X181025240Y-90892681D01*
X180988213Y-90929707D01*
X180988210Y-90929711D01*
X180900609Y-91060814D01*
X180900602Y-91060827D01*
X180840264Y-91206498D01*
X180840261Y-91206510D01*
X180809500Y-91361153D01*
X180809500Y-91518846D01*
X180840261Y-91673489D01*
X180840264Y-91673501D01*
X180900602Y-91819172D01*
X180900609Y-91819185D01*
X180988210Y-91950288D01*
X180988213Y-91950292D01*
X181025240Y-91987319D01*
X181058725Y-92048642D01*
X181053741Y-92118334D01*
X181025240Y-92162681D01*
X180988213Y-92199707D01*
X180988210Y-92199711D01*
X180900609Y-92330814D01*
X180900602Y-92330827D01*
X180840264Y-92476498D01*
X180840261Y-92476510D01*
X180809500Y-92631153D01*
X180809500Y-92788846D01*
X180840261Y-92943489D01*
X180840264Y-92943501D01*
X180900602Y-93089172D01*
X180900609Y-93089185D01*
X180988210Y-93220288D01*
X180988213Y-93220292D01*
X181025240Y-93257319D01*
X181058725Y-93318642D01*
X181053741Y-93388334D01*
X181025240Y-93432681D01*
X180988213Y-93469707D01*
X180988210Y-93469711D01*
X180900609Y-93600814D01*
X180900602Y-93600827D01*
X180840264Y-93746498D01*
X180840261Y-93746510D01*
X180809500Y-93901153D01*
X180809500Y-94058846D01*
X180840261Y-94213489D01*
X180840264Y-94213501D01*
X180900602Y-94359172D01*
X180900609Y-94359185D01*
X180988210Y-94490288D01*
X180988213Y-94490292D01*
X181025240Y-94527319D01*
X181058725Y-94588642D01*
X181053741Y-94658334D01*
X181025240Y-94702681D01*
X180988213Y-94739707D01*
X180988210Y-94739711D01*
X180900609Y-94870814D01*
X180900602Y-94870827D01*
X180840264Y-95016498D01*
X180840261Y-95016510D01*
X180809500Y-95171153D01*
X180809500Y-95328846D01*
X180840261Y-95483489D01*
X180840264Y-95483501D01*
X180900602Y-95629172D01*
X180900609Y-95629185D01*
X180988210Y-95760288D01*
X180988213Y-95760292D01*
X181025240Y-95797319D01*
X181058725Y-95858642D01*
X181053741Y-95928334D01*
X181025240Y-95972681D01*
X180988213Y-96009707D01*
X180988210Y-96009711D01*
X180900609Y-96140814D01*
X180900602Y-96140827D01*
X180840264Y-96286498D01*
X180840261Y-96286510D01*
X180809500Y-96441153D01*
X180809500Y-96598846D01*
X180840261Y-96753489D01*
X180840264Y-96753501D01*
X180900602Y-96899172D01*
X180900609Y-96899185D01*
X180972388Y-97006609D01*
X180993266Y-97073287D01*
X180974782Y-97140667D01*
X180922803Y-97187357D01*
X180869286Y-97199500D01*
X176000714Y-97199500D01*
X175933675Y-97179815D01*
X175887920Y-97127011D01*
X175877976Y-97057853D01*
X175897612Y-97006609D01*
X175969390Y-96899185D01*
X175969390Y-96899184D01*
X175969394Y-96899179D01*
X176029737Y-96753497D01*
X176060500Y-96598842D01*
X176060500Y-96441158D01*
X176060500Y-96441155D01*
X176060499Y-96441153D01*
X176029738Y-96286510D01*
X176029737Y-96286503D01*
X176029735Y-96286498D01*
X175969397Y-96140827D01*
X175969390Y-96140814D01*
X175881789Y-96009711D01*
X175881786Y-96009707D01*
X175770292Y-95898213D01*
X175770288Y-95898210D01*
X175639185Y-95810609D01*
X175639172Y-95810602D01*
X175493501Y-95750264D01*
X175493489Y-95750261D01*
X175338845Y-95719500D01*
X175338842Y-95719500D01*
X175181158Y-95719500D01*
X175181155Y-95719500D01*
X175026510Y-95750261D01*
X175026498Y-95750264D01*
X174880827Y-95810602D01*
X174880814Y-95810609D01*
X174749711Y-95898210D01*
X174749707Y-95898213D01*
X174638213Y-96009707D01*
X174638210Y-96009711D01*
X174550609Y-96140814D01*
X174550602Y-96140827D01*
X174490264Y-96286498D01*
X174490261Y-96286510D01*
X174459500Y-96441153D01*
X174459500Y-96598846D01*
X174490261Y-96753489D01*
X174490264Y-96753501D01*
X174550602Y-96899172D01*
X174550609Y-96899185D01*
X174622388Y-97006609D01*
X174643266Y-97073287D01*
X174624782Y-97140667D01*
X174572803Y-97187357D01*
X174519286Y-97199500D01*
X173460714Y-97199500D01*
X173393675Y-97179815D01*
X173347920Y-97127011D01*
X173337976Y-97057853D01*
X173357612Y-97006609D01*
X173429390Y-96899185D01*
X173429390Y-96899184D01*
X173429394Y-96899179D01*
X173489737Y-96753497D01*
X173520500Y-96598842D01*
X173520500Y-96441158D01*
X173520500Y-96441155D01*
X173520499Y-96441153D01*
X173489738Y-96286510D01*
X173489737Y-96286503D01*
X173489735Y-96286498D01*
X173429397Y-96140827D01*
X173429390Y-96140814D01*
X173341789Y-96009711D01*
X173341786Y-96009707D01*
X173230292Y-95898213D01*
X173230288Y-95898210D01*
X173099185Y-95810609D01*
X173099172Y-95810602D01*
X172953501Y-95750264D01*
X172953489Y-95750261D01*
X172798845Y-95719500D01*
X172798842Y-95719500D01*
X172641158Y-95719500D01*
X172641155Y-95719500D01*
X172486510Y-95750261D01*
X172486498Y-95750264D01*
X172340827Y-95810602D01*
X172340814Y-95810609D01*
X172209711Y-95898210D01*
X172209707Y-95898213D01*
X172098213Y-96009707D01*
X172098210Y-96009711D01*
X172010609Y-96140814D01*
X172010602Y-96140827D01*
X171950264Y-96286498D01*
X171950261Y-96286510D01*
X171919500Y-96441153D01*
X171919500Y-96598846D01*
X171950261Y-96753489D01*
X171950264Y-96753501D01*
X172010602Y-96899172D01*
X172010609Y-96899185D01*
X172082388Y-97006609D01*
X172103266Y-97073287D01*
X172084782Y-97140667D01*
X172032803Y-97187357D01*
X171979286Y-97199500D01*
X170920714Y-97199500D01*
X170853675Y-97179815D01*
X170807920Y-97127011D01*
X170797976Y-97057853D01*
X170817612Y-97006609D01*
X170889390Y-96899185D01*
X170889390Y-96899184D01*
X170889394Y-96899179D01*
X170949737Y-96753497D01*
X170980500Y-96598842D01*
X170980500Y-96441158D01*
X170980500Y-96441155D01*
X170980499Y-96441153D01*
X170949738Y-96286510D01*
X170949737Y-96286503D01*
X170949735Y-96286498D01*
X170889397Y-96140827D01*
X170889390Y-96140814D01*
X170801789Y-96009711D01*
X170801786Y-96009707D01*
X170690292Y-95898213D01*
X170690288Y-95898210D01*
X170559185Y-95810609D01*
X170559172Y-95810602D01*
X170413501Y-95750264D01*
X170413489Y-95750261D01*
X170258845Y-95719500D01*
X170258842Y-95719500D01*
X170101158Y-95719500D01*
X170101155Y-95719500D01*
X169946510Y-95750261D01*
X169946498Y-95750264D01*
X169800827Y-95810602D01*
X169800814Y-95810609D01*
X169669711Y-95898210D01*
X169669707Y-95898213D01*
X169558213Y-96009707D01*
X169558210Y-96009711D01*
X169470609Y-96140814D01*
X169470602Y-96140827D01*
X169410264Y-96286498D01*
X169410261Y-96286510D01*
X169379500Y-96441153D01*
X169379500Y-96598846D01*
X169410261Y-96753489D01*
X169410264Y-96753501D01*
X169470602Y-96899172D01*
X169470609Y-96899185D01*
X169542388Y-97006609D01*
X169563266Y-97073287D01*
X169544782Y-97140667D01*
X169492803Y-97187357D01*
X169439286Y-97199500D01*
X168380714Y-97199500D01*
X168313675Y-97179815D01*
X168267920Y-97127011D01*
X168257976Y-97057853D01*
X168277612Y-97006609D01*
X168349390Y-96899185D01*
X168349390Y-96899184D01*
X168349394Y-96899179D01*
X168409737Y-96753497D01*
X168440500Y-96598842D01*
X168440500Y-96441158D01*
X168440500Y-96441155D01*
X168440499Y-96441153D01*
X168409738Y-96286510D01*
X168409737Y-96286503D01*
X168409735Y-96286498D01*
X168349397Y-96140827D01*
X168349390Y-96140814D01*
X168261789Y-96009711D01*
X168261786Y-96009707D01*
X168150292Y-95898213D01*
X168150288Y-95898210D01*
X168019185Y-95810609D01*
X168019172Y-95810602D01*
X167873501Y-95750264D01*
X167873489Y-95750261D01*
X167718845Y-95719500D01*
X167718842Y-95719500D01*
X167561158Y-95719500D01*
X167561155Y-95719500D01*
X167406510Y-95750261D01*
X167406498Y-95750264D01*
X167260827Y-95810602D01*
X167260814Y-95810609D01*
X167129711Y-95898210D01*
X167129707Y-95898213D01*
X167018213Y-96009707D01*
X167018210Y-96009711D01*
X166930609Y-96140814D01*
X166930602Y-96140827D01*
X166870264Y-96286498D01*
X166870261Y-96286510D01*
X166839500Y-96441153D01*
X166839500Y-96598846D01*
X166870261Y-96753489D01*
X166870264Y-96753501D01*
X166930602Y-96899172D01*
X166930609Y-96899185D01*
X167002388Y-97006609D01*
X167023266Y-97073287D01*
X167004782Y-97140667D01*
X166952803Y-97187357D01*
X166899286Y-97199500D01*
X165840714Y-97199500D01*
X165773675Y-97179815D01*
X165727920Y-97127011D01*
X165717976Y-97057853D01*
X165737612Y-97006609D01*
X165809390Y-96899185D01*
X165809390Y-96899184D01*
X165809394Y-96899179D01*
X165869737Y-96753497D01*
X165900500Y-96598842D01*
X165900500Y-96441158D01*
X165900500Y-96441155D01*
X165900499Y-96441153D01*
X165869738Y-96286510D01*
X165869737Y-96286503D01*
X165869735Y-96286498D01*
X165809397Y-96140827D01*
X165809390Y-96140814D01*
X165721789Y-96009711D01*
X165721786Y-96009707D01*
X165610292Y-95898213D01*
X165610288Y-95898210D01*
X165479185Y-95810609D01*
X165479172Y-95810602D01*
X165333501Y-95750264D01*
X165333489Y-95750261D01*
X165178845Y-95719500D01*
X165178842Y-95719500D01*
X165021158Y-95719500D01*
X165021155Y-95719500D01*
X164866510Y-95750261D01*
X164866498Y-95750264D01*
X164720827Y-95810602D01*
X164720814Y-95810609D01*
X164589711Y-95898210D01*
X164589707Y-95898213D01*
X164478213Y-96009707D01*
X164478210Y-96009711D01*
X164390609Y-96140814D01*
X164390602Y-96140827D01*
X164330264Y-96286498D01*
X164330261Y-96286510D01*
X164299500Y-96441153D01*
X164299500Y-96598846D01*
X164330261Y-96753489D01*
X164330264Y-96753501D01*
X164390602Y-96899172D01*
X164390609Y-96899185D01*
X164462388Y-97006609D01*
X164483266Y-97073287D01*
X164464782Y-97140667D01*
X164412803Y-97187357D01*
X164359286Y-97199500D01*
X163300714Y-97199500D01*
X163233675Y-97179815D01*
X163187920Y-97127011D01*
X163177976Y-97057853D01*
X163197612Y-97006609D01*
X163269390Y-96899185D01*
X163269390Y-96899184D01*
X163269394Y-96899179D01*
X163329737Y-96753497D01*
X163360500Y-96598842D01*
X163360500Y-96441158D01*
X163360500Y-96441155D01*
X163360499Y-96441153D01*
X163329738Y-96286510D01*
X163329737Y-96286503D01*
X163329735Y-96286498D01*
X163269397Y-96140827D01*
X163269390Y-96140814D01*
X163181789Y-96009711D01*
X163181786Y-96009707D01*
X163070292Y-95898213D01*
X163070288Y-95898210D01*
X162939185Y-95810609D01*
X162939172Y-95810602D01*
X162793501Y-95750264D01*
X162793489Y-95750261D01*
X162638845Y-95719500D01*
X162638842Y-95719500D01*
X162481158Y-95719500D01*
X162481155Y-95719500D01*
X162326510Y-95750261D01*
X162326498Y-95750264D01*
X162180827Y-95810602D01*
X162180814Y-95810609D01*
X162049711Y-95898210D01*
X162049707Y-95898213D01*
X161938213Y-96009707D01*
X161938210Y-96009711D01*
X161850609Y-96140814D01*
X161850602Y-96140827D01*
X161790264Y-96286498D01*
X161790261Y-96286510D01*
X161759500Y-96441153D01*
X161759500Y-96598846D01*
X161790261Y-96753489D01*
X161790264Y-96753501D01*
X161850602Y-96899172D01*
X161850609Y-96899185D01*
X161922388Y-97006609D01*
X161943266Y-97073287D01*
X161924782Y-97140667D01*
X161872803Y-97187357D01*
X161819286Y-97199500D01*
X160760714Y-97199500D01*
X160693675Y-97179815D01*
X160647920Y-97127011D01*
X160637976Y-97057853D01*
X160657612Y-97006609D01*
X160729390Y-96899185D01*
X160729390Y-96899184D01*
X160729394Y-96899179D01*
X160789737Y-96753497D01*
X160820500Y-96598842D01*
X160820500Y-96441158D01*
X160820500Y-96441155D01*
X160820499Y-96441153D01*
X160789738Y-96286510D01*
X160789737Y-96286503D01*
X160789735Y-96286498D01*
X160729397Y-96140827D01*
X160729390Y-96140814D01*
X160641789Y-96009711D01*
X160641786Y-96009707D01*
X160530292Y-95898213D01*
X160530288Y-95898210D01*
X160399185Y-95810609D01*
X160399172Y-95810602D01*
X160253501Y-95750264D01*
X160253489Y-95750261D01*
X160098845Y-95719500D01*
X160098842Y-95719500D01*
X159941158Y-95719500D01*
X159941155Y-95719500D01*
X159786510Y-95750261D01*
X159786498Y-95750264D01*
X159640827Y-95810602D01*
X159640814Y-95810609D01*
X159509711Y-95898210D01*
X159509707Y-95898213D01*
X159398213Y-96009707D01*
X159398210Y-96009711D01*
X159310609Y-96140814D01*
X159310602Y-96140827D01*
X159250264Y-96286498D01*
X159250261Y-96286510D01*
X159219500Y-96441153D01*
X159219500Y-96598846D01*
X159250261Y-96753489D01*
X159250264Y-96753501D01*
X159310602Y-96899172D01*
X159310609Y-96899185D01*
X159382388Y-97006609D01*
X159403266Y-97073287D01*
X159384782Y-97140667D01*
X159332803Y-97187357D01*
X159279286Y-97199500D01*
X158220714Y-97199500D01*
X158153675Y-97179815D01*
X158107920Y-97127011D01*
X158097976Y-97057853D01*
X158117612Y-97006609D01*
X158189390Y-96899185D01*
X158189390Y-96899184D01*
X158189394Y-96899179D01*
X158249737Y-96753497D01*
X158280500Y-96598842D01*
X158280500Y-96441158D01*
X158280500Y-96441155D01*
X158280499Y-96441153D01*
X158249738Y-96286510D01*
X158249737Y-96286503D01*
X158249735Y-96286498D01*
X158189397Y-96140827D01*
X158189390Y-96140814D01*
X158101789Y-96009711D01*
X158101786Y-96009707D01*
X157990292Y-95898213D01*
X157990288Y-95898210D01*
X157859185Y-95810609D01*
X157859172Y-95810602D01*
X157713501Y-95750264D01*
X157713489Y-95750261D01*
X157558845Y-95719500D01*
X157558842Y-95719500D01*
X157401158Y-95719500D01*
X157401155Y-95719500D01*
X157246510Y-95750261D01*
X157246498Y-95750264D01*
X157100827Y-95810602D01*
X157100814Y-95810609D01*
X156969711Y-95898210D01*
X156969707Y-95898213D01*
X156858213Y-96009707D01*
X156858210Y-96009711D01*
X156770609Y-96140814D01*
X156770602Y-96140827D01*
X156710264Y-96286498D01*
X156710261Y-96286510D01*
X156679500Y-96441153D01*
X156679500Y-96598846D01*
X156710261Y-96753489D01*
X156710264Y-96753501D01*
X156770602Y-96899172D01*
X156770609Y-96899185D01*
X156842388Y-97006609D01*
X156863266Y-97073287D01*
X156844782Y-97140667D01*
X156792803Y-97187357D01*
X156739286Y-97199500D01*
X155680714Y-97199500D01*
X155613675Y-97179815D01*
X155567920Y-97127011D01*
X155557976Y-97057853D01*
X155577612Y-97006609D01*
X155649390Y-96899185D01*
X155649390Y-96899184D01*
X155649394Y-96899179D01*
X155709737Y-96753497D01*
X155740500Y-96598842D01*
X155740500Y-96441158D01*
X155740500Y-96441155D01*
X155740499Y-96441153D01*
X155709738Y-96286510D01*
X155709737Y-96286503D01*
X155709735Y-96286498D01*
X155649397Y-96140827D01*
X155649390Y-96140814D01*
X155561789Y-96009711D01*
X155561786Y-96009707D01*
X155450292Y-95898213D01*
X155450288Y-95898210D01*
X155319185Y-95810609D01*
X155319172Y-95810602D01*
X155173501Y-95750264D01*
X155173489Y-95750261D01*
X155018845Y-95719500D01*
X155018842Y-95719500D01*
X154861158Y-95719500D01*
X154861155Y-95719500D01*
X154706510Y-95750261D01*
X154706498Y-95750264D01*
X154560827Y-95810602D01*
X154560814Y-95810609D01*
X154429711Y-95898210D01*
X154429707Y-95898213D01*
X154318213Y-96009707D01*
X154318210Y-96009711D01*
X154230609Y-96140814D01*
X154230602Y-96140827D01*
X154170264Y-96286498D01*
X154170261Y-96286510D01*
X154139500Y-96441153D01*
X154139500Y-96598846D01*
X154170261Y-96753489D01*
X154170264Y-96753501D01*
X154230602Y-96899172D01*
X154230609Y-96899185D01*
X154302388Y-97006609D01*
X154323266Y-97073287D01*
X154304782Y-97140667D01*
X154252803Y-97187357D01*
X154199286Y-97199500D01*
X149263111Y-97199500D01*
X149260415Y-97198809D01*
X149197227Y-97199500D01*
X149132692Y-97199500D01*
X149120955Y-97200333D01*
X147410893Y-97219033D01*
X147409075Y-97219039D01*
X142324473Y-97200091D01*
X142277396Y-97190617D01*
X139650003Y-96100000D01*
X139649999Y-96099999D01*
X139609831Y-96098824D01*
X139601897Y-96097014D01*
X139596951Y-96097773D01*
X139579877Y-96091993D01*
X139562996Y-96088144D01*
X139553239Y-96083797D01*
X139550517Y-96081727D01*
X139526929Y-96072075D01*
X139525166Y-96071290D01*
X139524551Y-96070767D01*
X139513631Y-96065411D01*
X139493190Y-96053610D01*
X139493181Y-96053606D01*
X139467766Y-96046796D01*
X139452909Y-96041789D01*
X139428547Y-96031822D01*
X139405125Y-96028841D01*
X139405125Y-96028840D01*
X139396794Y-96027780D01*
X139365892Y-96019500D01*
X139331720Y-96019500D01*
X139323924Y-96018508D01*
X139323923Y-96018508D01*
X139297817Y-96015185D01*
X139297816Y-96015185D01*
X139276413Y-96018098D01*
X139274428Y-96018368D01*
X139257712Y-96019500D01*
X136901400Y-96019500D01*
X136897772Y-96019447D01*
X136860906Y-96018368D01*
X136818588Y-96017129D01*
X129533706Y-95803912D01*
X129467271Y-95782274D01*
X129454692Y-95772412D01*
X129017293Y-95381404D01*
X128919328Y-95293829D01*
X176902444Y-95293829D01*
X176902444Y-95506170D01*
X176935662Y-95715899D01*
X176935662Y-95715902D01*
X177001277Y-95917844D01*
X177076466Y-96065411D01*
X177097680Y-96107045D01*
X177222491Y-96278832D01*
X177372640Y-96428981D01*
X177544427Y-96553792D01*
X177632843Y-96598842D01*
X177733627Y-96650194D01*
X177935570Y-96715809D01*
X177935571Y-96715809D01*
X177935574Y-96715810D01*
X178145301Y-96749028D01*
X178145302Y-96749028D01*
X178357642Y-96749028D01*
X178357643Y-96749028D01*
X178567370Y-96715810D01*
X178567373Y-96715809D01*
X178567374Y-96715809D01*
X178769316Y-96650194D01*
X178769316Y-96650193D01*
X178769319Y-96650193D01*
X178958517Y-96553792D01*
X179130304Y-96428981D01*
X179280453Y-96278832D01*
X179405264Y-96107045D01*
X179501665Y-95917847D01*
X179501666Y-95917844D01*
X179567281Y-95715902D01*
X179567281Y-95715901D01*
X179567282Y-95715898D01*
X179600500Y-95506171D01*
X179600500Y-95293829D01*
X179567282Y-95084102D01*
X179567281Y-95084098D01*
X179567281Y-95084097D01*
X179501666Y-94882155D01*
X179495891Y-94870821D01*
X179405264Y-94692955D01*
X179280453Y-94521168D01*
X179130304Y-94371019D01*
X178958517Y-94246208D01*
X178894318Y-94213497D01*
X178769316Y-94149805D01*
X178567373Y-94084190D01*
X178407331Y-94058842D01*
X178357643Y-94050972D01*
X178145301Y-94050972D01*
X178075392Y-94062044D01*
X177935572Y-94084190D01*
X177935569Y-94084190D01*
X177733627Y-94149805D01*
X177544426Y-94246208D01*
X177446415Y-94317417D01*
X177372640Y-94371019D01*
X177372638Y-94371021D01*
X177372637Y-94371021D01*
X177222493Y-94521165D01*
X177222493Y-94521166D01*
X177222491Y-94521168D01*
X177188665Y-94567725D01*
X177097680Y-94692954D01*
X177001277Y-94882155D01*
X176935662Y-95084097D01*
X176935662Y-95084100D01*
X176902444Y-95293829D01*
X128919328Y-95293829D01*
X128684716Y-95084100D01*
X126532478Y-93160128D01*
X126530157Y-93158053D01*
X126492281Y-93120596D01*
X126481172Y-93114264D01*
X126471645Y-93105747D01*
X126471639Y-93105743D01*
X126438827Y-93089172D01*
X126426861Y-93083128D01*
X126421373Y-93080181D01*
X126377786Y-93055339D01*
X126365418Y-93052098D01*
X126354007Y-93046336D01*
X126301856Y-93035446D01*
X126298832Y-93034654D01*
X126298830Y-93034653D01*
X126250306Y-93021941D01*
X126237518Y-93022011D01*
X126225005Y-93019399D01*
X126171832Y-93022375D01*
X126168685Y-93022393D01*
X126168685Y-93022394D01*
X121928178Y-93045994D01*
X121861030Y-93026683D01*
X121814982Y-92974134D01*
X121803489Y-92921410D01*
X121810895Y-91361153D01*
X128231500Y-91361153D01*
X128231500Y-91518846D01*
X128262261Y-91673489D01*
X128262264Y-91673501D01*
X128322602Y-91819172D01*
X128322609Y-91819185D01*
X128410210Y-91950288D01*
X128410213Y-91950292D01*
X128521707Y-92061786D01*
X128521711Y-92061789D01*
X128652814Y-92149390D01*
X128652827Y-92149397D01*
X128774288Y-92199707D01*
X128798503Y-92209737D01*
X128912940Y-92232500D01*
X128953153Y-92240499D01*
X128953156Y-92240500D01*
X128953158Y-92240500D01*
X129110844Y-92240500D01*
X129110845Y-92240499D01*
X129265497Y-92209737D01*
X129411179Y-92149394D01*
X129542289Y-92061789D01*
X129653789Y-91950289D01*
X129741394Y-91819179D01*
X129801737Y-91673497D01*
X129832500Y-91518842D01*
X129832500Y-91361158D01*
X129832500Y-91361155D01*
X129832499Y-91361153D01*
X129801738Y-91206510D01*
X129801737Y-91206503D01*
X129777726Y-91148535D01*
X129741397Y-91060827D01*
X129741390Y-91060814D01*
X129653789Y-90929711D01*
X129653786Y-90929707D01*
X129542292Y-90818213D01*
X129542288Y-90818210D01*
X129411185Y-90730609D01*
X129411172Y-90730602D01*
X129265501Y-90670264D01*
X129265489Y-90670261D01*
X129110845Y-90639500D01*
X129110842Y-90639500D01*
X128953158Y-90639500D01*
X128953155Y-90639500D01*
X128798510Y-90670261D01*
X128798498Y-90670264D01*
X128652827Y-90730602D01*
X128652814Y-90730609D01*
X128521711Y-90818210D01*
X128521707Y-90818213D01*
X128410213Y-90929707D01*
X128410210Y-90929711D01*
X128322609Y-91060814D01*
X128322602Y-91060827D01*
X128262264Y-91206498D01*
X128262261Y-91206510D01*
X128231500Y-91361153D01*
X121810895Y-91361153D01*
X121827775Y-87805153D01*
X126199500Y-87805153D01*
X126199500Y-87962846D01*
X126230261Y-88117489D01*
X126230264Y-88117501D01*
X126290602Y-88263172D01*
X126290609Y-88263185D01*
X126378210Y-88394288D01*
X126378213Y-88394292D01*
X126489707Y-88505786D01*
X126489711Y-88505789D01*
X126620814Y-88593390D01*
X126620827Y-88593397D01*
X126766498Y-88653735D01*
X126766503Y-88653737D01*
X126921153Y-88684499D01*
X126921156Y-88684500D01*
X126921158Y-88684500D01*
X127078844Y-88684500D01*
X127078845Y-88684499D01*
X127233497Y-88653737D01*
X127379179Y-88593394D01*
X127510289Y-88505789D01*
X127621789Y-88394289D01*
X127709394Y-88263179D01*
X127713197Y-88253999D01*
X127760296Y-88140289D01*
X127769737Y-88117497D01*
X127800500Y-87962842D01*
X127800500Y-87805158D01*
X127800500Y-87805155D01*
X127800499Y-87805153D01*
X127781341Y-87708842D01*
X127769737Y-87650503D01*
X127758724Y-87623914D01*
X127709397Y-87504827D01*
X127709390Y-87504814D01*
X127621789Y-87373711D01*
X127621786Y-87373707D01*
X127510292Y-87262213D01*
X127510288Y-87262210D01*
X127379185Y-87174609D01*
X127379172Y-87174602D01*
X127233501Y-87114264D01*
X127233489Y-87114261D01*
X127078845Y-87083500D01*
X127078842Y-87083500D01*
X126921158Y-87083500D01*
X126921155Y-87083500D01*
X126766510Y-87114261D01*
X126766498Y-87114264D01*
X126620827Y-87174602D01*
X126620814Y-87174609D01*
X126489711Y-87262210D01*
X126489707Y-87262213D01*
X126378213Y-87373707D01*
X126378210Y-87373711D01*
X126290609Y-87504814D01*
X126290602Y-87504827D01*
X126230264Y-87650498D01*
X126230261Y-87650510D01*
X126199500Y-87805153D01*
X121827775Y-87805153D01*
X121844076Y-84371153D01*
X126399500Y-84371153D01*
X126399500Y-84528846D01*
X126430261Y-84683489D01*
X126430264Y-84683501D01*
X126490602Y-84829172D01*
X126490609Y-84829185D01*
X126578210Y-84960288D01*
X126578213Y-84960292D01*
X126689707Y-85071786D01*
X126689711Y-85071789D01*
X126820814Y-85159390D01*
X126820827Y-85159397D01*
X126917595Y-85199479D01*
X126966503Y-85219737D01*
X127121153Y-85250499D01*
X127121156Y-85250500D01*
X127121158Y-85250500D01*
X127278844Y-85250500D01*
X127278845Y-85250499D01*
X127433497Y-85219737D01*
X127551592Y-85170821D01*
X127579172Y-85159397D01*
X127579172Y-85159396D01*
X127579179Y-85159394D01*
X127710289Y-85071789D01*
X127821789Y-84960289D01*
X127909394Y-84829179D01*
X127969737Y-84683497D01*
X128000500Y-84528842D01*
X128000500Y-84371158D01*
X128000500Y-84371155D01*
X128000499Y-84371153D01*
X127992371Y-84330292D01*
X127969737Y-84216503D01*
X127945043Y-84156885D01*
X127909397Y-84070827D01*
X127909390Y-84070814D01*
X127836021Y-83961010D01*
X127821789Y-83939711D01*
X127821786Y-83939707D01*
X127780285Y-83898206D01*
X128591753Y-83898206D01*
X128591753Y-84055899D01*
X128622514Y-84210542D01*
X128622517Y-84210554D01*
X128682855Y-84356225D01*
X128682862Y-84356238D01*
X128770463Y-84487341D01*
X128770466Y-84487345D01*
X128881960Y-84598839D01*
X128881964Y-84598842D01*
X129013067Y-84686443D01*
X129013080Y-84686450D01*
X129115425Y-84728842D01*
X129158756Y-84746790D01*
X129313406Y-84777552D01*
X129313409Y-84777553D01*
X129313411Y-84777553D01*
X129471097Y-84777553D01*
X129471098Y-84777552D01*
X129625750Y-84746790D01*
X129771432Y-84686447D01*
X129902542Y-84598842D01*
X130014042Y-84487342D01*
X130101647Y-84356232D01*
X130161990Y-84210550D01*
X130192753Y-84055895D01*
X130192753Y-83898211D01*
X130192753Y-83898208D01*
X130192752Y-83898206D01*
X130184448Y-83856460D01*
X130161990Y-83743556D01*
X130160997Y-83741158D01*
X130101650Y-83597880D01*
X130101643Y-83597867D01*
X130014042Y-83466764D01*
X130014039Y-83466760D01*
X129902545Y-83355266D01*
X129902541Y-83355263D01*
X129771438Y-83267662D01*
X129771425Y-83267655D01*
X129625754Y-83207317D01*
X129625742Y-83207314D01*
X129471098Y-83176553D01*
X129471095Y-83176553D01*
X129313411Y-83176553D01*
X129313408Y-83176553D01*
X129158763Y-83207314D01*
X129158751Y-83207317D01*
X129013080Y-83267655D01*
X129013067Y-83267662D01*
X128881964Y-83355263D01*
X128881960Y-83355266D01*
X128770466Y-83466760D01*
X128770463Y-83466764D01*
X128682862Y-83597867D01*
X128682855Y-83597880D01*
X128622517Y-83743551D01*
X128622514Y-83743563D01*
X128591753Y-83898206D01*
X127780285Y-83898206D01*
X127710292Y-83828213D01*
X127710288Y-83828210D01*
X127579185Y-83740609D01*
X127579172Y-83740602D01*
X127433501Y-83680264D01*
X127433489Y-83680261D01*
X127278845Y-83649500D01*
X127278842Y-83649500D01*
X127121158Y-83649500D01*
X127121155Y-83649500D01*
X126966510Y-83680261D01*
X126966498Y-83680264D01*
X126820827Y-83740602D01*
X126820814Y-83740609D01*
X126689711Y-83828210D01*
X126689707Y-83828213D01*
X126578213Y-83939707D01*
X126578210Y-83939711D01*
X126490609Y-84070814D01*
X126490602Y-84070827D01*
X126430264Y-84216498D01*
X126430261Y-84216510D01*
X126399500Y-84371153D01*
X121844076Y-84371153D01*
X121931735Y-65904135D01*
X124735100Y-65904135D01*
X124735100Y-67699870D01*
X124735101Y-67699876D01*
X124741508Y-67759483D01*
X124791802Y-67894328D01*
X124791806Y-67894335D01*
X124878052Y-68009544D01*
X124878055Y-68009547D01*
X124993264Y-68095793D01*
X124993271Y-68095797D01*
X125128117Y-68146091D01*
X125128116Y-68146091D01*
X125135044Y-68146835D01*
X125187727Y-68152500D01*
X126983472Y-68152499D01*
X127043083Y-68146091D01*
X127177931Y-68095796D01*
X127293146Y-68009546D01*
X127379396Y-67894331D01*
X127428410Y-67762916D01*
X127470281Y-67706984D01*
X127535745Y-67682566D01*
X127604018Y-67697417D01*
X127632273Y-67718569D01*
X127745813Y-67832109D01*
X127917779Y-67957048D01*
X127917781Y-67957049D01*
X127917784Y-67957051D01*
X128092396Y-68046020D01*
X128143191Y-68093993D01*
X128160100Y-68156504D01*
X128160100Y-68934300D01*
X128140415Y-69001339D01*
X128087611Y-69047094D01*
X128036100Y-69058300D01*
X126711729Y-69058300D01*
X126711723Y-69058301D01*
X126652116Y-69064708D01*
X126517271Y-69115002D01*
X126517264Y-69115006D01*
X126402055Y-69201252D01*
X126402052Y-69201255D01*
X126315806Y-69316464D01*
X126315802Y-69316471D01*
X126265508Y-69451317D01*
X126259101Y-69510916D01*
X126259100Y-69510935D01*
X126259101Y-71306668D01*
X126259101Y-71306672D01*
X126265508Y-71366283D01*
X126315802Y-71501128D01*
X126315806Y-71501135D01*
X126402052Y-71616344D01*
X126402055Y-71616347D01*
X126517264Y-71702593D01*
X126517271Y-71702597D01*
X126652117Y-71752891D01*
X126652116Y-71752891D01*
X126659044Y-71753635D01*
X126711727Y-71759300D01*
X128036100Y-71759299D01*
X128103139Y-71778984D01*
X128148894Y-71831787D01*
X128160100Y-71883299D01*
X128160100Y-73998406D01*
X128181052Y-74103744D01*
X128182864Y-74112852D01*
X128184138Y-74119255D01*
X128231285Y-74233080D01*
X128231287Y-74233083D01*
X128231288Y-74233086D01*
X128265515Y-74284309D01*
X128299742Y-74335533D01*
X128386867Y-74422658D01*
X128386870Y-74422660D01*
X128394154Y-74429944D01*
X137897984Y-83933774D01*
X137931469Y-83995097D01*
X137926485Y-84064789D01*
X137924866Y-84068903D01*
X137914263Y-84094502D01*
X137914260Y-84094511D01*
X137883500Y-84249153D01*
X137883500Y-84406846D01*
X137914261Y-84561489D01*
X137914264Y-84561501D01*
X137974602Y-84707172D01*
X137974609Y-84707185D01*
X138062210Y-84838288D01*
X138062213Y-84838292D01*
X138173707Y-84949786D01*
X138173711Y-84949789D01*
X138304814Y-85037390D01*
X138304827Y-85037397D01*
X138408319Y-85080264D01*
X138450503Y-85097737D01*
X138558500Y-85119219D01*
X138605153Y-85128499D01*
X138605156Y-85128500D01*
X138605158Y-85128500D01*
X138762844Y-85128500D01*
X138762845Y-85128499D01*
X138917497Y-85097737D01*
X138943092Y-85087134D01*
X139012559Y-85079666D01*
X139075039Y-85110940D01*
X139078225Y-85114015D01*
X140097581Y-86133371D01*
X140131066Y-86194694D01*
X140133900Y-86221052D01*
X140133900Y-91026401D01*
X140157937Y-91147246D01*
X140157938Y-91147250D01*
X140157939Y-91147254D01*
X140163795Y-91161390D01*
X140163798Y-91161396D01*
X140165581Y-91165700D01*
X140205088Y-91261081D01*
X140238001Y-91310337D01*
X140242188Y-91316604D01*
X140242189Y-91316605D01*
X140273543Y-91363530D01*
X140364986Y-91454973D01*
X140365008Y-91454993D01*
X141217421Y-92307406D01*
X141217450Y-92307437D01*
X141307668Y-92397655D01*
X141307672Y-92397658D01*
X141410112Y-92466107D01*
X141410116Y-92466109D01*
X141410119Y-92466111D01*
X141422259Y-92471139D01*
X141429845Y-92474282D01*
X141484248Y-92518123D01*
X141506313Y-92584417D01*
X141504009Y-92613034D01*
X141490300Y-92681953D01*
X141490300Y-92839646D01*
X141521061Y-92994289D01*
X141521064Y-92994301D01*
X141581402Y-93139972D01*
X141581409Y-93139985D01*
X141669010Y-93271088D01*
X141669013Y-93271092D01*
X141780507Y-93382586D01*
X141780511Y-93382589D01*
X141911614Y-93470190D01*
X141911627Y-93470197D01*
X142057298Y-93530535D01*
X142057303Y-93530537D01*
X142211953Y-93561299D01*
X142211956Y-93561300D01*
X142211958Y-93561300D01*
X142369644Y-93561300D01*
X142369645Y-93561299D01*
X142524297Y-93530537D01*
X142669979Y-93470194D01*
X142801089Y-93382589D01*
X142912589Y-93271089D01*
X143000194Y-93139979D01*
X143060537Y-92994297D01*
X143091300Y-92839642D01*
X143091300Y-92681958D01*
X143091300Y-92681955D01*
X143091299Y-92681953D01*
X143060538Y-92527310D01*
X143060537Y-92527303D01*
X143054944Y-92513800D01*
X143000197Y-92381627D01*
X143000190Y-92381614D01*
X142928625Y-92274510D01*
X142919138Y-92244214D01*
X142908043Y-92214464D01*
X142908772Y-92211109D01*
X142907747Y-92207833D01*
X142916145Y-92177216D01*
X142922895Y-92146191D01*
X142925675Y-92142476D01*
X142926231Y-92140452D01*
X142944040Y-92117943D01*
X143003567Y-92058417D01*
X143064890Y-92024934D01*
X143091247Y-92022100D01*
X144326208Y-92022100D01*
X144326208Y-92022099D01*
X144408491Y-92005733D01*
X144447052Y-91998063D01*
X144487999Y-91981102D01*
X144560886Y-91950912D01*
X144622862Y-91909500D01*
X144622863Y-91909500D01*
X144649657Y-91891595D01*
X144663333Y-91882458D01*
X144750458Y-91795333D01*
X144750458Y-91795331D01*
X144760666Y-91785124D01*
X144760667Y-91785121D01*
X145343772Y-91202019D01*
X145405095Y-91168534D01*
X145431453Y-91165700D01*
X146086403Y-91165700D01*
X146086403Y-91165699D01*
X146179178Y-91147246D01*
X146207247Y-91141663D01*
X146240587Y-91127852D01*
X146321081Y-91094512D01*
X146392102Y-91047056D01*
X146423528Y-91026058D01*
X146510653Y-90938933D01*
X146510655Y-90938929D01*
X146818929Y-90630655D01*
X146818933Y-90630653D01*
X146906058Y-90543528D01*
X146943836Y-90486989D01*
X146974512Y-90441081D01*
X147009946Y-90355535D01*
X147019826Y-90331683D01*
X147021660Y-90327255D01*
X147021660Y-90327253D01*
X147021663Y-90327247D01*
X147033681Y-90266824D01*
X147045700Y-90206402D01*
X147045700Y-90083188D01*
X147045700Y-89551452D01*
X147065385Y-89484413D01*
X147082019Y-89463771D01*
X149306172Y-87239619D01*
X149367495Y-87206134D01*
X149393853Y-87203300D01*
X149744002Y-87203300D01*
X149804424Y-87191281D01*
X149826790Y-87186832D01*
X149862436Y-87190022D01*
X149896373Y-87193059D01*
X149896375Y-87193060D01*
X149896379Y-87193061D01*
X149928618Y-87218106D01*
X149951551Y-87235920D01*
X149951551Y-87235922D01*
X149951555Y-87235925D01*
X149959464Y-87258347D01*
X149974798Y-87301809D01*
X149974797Y-87301813D01*
X149974798Y-87301816D01*
X149974793Y-87301834D01*
X149965538Y-87355901D01*
X149918939Y-87468405D01*
X149918935Y-87468416D01*
X149896642Y-87580491D01*
X149896643Y-87580492D01*
X149894900Y-87589255D01*
X149894900Y-88437146D01*
X149875215Y-88504185D01*
X149858581Y-88524827D01*
X146207218Y-92176189D01*
X146145895Y-92209674D01*
X146076203Y-92204690D01*
X146031856Y-92176189D01*
X145984719Y-92129052D01*
X145984715Y-92129049D01*
X145853612Y-92041448D01*
X145853599Y-92041441D01*
X145707928Y-91981103D01*
X145707916Y-91981100D01*
X145553272Y-91950339D01*
X145553269Y-91950339D01*
X145395585Y-91950339D01*
X145395582Y-91950339D01*
X145240937Y-91981100D01*
X145240925Y-91981103D01*
X145095254Y-92041441D01*
X145095241Y-92041448D01*
X144964138Y-92129049D01*
X144964134Y-92129052D01*
X144852640Y-92240546D01*
X144852637Y-92240550D01*
X144765036Y-92371653D01*
X144765029Y-92371666D01*
X144704691Y-92517337D01*
X144704688Y-92517349D01*
X144673927Y-92671992D01*
X144673927Y-92829685D01*
X144704688Y-92984328D01*
X144704691Y-92984340D01*
X144765029Y-93130011D01*
X144765033Y-93130019D01*
X144767418Y-93133587D01*
X144788299Y-93200264D01*
X144778881Y-93249932D01*
X144745943Y-93329454D01*
X144745942Y-93329458D01*
X144745941Y-93329461D01*
X144745940Y-93329462D01*
X144715180Y-93484104D01*
X144715180Y-93641797D01*
X144745941Y-93796440D01*
X144745944Y-93796452D01*
X144806282Y-93942123D01*
X144806289Y-93942136D01*
X144893890Y-94073239D01*
X144893893Y-94073243D01*
X145005387Y-94184737D01*
X145005391Y-94184740D01*
X145136494Y-94272341D01*
X145136507Y-94272348D01*
X145282178Y-94332686D01*
X145282183Y-94332688D01*
X145415392Y-94359185D01*
X145436833Y-94363450D01*
X145436836Y-94363451D01*
X145436838Y-94363451D01*
X145594524Y-94363451D01*
X145703425Y-94341789D01*
X145773017Y-94348016D01*
X145815298Y-94375725D01*
X145859349Y-94419776D01*
X145859353Y-94419779D01*
X145990456Y-94507380D01*
X145990469Y-94507387D01*
X146136140Y-94567725D01*
X146136145Y-94567727D01*
X146290795Y-94598489D01*
X146290798Y-94598490D01*
X146290800Y-94598490D01*
X146448486Y-94598490D01*
X146448487Y-94598489D01*
X146603139Y-94567727D01*
X146748821Y-94507384D01*
X146843101Y-94444388D01*
X146909778Y-94423510D01*
X146911992Y-94423490D01*
X147197413Y-94423490D01*
X147257835Y-94411471D01*
X147318258Y-94399453D01*
X147351598Y-94385642D01*
X147432092Y-94352302D01*
X147497975Y-94308279D01*
X147514135Y-94297480D01*
X147514138Y-94297480D01*
X147537250Y-94290244D01*
X147580807Y-94276606D01*
X147580811Y-94276607D01*
X147580816Y-94276606D01*
X147610796Y-94284832D01*
X147648188Y-94295090D01*
X147648192Y-94295094D01*
X147648195Y-94295095D01*
X147648206Y-94295108D01*
X147686124Y-94331695D01*
X147717848Y-94379173D01*
X147717851Y-94379177D01*
X147829345Y-94490671D01*
X147829349Y-94490674D01*
X147960452Y-94578275D01*
X147960465Y-94578282D01*
X148081006Y-94628211D01*
X148106141Y-94638622D01*
X148260791Y-94669384D01*
X148260794Y-94669385D01*
X148260796Y-94669385D01*
X148418482Y-94669385D01*
X148418483Y-94669384D01*
X148573135Y-94638622D01*
X148718817Y-94578279D01*
X148849927Y-94490674D01*
X148961427Y-94379174D01*
X149049032Y-94248064D01*
X149109375Y-94102382D01*
X149140138Y-93947727D01*
X149140138Y-93901153D01*
X154139500Y-93901153D01*
X154139500Y-94058846D01*
X154170261Y-94213489D01*
X154170264Y-94213501D01*
X154230602Y-94359172D01*
X154230609Y-94359185D01*
X154318210Y-94490288D01*
X154318213Y-94490292D01*
X154429707Y-94601786D01*
X154429711Y-94601789D01*
X154560814Y-94689390D01*
X154560827Y-94689397D01*
X154682288Y-94739707D01*
X154706503Y-94749737D01*
X154861153Y-94780499D01*
X154861156Y-94780500D01*
X154861158Y-94780500D01*
X155018844Y-94780500D01*
X155018845Y-94780499D01*
X155173497Y-94749737D01*
X155310582Y-94692955D01*
X155319172Y-94689397D01*
X155319172Y-94689396D01*
X155319179Y-94689394D01*
X155450289Y-94601789D01*
X155561789Y-94490289D01*
X155649394Y-94359179D01*
X155709737Y-94213497D01*
X155740500Y-94058842D01*
X155740500Y-93901158D01*
X155740500Y-93901155D01*
X155740499Y-93901153D01*
X156679500Y-93901153D01*
X156679500Y-94058846D01*
X156710261Y-94213489D01*
X156710264Y-94213501D01*
X156770602Y-94359172D01*
X156770609Y-94359185D01*
X156858210Y-94490288D01*
X156858213Y-94490292D01*
X156969707Y-94601786D01*
X156969711Y-94601789D01*
X157100814Y-94689390D01*
X157100827Y-94689397D01*
X157222288Y-94739707D01*
X157246503Y-94749737D01*
X157401153Y-94780499D01*
X157401156Y-94780500D01*
X157401158Y-94780500D01*
X157558844Y-94780500D01*
X157558845Y-94780499D01*
X157713497Y-94749737D01*
X157850582Y-94692955D01*
X157859172Y-94689397D01*
X157859172Y-94689396D01*
X157859179Y-94689394D01*
X157990289Y-94601789D01*
X158101789Y-94490289D01*
X158189394Y-94359179D01*
X158249737Y-94213497D01*
X158280500Y-94058842D01*
X158280500Y-93901158D01*
X158280500Y-93901155D01*
X158280499Y-93901153D01*
X159219500Y-93901153D01*
X159219500Y-94058846D01*
X159250261Y-94213489D01*
X159250264Y-94213501D01*
X159310602Y-94359172D01*
X159310609Y-94359185D01*
X159398210Y-94490288D01*
X159398213Y-94490292D01*
X159509707Y-94601786D01*
X159509711Y-94601789D01*
X159640814Y-94689390D01*
X159640827Y-94689397D01*
X159762288Y-94739707D01*
X159786503Y-94749737D01*
X159941153Y-94780499D01*
X159941156Y-94780500D01*
X159941158Y-94780500D01*
X160098844Y-94780500D01*
X160098845Y-94780499D01*
X160253497Y-94749737D01*
X160390582Y-94692955D01*
X160399172Y-94689397D01*
X160399172Y-94689396D01*
X160399179Y-94689394D01*
X160530289Y-94601789D01*
X160641789Y-94490289D01*
X160729394Y-94359179D01*
X160789737Y-94213497D01*
X160820500Y-94058842D01*
X160820500Y-93901158D01*
X160820500Y-93901155D01*
X160820499Y-93901153D01*
X161759500Y-93901153D01*
X161759500Y-94058846D01*
X161790261Y-94213489D01*
X161790264Y-94213501D01*
X161850602Y-94359172D01*
X161850609Y-94359185D01*
X161938210Y-94490288D01*
X161938213Y-94490292D01*
X162049707Y-94601786D01*
X162049711Y-94601789D01*
X162180814Y-94689390D01*
X162180827Y-94689397D01*
X162302288Y-94739707D01*
X162326503Y-94749737D01*
X162481153Y-94780499D01*
X162481156Y-94780500D01*
X162481158Y-94780500D01*
X162638844Y-94780500D01*
X162638845Y-94780499D01*
X162793497Y-94749737D01*
X162930582Y-94692955D01*
X162939172Y-94689397D01*
X162939172Y-94689396D01*
X162939179Y-94689394D01*
X163070289Y-94601789D01*
X163181789Y-94490289D01*
X163269394Y-94359179D01*
X163329737Y-94213497D01*
X163360500Y-94058842D01*
X163360500Y-93901158D01*
X163360500Y-93901155D01*
X163360499Y-93901153D01*
X164299500Y-93901153D01*
X164299500Y-94058846D01*
X164330261Y-94213489D01*
X164330264Y-94213501D01*
X164390602Y-94359172D01*
X164390609Y-94359185D01*
X164478210Y-94490288D01*
X164478213Y-94490292D01*
X164589707Y-94601786D01*
X164589711Y-94601789D01*
X164720814Y-94689390D01*
X164720827Y-94689397D01*
X164842288Y-94739707D01*
X164866503Y-94749737D01*
X165021153Y-94780499D01*
X165021156Y-94780500D01*
X165021158Y-94780500D01*
X165178844Y-94780500D01*
X165178845Y-94780499D01*
X165333497Y-94749737D01*
X165470582Y-94692955D01*
X165479172Y-94689397D01*
X165479172Y-94689396D01*
X165479179Y-94689394D01*
X165610289Y-94601789D01*
X165721789Y-94490289D01*
X165809394Y-94359179D01*
X165869737Y-94213497D01*
X165900500Y-94058842D01*
X165900500Y-93901158D01*
X165900500Y-93901155D01*
X165900499Y-93901153D01*
X166839500Y-93901153D01*
X166839500Y-94058846D01*
X166870261Y-94213489D01*
X166870264Y-94213501D01*
X166930602Y-94359172D01*
X166930609Y-94359185D01*
X167018210Y-94490288D01*
X167018213Y-94490292D01*
X167129707Y-94601786D01*
X167129711Y-94601789D01*
X167260814Y-94689390D01*
X167260827Y-94689397D01*
X167382288Y-94739707D01*
X167406503Y-94749737D01*
X167561153Y-94780499D01*
X167561156Y-94780500D01*
X167561158Y-94780500D01*
X167718844Y-94780500D01*
X167718845Y-94780499D01*
X167873497Y-94749737D01*
X168010582Y-94692955D01*
X168019172Y-94689397D01*
X168019172Y-94689396D01*
X168019179Y-94689394D01*
X168150289Y-94601789D01*
X168261789Y-94490289D01*
X168349394Y-94359179D01*
X168409737Y-94213497D01*
X168440500Y-94058842D01*
X168440500Y-93901158D01*
X168440500Y-93901155D01*
X168440499Y-93901153D01*
X169379500Y-93901153D01*
X169379500Y-94058846D01*
X169410261Y-94213489D01*
X169410264Y-94213501D01*
X169470602Y-94359172D01*
X169470609Y-94359185D01*
X169558210Y-94490288D01*
X169558213Y-94490292D01*
X169669707Y-94601786D01*
X169669711Y-94601789D01*
X169800814Y-94689390D01*
X169800827Y-94689397D01*
X169922288Y-94739707D01*
X169946503Y-94749737D01*
X170101153Y-94780499D01*
X170101156Y-94780500D01*
X170101158Y-94780500D01*
X170258844Y-94780500D01*
X170258845Y-94780499D01*
X170413497Y-94749737D01*
X170550582Y-94692955D01*
X170559172Y-94689397D01*
X170559172Y-94689396D01*
X170559179Y-94689394D01*
X170690289Y-94601789D01*
X170801789Y-94490289D01*
X170889394Y-94359179D01*
X170949737Y-94213497D01*
X170980500Y-94058842D01*
X170980500Y-93901158D01*
X170980500Y-93901155D01*
X170980499Y-93901153D01*
X171919500Y-93901153D01*
X171919500Y-94058846D01*
X171950261Y-94213489D01*
X171950264Y-94213501D01*
X172010602Y-94359172D01*
X172010609Y-94359185D01*
X172098210Y-94490288D01*
X172098213Y-94490292D01*
X172209707Y-94601786D01*
X172209711Y-94601789D01*
X172340814Y-94689390D01*
X172340827Y-94689397D01*
X172462288Y-94739707D01*
X172486503Y-94749737D01*
X172641153Y-94780499D01*
X172641156Y-94780500D01*
X172641158Y-94780500D01*
X172798844Y-94780500D01*
X172798845Y-94780499D01*
X172953497Y-94749737D01*
X173090582Y-94692955D01*
X173099172Y-94689397D01*
X173099172Y-94689396D01*
X173099179Y-94689394D01*
X173230289Y-94601789D01*
X173341789Y-94490289D01*
X173429394Y-94359179D01*
X173489737Y-94213497D01*
X173520500Y-94058842D01*
X173520500Y-93901158D01*
X173520500Y-93901155D01*
X173520499Y-93901153D01*
X174459500Y-93901153D01*
X174459500Y-94058846D01*
X174490261Y-94213489D01*
X174490264Y-94213501D01*
X174550602Y-94359172D01*
X174550609Y-94359185D01*
X174638210Y-94490288D01*
X174638213Y-94490292D01*
X174749707Y-94601786D01*
X174749711Y-94601789D01*
X174880814Y-94689390D01*
X174880827Y-94689397D01*
X175002288Y-94739707D01*
X175026503Y-94749737D01*
X175181153Y-94780499D01*
X175181156Y-94780500D01*
X175181158Y-94780500D01*
X175338844Y-94780500D01*
X175338845Y-94780499D01*
X175493497Y-94749737D01*
X175630582Y-94692955D01*
X175639172Y-94689397D01*
X175639172Y-94689396D01*
X175639179Y-94689394D01*
X175770289Y-94601789D01*
X175881789Y-94490289D01*
X175969394Y-94359179D01*
X176029737Y-94213497D01*
X176060500Y-94058842D01*
X176060500Y-93901158D01*
X176060500Y-93901155D01*
X176060499Y-93901153D01*
X176040466Y-93800442D01*
X176029737Y-93746503D01*
X176027445Y-93740970D01*
X175969397Y-93600827D01*
X175969390Y-93600814D01*
X175881789Y-93469711D01*
X175881786Y-93469707D01*
X175770292Y-93358213D01*
X175770288Y-93358210D01*
X175639185Y-93270609D01*
X175639172Y-93270602D01*
X175493501Y-93210264D01*
X175493489Y-93210261D01*
X175338845Y-93179500D01*
X175338842Y-93179500D01*
X175181158Y-93179500D01*
X175181155Y-93179500D01*
X175026510Y-93210261D01*
X175026498Y-93210264D01*
X174880827Y-93270602D01*
X174880814Y-93270609D01*
X174749711Y-93358210D01*
X174749707Y-93358213D01*
X174638213Y-93469707D01*
X174638210Y-93469711D01*
X174550609Y-93600814D01*
X174550602Y-93600827D01*
X174490264Y-93746498D01*
X174490261Y-93746510D01*
X174459500Y-93901153D01*
X173520499Y-93901153D01*
X173500466Y-93800442D01*
X173489737Y-93746503D01*
X173487445Y-93740970D01*
X173429397Y-93600827D01*
X173429390Y-93600814D01*
X173341789Y-93469711D01*
X173341786Y-93469707D01*
X173230292Y-93358213D01*
X173230288Y-93358210D01*
X173099185Y-93270609D01*
X173099172Y-93270602D01*
X172953501Y-93210264D01*
X172953489Y-93210261D01*
X172798845Y-93179500D01*
X172798842Y-93179500D01*
X172641158Y-93179500D01*
X172641155Y-93179500D01*
X172486510Y-93210261D01*
X172486498Y-93210264D01*
X172340827Y-93270602D01*
X172340814Y-93270609D01*
X172209711Y-93358210D01*
X172209707Y-93358213D01*
X172098213Y-93469707D01*
X172098210Y-93469711D01*
X172010609Y-93600814D01*
X172010602Y-93600827D01*
X171950264Y-93746498D01*
X171950261Y-93746510D01*
X171919500Y-93901153D01*
X170980499Y-93901153D01*
X170960466Y-93800442D01*
X170949737Y-93746503D01*
X170947445Y-93740970D01*
X170889397Y-93600827D01*
X170889390Y-93600814D01*
X170801789Y-93469711D01*
X170801786Y-93469707D01*
X170690292Y-93358213D01*
X170690288Y-93358210D01*
X170559185Y-93270609D01*
X170559172Y-93270602D01*
X170413501Y-93210264D01*
X170413489Y-93210261D01*
X170258845Y-93179500D01*
X170258842Y-93179500D01*
X170101158Y-93179500D01*
X170101155Y-93179500D01*
X169946510Y-93210261D01*
X169946498Y-93210264D01*
X169800827Y-93270602D01*
X169800814Y-93270609D01*
X169669711Y-93358210D01*
X169669707Y-93358213D01*
X169558213Y-93469707D01*
X169558210Y-93469711D01*
X169470609Y-93600814D01*
X169470602Y-93600827D01*
X169410264Y-93746498D01*
X169410261Y-93746510D01*
X169379500Y-93901153D01*
X168440499Y-93901153D01*
X168420466Y-93800442D01*
X168409737Y-93746503D01*
X168407445Y-93740970D01*
X168349397Y-93600827D01*
X168349390Y-93600814D01*
X168261789Y-93469711D01*
X168261786Y-93469707D01*
X168150292Y-93358213D01*
X168150288Y-93358210D01*
X168019185Y-93270609D01*
X168019172Y-93270602D01*
X167873501Y-93210264D01*
X167873489Y-93210261D01*
X167718845Y-93179500D01*
X167718842Y-93179500D01*
X167561158Y-93179500D01*
X167561155Y-93179500D01*
X167406510Y-93210261D01*
X167406498Y-93210264D01*
X167260827Y-93270602D01*
X167260814Y-93270609D01*
X167129711Y-93358210D01*
X167129707Y-93358213D01*
X167018213Y-93469707D01*
X167018210Y-93469711D01*
X166930609Y-93600814D01*
X166930602Y-93600827D01*
X166870264Y-93746498D01*
X166870261Y-93746510D01*
X166839500Y-93901153D01*
X165900499Y-93901153D01*
X165880466Y-93800442D01*
X165869737Y-93746503D01*
X165867445Y-93740970D01*
X165809397Y-93600827D01*
X165809390Y-93600814D01*
X165721789Y-93469711D01*
X165721786Y-93469707D01*
X165610292Y-93358213D01*
X165610288Y-93358210D01*
X165479185Y-93270609D01*
X165479172Y-93270602D01*
X165333501Y-93210264D01*
X165333489Y-93210261D01*
X165178845Y-93179500D01*
X165178842Y-93179500D01*
X165021158Y-93179500D01*
X165021155Y-93179500D01*
X164866510Y-93210261D01*
X164866498Y-93210264D01*
X164720827Y-93270602D01*
X164720814Y-93270609D01*
X164589711Y-93358210D01*
X164589707Y-93358213D01*
X164478213Y-93469707D01*
X164478210Y-93469711D01*
X164390609Y-93600814D01*
X164390602Y-93600827D01*
X164330264Y-93746498D01*
X164330261Y-93746510D01*
X164299500Y-93901153D01*
X163360499Y-93901153D01*
X163340466Y-93800442D01*
X163329737Y-93746503D01*
X163327445Y-93740970D01*
X163269397Y-93600827D01*
X163269390Y-93600814D01*
X163181789Y-93469711D01*
X163181786Y-93469707D01*
X163070292Y-93358213D01*
X163070288Y-93358210D01*
X162939185Y-93270609D01*
X162939172Y-93270602D01*
X162793501Y-93210264D01*
X162793489Y-93210261D01*
X162638845Y-93179500D01*
X162638842Y-93179500D01*
X162481158Y-93179500D01*
X162481155Y-93179500D01*
X162326510Y-93210261D01*
X162326498Y-93210264D01*
X162180827Y-93270602D01*
X162180814Y-93270609D01*
X162049711Y-93358210D01*
X162049707Y-93358213D01*
X161938213Y-93469707D01*
X161938210Y-93469711D01*
X161850609Y-93600814D01*
X161850602Y-93600827D01*
X161790264Y-93746498D01*
X161790261Y-93746510D01*
X161759500Y-93901153D01*
X160820499Y-93901153D01*
X160800466Y-93800442D01*
X160789737Y-93746503D01*
X160787445Y-93740970D01*
X160729397Y-93600827D01*
X160729390Y-93600814D01*
X160641789Y-93469711D01*
X160641786Y-93469707D01*
X160530292Y-93358213D01*
X160530288Y-93358210D01*
X160399185Y-93270609D01*
X160399172Y-93270602D01*
X160253501Y-93210264D01*
X160253489Y-93210261D01*
X160098845Y-93179500D01*
X160098842Y-93179500D01*
X159941158Y-93179500D01*
X159941155Y-93179500D01*
X159786510Y-93210261D01*
X159786498Y-93210264D01*
X159640827Y-93270602D01*
X159640814Y-93270609D01*
X159509711Y-93358210D01*
X159509707Y-93358213D01*
X159398213Y-93469707D01*
X159398210Y-93469711D01*
X159310609Y-93600814D01*
X159310602Y-93600827D01*
X159250264Y-93746498D01*
X159250261Y-93746510D01*
X159219500Y-93901153D01*
X158280499Y-93901153D01*
X158260466Y-93800442D01*
X158249737Y-93746503D01*
X158247445Y-93740970D01*
X158189397Y-93600827D01*
X158189390Y-93600814D01*
X158101789Y-93469711D01*
X158101786Y-93469707D01*
X157990292Y-93358213D01*
X157990288Y-93358210D01*
X157859185Y-93270609D01*
X157859172Y-93270602D01*
X157713501Y-93210264D01*
X157713489Y-93210261D01*
X157558845Y-93179500D01*
X157558842Y-93179500D01*
X157401158Y-93179500D01*
X157401155Y-93179500D01*
X157246510Y-93210261D01*
X157246498Y-93210264D01*
X157100827Y-93270602D01*
X157100814Y-93270609D01*
X156969711Y-93358210D01*
X156969707Y-93358213D01*
X156858213Y-93469707D01*
X156858210Y-93469711D01*
X156770609Y-93600814D01*
X156770602Y-93600827D01*
X156710264Y-93746498D01*
X156710261Y-93746510D01*
X156679500Y-93901153D01*
X155740499Y-93901153D01*
X155720466Y-93800442D01*
X155709737Y-93746503D01*
X155707445Y-93740970D01*
X155649397Y-93600827D01*
X155649390Y-93600814D01*
X155561789Y-93469711D01*
X155561786Y-93469707D01*
X155450292Y-93358213D01*
X155450288Y-93358210D01*
X155319185Y-93270609D01*
X155319172Y-93270602D01*
X155173501Y-93210264D01*
X155173489Y-93210261D01*
X155018845Y-93179500D01*
X155018842Y-93179500D01*
X154861158Y-93179500D01*
X154861155Y-93179500D01*
X154706510Y-93210261D01*
X154706498Y-93210264D01*
X154560827Y-93270602D01*
X154560814Y-93270609D01*
X154429711Y-93358210D01*
X154429707Y-93358213D01*
X154318213Y-93469707D01*
X154318210Y-93469711D01*
X154230609Y-93600814D01*
X154230602Y-93600827D01*
X154170264Y-93746498D01*
X154170261Y-93746510D01*
X154139500Y-93901153D01*
X149140138Y-93901153D01*
X149140138Y-93790043D01*
X149140138Y-93790040D01*
X149140137Y-93790038D01*
X149118204Y-93679773D01*
X149109375Y-93635388D01*
X149100315Y-93613515D01*
X149049035Y-93489712D01*
X149049028Y-93489699D01*
X148961427Y-93358596D01*
X148961424Y-93358592D01*
X148849930Y-93247098D01*
X148849922Y-93247092D01*
X148808526Y-93219432D01*
X148763720Y-93165820D01*
X148755013Y-93096495D01*
X148785167Y-93033468D01*
X148789714Y-93028670D01*
X149549567Y-92268819D01*
X149610890Y-92235334D01*
X149637248Y-92232500D01*
X150201202Y-92232500D01*
X150261624Y-92220481D01*
X150322047Y-92208463D01*
X150380297Y-92184335D01*
X150435881Y-92161312D01*
X150512224Y-92110300D01*
X150538328Y-92092858D01*
X150625453Y-92005733D01*
X150625454Y-92005731D01*
X150632520Y-91998665D01*
X150632523Y-91998661D01*
X151156502Y-91474681D01*
X151217823Y-91441198D01*
X151287515Y-91446182D01*
X151343448Y-91488054D01*
X151358742Y-91514911D01*
X151400604Y-91615975D01*
X151400609Y-91615985D01*
X151488210Y-91747088D01*
X151488213Y-91747092D01*
X151599707Y-91858586D01*
X151599711Y-91858589D01*
X151730814Y-91946190D01*
X151730827Y-91946197D01*
X151857479Y-91998657D01*
X151876503Y-92006537D01*
X152031153Y-92037299D01*
X152031156Y-92037300D01*
X152031158Y-92037300D01*
X152188844Y-92037300D01*
X152188845Y-92037299D01*
X152343497Y-92006537D01*
X152477789Y-91950912D01*
X152489172Y-91946197D01*
X152489172Y-91946196D01*
X152489179Y-91946194D01*
X152620289Y-91858589D01*
X152731789Y-91747089D01*
X152819394Y-91615979D01*
X152879737Y-91470297D01*
X152910500Y-91315642D01*
X152910500Y-91157958D01*
X152910500Y-91157955D01*
X152910499Y-91157953D01*
X152907259Y-91141663D01*
X152879737Y-91003303D01*
X152879735Y-91003298D01*
X152819397Y-90857627D01*
X152819390Y-90857614D01*
X152731789Y-90726511D01*
X152731786Y-90726507D01*
X152620292Y-90615013D01*
X152620288Y-90615010D01*
X152489185Y-90527409D01*
X152489172Y-90527402D01*
X152343501Y-90467064D01*
X152343489Y-90467061D01*
X152188845Y-90436300D01*
X152188842Y-90436300D01*
X152031158Y-90436300D01*
X152031153Y-90436300D01*
X151969091Y-90448645D01*
X151899499Y-90442418D01*
X151844322Y-90399554D01*
X151821078Y-90333665D01*
X151820900Y-90327028D01*
X151820900Y-87922709D01*
X151840585Y-87855670D01*
X151857214Y-87835032D01*
X153037633Y-86654614D01*
X153037637Y-86654612D01*
X153124762Y-86567487D01*
X153186225Y-86475501D01*
X153193216Y-86465039D01*
X153227988Y-86381091D01*
X153240367Y-86351206D01*
X153251265Y-86296416D01*
X153258629Y-86259398D01*
X153258629Y-86259394D01*
X153264404Y-86230361D01*
X153264404Y-86107147D01*
X153264404Y-85175166D01*
X153240367Y-85054320D01*
X153208961Y-84978500D01*
X153193216Y-84940487D01*
X153172132Y-84908933D01*
X153151382Y-84877879D01*
X153124762Y-84838038D01*
X153034541Y-84747817D01*
X153034510Y-84747788D01*
X152147419Y-83860697D01*
X152132715Y-83833769D01*
X152116123Y-83807951D01*
X152115231Y-83801750D01*
X152113934Y-83799374D01*
X152111100Y-83773016D01*
X152111100Y-83584602D01*
X152130785Y-83517563D01*
X152183589Y-83471808D01*
X152235100Y-83460602D01*
X152342258Y-83460602D01*
X152342259Y-83460601D01*
X152496911Y-83429839D01*
X152642593Y-83369496D01*
X152727329Y-83312876D01*
X152794006Y-83291999D01*
X152861386Y-83310483D01*
X152908077Y-83362462D01*
X152920220Y-83415979D01*
X152920220Y-83526334D01*
X152950981Y-83680977D01*
X152950984Y-83680989D01*
X153011322Y-83826660D01*
X153011329Y-83826673D01*
X153098930Y-83957776D01*
X153098933Y-83957780D01*
X153210427Y-84069274D01*
X153210431Y-84069277D01*
X153341534Y-84156878D01*
X153341547Y-84156885D01*
X153485468Y-84216498D01*
X153487223Y-84217225D01*
X153641873Y-84247987D01*
X153641876Y-84247988D01*
X153641878Y-84247988D01*
X153799564Y-84247988D01*
X153799565Y-84247987D01*
X153954217Y-84217225D01*
X154072560Y-84168206D01*
X154099892Y-84156885D01*
X154099892Y-84156884D01*
X154099899Y-84156882D01*
X154231009Y-84069277D01*
X154342509Y-83957777D01*
X154372209Y-83913328D01*
X154410207Y-83856460D01*
X154463819Y-83811655D01*
X154533144Y-83802948D01*
X154596171Y-83833102D01*
X154600990Y-83837670D01*
X157326183Y-86562863D01*
X157350911Y-86604023D01*
X157353074Y-86603128D01*
X157415744Y-86754430D01*
X157415751Y-86754443D01*
X157503352Y-86885546D01*
X157503355Y-86885550D01*
X157614849Y-86997044D01*
X157614853Y-86997047D01*
X157745956Y-87084648D01*
X157745969Y-87084655D01*
X157860542Y-87132112D01*
X157891645Y-87144995D01*
X158040509Y-87174606D01*
X158046295Y-87175757D01*
X158046298Y-87175758D01*
X158046300Y-87175758D01*
X158203986Y-87175758D01*
X158203987Y-87175757D01*
X158358639Y-87144995D01*
X158504321Y-87084652D01*
X158635431Y-86997047D01*
X158746931Y-86885547D01*
X158834536Y-86754437D01*
X158894879Y-86608755D01*
X158925642Y-86454100D01*
X158925642Y-86317109D01*
X158945327Y-86250070D01*
X158970977Y-86221256D01*
X158975100Y-86217870D01*
X158975108Y-86217866D01*
X159086608Y-86106366D01*
X159174213Y-85975256D01*
X159234556Y-85829574D01*
X159265319Y-85674919D01*
X159265319Y-85517235D01*
X159265319Y-85517232D01*
X159264722Y-85511170D01*
X159266356Y-85511009D01*
X159269919Y-85471153D01*
X169999500Y-85471153D01*
X169999500Y-85628846D01*
X170030261Y-85783489D01*
X170030264Y-85783501D01*
X170090602Y-85929172D01*
X170090609Y-85929185D01*
X170178210Y-86060288D01*
X170178213Y-86060292D01*
X170289707Y-86171786D01*
X170289711Y-86171789D01*
X170420814Y-86259390D01*
X170420827Y-86259397D01*
X170513054Y-86297598D01*
X170566503Y-86319737D01*
X170721153Y-86350499D01*
X170721156Y-86350500D01*
X170721158Y-86350500D01*
X170878844Y-86350500D01*
X170878845Y-86350499D01*
X171033497Y-86319737D01*
X171146166Y-86273067D01*
X171179172Y-86259397D01*
X171179172Y-86259396D01*
X171179179Y-86259394D01*
X171310289Y-86171789D01*
X171421789Y-86060289D01*
X171509394Y-85929179D01*
X171569737Y-85783497D01*
X171572192Y-85771153D01*
X172099500Y-85771153D01*
X172099500Y-85928846D01*
X172130261Y-86083489D01*
X172130264Y-86083501D01*
X172190602Y-86229172D01*
X172190609Y-86229185D01*
X172278210Y-86360288D01*
X172278213Y-86360292D01*
X172389707Y-86471786D01*
X172389711Y-86471789D01*
X172520814Y-86559390D01*
X172520827Y-86559397D01*
X172666498Y-86619735D01*
X172666503Y-86619737D01*
X172821153Y-86650499D01*
X172821156Y-86650500D01*
X172821158Y-86650500D01*
X172978844Y-86650500D01*
X172978845Y-86650499D01*
X173133497Y-86619737D01*
X173227550Y-86580778D01*
X173297016Y-86573310D01*
X173322443Y-86580775D01*
X173416503Y-86619737D01*
X173571153Y-86650499D01*
X173571156Y-86650500D01*
X173571158Y-86650500D01*
X173728844Y-86650500D01*
X173728845Y-86650499D01*
X173883497Y-86619737D01*
X174020804Y-86562863D01*
X174029172Y-86559397D01*
X174029172Y-86559396D01*
X174029179Y-86559394D01*
X174160289Y-86471789D01*
X174271789Y-86360289D01*
X174359394Y-86229179D01*
X174419737Y-86083497D01*
X174450500Y-85928842D01*
X174450500Y-85771158D01*
X174450500Y-85771155D01*
X174450499Y-85771153D01*
X174444476Y-85740873D01*
X174419737Y-85616503D01*
X174417378Y-85610807D01*
X174359397Y-85470827D01*
X174359390Y-85470814D01*
X174271789Y-85339711D01*
X174271786Y-85339707D01*
X174160292Y-85228213D01*
X174160288Y-85228210D01*
X174029185Y-85140609D01*
X174029172Y-85140602D01*
X173883501Y-85080264D01*
X173883489Y-85080261D01*
X173728845Y-85049500D01*
X173728842Y-85049500D01*
X173571158Y-85049500D01*
X173571155Y-85049500D01*
X173416510Y-85080261D01*
X173416498Y-85080264D01*
X173322452Y-85119219D01*
X173252982Y-85126688D01*
X173227548Y-85119219D01*
X173133501Y-85080264D01*
X173133489Y-85080261D01*
X172978845Y-85049500D01*
X172978842Y-85049500D01*
X172821158Y-85049500D01*
X172821155Y-85049500D01*
X172666510Y-85080261D01*
X172666498Y-85080264D01*
X172520827Y-85140602D01*
X172520814Y-85140609D01*
X172389711Y-85228210D01*
X172389707Y-85228213D01*
X172278213Y-85339707D01*
X172278210Y-85339711D01*
X172190609Y-85470814D01*
X172190602Y-85470827D01*
X172130264Y-85616498D01*
X172130261Y-85616510D01*
X172099500Y-85771153D01*
X171572192Y-85771153D01*
X171572721Y-85768496D01*
X171578216Y-85740874D01*
X171578216Y-85740873D01*
X171600499Y-85628846D01*
X171600500Y-85628844D01*
X171600500Y-85471155D01*
X171600499Y-85471153D01*
X171578269Y-85359397D01*
X171569737Y-85316503D01*
X171569735Y-85316498D01*
X171509397Y-85170827D01*
X171509390Y-85170814D01*
X171421789Y-85039711D01*
X171421786Y-85039707D01*
X171310292Y-84928213D01*
X171310288Y-84928210D01*
X171179185Y-84840609D01*
X171179172Y-84840602D01*
X171033501Y-84780264D01*
X171033489Y-84780261D01*
X170878845Y-84749500D01*
X170878842Y-84749500D01*
X170721158Y-84749500D01*
X170721155Y-84749500D01*
X170566510Y-84780261D01*
X170566498Y-84780264D01*
X170420827Y-84840602D01*
X170420814Y-84840609D01*
X170289711Y-84928210D01*
X170289707Y-84928213D01*
X170178213Y-85039707D01*
X170178210Y-85039711D01*
X170090609Y-85170814D01*
X170090602Y-85170827D01*
X170030264Y-85316498D01*
X170030261Y-85316510D01*
X169999500Y-85471153D01*
X159269919Y-85471153D01*
X159271871Y-85449314D01*
X159299584Y-85407022D01*
X159393073Y-85313534D01*
X159480678Y-85182424D01*
X159541021Y-85036742D01*
X159571784Y-84882087D01*
X159571784Y-84744500D01*
X159591469Y-84677461D01*
X159644273Y-84631706D01*
X159686521Y-84622514D01*
X159686382Y-84621097D01*
X159692436Y-84620500D01*
X159692442Y-84620500D01*
X159847097Y-84589737D01*
X159891963Y-84571153D01*
X165849500Y-84571153D01*
X165849500Y-84728846D01*
X165880261Y-84883489D01*
X165880264Y-84883501D01*
X165940602Y-85029172D01*
X165940609Y-85029185D01*
X166028210Y-85160288D01*
X166028213Y-85160292D01*
X166139707Y-85271786D01*
X166139711Y-85271789D01*
X166270814Y-85359390D01*
X166270827Y-85359397D01*
X166385801Y-85407020D01*
X166416503Y-85419737D01*
X166545705Y-85445437D01*
X166571153Y-85450499D01*
X166571156Y-85450500D01*
X166571158Y-85450500D01*
X166728844Y-85450500D01*
X166728845Y-85450499D01*
X166883497Y-85419737D01*
X167029179Y-85359394D01*
X167160289Y-85271789D01*
X167271789Y-85160289D01*
X167359394Y-85029179D01*
X167419737Y-84883497D01*
X167450500Y-84728842D01*
X167450500Y-84571158D01*
X167450500Y-84571155D01*
X167450499Y-84571153D01*
X167442193Y-84529397D01*
X167419737Y-84416503D01*
X167400955Y-84371158D01*
X167359397Y-84270827D01*
X167359390Y-84270814D01*
X167271789Y-84139711D01*
X167271786Y-84139707D01*
X167160292Y-84028213D01*
X167160288Y-84028210D01*
X167029185Y-83940609D01*
X167029172Y-83940602D01*
X166883501Y-83880264D01*
X166883489Y-83880261D01*
X166728845Y-83849500D01*
X166728842Y-83849500D01*
X166571158Y-83849500D01*
X166571155Y-83849500D01*
X166416510Y-83880261D01*
X166416498Y-83880264D01*
X166270827Y-83940602D01*
X166270814Y-83940609D01*
X166139711Y-84028210D01*
X166139707Y-84028213D01*
X166028213Y-84139707D01*
X166028210Y-84139711D01*
X165940609Y-84270814D01*
X165940602Y-84270827D01*
X165880264Y-84416498D01*
X165880261Y-84416510D01*
X165849500Y-84571153D01*
X159891963Y-84571153D01*
X159992779Y-84529394D01*
X160039138Y-84498418D01*
X160093696Y-84461964D01*
X160111404Y-84450131D01*
X160123889Y-84441789D01*
X160235389Y-84330289D01*
X160322994Y-84199179D01*
X160383337Y-84053497D01*
X160414100Y-83898842D01*
X160414100Y-83741158D01*
X160414100Y-83741155D01*
X160414099Y-83741153D01*
X160404901Y-83694910D01*
X160383337Y-83586503D01*
X160373413Y-83562544D01*
X160322997Y-83440827D01*
X160322990Y-83440814D01*
X160235389Y-83309711D01*
X160235386Y-83309707D01*
X160123892Y-83198213D01*
X160123888Y-83198210D01*
X159992785Y-83110609D01*
X159992772Y-83110602D01*
X159847101Y-83050264D01*
X159847089Y-83050261D01*
X159692445Y-83019500D01*
X159692442Y-83019500D01*
X159534758Y-83019500D01*
X159534753Y-83019500D01*
X159390504Y-83048193D01*
X159320912Y-83041966D01*
X159275099Y-83008615D01*
X159274497Y-83009218D01*
X159270672Y-83005393D01*
X159270456Y-83005236D01*
X159270186Y-83004907D01*
X159158692Y-82893413D01*
X159158688Y-82893410D01*
X159027585Y-82805809D01*
X159027572Y-82805802D01*
X158881901Y-82745464D01*
X158881889Y-82745461D01*
X158727245Y-82714700D01*
X158727242Y-82714700D01*
X158569558Y-82714700D01*
X158569555Y-82714700D01*
X158414910Y-82745461D01*
X158414898Y-82745464D01*
X158269227Y-82805802D01*
X158269214Y-82805809D01*
X158138111Y-82893410D01*
X158138107Y-82893413D01*
X158026613Y-83004907D01*
X158026610Y-83004911D01*
X157939009Y-83136014D01*
X157939004Y-83136024D01*
X157928510Y-83161360D01*
X157884669Y-83215763D01*
X157818375Y-83237828D01*
X157750675Y-83220549D01*
X157726268Y-83201588D01*
X156741833Y-82217153D01*
X162470700Y-82217153D01*
X162470700Y-82374846D01*
X162501461Y-82529489D01*
X162501464Y-82529501D01*
X162561802Y-82675172D01*
X162561809Y-82675185D01*
X162649410Y-82806288D01*
X162649413Y-82806292D01*
X162760907Y-82917786D01*
X162760911Y-82917789D01*
X162892014Y-83005390D01*
X162892027Y-83005397D01*
X163036761Y-83065347D01*
X163037703Y-83065737D01*
X163192353Y-83096499D01*
X163192356Y-83096500D01*
X163192358Y-83096500D01*
X163350044Y-83096500D01*
X163350045Y-83096499D01*
X163504697Y-83065737D01*
X163570818Y-83038349D01*
X163601588Y-83025604D01*
X163671057Y-83018135D01*
X163733536Y-83049410D01*
X163752143Y-83071275D01*
X163778212Y-83110291D01*
X163889707Y-83221786D01*
X163889711Y-83221789D01*
X164020814Y-83309390D01*
X164020827Y-83309397D01*
X164165921Y-83369496D01*
X164166503Y-83369737D01*
X164321153Y-83400499D01*
X164321156Y-83400500D01*
X164321158Y-83400500D01*
X164478844Y-83400500D01*
X164478845Y-83400499D01*
X164633497Y-83369737D01*
X164778414Y-83309711D01*
X164779172Y-83309397D01*
X164779172Y-83309396D01*
X164779179Y-83309394D01*
X164910289Y-83221789D01*
X165021789Y-83110289D01*
X165109394Y-82979179D01*
X165169737Y-82833497D01*
X165200500Y-82678842D01*
X165200500Y-82521158D01*
X165200500Y-82521155D01*
X165200499Y-82521153D01*
X165181692Y-82426605D01*
X165169737Y-82366503D01*
X165168493Y-82363500D01*
X165109397Y-82220827D01*
X165109390Y-82220814D01*
X165021789Y-82089711D01*
X165021786Y-82089707D01*
X164910292Y-81978213D01*
X164910288Y-81978210D01*
X164779185Y-81890609D01*
X164779172Y-81890602D01*
X164633501Y-81830264D01*
X164633489Y-81830261D01*
X164478845Y-81799500D01*
X164478842Y-81799500D01*
X164321158Y-81799500D01*
X164321155Y-81799500D01*
X164166510Y-81830261D01*
X164166503Y-81830263D01*
X164069611Y-81870396D01*
X164000142Y-81877864D01*
X163937663Y-81846588D01*
X163919058Y-81824725D01*
X163892989Y-81785711D01*
X163892986Y-81785707D01*
X163781492Y-81674213D01*
X163781488Y-81674210D01*
X163650385Y-81586609D01*
X163650372Y-81586602D01*
X163504701Y-81526264D01*
X163504689Y-81526261D01*
X163350045Y-81495500D01*
X163350042Y-81495500D01*
X163192358Y-81495500D01*
X163192355Y-81495500D01*
X163037710Y-81526261D01*
X163037698Y-81526264D01*
X162892027Y-81586602D01*
X162892014Y-81586609D01*
X162760911Y-81674210D01*
X162760907Y-81674213D01*
X162649413Y-81785707D01*
X162649410Y-81785711D01*
X162561809Y-81916814D01*
X162561802Y-81916827D01*
X162501464Y-82062498D01*
X162501461Y-82062510D01*
X162470700Y-82217153D01*
X156741833Y-82217153D01*
X155033815Y-80509135D01*
X177338500Y-80509135D01*
X177338500Y-82304870D01*
X177338501Y-82304876D01*
X177344908Y-82364483D01*
X177395202Y-82499328D01*
X177395206Y-82499335D01*
X177481452Y-82614544D01*
X177481455Y-82614547D01*
X177596664Y-82700793D01*
X177596671Y-82700797D01*
X177731517Y-82751091D01*
X177731516Y-82751091D01*
X177738444Y-82751835D01*
X177791127Y-82757500D01*
X179586872Y-82757499D01*
X179646483Y-82751091D01*
X179781331Y-82700796D01*
X179896546Y-82614546D01*
X179982796Y-82499331D01*
X180033091Y-82364483D01*
X180039500Y-82304873D01*
X180039499Y-80509128D01*
X180033091Y-80449517D01*
X179982796Y-80314669D01*
X179982795Y-80314668D01*
X179982793Y-80314664D01*
X179896547Y-80199455D01*
X179896544Y-80199452D01*
X179781335Y-80113206D01*
X179781328Y-80113202D01*
X179646482Y-80062908D01*
X179646483Y-80062908D01*
X179586883Y-80056501D01*
X179586881Y-80056500D01*
X179586873Y-80056500D01*
X179586864Y-80056500D01*
X177791129Y-80056500D01*
X177791123Y-80056501D01*
X177731516Y-80062908D01*
X177596671Y-80113202D01*
X177596664Y-80113206D01*
X177481455Y-80199452D01*
X177481452Y-80199455D01*
X177395206Y-80314664D01*
X177395202Y-80314671D01*
X177344908Y-80449517D01*
X177338501Y-80509116D01*
X177338501Y-80509123D01*
X177338500Y-80509135D01*
X155033815Y-80509135D01*
X153033374Y-78508694D01*
X152999889Y-78447371D01*
X152998219Y-78418534D01*
X152997300Y-78418534D01*
X152997300Y-78254755D01*
X152997299Y-78254753D01*
X152982482Y-78180263D01*
X152966537Y-78100103D01*
X152947342Y-78053761D01*
X152906197Y-77954427D01*
X152906190Y-77954414D01*
X152818589Y-77823311D01*
X152818586Y-77823307D01*
X152707092Y-77711813D01*
X152707088Y-77711810D01*
X152575985Y-77624209D01*
X152575972Y-77624202D01*
X152430301Y-77563864D01*
X152430289Y-77563861D01*
X152275645Y-77533100D01*
X152275642Y-77533100D01*
X152117958Y-77533100D01*
X152117955Y-77533100D01*
X151963310Y-77563861D01*
X151963298Y-77563864D01*
X151817627Y-77624202D01*
X151817614Y-77624209D01*
X151686511Y-77711810D01*
X151686507Y-77711813D01*
X151575013Y-77823307D01*
X151575010Y-77823311D01*
X151541266Y-77873813D01*
X151487654Y-77918618D01*
X151418329Y-77927325D01*
X151355301Y-77897170D01*
X151350483Y-77892603D01*
X150725819Y-77267939D01*
X150711115Y-77241011D01*
X150694523Y-77215193D01*
X150693631Y-77208992D01*
X150692334Y-77206616D01*
X150689500Y-77180258D01*
X150689500Y-76983953D01*
X155170945Y-76983953D01*
X155170945Y-77141646D01*
X155201706Y-77296289D01*
X155201709Y-77296301D01*
X155262047Y-77441972D01*
X155262054Y-77441985D01*
X155349655Y-77573088D01*
X155349658Y-77573092D01*
X155461152Y-77684586D01*
X155461156Y-77684589D01*
X155592259Y-77772190D01*
X155592272Y-77772197D01*
X155715674Y-77823311D01*
X155737948Y-77832537D01*
X155892598Y-77863299D01*
X155892601Y-77863300D01*
X155892603Y-77863300D01*
X156050289Y-77863300D01*
X156050290Y-77863299D01*
X156204942Y-77832537D01*
X156350624Y-77772194D01*
X156481734Y-77684589D01*
X156593234Y-77573089D01*
X156680839Y-77441979D01*
X156741182Y-77296297D01*
X156771945Y-77141642D01*
X156771945Y-76983958D01*
X156771945Y-76983955D01*
X156771944Y-76983953D01*
X156741183Y-76829310D01*
X156741182Y-76829303D01*
X156723594Y-76786842D01*
X156680842Y-76683627D01*
X156680835Y-76683614D01*
X156593234Y-76552511D01*
X156593231Y-76552507D01*
X156481737Y-76441013D01*
X156481733Y-76441010D01*
X156350630Y-76353409D01*
X156350617Y-76353402D01*
X156204946Y-76293064D01*
X156204934Y-76293061D01*
X156050290Y-76262300D01*
X156050287Y-76262300D01*
X155892603Y-76262300D01*
X155892600Y-76262300D01*
X155737955Y-76293061D01*
X155737943Y-76293064D01*
X155592272Y-76353402D01*
X155592259Y-76353409D01*
X155461156Y-76441010D01*
X155461152Y-76441013D01*
X155349658Y-76552507D01*
X155349655Y-76552511D01*
X155262054Y-76683614D01*
X155262047Y-76683627D01*
X155201709Y-76829298D01*
X155201706Y-76829310D01*
X155170945Y-76983953D01*
X150689500Y-76983953D01*
X150689500Y-76147540D01*
X150709185Y-76080501D01*
X150725822Y-76059856D01*
X150735787Y-76049891D01*
X150735789Y-76049889D01*
X150823394Y-75918779D01*
X150883737Y-75773097D01*
X150914500Y-75618442D01*
X150914500Y-75460758D01*
X150914500Y-75460755D01*
X150914499Y-75460753D01*
X150907320Y-75424663D01*
X150883737Y-75306103D01*
X150834109Y-75186289D01*
X150823397Y-75160427D01*
X150823390Y-75160414D01*
X150760543Y-75066357D01*
X150735789Y-75029311D01*
X150735786Y-75029307D01*
X150710032Y-75003553D01*
X151142300Y-75003553D01*
X151142300Y-75161246D01*
X151173061Y-75315889D01*
X151173064Y-75315901D01*
X151233402Y-75461572D01*
X151233409Y-75461585D01*
X151321010Y-75592688D01*
X151321013Y-75592692D01*
X151432507Y-75704186D01*
X151432511Y-75704189D01*
X151563614Y-75791790D01*
X151563627Y-75791797D01*
X151709298Y-75852135D01*
X151709303Y-75852137D01*
X151863953Y-75882899D01*
X151863956Y-75882900D01*
X151863958Y-75882900D01*
X152021644Y-75882900D01*
X152165901Y-75854205D01*
X152235493Y-75860432D01*
X152290670Y-75903295D01*
X152299448Y-75917364D01*
X152300200Y-75918772D01*
X152387810Y-76049888D01*
X152387813Y-76049892D01*
X152499307Y-76161386D01*
X152499311Y-76161389D01*
X152630414Y-76248990D01*
X152630427Y-76248997D01*
X152736816Y-76293064D01*
X152776103Y-76309337D01*
X152930753Y-76340099D01*
X152930756Y-76340100D01*
X152930758Y-76340100D01*
X153088444Y-76340100D01*
X153088445Y-76340099D01*
X153243097Y-76309337D01*
X153388779Y-76248994D01*
X153519889Y-76161389D01*
X153631389Y-76049889D01*
X153718994Y-75918779D01*
X153779337Y-75773097D01*
X153810100Y-75618442D01*
X153810100Y-75460758D01*
X153810100Y-75460755D01*
X153810099Y-75460753D01*
X153802920Y-75424663D01*
X153779337Y-75306103D01*
X153729709Y-75186289D01*
X153718997Y-75160427D01*
X153718990Y-75160414D01*
X153631389Y-75029311D01*
X153631386Y-75029307D01*
X153519892Y-74917813D01*
X153519888Y-74917810D01*
X153388785Y-74830209D01*
X153388772Y-74830202D01*
X153243101Y-74769864D01*
X153243089Y-74769861D01*
X153088445Y-74739100D01*
X153088442Y-74739100D01*
X152930758Y-74739100D01*
X152930753Y-74739100D01*
X152786497Y-74767794D01*
X152716905Y-74761567D01*
X152661728Y-74718703D01*
X152652947Y-74704630D01*
X152652196Y-74703227D01*
X152652194Y-74703221D01*
X152564589Y-74572111D01*
X152564586Y-74572107D01*
X152453092Y-74460613D01*
X152453088Y-74460610D01*
X152321985Y-74373009D01*
X152321972Y-74373002D01*
X152176301Y-74312664D01*
X152176289Y-74312661D01*
X152021645Y-74281900D01*
X152021642Y-74281900D01*
X151863958Y-74281900D01*
X151863955Y-74281900D01*
X151709310Y-74312661D01*
X151709298Y-74312664D01*
X151563627Y-74373002D01*
X151563614Y-74373009D01*
X151432511Y-74460610D01*
X151432507Y-74460613D01*
X151321013Y-74572107D01*
X151321010Y-74572111D01*
X151233409Y-74703214D01*
X151233402Y-74703227D01*
X151173064Y-74848898D01*
X151173061Y-74848910D01*
X151142300Y-75003553D01*
X150710032Y-75003553D01*
X150624292Y-74917813D01*
X150624288Y-74917810D01*
X150493185Y-74830209D01*
X150493172Y-74830202D01*
X150347501Y-74769864D01*
X150347489Y-74769861D01*
X150192845Y-74739100D01*
X150192842Y-74739100D01*
X150035158Y-74739100D01*
X150035155Y-74739100D01*
X149880510Y-74769861D01*
X149880498Y-74769864D01*
X149734827Y-74830202D01*
X149734814Y-74830209D01*
X149603711Y-74917810D01*
X149603707Y-74917813D01*
X149492213Y-75029307D01*
X149492210Y-75029311D01*
X149404609Y-75160414D01*
X149404602Y-75160427D01*
X149344264Y-75306098D01*
X149344261Y-75306110D01*
X149313500Y-75460753D01*
X149313500Y-75618446D01*
X149344261Y-75773089D01*
X149344263Y-75773097D01*
X149377461Y-75853244D01*
X149386900Y-75900697D01*
X149386900Y-77267659D01*
X149367215Y-77334698D01*
X149314411Y-77380453D01*
X149245253Y-77390397D01*
X149181697Y-77361372D01*
X149175219Y-77355340D01*
X149086492Y-77266613D01*
X149086488Y-77266610D01*
X148955385Y-77179009D01*
X148955372Y-77179002D01*
X148809701Y-77118664D01*
X148809689Y-77118661D01*
X148655045Y-77087900D01*
X148655042Y-77087900D01*
X148497358Y-77087900D01*
X148497355Y-77087900D01*
X148342710Y-77118661D01*
X148342698Y-77118664D01*
X148197027Y-77179002D01*
X148197014Y-77179009D01*
X148065911Y-77266610D01*
X148065907Y-77266613D01*
X147954413Y-77378107D01*
X147954410Y-77378111D01*
X147866809Y-77509214D01*
X147866802Y-77509227D01*
X147806464Y-77654898D01*
X147806461Y-77654910D01*
X147775700Y-77809553D01*
X147775700Y-77967246D01*
X147806461Y-78121889D01*
X147806464Y-78121901D01*
X147866802Y-78267572D01*
X147866809Y-78267585D01*
X147954410Y-78398688D01*
X147954412Y-78398691D01*
X147972092Y-78416370D01*
X148005579Y-78477692D01*
X148008413Y-78504053D01*
X148008413Y-83262434D01*
X147988728Y-83329473D01*
X147972094Y-83350115D01*
X146109358Y-85212850D01*
X146048035Y-85246335D01*
X145978343Y-85241351D01*
X145922410Y-85199479D01*
X145897993Y-85134015D01*
X145900060Y-85100977D01*
X145900705Y-85097738D01*
X145914652Y-85027618D01*
X145928811Y-84956441D01*
X145928811Y-84798752D01*
X145928810Y-84798750D01*
X145919294Y-84750911D01*
X145898048Y-84644100D01*
X145879302Y-84598842D01*
X145837708Y-84498424D01*
X145837701Y-84498411D01*
X145750100Y-84367308D01*
X145750097Y-84367304D01*
X145638603Y-84255810D01*
X145638599Y-84255807D01*
X145507496Y-84168206D01*
X145507483Y-84168199D01*
X145361812Y-84107861D01*
X145361800Y-84107858D01*
X145207156Y-84077097D01*
X145207153Y-84077097D01*
X145049469Y-84077097D01*
X145049466Y-84077097D01*
X144894821Y-84107858D01*
X144894809Y-84107861D01*
X144749138Y-84168199D01*
X144749125Y-84168206D01*
X144618022Y-84255807D01*
X144618018Y-84255810D01*
X144506524Y-84367304D01*
X144506521Y-84367308D01*
X144418920Y-84498411D01*
X144418913Y-84498424D01*
X144358575Y-84644095D01*
X144358572Y-84644107D01*
X144327811Y-84798750D01*
X144327811Y-84956443D01*
X144358571Y-85111085D01*
X144358574Y-85111094D01*
X144373644Y-85147478D01*
X144381111Y-85216947D01*
X144362186Y-85263817D01*
X144331012Y-85310473D01*
X144331007Y-85310482D01*
X144270669Y-85456152D01*
X144270666Y-85456164D01*
X144239905Y-85610807D01*
X144239905Y-85768500D01*
X144270666Y-85923143D01*
X144270669Y-85923155D01*
X144331007Y-86068826D01*
X144331014Y-86068839D01*
X144394292Y-86163540D01*
X144415170Y-86230217D01*
X144396686Y-86297598D01*
X144344707Y-86344288D01*
X144323640Y-86351300D01*
X144323783Y-86351769D01*
X144317950Y-86353538D01*
X144204121Y-86400687D01*
X144204112Y-86400692D01*
X144101673Y-86469140D01*
X144058110Y-86512703D01*
X144014547Y-86556267D01*
X143258890Y-87311923D01*
X143258882Y-87311931D01*
X143256270Y-87314544D01*
X143256267Y-87314547D01*
X143169142Y-87401672D01*
X143142959Y-87440858D01*
X143138245Y-87447912D01*
X143138242Y-87447916D01*
X143100690Y-87504113D01*
X143100688Y-87504118D01*
X143079006Y-87556462D01*
X143079007Y-87556463D01*
X143053537Y-87617953D01*
X143052351Y-87623915D01*
X143039186Y-87690105D01*
X143039186Y-87690106D01*
X143029500Y-87738797D01*
X143029500Y-88241347D01*
X143009815Y-88308386D01*
X142993181Y-88329028D01*
X142307211Y-89014997D01*
X142245888Y-89048482D01*
X142195339Y-89048933D01*
X142092846Y-89028546D01*
X142092842Y-89028546D01*
X141958900Y-89028546D01*
X141891861Y-89008861D01*
X141846106Y-88956057D01*
X141834900Y-88904546D01*
X141834900Y-83588753D01*
X142607900Y-83588753D01*
X142607900Y-83746446D01*
X142638661Y-83901089D01*
X142638664Y-83901101D01*
X142699002Y-84046772D01*
X142699009Y-84046785D01*
X142786610Y-84177888D01*
X142786613Y-84177892D01*
X142898107Y-84289386D01*
X142898111Y-84289389D01*
X143029214Y-84376990D01*
X143029227Y-84376997D01*
X143151543Y-84427661D01*
X143174903Y-84437337D01*
X143303552Y-84462927D01*
X143329553Y-84468099D01*
X143329556Y-84468100D01*
X143329558Y-84468100D01*
X143487244Y-84468100D01*
X143487245Y-84468099D01*
X143641897Y-84437337D01*
X143766199Y-84385850D01*
X143787572Y-84376997D01*
X143787572Y-84376996D01*
X143787579Y-84376994D01*
X143918689Y-84289389D01*
X144030189Y-84177889D01*
X144117794Y-84046779D01*
X144125486Y-84028210D01*
X144139201Y-83995097D01*
X144178137Y-83901097D01*
X144208900Y-83746442D01*
X144208900Y-83588758D01*
X144208900Y-83588755D01*
X144208899Y-83588753D01*
X144194738Y-83517563D01*
X144178137Y-83434103D01*
X144164218Y-83400499D01*
X144117797Y-83288427D01*
X144117790Y-83288414D01*
X144030189Y-83157311D01*
X144030186Y-83157307D01*
X143918692Y-83045813D01*
X143918688Y-83045810D01*
X143787585Y-82958209D01*
X143787572Y-82958202D01*
X143641901Y-82897864D01*
X143641889Y-82897861D01*
X143487245Y-82867100D01*
X143487242Y-82867100D01*
X143329558Y-82867100D01*
X143329555Y-82867100D01*
X143174910Y-82897861D01*
X143174898Y-82897864D01*
X143029227Y-82958202D01*
X143029214Y-82958209D01*
X142898111Y-83045810D01*
X142898107Y-83045813D01*
X142786613Y-83157307D01*
X142786610Y-83157311D01*
X142699009Y-83288414D01*
X142699002Y-83288427D01*
X142638664Y-83434098D01*
X142638661Y-83434110D01*
X142607900Y-83588753D01*
X141834900Y-83588753D01*
X141834900Y-76784193D01*
X141834899Y-76784189D01*
X141810863Y-76663348D01*
X141796699Y-76629153D01*
X143979500Y-76629153D01*
X143979500Y-76786846D01*
X144010261Y-76941489D01*
X144010264Y-76941501D01*
X144070602Y-77087172D01*
X144070609Y-77087185D01*
X144158210Y-77218288D01*
X144158213Y-77218292D01*
X144269707Y-77329786D01*
X144269711Y-77329789D01*
X144400814Y-77417390D01*
X144400827Y-77417397D01*
X144460189Y-77441985D01*
X144546503Y-77477737D01*
X144701153Y-77508499D01*
X144701156Y-77508500D01*
X144701158Y-77508500D01*
X144858844Y-77508500D01*
X144858845Y-77508499D01*
X145013497Y-77477737D01*
X145159179Y-77417394D01*
X145290289Y-77329789D01*
X145401789Y-77218289D01*
X145489394Y-77087179D01*
X145549737Y-76941497D01*
X145580500Y-76786842D01*
X145580500Y-76629158D01*
X145580500Y-76629155D01*
X145580499Y-76629153D01*
X145553317Y-76492500D01*
X145549737Y-76474503D01*
X145519456Y-76401397D01*
X145489397Y-76328827D01*
X145489390Y-76328814D01*
X145401789Y-76197711D01*
X145401786Y-76197707D01*
X145290292Y-76086213D01*
X145290288Y-76086210D01*
X145159185Y-75998609D01*
X145159172Y-75998602D01*
X145013501Y-75938264D01*
X145013489Y-75938261D01*
X144858845Y-75907500D01*
X144858842Y-75907500D01*
X144701158Y-75907500D01*
X144701155Y-75907500D01*
X144546510Y-75938261D01*
X144546498Y-75938264D01*
X144400827Y-75998602D01*
X144400814Y-75998609D01*
X144269711Y-76086210D01*
X144269707Y-76086213D01*
X144158213Y-76197707D01*
X144158210Y-76197711D01*
X144070609Y-76328814D01*
X144070602Y-76328827D01*
X144010264Y-76474498D01*
X144010261Y-76474510D01*
X143979500Y-76629153D01*
X141796699Y-76629153D01*
X141771801Y-76569046D01*
X141763712Y-76549516D01*
X141763707Y-76549507D01*
X141695258Y-76447067D01*
X141695255Y-76447063D01*
X141605037Y-76356845D01*
X141605006Y-76356816D01*
X139845343Y-74597153D01*
X142963500Y-74597153D01*
X142963500Y-74754846D01*
X142994261Y-74909489D01*
X142994264Y-74909501D01*
X143054602Y-75055172D01*
X143054609Y-75055185D01*
X143142210Y-75186288D01*
X143142213Y-75186292D01*
X143253707Y-75297786D01*
X143253711Y-75297789D01*
X143384814Y-75385390D01*
X143384827Y-75385397D01*
X143530498Y-75445735D01*
X143530503Y-75445737D01*
X143685153Y-75476499D01*
X143685156Y-75476500D01*
X143685158Y-75476500D01*
X143842844Y-75476500D01*
X143842845Y-75476499D01*
X143997497Y-75445737D01*
X144143179Y-75385394D01*
X144274289Y-75297789D01*
X144385789Y-75186289D01*
X144473394Y-75055179D01*
X144533737Y-74909497D01*
X144564500Y-74754842D01*
X144564500Y-74597158D01*
X144564500Y-74597155D01*
X144564499Y-74597153D01*
X144542498Y-74486547D01*
X144533737Y-74442503D01*
X144504949Y-74373002D01*
X144473397Y-74296827D01*
X144473390Y-74296814D01*
X144385789Y-74165711D01*
X144385786Y-74165707D01*
X144274292Y-74054213D01*
X144274288Y-74054210D01*
X144143185Y-73966609D01*
X144143172Y-73966602D01*
X143997501Y-73906264D01*
X143997489Y-73906261D01*
X143842845Y-73875500D01*
X143842842Y-73875500D01*
X143685158Y-73875500D01*
X143685155Y-73875500D01*
X143530510Y-73906261D01*
X143530498Y-73906264D01*
X143384827Y-73966602D01*
X143384814Y-73966609D01*
X143253711Y-74054210D01*
X143253707Y-74054213D01*
X143142213Y-74165707D01*
X143142210Y-74165711D01*
X143054609Y-74296814D01*
X143054602Y-74296827D01*
X142994264Y-74442498D01*
X142994261Y-74442510D01*
X142963500Y-74597153D01*
X139845343Y-74597153D01*
X133612371Y-68364181D01*
X133578886Y-68302858D01*
X133583870Y-68233166D01*
X133625742Y-68177233D01*
X133691206Y-68152816D01*
X133700052Y-68152500D01*
X133811886Y-68152500D01*
X133811887Y-68152500D01*
X134021843Y-68119246D01*
X134224012Y-68053557D01*
X134413416Y-67957051D01*
X134471522Y-67914835D01*
X134585386Y-67832109D01*
X134585388Y-67832106D01*
X134585392Y-67832104D01*
X134735704Y-67681792D01*
X134735706Y-67681788D01*
X134735709Y-67681786D01*
X134860648Y-67509820D01*
X134860647Y-67509820D01*
X134860651Y-67509816D01*
X134957157Y-67320412D01*
X134986159Y-67231153D01*
X136359500Y-67231153D01*
X136359500Y-67388846D01*
X136390261Y-67543489D01*
X136390264Y-67543501D01*
X136450602Y-67689172D01*
X136450609Y-67689185D01*
X136538210Y-67820288D01*
X136538213Y-67820292D01*
X136575240Y-67857319D01*
X136608725Y-67918642D01*
X136603741Y-67988334D01*
X136575240Y-68032681D01*
X136538213Y-68069707D01*
X136538210Y-68069711D01*
X136450609Y-68200814D01*
X136450602Y-68200827D01*
X136390264Y-68346498D01*
X136390261Y-68346510D01*
X136359500Y-68501153D01*
X136359500Y-68658846D01*
X136390261Y-68813489D01*
X136390264Y-68813501D01*
X136450602Y-68959172D01*
X136450609Y-68959185D01*
X136538210Y-69090288D01*
X136538213Y-69090292D01*
X136649707Y-69201786D01*
X136649711Y-69201789D01*
X136780814Y-69289390D01*
X136780827Y-69289397D01*
X136926498Y-69349735D01*
X136926503Y-69349737D01*
X137072059Y-69378690D01*
X137081153Y-69380499D01*
X137081156Y-69380500D01*
X137081158Y-69380500D01*
X137238844Y-69380500D01*
X137238845Y-69380499D01*
X137393497Y-69349737D01*
X137539179Y-69289394D01*
X137670289Y-69201789D01*
X137681664Y-69190414D01*
X137707319Y-69164760D01*
X137768642Y-69131275D01*
X137838334Y-69136259D01*
X137882681Y-69164760D01*
X137919707Y-69201786D01*
X137919711Y-69201789D01*
X138050814Y-69289390D01*
X138050827Y-69289397D01*
X138196498Y-69349735D01*
X138196503Y-69349737D01*
X138342059Y-69378690D01*
X138351153Y-69380499D01*
X138351156Y-69380500D01*
X138351158Y-69380500D01*
X138508844Y-69380500D01*
X138508845Y-69380499D01*
X138663497Y-69349737D01*
X138809179Y-69289394D01*
X138940289Y-69201789D01*
X138951664Y-69190414D01*
X138977319Y-69164760D01*
X139038642Y-69131275D01*
X139108334Y-69136259D01*
X139152681Y-69164760D01*
X139189707Y-69201786D01*
X139189711Y-69201789D01*
X139320814Y-69289390D01*
X139320827Y-69289397D01*
X139466498Y-69349735D01*
X139466503Y-69349737D01*
X139612059Y-69378690D01*
X139621153Y-69380499D01*
X139621156Y-69380500D01*
X139621158Y-69380500D01*
X139778844Y-69380500D01*
X139778845Y-69380499D01*
X139933497Y-69349737D01*
X140079179Y-69289394D01*
X140210289Y-69201789D01*
X140321789Y-69090289D01*
X140409394Y-68959179D01*
X140469737Y-68813497D01*
X140500500Y-68658844D01*
X140931499Y-68658844D01*
X140961529Y-68809808D01*
X140961529Y-68858192D01*
X140931500Y-69009155D01*
X140931500Y-69166846D01*
X140962261Y-69321489D01*
X140962264Y-69321501D01*
X141022602Y-69467172D01*
X141022609Y-69467185D01*
X141110210Y-69598288D01*
X141110213Y-69598292D01*
X141221707Y-69709786D01*
X141221711Y-69709789D01*
X141352814Y-69797390D01*
X141352827Y-69797397D01*
X141494283Y-69855989D01*
X141498503Y-69857737D01*
X141653153Y-69888499D01*
X141653156Y-69888500D01*
X141653158Y-69888500D01*
X141810844Y-69888500D01*
X141810845Y-69888499D01*
X141965497Y-69857737D01*
X142111179Y-69797394D01*
X142242289Y-69709789D01*
X142353789Y-69598289D01*
X142441394Y-69467179D01*
X142501737Y-69321497D01*
X142532500Y-69166842D01*
X142532500Y-69009158D01*
X142532499Y-69009155D01*
X142529241Y-68992774D01*
X142535468Y-68923182D01*
X142563177Y-68880900D01*
X142607789Y-68836289D01*
X142695394Y-68705179D01*
X142702422Y-68688213D01*
X142709067Y-68672166D01*
X142755737Y-68559497D01*
X142786500Y-68404842D01*
X142786500Y-68247158D01*
X142786500Y-68247155D01*
X142786499Y-68247153D01*
X142777283Y-68200821D01*
X142755737Y-68092503D01*
X142739605Y-68053557D01*
X142695397Y-67946827D01*
X142695390Y-67946814D01*
X142607789Y-67815711D01*
X142607786Y-67815707D01*
X142496292Y-67704213D01*
X142496288Y-67704210D01*
X142365185Y-67616609D01*
X142365172Y-67616602D01*
X142219501Y-67556264D01*
X142219489Y-67556261D01*
X142170031Y-67546423D01*
X142170030Y-67546423D01*
X142064844Y-67525500D01*
X142064842Y-67525500D01*
X141907158Y-67525500D01*
X141907155Y-67525500D01*
X141752510Y-67556261D01*
X141752498Y-67556264D01*
X141606827Y-67616602D01*
X141606814Y-67616609D01*
X141475711Y-67704210D01*
X141475707Y-67704213D01*
X141364217Y-67815704D01*
X141364211Y-67815711D01*
X141320835Y-67880626D01*
X141286626Y-67914835D01*
X141221711Y-67958211D01*
X141221704Y-67958217D01*
X141110213Y-68069707D01*
X141110210Y-68069711D01*
X141022609Y-68200814D01*
X141022602Y-68200827D01*
X140962264Y-68346498D01*
X140962261Y-68346510D01*
X140931500Y-68501153D01*
X140931500Y-68501158D01*
X140931500Y-68658842D01*
X140931500Y-68658844D01*
X140931499Y-68658844D01*
X140500500Y-68658844D01*
X140500500Y-68658842D01*
X140500500Y-68501158D01*
X140500500Y-68501155D01*
X140500499Y-68501153D01*
X140496332Y-68480202D01*
X140469737Y-68346503D01*
X140451659Y-68302858D01*
X140409397Y-68200827D01*
X140409390Y-68200814D01*
X140321789Y-68069711D01*
X140321786Y-68069707D01*
X140284760Y-68032681D01*
X140251275Y-67971358D01*
X140256259Y-67901666D01*
X140284760Y-67857319D01*
X140321786Y-67820292D01*
X140321789Y-67820289D01*
X140409394Y-67689179D01*
X140469737Y-67543497D01*
X140492684Y-67428135D01*
X146477500Y-67428135D01*
X146477500Y-69223870D01*
X146477501Y-69223876D01*
X146483908Y-69283483D01*
X146534202Y-69418328D01*
X146534206Y-69418335D01*
X146620452Y-69533544D01*
X146620455Y-69533547D01*
X146735664Y-69619793D01*
X146735671Y-69619797D01*
X146870517Y-69670091D01*
X146870516Y-69670091D01*
X146877444Y-69670835D01*
X146930127Y-69676500D01*
X148725872Y-69676499D01*
X148785483Y-69670091D01*
X148920331Y-69619796D01*
X149035546Y-69533546D01*
X149067841Y-69490404D01*
X149123774Y-69448535D01*
X149193466Y-69443551D01*
X149254789Y-69477036D01*
X149281668Y-69517265D01*
X149303002Y-69568772D01*
X149303009Y-69568785D01*
X149390610Y-69699888D01*
X149390613Y-69699892D01*
X149502107Y-69811386D01*
X149502111Y-69811389D01*
X149633214Y-69898990D01*
X149633227Y-69898997D01*
X149749478Y-69947149D01*
X149778903Y-69959337D01*
X149933553Y-69990099D01*
X149933556Y-69990100D01*
X149933558Y-69990100D01*
X150091244Y-69990100D01*
X150091245Y-69990099D01*
X150245897Y-69959337D01*
X150381313Y-69903245D01*
X150450783Y-69895777D01*
X150513262Y-69927052D01*
X150516447Y-69930126D01*
X150518107Y-69931786D01*
X150518111Y-69931789D01*
X150649214Y-70019390D01*
X150649227Y-70019397D01*
X150723241Y-70050054D01*
X150794903Y-70079737D01*
X150949553Y-70110499D01*
X150949556Y-70110500D01*
X150949558Y-70110500D01*
X151107244Y-70110500D01*
X151107245Y-70110499D01*
X151261897Y-70079737D01*
X151407579Y-70019394D01*
X151538689Y-69931789D01*
X151650189Y-69820289D01*
X151737794Y-69689179D01*
X151743047Y-69676498D01*
X151745924Y-69669553D01*
X152209100Y-69669553D01*
X152209100Y-69827246D01*
X152239861Y-69981889D01*
X152239864Y-69981901D01*
X152300202Y-70127572D01*
X152300209Y-70127585D01*
X152387810Y-70258688D01*
X152387813Y-70258692D01*
X152499307Y-70370186D01*
X152499311Y-70370189D01*
X152630414Y-70457790D01*
X152630427Y-70457797D01*
X152776098Y-70518135D01*
X152776103Y-70518137D01*
X152930753Y-70548899D01*
X152930756Y-70548900D01*
X152930758Y-70548900D01*
X153088444Y-70548900D01*
X153088445Y-70548899D01*
X153243097Y-70518137D01*
X153388779Y-70457794D01*
X153477619Y-70398433D01*
X157146583Y-70398433D01*
X157146583Y-70401811D01*
X157146583Y-71040246D01*
X157152773Y-71071364D01*
X157152776Y-71071377D01*
X157153236Y-71073689D01*
X157170620Y-71161087D01*
X157175312Y-71172414D01*
X157217771Y-71274921D01*
X157238985Y-71306669D01*
X157238986Y-71306672D01*
X157238987Y-71306672D01*
X157286224Y-71377367D01*
X157286227Y-71377371D01*
X157377669Y-71468813D01*
X157377691Y-71468833D01*
X157560153Y-71651295D01*
X157593638Y-71712618D01*
X157594089Y-71714784D01*
X157615132Y-71820574D01*
X157615135Y-71820584D01*
X157675473Y-71966255D01*
X157675480Y-71966268D01*
X157763081Y-72097371D01*
X157763084Y-72097375D01*
X157874578Y-72208869D01*
X157874582Y-72208872D01*
X158005685Y-72296473D01*
X158005698Y-72296480D01*
X158115223Y-72341846D01*
X158151374Y-72356820D01*
X158273553Y-72381123D01*
X158306024Y-72387582D01*
X158306027Y-72387583D01*
X158306029Y-72387583D01*
X158463715Y-72387583D01*
X158463716Y-72387582D01*
X158618368Y-72356820D01*
X158764050Y-72296477D01*
X158858330Y-72233481D01*
X158925007Y-72212603D01*
X158927221Y-72212583D01*
X160192858Y-72212583D01*
X160192858Y-72212582D01*
X160261491Y-72198931D01*
X160313702Y-72188546D01*
X160347042Y-72174735D01*
X160388133Y-72157714D01*
X160411371Y-72150665D01*
X160518368Y-72129383D01*
X160664050Y-72069040D01*
X160795160Y-71981435D01*
X160906660Y-71869935D01*
X160994265Y-71738825D01*
X161054608Y-71593143D01*
X161072910Y-71501135D01*
X161086560Y-71432514D01*
X161087708Y-71432742D01*
X161099016Y-71407980D01*
X161111103Y-71378048D01*
X161113442Y-71376392D01*
X161114633Y-71373786D01*
X161141788Y-71356334D01*
X161168138Y-71337689D01*
X161171733Y-71337089D01*
X161173411Y-71336012D01*
X161208346Y-71330989D01*
X161254500Y-71330989D01*
X161321539Y-71350674D01*
X161367294Y-71403478D01*
X161378500Y-71454989D01*
X161378500Y-71579846D01*
X161409261Y-71734489D01*
X161409264Y-71734501D01*
X161469602Y-71880172D01*
X161469609Y-71880185D01*
X161557210Y-72011288D01*
X161557213Y-72011292D01*
X161644181Y-72098260D01*
X161677666Y-72159583D01*
X161680500Y-72185941D01*
X161680500Y-73387195D01*
X161660815Y-73454234D01*
X161625391Y-73490297D01*
X161541711Y-73546210D01*
X161541707Y-73546213D01*
X161430211Y-73657709D01*
X161393100Y-73713249D01*
X161339487Y-73758053D01*
X161270162Y-73766759D01*
X161207135Y-73736603D01*
X161186897Y-73713246D01*
X161149792Y-73657715D01*
X161149786Y-73657707D01*
X161038292Y-73546213D01*
X161038288Y-73546210D01*
X160907185Y-73458609D01*
X160907172Y-73458602D01*
X160761501Y-73398264D01*
X160761489Y-73398261D01*
X160606845Y-73367500D01*
X160606842Y-73367500D01*
X160449158Y-73367500D01*
X160449155Y-73367500D01*
X160294510Y-73398261D01*
X160294498Y-73398264D01*
X160148827Y-73458602D01*
X160148814Y-73458609D01*
X160017711Y-73546210D01*
X160017707Y-73546213D01*
X159906213Y-73657707D01*
X159906210Y-73657711D01*
X159818609Y-73788814D01*
X159818602Y-73788827D01*
X159758264Y-73934498D01*
X159758261Y-73934510D01*
X159727500Y-74089153D01*
X159727500Y-74246846D01*
X159758261Y-74401489D01*
X159758264Y-74401501D01*
X159818602Y-74547172D01*
X159818609Y-74547185D01*
X159906210Y-74678288D01*
X159906213Y-74678292D01*
X160017707Y-74789786D01*
X160017715Y-74789792D01*
X160073246Y-74826897D01*
X160118052Y-74880509D01*
X160126759Y-74949834D01*
X160096605Y-75012861D01*
X160073249Y-75033100D01*
X160017709Y-75070211D01*
X159906213Y-75181707D01*
X159906210Y-75181711D01*
X159818609Y-75312814D01*
X159818602Y-75312827D01*
X159758264Y-75458498D01*
X159758261Y-75458510D01*
X159727500Y-75613153D01*
X159727500Y-75770846D01*
X159758261Y-75925489D01*
X159758264Y-75925501D01*
X159818602Y-76071172D01*
X159818609Y-76071185D01*
X159906210Y-76202288D01*
X159906213Y-76202292D01*
X160017707Y-76313786D01*
X160017711Y-76313789D01*
X160148814Y-76401390D01*
X160148827Y-76401397D01*
X160259086Y-76447067D01*
X160294503Y-76461737D01*
X160449153Y-76492499D01*
X160449156Y-76492500D01*
X160449158Y-76492500D01*
X160606844Y-76492500D01*
X160606845Y-76492499D01*
X160761497Y-76461737D01*
X160907179Y-76401394D01*
X161038289Y-76313789D01*
X161149789Y-76202289D01*
X161179574Y-76157711D01*
X161233185Y-76112906D01*
X161282677Y-76102601D01*
X161427894Y-76102601D01*
X161475391Y-76093153D01*
X161532309Y-76081831D01*
X161601899Y-76088058D01*
X161657077Y-76130920D01*
X161680322Y-76196810D01*
X161680500Y-76203448D01*
X161680500Y-78272568D01*
X161704535Y-78393404D01*
X161704539Y-78393416D01*
X161712420Y-78412442D01*
X161714094Y-78416483D01*
X161751688Y-78507244D01*
X161772841Y-78538900D01*
X161777497Y-78545869D01*
X161777499Y-78545872D01*
X161820141Y-78609690D01*
X161820144Y-78609694D01*
X161868180Y-78657729D01*
X161901666Y-78719052D01*
X161902117Y-78721220D01*
X161924237Y-78832423D01*
X161924240Y-78832435D01*
X161984578Y-78978106D01*
X161984585Y-78978119D01*
X162072186Y-79109222D01*
X162072189Y-79109226D01*
X162183683Y-79220720D01*
X162183687Y-79220723D01*
X162314790Y-79308324D01*
X162314803Y-79308331D01*
X162460474Y-79368669D01*
X162460479Y-79368671D01*
X162615129Y-79399433D01*
X162615132Y-79399434D01*
X162615134Y-79399434D01*
X162772820Y-79399434D01*
X162772821Y-79399433D01*
X162927473Y-79368671D01*
X163073155Y-79308328D01*
X163204265Y-79220723D01*
X163315765Y-79109223D01*
X163403370Y-78978113D01*
X163463713Y-78832431D01*
X163494476Y-78677776D01*
X163494476Y-78524834D01*
X163514161Y-78457795D01*
X163566965Y-78412040D01*
X163636123Y-78402096D01*
X163687367Y-78421731D01*
X163704821Y-78433394D01*
X163704823Y-78433395D01*
X163704827Y-78433397D01*
X163850498Y-78493735D01*
X163850503Y-78493737D01*
X163969052Y-78517318D01*
X164005153Y-78524499D01*
X164005156Y-78524500D01*
X164005158Y-78524500D01*
X164162844Y-78524500D01*
X164162845Y-78524499D01*
X164317497Y-78493737D01*
X164463179Y-78433394D01*
X164594289Y-78345789D01*
X164705789Y-78234289D01*
X164793394Y-78103179D01*
X164853737Y-77957497D01*
X164871937Y-77866000D01*
X164881747Y-77816685D01*
X167932646Y-77816685D01*
X167932646Y-77974378D01*
X167963407Y-78129021D01*
X167963410Y-78129033D01*
X168023748Y-78274704D01*
X168023755Y-78274717D01*
X168111356Y-78405820D01*
X168111359Y-78405824D01*
X168222853Y-78517318D01*
X168222857Y-78517321D01*
X168353960Y-78604922D01*
X168353973Y-78604929D01*
X168499644Y-78665267D01*
X168499649Y-78665269D01*
X168654299Y-78696031D01*
X168654302Y-78696032D01*
X168654304Y-78696032D01*
X168811990Y-78696032D01*
X168811991Y-78696031D01*
X168966643Y-78665269D01*
X168996220Y-78653017D01*
X169065688Y-78645548D01*
X169128167Y-78676822D01*
X169163821Y-78736910D01*
X169165291Y-78791768D01*
X169149500Y-78871158D01*
X169149500Y-79028846D01*
X169180261Y-79183489D01*
X169180264Y-79183501D01*
X169240602Y-79329172D01*
X169240609Y-79329185D01*
X169328210Y-79460288D01*
X169328213Y-79460292D01*
X169439707Y-79571786D01*
X169439711Y-79571789D01*
X169570814Y-79659390D01*
X169570827Y-79659397D01*
X169716498Y-79719735D01*
X169716503Y-79719737D01*
X169871153Y-79750499D01*
X169871156Y-79750500D01*
X169871158Y-79750500D01*
X170028844Y-79750500D01*
X170028845Y-79750499D01*
X170183497Y-79719737D01*
X170329179Y-79659394D01*
X170460289Y-79571789D01*
X170571789Y-79460289D01*
X170659394Y-79329179D01*
X170719737Y-79183497D01*
X170750500Y-79028842D01*
X170750500Y-78871158D01*
X170750500Y-78871155D01*
X170750499Y-78871153D01*
X170719738Y-78716510D01*
X170719737Y-78716503D01*
X170698516Y-78665270D01*
X170659397Y-78570827D01*
X170659390Y-78570814D01*
X170571789Y-78439711D01*
X170571786Y-78439707D01*
X170460292Y-78328213D01*
X170460288Y-78328210D01*
X170329185Y-78240609D01*
X170329172Y-78240602D01*
X170183501Y-78180264D01*
X170183489Y-78180261D01*
X170028845Y-78149500D01*
X170028842Y-78149500D01*
X169871158Y-78149500D01*
X169871155Y-78149500D01*
X169716510Y-78180261D01*
X169716502Y-78180263D01*
X169686923Y-78192515D01*
X169617453Y-78199982D01*
X169554974Y-78168706D01*
X169519323Y-78108617D01*
X169517855Y-78053761D01*
X169533646Y-77974376D01*
X169533646Y-77816687D01*
X169533645Y-77816685D01*
X169520865Y-77752436D01*
X169502883Y-77662035D01*
X169466041Y-77573089D01*
X169442543Y-77516359D01*
X169442536Y-77516346D01*
X169354935Y-77385243D01*
X169354932Y-77385239D01*
X169243438Y-77273745D01*
X169243434Y-77273742D01*
X169112331Y-77186141D01*
X169112318Y-77186134D01*
X168966647Y-77125796D01*
X168966635Y-77125793D01*
X168811991Y-77095032D01*
X168811988Y-77095032D01*
X168654304Y-77095032D01*
X168654301Y-77095032D01*
X168499656Y-77125793D01*
X168499644Y-77125796D01*
X168353973Y-77186134D01*
X168353960Y-77186141D01*
X168222857Y-77273742D01*
X168222853Y-77273745D01*
X168111359Y-77385239D01*
X168111356Y-77385243D01*
X168023755Y-77516346D01*
X168023748Y-77516359D01*
X167963410Y-77662030D01*
X167963407Y-77662042D01*
X167932646Y-77816685D01*
X164881747Y-77816685D01*
X164884500Y-77802845D01*
X164884500Y-77645155D01*
X164884499Y-77645153D01*
X164870164Y-77573088D01*
X164853737Y-77490503D01*
X164848448Y-77477735D01*
X164793397Y-77344827D01*
X164793390Y-77344814D01*
X164705789Y-77213711D01*
X164705786Y-77213707D01*
X164594292Y-77102213D01*
X164594288Y-77102210D01*
X164463185Y-77014609D01*
X164463172Y-77014602D01*
X164317501Y-76954264D01*
X164317489Y-76954261D01*
X164162845Y-76923500D01*
X164162842Y-76923500D01*
X164005158Y-76923500D01*
X164005155Y-76923500D01*
X163850510Y-76954261D01*
X163850498Y-76954264D01*
X163704827Y-77014602D01*
X163704814Y-77014609D01*
X163573711Y-77102210D01*
X163573707Y-77102213D01*
X163462213Y-77213707D01*
X163462210Y-77213711D01*
X163374609Y-77344814D01*
X163374602Y-77344827D01*
X163314264Y-77490498D01*
X163314261Y-77490510D01*
X163283500Y-77645153D01*
X163283500Y-77798099D01*
X163283128Y-77799362D01*
X163283474Y-77800633D01*
X163273314Y-77832787D01*
X163263815Y-77865138D01*
X163262820Y-77866000D01*
X163262423Y-77867257D01*
X163236468Y-77888833D01*
X163211011Y-77910893D01*
X163209708Y-77911080D01*
X163208695Y-77911923D01*
X163175203Y-77916041D01*
X163141853Y-77920837D01*
X163140230Y-77920342D01*
X163139348Y-77920451D01*
X163135162Y-77918797D01*
X163105694Y-77909817D01*
X163097841Y-77906035D01*
X163073155Y-77889540D01*
X163004840Y-77861243D01*
X163001694Y-77859728D01*
X162978245Y-77838555D01*
X162953644Y-77818730D01*
X162952507Y-77815315D01*
X162949836Y-77812903D01*
X162941556Y-77782412D01*
X162931579Y-77752436D01*
X162931500Y-77748010D01*
X162931500Y-75153451D01*
X162951185Y-75086412D01*
X162967810Y-75065779D01*
X163125729Y-74907860D01*
X163125733Y-74907858D01*
X163212858Y-74820733D01*
X163281311Y-74718286D01*
X163281312Y-74718285D01*
X163281313Y-74718283D01*
X163287597Y-74708879D01*
X163341211Y-74664076D01*
X163410536Y-74655370D01*
X163473563Y-74685527D01*
X163510280Y-74744971D01*
X163512314Y-74753581D01*
X163539135Y-74888419D01*
X163539138Y-74888429D01*
X163599476Y-75034100D01*
X163599483Y-75034113D01*
X163687084Y-75165216D01*
X163687087Y-75165220D01*
X163798581Y-75276714D01*
X163798585Y-75276717D01*
X163929688Y-75364318D01*
X163929701Y-75364325D01*
X164075372Y-75424663D01*
X164075377Y-75424665D01*
X164230027Y-75455427D01*
X164230030Y-75455428D01*
X164230032Y-75455428D01*
X164387718Y-75455428D01*
X164387719Y-75455427D01*
X164542371Y-75424665D01*
X164688053Y-75364322D01*
X164819163Y-75276717D01*
X164930663Y-75165217D01*
X165018268Y-75034107D01*
X165078611Y-74888425D01*
X165109374Y-74733770D01*
X165109374Y-74576086D01*
X165109374Y-74576083D01*
X165109373Y-74576081D01*
X165091563Y-74486544D01*
X165078611Y-74421431D01*
X165057858Y-74371328D01*
X165018271Y-74275755D01*
X165018264Y-74275742D01*
X164930663Y-74144639D01*
X164930660Y-74144635D01*
X164819166Y-74033141D01*
X164819162Y-74033138D01*
X164688059Y-73945537D01*
X164688046Y-73945530D01*
X164542375Y-73885192D01*
X164542365Y-73885189D01*
X164467683Y-73870334D01*
X164405772Y-73837949D01*
X164371198Y-73777233D01*
X164374938Y-73707464D01*
X164377305Y-73701285D01*
X164418225Y-73602497D01*
X164448988Y-73447842D01*
X164448988Y-73290158D01*
X164448988Y-73290155D01*
X164448987Y-73290153D01*
X164431971Y-73204609D01*
X164418225Y-73135503D01*
X164409111Y-73113500D01*
X164357885Y-72989827D01*
X164357878Y-72989814D01*
X164270277Y-72858711D01*
X164270274Y-72858707D01*
X164158780Y-72747213D01*
X164158776Y-72747210D01*
X164027673Y-72659609D01*
X164027660Y-72659602D01*
X163881989Y-72599264D01*
X163881977Y-72599261D01*
X163727333Y-72568500D01*
X163727330Y-72568500D01*
X163569646Y-72568500D01*
X163569643Y-72568500D01*
X163414998Y-72599261D01*
X163414986Y-72599264D01*
X163269315Y-72659602D01*
X163269302Y-72659609D01*
X163138193Y-72747214D01*
X163134163Y-72750522D01*
X163069853Y-72777834D01*
X163000986Y-72766042D01*
X162949426Y-72718889D01*
X162931500Y-72654668D01*
X162931500Y-71800775D01*
X162934898Y-71771945D01*
X162937180Y-71762397D01*
X162948737Y-71734497D01*
X162972952Y-71612756D01*
X162973496Y-71610482D01*
X162976773Y-71604760D01*
X162991011Y-71570399D01*
X162993688Y-71566394D01*
X163053060Y-71477537D01*
X163060675Y-71459153D01*
X163793269Y-71459153D01*
X163793269Y-71616846D01*
X163824030Y-71771489D01*
X163824033Y-71771501D01*
X163884371Y-71917172D01*
X163884378Y-71917185D01*
X163971979Y-72048288D01*
X163971982Y-72048292D01*
X164083476Y-72159786D01*
X164083480Y-72159789D01*
X164214583Y-72247390D01*
X164214596Y-72247397D01*
X164333095Y-72296480D01*
X164360272Y-72307737D01*
X164514922Y-72338499D01*
X164514925Y-72338500D01*
X164514927Y-72338500D01*
X164672613Y-72338500D01*
X164672614Y-72338499D01*
X164827266Y-72307737D01*
X164972948Y-72247394D01*
X165067595Y-72184153D01*
X166331500Y-72184153D01*
X166331500Y-72341846D01*
X166362261Y-72496489D01*
X166362264Y-72496501D01*
X166422602Y-72642172D01*
X166422609Y-72642185D01*
X166510210Y-72773288D01*
X166510213Y-72773292D01*
X166621707Y-72884786D01*
X166621711Y-72884789D01*
X166752814Y-72972390D01*
X166752827Y-72972397D01*
X166898498Y-73032735D01*
X166898503Y-73032737D01*
X167053153Y-73063499D01*
X167053156Y-73063500D01*
X167053158Y-73063500D01*
X167210844Y-73063500D01*
X167210845Y-73063499D01*
X167365497Y-73032737D01*
X167511179Y-72972394D01*
X167642289Y-72884789D01*
X167753789Y-72773289D01*
X167841394Y-72642179D01*
X167901737Y-72496497D01*
X167911312Y-72448355D01*
X167924684Y-72381135D01*
X177338500Y-72381135D01*
X177338500Y-74176870D01*
X177338501Y-74176876D01*
X177344908Y-74236483D01*
X177395202Y-74371328D01*
X177395206Y-74371335D01*
X177481452Y-74486544D01*
X177481455Y-74486547D01*
X177596664Y-74572793D01*
X177596671Y-74572797D01*
X177731517Y-74623091D01*
X177731516Y-74623091D01*
X177734335Y-74623394D01*
X177791127Y-74629500D01*
X179586872Y-74629499D01*
X179646483Y-74623091D01*
X179781331Y-74572796D01*
X179896546Y-74486546D01*
X179982796Y-74371331D01*
X180033091Y-74236483D01*
X180039500Y-74176873D01*
X180039499Y-72381128D01*
X180033091Y-72321517D01*
X180027951Y-72307737D01*
X179982797Y-72186671D01*
X179982793Y-72186664D01*
X179896547Y-72071455D01*
X179896544Y-72071452D01*
X179781335Y-71985206D01*
X179781328Y-71985202D01*
X179646482Y-71934908D01*
X179646483Y-71934908D01*
X179586883Y-71928501D01*
X179586881Y-71928500D01*
X179586873Y-71928500D01*
X179586864Y-71928500D01*
X177791129Y-71928500D01*
X177791123Y-71928501D01*
X177731516Y-71934908D01*
X177596671Y-71985202D01*
X177596664Y-71985206D01*
X177481455Y-72071452D01*
X177481452Y-72071455D01*
X177395206Y-72186664D01*
X177395202Y-72186671D01*
X177344908Y-72321517D01*
X177341113Y-72356820D01*
X177338501Y-72381123D01*
X177338500Y-72381135D01*
X167924684Y-72381135D01*
X167930153Y-72353643D01*
X167930158Y-72353615D01*
X167932500Y-72341840D01*
X167932500Y-72184155D01*
X167932499Y-72184153D01*
X167921860Y-72130666D01*
X167901737Y-72029503D01*
X167881827Y-71981435D01*
X167841397Y-71883827D01*
X167841390Y-71883814D01*
X167753789Y-71752711D01*
X167753786Y-71752707D01*
X167642292Y-71641213D01*
X167642288Y-71641210D01*
X167511185Y-71553609D01*
X167511172Y-71553602D01*
X167365501Y-71493264D01*
X167365489Y-71493261D01*
X167210845Y-71462500D01*
X167210842Y-71462500D01*
X167053158Y-71462500D01*
X167053155Y-71462500D01*
X166898510Y-71493261D01*
X166898498Y-71493264D01*
X166752827Y-71553602D01*
X166752814Y-71553609D01*
X166621711Y-71641210D01*
X166621707Y-71641213D01*
X166510213Y-71752707D01*
X166510210Y-71752711D01*
X166422609Y-71883814D01*
X166422602Y-71883827D01*
X166362264Y-72029498D01*
X166362261Y-72029510D01*
X166331500Y-72184153D01*
X165067595Y-72184153D01*
X165104058Y-72159789D01*
X165134466Y-72129381D01*
X165173463Y-72090385D01*
X165215555Y-72048292D01*
X165215558Y-72048289D01*
X165303163Y-71917179D01*
X165363506Y-71771497D01*
X165394269Y-71616842D01*
X165394269Y-71459158D01*
X165394269Y-71459155D01*
X165394268Y-71459153D01*
X165378000Y-71377368D01*
X165363506Y-71304503D01*
X165363504Y-71304498D01*
X165303166Y-71158827D01*
X165303159Y-71158814D01*
X165215558Y-71027711D01*
X165215555Y-71027707D01*
X165104061Y-70916213D01*
X165104057Y-70916210D01*
X164972954Y-70828609D01*
X164972941Y-70828602D01*
X164827270Y-70768264D01*
X164827258Y-70768261D01*
X164672614Y-70737500D01*
X164672611Y-70737500D01*
X164514927Y-70737500D01*
X164514924Y-70737500D01*
X164360279Y-70768261D01*
X164360267Y-70768264D01*
X164214596Y-70828602D01*
X164214583Y-70828609D01*
X164083480Y-70916210D01*
X164083476Y-70916213D01*
X163971982Y-71027707D01*
X163971979Y-71027711D01*
X163884378Y-71158814D01*
X163884371Y-71158827D01*
X163824033Y-71304498D01*
X163824030Y-71304510D01*
X163793269Y-71459153D01*
X163060675Y-71459153D01*
X163100212Y-71363703D01*
X163124249Y-71242857D01*
X163124249Y-70387181D01*
X163100212Y-70266335D01*
X163076483Y-70209048D01*
X163057723Y-70163758D01*
X163053063Y-70152506D01*
X163053058Y-70152497D01*
X163039883Y-70132780D01*
X163039881Y-70132777D01*
X163036005Y-70126977D01*
X162984607Y-70050054D01*
X162897482Y-69962929D01*
X162897478Y-69962926D01*
X162793866Y-69859314D01*
X162760381Y-69797991D01*
X162757547Y-69771633D01*
X162757547Y-68274493D01*
X162777232Y-68207454D01*
X162830036Y-68161699D01*
X162899194Y-68151755D01*
X162950438Y-68171391D01*
X162987852Y-68196390D01*
X162987858Y-68196394D01*
X162987860Y-68196395D01*
X162987864Y-68196397D01*
X163110414Y-68247158D01*
X163133540Y-68256737D01*
X163288190Y-68287499D01*
X163288193Y-68287500D01*
X163288195Y-68287500D01*
X163445881Y-68287500D01*
X163445882Y-68287499D01*
X163600534Y-68256737D01*
X163746216Y-68196394D01*
X163877326Y-68108789D01*
X163988826Y-67997289D01*
X164076431Y-67866179D01*
X164077552Y-67863474D01*
X164095439Y-67820289D01*
X164136774Y-67720497D01*
X164167537Y-67565842D01*
X164167537Y-67408158D01*
X164167537Y-67408155D01*
X164167536Y-67408153D01*
X164159652Y-67368516D01*
X164136774Y-67253503D01*
X164135237Y-67249792D01*
X164076434Y-67107827D01*
X164076427Y-67107814D01*
X163988826Y-66976711D01*
X163988823Y-66976707D01*
X163877329Y-66865213D01*
X163877325Y-66865210D01*
X163746222Y-66777609D01*
X163746209Y-66777602D01*
X163600538Y-66717264D01*
X163600526Y-66717261D01*
X163445882Y-66686500D01*
X163445879Y-66686500D01*
X163288195Y-66686500D01*
X163288192Y-66686500D01*
X163133547Y-66717261D01*
X163133535Y-66717264D01*
X162987864Y-66777602D01*
X162987852Y-66777609D01*
X162893578Y-66840602D01*
X162826901Y-66861480D01*
X162824687Y-66861500D01*
X162330635Y-66861500D01*
X162330615Y-66861499D01*
X162324501Y-66861499D01*
X162201288Y-66861499D01*
X162100491Y-66881548D01*
X162100486Y-66881548D01*
X162080443Y-66885536D01*
X162080441Y-66885536D01*
X162033291Y-66905067D01*
X161966613Y-66932685D01*
X161966611Y-66932686D01*
X161864160Y-67001141D01*
X161646190Y-67219111D01*
X161625690Y-67249792D01*
X161625686Y-67249798D01*
X161623211Y-67253503D01*
X161577735Y-67321561D01*
X161561510Y-67360733D01*
X161558559Y-67367855D01*
X161558556Y-67367862D01*
X161530584Y-67435392D01*
X161530583Y-67435396D01*
X161528106Y-67447854D01*
X161528105Y-67447857D01*
X161508065Y-67548604D01*
X161508066Y-67548605D01*
X161506547Y-67556242D01*
X161506547Y-69855989D01*
X161486862Y-69923028D01*
X161434058Y-69968783D01*
X161382547Y-69979989D01*
X159134371Y-69979989D01*
X159125685Y-69977438D01*
X159116724Y-69978727D01*
X159092683Y-69967748D01*
X159067332Y-69960304D01*
X159061404Y-69953463D01*
X159053168Y-69949702D01*
X159038878Y-69927467D01*
X159021577Y-69907500D01*
X159019289Y-69896985D01*
X159015394Y-69890924D01*
X159010371Y-69855989D01*
X159010371Y-69686580D01*
X159030056Y-69619541D01*
X159046685Y-69598904D01*
X160332797Y-68312791D01*
X160394118Y-68279308D01*
X160396128Y-68278889D01*
X160507497Y-68256737D01*
X160653179Y-68196394D01*
X160784289Y-68108789D01*
X160895789Y-67997289D01*
X160983394Y-67866179D01*
X160984515Y-67863474D01*
X161002402Y-67820289D01*
X161043737Y-67720497D01*
X161074500Y-67565842D01*
X161074500Y-67408158D01*
X161074500Y-67408155D01*
X161074499Y-67408153D01*
X161066615Y-67368516D01*
X161043737Y-67253503D01*
X161042200Y-67249792D01*
X160983397Y-67107827D01*
X160983390Y-67107814D01*
X160895789Y-66976711D01*
X160895786Y-66976707D01*
X160784292Y-66865213D01*
X160784288Y-66865210D01*
X160653185Y-66777609D01*
X160653172Y-66777602D01*
X160507501Y-66717264D01*
X160507489Y-66717261D01*
X160352845Y-66686500D01*
X160352842Y-66686500D01*
X160195158Y-66686500D01*
X160195155Y-66686500D01*
X160040510Y-66717261D01*
X160040498Y-66717264D01*
X159894827Y-66777602D01*
X159894814Y-66777609D01*
X159763711Y-66865210D01*
X159763707Y-66865213D01*
X159652213Y-66976707D01*
X159652210Y-66976711D01*
X159564609Y-67107814D01*
X159564602Y-67107827D01*
X159504264Y-67253498D01*
X159504263Y-67253503D01*
X159482141Y-67364714D01*
X159449756Y-67426625D01*
X159448205Y-67428203D01*
X158714710Y-68161699D01*
X157986141Y-68890268D01*
X157986138Y-68890271D01*
X157953227Y-68923182D01*
X157899013Y-68977395D01*
X157867919Y-69023931D01*
X157867918Y-69023930D01*
X157830563Y-69079836D01*
X157830556Y-69079848D01*
X157802027Y-69148725D01*
X157802021Y-69148741D01*
X157800643Y-69152069D01*
X157783408Y-69193677D01*
X157781056Y-69205501D01*
X157779385Y-69213901D01*
X157779384Y-69213905D01*
X157766686Y-69277745D01*
X157759371Y-69314518D01*
X157759371Y-69536798D01*
X157739686Y-69603837D01*
X157723052Y-69624479D01*
X157652927Y-69694604D01*
X157652924Y-69694607D01*
X157373353Y-69974178D01*
X157373350Y-69974181D01*
X157329788Y-70017742D01*
X157286227Y-70061303D01*
X157286225Y-70061306D01*
X157265344Y-70092557D01*
X157265343Y-70092559D01*
X157265342Y-70092558D01*
X157217772Y-70163751D01*
X157217768Y-70163758D01*
X157192451Y-70224882D01*
X157192451Y-70224883D01*
X157170620Y-70277586D01*
X157170619Y-70277591D01*
X157164120Y-70310257D01*
X157164121Y-70310258D01*
X157148864Y-70386963D01*
X157148861Y-70386982D01*
X157148336Y-70389622D01*
X157146583Y-70398433D01*
X153477619Y-70398433D01*
X153519889Y-70370189D01*
X153519892Y-70370186D01*
X153585420Y-70304659D01*
X153631386Y-70258692D01*
X153631389Y-70258689D01*
X153718994Y-70127579D01*
X153779337Y-69981897D01*
X153810100Y-69827242D01*
X153810100Y-69669558D01*
X153810100Y-69669555D01*
X153810099Y-69669553D01*
X153779337Y-69514903D01*
X153759569Y-69467179D01*
X153718997Y-69369227D01*
X153718990Y-69369214D01*
X153631389Y-69238111D01*
X153631386Y-69238107D01*
X153519892Y-69126613D01*
X153519888Y-69126610D01*
X153388785Y-69039009D01*
X153388772Y-69039002D01*
X153243101Y-68978664D01*
X153243089Y-68978661D01*
X153088445Y-68947900D01*
X153088442Y-68947900D01*
X152930758Y-68947900D01*
X152930755Y-68947900D01*
X152776110Y-68978661D01*
X152776098Y-68978664D01*
X152630427Y-69039002D01*
X152630414Y-69039009D01*
X152499311Y-69126610D01*
X152499307Y-69126613D01*
X152387813Y-69238107D01*
X152387810Y-69238111D01*
X152300209Y-69369214D01*
X152300202Y-69369227D01*
X152239864Y-69514898D01*
X152239861Y-69514910D01*
X152209100Y-69669553D01*
X151745924Y-69669553D01*
X151768100Y-69616014D01*
X151798135Y-69543501D01*
X151798137Y-69543497D01*
X151828900Y-69388842D01*
X151828900Y-69231158D01*
X151828900Y-69231155D01*
X151828899Y-69231153D01*
X151798137Y-69076503D01*
X151795658Y-69070517D01*
X151737797Y-68930827D01*
X151737790Y-68930814D01*
X151650189Y-68799711D01*
X151650186Y-68799707D01*
X151538692Y-68688213D01*
X151538688Y-68688210D01*
X151407585Y-68600609D01*
X151407572Y-68600602D01*
X151261901Y-68540264D01*
X151261889Y-68540261D01*
X151107245Y-68509500D01*
X151107242Y-68509500D01*
X150949558Y-68509500D01*
X150949555Y-68509500D01*
X150794910Y-68540261D01*
X150794907Y-68540262D01*
X150794906Y-68540262D01*
X150794903Y-68540263D01*
X150728398Y-68567810D01*
X150659485Y-68596354D01*
X150590015Y-68603822D01*
X150527536Y-68572546D01*
X150524352Y-68569473D01*
X150522692Y-68567813D01*
X150522688Y-68567810D01*
X150391585Y-68480209D01*
X150391572Y-68480202D01*
X150245901Y-68419864D01*
X150245889Y-68419861D01*
X150091245Y-68389100D01*
X150091242Y-68389100D01*
X149933558Y-68389100D01*
X149933555Y-68389100D01*
X149778910Y-68419861D01*
X149778898Y-68419864D01*
X149633227Y-68480202D01*
X149633214Y-68480209D01*
X149502111Y-68567810D01*
X149390180Y-68679741D01*
X149328857Y-68713225D01*
X149259165Y-68708241D01*
X149203232Y-68666369D01*
X149178815Y-68600905D01*
X149178499Y-68592077D01*
X149178499Y-67428128D01*
X149172091Y-67368517D01*
X149127809Y-67249792D01*
X149121797Y-67233671D01*
X149121793Y-67233664D01*
X149035547Y-67118455D01*
X149035544Y-67118452D01*
X148920335Y-67032206D01*
X148920328Y-67032202D01*
X148785482Y-66981908D01*
X148785483Y-66981908D01*
X148725883Y-66975501D01*
X148725881Y-66975500D01*
X148725873Y-66975500D01*
X148725864Y-66975500D01*
X146930129Y-66975500D01*
X146930123Y-66975501D01*
X146870516Y-66981908D01*
X146735671Y-67032202D01*
X146735664Y-67032206D01*
X146620455Y-67118452D01*
X146620452Y-67118455D01*
X146534206Y-67233664D01*
X146534202Y-67233671D01*
X146483908Y-67368517D01*
X146479647Y-67408155D01*
X146477501Y-67428123D01*
X146477500Y-67428135D01*
X140492684Y-67428135D01*
X140500500Y-67388842D01*
X140500500Y-67231158D01*
X140500500Y-67231155D01*
X140500499Y-67231153D01*
X140480774Y-67131989D01*
X140469737Y-67076503D01*
X140438522Y-67001142D01*
X140409397Y-66930827D01*
X140409390Y-66930814D01*
X140321789Y-66799711D01*
X140321786Y-66799707D01*
X140210292Y-66688213D01*
X140210288Y-66688210D01*
X140079185Y-66600609D01*
X140079172Y-66600602D01*
X139933501Y-66540264D01*
X139933489Y-66540261D01*
X139778845Y-66509500D01*
X139778842Y-66509500D01*
X139621158Y-66509500D01*
X139621155Y-66509500D01*
X139466510Y-66540261D01*
X139466498Y-66540264D01*
X139320827Y-66600602D01*
X139320814Y-66600609D01*
X139189711Y-66688210D01*
X139189707Y-66688213D01*
X139152681Y-66725240D01*
X139091358Y-66758725D01*
X139021666Y-66753741D01*
X138977319Y-66725240D01*
X138940292Y-66688213D01*
X138940288Y-66688210D01*
X138809185Y-66600609D01*
X138809172Y-66600602D01*
X138663501Y-66540264D01*
X138663489Y-66540261D01*
X138508845Y-66509500D01*
X138508842Y-66509500D01*
X138351158Y-66509500D01*
X138351155Y-66509500D01*
X138196510Y-66540261D01*
X138196498Y-66540264D01*
X138050827Y-66600602D01*
X138050814Y-66600609D01*
X137919711Y-66688210D01*
X137919707Y-66688213D01*
X137882681Y-66725240D01*
X137821358Y-66758725D01*
X137751666Y-66753741D01*
X137707319Y-66725240D01*
X137670292Y-66688213D01*
X137670288Y-66688210D01*
X137539185Y-66600609D01*
X137539172Y-66600602D01*
X137393501Y-66540264D01*
X137393489Y-66540261D01*
X137238845Y-66509500D01*
X137238842Y-66509500D01*
X137081158Y-66509500D01*
X137081155Y-66509500D01*
X136926510Y-66540261D01*
X136926498Y-66540264D01*
X136780827Y-66600602D01*
X136780814Y-66600609D01*
X136649711Y-66688210D01*
X136649707Y-66688213D01*
X136538213Y-66799707D01*
X136538210Y-66799711D01*
X136450609Y-66930814D01*
X136450602Y-66930827D01*
X136390264Y-67076498D01*
X136390261Y-67076510D01*
X136359500Y-67231153D01*
X134986159Y-67231153D01*
X135022846Y-67118243D01*
X135056100Y-66908287D01*
X135056100Y-66695713D01*
X135022846Y-66485757D01*
X134957157Y-66283588D01*
X134893236Y-66158135D01*
X177465500Y-66158135D01*
X177465500Y-67953870D01*
X177465501Y-67953876D01*
X177471908Y-68013483D01*
X177522202Y-68148328D01*
X177522206Y-68148335D01*
X177608452Y-68263544D01*
X177608455Y-68263547D01*
X177723664Y-68349793D01*
X177723671Y-68349797D01*
X177858517Y-68400091D01*
X177858516Y-68400091D01*
X177865444Y-68400835D01*
X177918127Y-68406500D01*
X179713872Y-68406499D01*
X179773483Y-68400091D01*
X179908331Y-68349796D01*
X180023546Y-68263546D01*
X180109796Y-68148331D01*
X180160091Y-68013483D01*
X180166500Y-67953873D01*
X180166499Y-66158128D01*
X180160091Y-66098517D01*
X180158474Y-66094182D01*
X180109797Y-65963671D01*
X180109793Y-65963664D01*
X180023547Y-65848455D01*
X180023544Y-65848452D01*
X179908335Y-65762206D01*
X179908328Y-65762202D01*
X179773482Y-65711908D01*
X179773483Y-65711908D01*
X179713883Y-65705501D01*
X179713881Y-65705500D01*
X179713873Y-65705500D01*
X179713864Y-65705500D01*
X177918129Y-65705500D01*
X177918123Y-65705501D01*
X177858516Y-65711908D01*
X177723671Y-65762202D01*
X177723664Y-65762206D01*
X177608455Y-65848452D01*
X177608452Y-65848455D01*
X177522206Y-65963664D01*
X177522202Y-65963671D01*
X177471908Y-66098517D01*
X177466589Y-66147998D01*
X177465501Y-66158123D01*
X177465500Y-66158135D01*
X134893236Y-66158135D01*
X134860651Y-66094184D01*
X134860649Y-66094181D01*
X134860648Y-66094179D01*
X134735709Y-65922213D01*
X134585386Y-65771890D01*
X134413420Y-65646951D01*
X134224014Y-65550444D01*
X134224013Y-65550443D01*
X134224012Y-65550443D01*
X134021843Y-65484754D01*
X134021841Y-65484753D01*
X134021840Y-65484753D01*
X133860557Y-65459208D01*
X133811887Y-65451500D01*
X133599313Y-65451500D01*
X133550642Y-65459208D01*
X133389360Y-65484753D01*
X133187185Y-65550444D01*
X132997779Y-65646951D01*
X132825813Y-65771890D01*
X132675490Y-65922213D01*
X132550549Y-66094182D01*
X132546084Y-66102946D01*
X132498109Y-66153742D01*
X132430288Y-66170536D01*
X132364153Y-66147998D01*
X132325116Y-66102946D01*
X132320650Y-66094182D01*
X132195709Y-65922213D01*
X132045386Y-65771890D01*
X131873420Y-65646951D01*
X131684014Y-65550444D01*
X131684013Y-65550443D01*
X131684012Y-65550443D01*
X131481843Y-65484754D01*
X131481841Y-65484753D01*
X131481840Y-65484753D01*
X131320557Y-65459208D01*
X131271887Y-65451500D01*
X131059313Y-65451500D01*
X131010642Y-65459208D01*
X130849360Y-65484753D01*
X130647185Y-65550444D01*
X130457779Y-65646951D01*
X130285813Y-65771890D01*
X130135490Y-65922213D01*
X130010549Y-66094182D01*
X130006084Y-66102946D01*
X129958109Y-66153742D01*
X129890288Y-66170536D01*
X129824153Y-66147998D01*
X129785116Y-66102946D01*
X129780650Y-66094182D01*
X129655709Y-65922213D01*
X129505386Y-65771890D01*
X129333420Y-65646951D01*
X129144014Y-65550444D01*
X129144013Y-65550443D01*
X129144012Y-65550443D01*
X128941843Y-65484754D01*
X128941841Y-65484753D01*
X128941840Y-65484753D01*
X128780557Y-65459208D01*
X128731887Y-65451500D01*
X128519313Y-65451500D01*
X128470642Y-65459208D01*
X128309360Y-65484753D01*
X128107185Y-65550444D01*
X127917779Y-65646951D01*
X127745815Y-65771889D01*
X127632273Y-65885431D01*
X127570950Y-65918915D01*
X127501258Y-65913931D01*
X127445325Y-65872059D01*
X127428410Y-65841082D01*
X127379397Y-65709671D01*
X127379393Y-65709664D01*
X127293147Y-65594455D01*
X127293144Y-65594452D01*
X127177935Y-65508206D01*
X127177928Y-65508202D01*
X127043082Y-65457908D01*
X127043083Y-65457908D01*
X126983483Y-65451501D01*
X126983481Y-65451500D01*
X126983473Y-65451500D01*
X126983464Y-65451500D01*
X125187729Y-65451500D01*
X125187723Y-65451501D01*
X125128116Y-65457908D01*
X124993271Y-65508202D01*
X124993264Y-65508206D01*
X124878055Y-65594452D01*
X124878052Y-65594455D01*
X124791806Y-65709664D01*
X124791802Y-65709671D01*
X124741508Y-65844517D01*
X124735101Y-65904116D01*
X124735100Y-65904135D01*
X121931735Y-65904135D01*
X121942187Y-63702135D01*
X146499500Y-63702135D01*
X146499500Y-65497870D01*
X146499501Y-65497876D01*
X146505908Y-65557483D01*
X146556202Y-65692328D01*
X146556206Y-65692335D01*
X146642452Y-65807544D01*
X146642455Y-65807547D01*
X146757664Y-65893793D01*
X146757671Y-65893797D01*
X146892517Y-65944091D01*
X146892516Y-65944091D01*
X146899444Y-65944835D01*
X146952127Y-65950500D01*
X148747872Y-65950499D01*
X148807483Y-65944091D01*
X148942331Y-65893796D01*
X149057546Y-65807546D01*
X149143796Y-65692331D01*
X149194091Y-65557483D01*
X149200500Y-65497873D01*
X149200499Y-63702128D01*
X149194091Y-63642517D01*
X149143796Y-63507669D01*
X149143795Y-63507668D01*
X149143793Y-63507664D01*
X149057547Y-63392455D01*
X149057544Y-63392452D01*
X148942335Y-63306206D01*
X148942328Y-63306202D01*
X148807482Y-63255908D01*
X148807483Y-63255908D01*
X148747883Y-63249501D01*
X148747881Y-63249500D01*
X148747873Y-63249500D01*
X148747864Y-63249500D01*
X146952129Y-63249500D01*
X146952123Y-63249501D01*
X146892516Y-63255908D01*
X146757671Y-63306202D01*
X146757664Y-63306206D01*
X146642455Y-63392452D01*
X146642452Y-63392455D01*
X146556206Y-63507664D01*
X146556202Y-63507671D01*
X146505908Y-63642517D01*
X146499920Y-63698217D01*
X146499501Y-63702123D01*
X146499500Y-63702135D01*
X121942187Y-63702135D01*
X121947545Y-62573400D01*
X121967548Y-62506458D01*
X122020568Y-62460954D01*
X122071442Y-62449992D01*
X181980615Y-62401006D01*
X182047668Y-62420636D01*
G37*
%TD.AperFunction*%
%TA.AperFunction,NonConductor*%
G36*
X129967044Y-67455999D02*
G01*
X130006086Y-67501056D01*
X130010551Y-67509820D01*
X130135490Y-67681786D01*
X130285813Y-67832109D01*
X130457779Y-67957048D01*
X130457781Y-67957049D01*
X130457784Y-67957051D01*
X130647188Y-68053557D01*
X130849357Y-68119246D01*
X131059313Y-68152500D01*
X131059314Y-68152500D01*
X131271886Y-68152500D01*
X131271887Y-68152500D01*
X131481843Y-68119246D01*
X131497440Y-68114177D01*
X131567279Y-68112183D01*
X131623438Y-68144428D01*
X132379119Y-68900109D01*
X132412604Y-68961432D01*
X132407620Y-69031124D01*
X132365748Y-69087057D01*
X132329756Y-69105720D01*
X132301192Y-69115002D01*
X132171185Y-69157244D01*
X131981779Y-69253751D01*
X131809813Y-69378690D01*
X131659490Y-69529013D01*
X131534549Y-69700982D01*
X131530084Y-69709746D01*
X131482109Y-69760542D01*
X131414288Y-69777336D01*
X131348153Y-69754798D01*
X131309116Y-69709746D01*
X131304650Y-69700982D01*
X131179709Y-69529013D01*
X131029386Y-69378690D01*
X130857420Y-69253751D01*
X130668014Y-69157244D01*
X130668013Y-69157243D01*
X130668012Y-69157243D01*
X130465843Y-69091554D01*
X130465841Y-69091553D01*
X130465840Y-69091553D01*
X130304557Y-69066008D01*
X130255887Y-69058300D01*
X130043313Y-69058300D01*
X129994642Y-69066008D01*
X129833360Y-69091553D01*
X129631182Y-69157245D01*
X129591394Y-69177518D01*
X129522725Y-69190414D01*
X129457985Y-69164137D01*
X129417728Y-69107030D01*
X129411100Y-69067033D01*
X129411100Y-67963792D01*
X129430785Y-67896753D01*
X129462215Y-67863474D01*
X129505388Y-67832107D01*
X129505388Y-67832106D01*
X129505392Y-67832104D01*
X129655704Y-67681792D01*
X129655706Y-67681788D01*
X129655709Y-67681786D01*
X129780648Y-67509820D01*
X129780647Y-67509820D01*
X129780651Y-67509816D01*
X129785114Y-67501054D01*
X129833088Y-67450259D01*
X129900908Y-67433463D01*
X129967044Y-67455999D01*
G37*
%TD.AperFunction*%
%TA.AperFunction,NonConductor*%
G36*
X150843103Y-79013429D02*
G01*
X150849581Y-79019461D01*
X152830939Y-81000819D01*
X152841551Y-81020255D01*
X152856052Y-81036989D01*
X152857968Y-81050320D01*
X152864424Y-81062142D01*
X152862844Y-81084228D01*
X152865996Y-81106147D01*
X152860400Y-81118398D01*
X152859440Y-81131834D01*
X152846169Y-81149560D01*
X152836971Y-81169703D01*
X152825639Y-81176985D01*
X152817568Y-81187767D01*
X152796822Y-81195504D01*
X152778193Y-81207477D01*
X152756274Y-81210628D01*
X152752104Y-81212184D01*
X152743258Y-81212500D01*
X152703141Y-81212500D01*
X152636102Y-81192815D01*
X152615460Y-81176181D01*
X152605492Y-81166213D01*
X152605488Y-81166210D01*
X152474385Y-81078609D01*
X152474372Y-81078602D01*
X152328701Y-81018264D01*
X152328689Y-81018261D01*
X152174045Y-80987500D01*
X152174042Y-80987500D01*
X152016358Y-80987500D01*
X152016355Y-80987500D01*
X151861710Y-81018261D01*
X151861698Y-81018264D01*
X151716027Y-81078602D01*
X151716014Y-81078609D01*
X151584911Y-81166210D01*
X151584907Y-81166213D01*
X151473413Y-81277707D01*
X151473410Y-81277711D01*
X151385809Y-81408814D01*
X151385804Y-81408823D01*
X151331774Y-81539266D01*
X151287933Y-81593669D01*
X151221639Y-81615734D01*
X151193026Y-81613431D01*
X151150285Y-81604930D01*
X151150284Y-81604930D01*
X150761900Y-81604930D01*
X150694861Y-81585245D01*
X150649106Y-81532441D01*
X150637900Y-81480930D01*
X150637900Y-79107142D01*
X150657585Y-79040103D01*
X150710389Y-78994348D01*
X150779547Y-78984404D01*
X150843103Y-79013429D01*
G37*
%TD.AperFunction*%
%TA.AperFunction,NonConductor*%
G36*
X134165320Y-70695683D02*
G01*
X134198290Y-70719280D01*
X136525618Y-73046608D01*
X136559103Y-73107931D01*
X136554119Y-73177623D01*
X136512247Y-73233556D01*
X136446783Y-73257973D01*
X136378510Y-73243121D01*
X136369046Y-73237391D01*
X136319985Y-73204609D01*
X136319972Y-73204602D01*
X136174301Y-73144264D01*
X136174289Y-73144261D01*
X136019645Y-73113500D01*
X136019642Y-73113500D01*
X135861958Y-73113500D01*
X135861955Y-73113500D01*
X135707310Y-73144261D01*
X135707298Y-73144264D01*
X135561627Y-73204602D01*
X135561614Y-73204609D01*
X135430511Y-73292210D01*
X135430507Y-73292213D01*
X135319013Y-73403707D01*
X135319010Y-73403711D01*
X135231409Y-73534814D01*
X135231402Y-73534827D01*
X135171064Y-73680498D01*
X135171061Y-73680510D01*
X135140300Y-73835153D01*
X135140300Y-73992846D01*
X135171061Y-74147489D01*
X135171064Y-74147501D01*
X135231402Y-74293172D01*
X135231409Y-74293185D01*
X135319010Y-74424288D01*
X135319013Y-74424292D01*
X135430507Y-74535786D01*
X135430511Y-74535789D01*
X135561614Y-74623390D01*
X135561627Y-74623397D01*
X135707298Y-74683735D01*
X135707303Y-74683737D01*
X135833700Y-74708879D01*
X135861953Y-74714499D01*
X135861956Y-74714500D01*
X135861958Y-74714500D01*
X136019644Y-74714500D01*
X136019645Y-74714499D01*
X136174297Y-74683737D01*
X136319979Y-74623394D01*
X136451089Y-74535789D01*
X136562589Y-74424289D01*
X136650194Y-74293179D01*
X136710537Y-74147497D01*
X136741300Y-73992842D01*
X136741300Y-73835158D01*
X136741300Y-73835155D01*
X136741299Y-73835153D01*
X136732083Y-73788821D01*
X136710537Y-73680503D01*
X136701096Y-73657711D01*
X136650197Y-73534827D01*
X136650195Y-73534823D01*
X136650194Y-73534821D01*
X136617408Y-73485753D01*
X136596530Y-73419076D01*
X136615014Y-73351696D01*
X136666993Y-73305005D01*
X136735963Y-73293829D01*
X136800027Y-73321714D01*
X136808191Y-73329181D01*
X140547581Y-77068571D01*
X140581066Y-77129894D01*
X140583900Y-77156252D01*
X140583900Y-83645480D01*
X140564215Y-83712519D01*
X140511411Y-83758274D01*
X140481722Y-83766282D01*
X140481927Y-83767311D01*
X140321305Y-83799261D01*
X140321293Y-83799264D01*
X140175622Y-83859602D01*
X140175611Y-83859608D01*
X140130673Y-83889635D01*
X140115366Y-83894427D01*
X140102299Y-83903726D01*
X140082709Y-83904652D01*
X140063995Y-83910512D01*
X140048529Y-83906269D01*
X140032507Y-83907027D01*
X140015526Y-83897215D01*
X139996615Y-83892027D01*
X139985206Y-83879695D01*
X139972011Y-83872071D01*
X139957438Y-83849680D01*
X139951548Y-83843314D01*
X139949185Y-83838728D01*
X139942557Y-83822724D01*
X139913312Y-83752119D01*
X139879084Y-83700895D01*
X139844858Y-83649672D01*
X139844856Y-83649669D01*
X139754637Y-83559450D01*
X139754606Y-83559421D01*
X139457162Y-83261977D01*
X139449455Y-83254270D01*
X139449453Y-83254267D01*
X139362328Y-83167142D01*
X139296891Y-83123418D01*
X139259881Y-83098688D01*
X139179387Y-83065347D01*
X139146047Y-83051537D01*
X139084430Y-83039281D01*
X139079756Y-83038351D01*
X139079748Y-83038349D01*
X139025206Y-83027500D01*
X139025202Y-83027500D01*
X139025201Y-83027500D01*
X138812252Y-83027500D01*
X138745213Y-83007815D01*
X138724571Y-82991181D01*
X129447419Y-73714029D01*
X129413934Y-73652706D01*
X129411100Y-73626348D01*
X129411100Y-71750566D01*
X129430785Y-71683527D01*
X129483589Y-71637772D01*
X129552747Y-71627828D01*
X129591396Y-71640082D01*
X129631183Y-71660355D01*
X129631185Y-71660355D01*
X129631188Y-71660357D01*
X129833357Y-71726046D01*
X130043313Y-71759300D01*
X130043314Y-71759300D01*
X130255886Y-71759300D01*
X130255887Y-71759300D01*
X130465843Y-71726046D01*
X130668012Y-71660357D01*
X130857416Y-71563851D01*
X130943738Y-71501135D01*
X131029386Y-71438909D01*
X131029388Y-71438906D01*
X131029392Y-71438904D01*
X131179704Y-71288592D01*
X131179706Y-71288588D01*
X131179709Y-71288586D01*
X131304648Y-71116620D01*
X131304647Y-71116620D01*
X131304651Y-71116616D01*
X131309114Y-71107854D01*
X131357088Y-71057059D01*
X131424908Y-71040263D01*
X131491044Y-71062799D01*
X131530086Y-71107856D01*
X131534551Y-71116620D01*
X131659490Y-71288586D01*
X131809813Y-71438909D01*
X131981779Y-71563848D01*
X131981781Y-71563849D01*
X131981784Y-71563851D01*
X132171188Y-71660357D01*
X132373357Y-71726046D01*
X132583313Y-71759300D01*
X132583314Y-71759300D01*
X132795886Y-71759300D01*
X132795887Y-71759300D01*
X133005843Y-71726046D01*
X133208012Y-71660357D01*
X133397416Y-71563851D01*
X133483738Y-71501135D01*
X133569386Y-71438909D01*
X133569388Y-71438906D01*
X133569392Y-71438904D01*
X133719704Y-71288592D01*
X133719706Y-71288588D01*
X133719709Y-71288586D01*
X133844648Y-71116620D01*
X133844647Y-71116620D01*
X133844651Y-71116616D01*
X133941157Y-70927212D01*
X133992680Y-70768639D01*
X134032115Y-70710968D01*
X134096473Y-70683769D01*
X134165320Y-70695683D01*
G37*
%TD.AperFunction*%
%TA.AperFunction,NonConductor*%
G36*
X149464616Y-82203606D02*
G01*
X149486512Y-82228424D01*
X149488855Y-82231931D01*
X149526540Y-82288331D01*
X149526541Y-82288332D01*
X149526542Y-82288333D01*
X149613667Y-82375458D01*
X149613668Y-82375458D01*
X149620735Y-82382525D01*
X149620734Y-82382525D01*
X149620737Y-82382527D01*
X149972265Y-82734055D01*
X150005749Y-82795377D01*
X150008583Y-82821735D01*
X150008583Y-82984276D01*
X150039344Y-83138919D01*
X150039347Y-83138931D01*
X150099686Y-83284604D01*
X150102558Y-83289976D01*
X150100721Y-83290957D01*
X150118770Y-83348594D01*
X150118790Y-83350810D01*
X150118790Y-84377165D01*
X150116239Y-84385850D01*
X150117528Y-84394812D01*
X150106549Y-84418852D01*
X150099105Y-84444204D01*
X150092264Y-84450131D01*
X150088503Y-84458368D01*
X150066268Y-84472657D01*
X150046301Y-84489959D01*
X150035786Y-84492246D01*
X150029725Y-84496142D01*
X149994790Y-84501165D01*
X149958931Y-84501165D01*
X149911479Y-84491726D01*
X149841954Y-84462928D01*
X149841953Y-84462927D01*
X149829908Y-84457938D01*
X149829896Y-84457935D01*
X149726347Y-84437337D01*
X149726338Y-84437337D01*
X149709059Y-84433900D01*
X149709058Y-84433900D01*
X148956851Y-84433900D01*
X148935605Y-84427661D01*
X148913518Y-84426082D01*
X148902734Y-84418009D01*
X148889812Y-84414215D01*
X148875313Y-84397483D01*
X148857584Y-84384211D01*
X148852876Y-84371588D01*
X148844057Y-84361411D01*
X148840905Y-84339494D01*
X148833167Y-84318746D01*
X148836029Y-84305585D01*
X148834113Y-84292253D01*
X148843312Y-84272109D01*
X148848019Y-84250473D01*
X148861288Y-84232745D01*
X148863138Y-84228697D01*
X148869149Y-84222239D01*
X149032642Y-84058747D01*
X149032646Y-84058745D01*
X149119771Y-83971620D01*
X149158719Y-83913331D01*
X149188225Y-83869173D01*
X149233855Y-83759011D01*
X149235376Y-83755339D01*
X149247394Y-83694916D01*
X149259413Y-83634494D01*
X149259413Y-83511280D01*
X149259413Y-82297319D01*
X149279098Y-82230280D01*
X149331902Y-82184525D01*
X149401060Y-82174581D01*
X149464616Y-82203606D01*
G37*
%TD.AperFunction*%
%TA.AperFunction,NonConductor*%
G36*
X150489234Y-89765870D02*
G01*
X150545167Y-89807742D01*
X150569584Y-89873206D01*
X150569900Y-89882052D01*
X150569900Y-90211851D01*
X150567924Y-90218579D01*
X150569148Y-90225484D01*
X150558209Y-90251665D01*
X150550215Y-90278890D01*
X150544915Y-90283481D01*
X150542212Y-90289953D01*
X150518851Y-90306066D01*
X150497411Y-90324645D01*
X150490471Y-90325642D01*
X150484698Y-90329625D01*
X150456336Y-90330551D01*
X150428253Y-90334589D01*
X150421657Y-90331683D01*
X150414866Y-90331905D01*
X150382300Y-90318298D01*
X150372551Y-90312473D01*
X150370289Y-90310211D01*
X150239179Y-90222606D01*
X150183633Y-90199598D01*
X150175850Y-90194948D01*
X150128396Y-90143665D01*
X150116202Y-90074868D01*
X150143138Y-90010399D01*
X150151759Y-90000830D01*
X150358219Y-89794371D01*
X150419542Y-89760886D01*
X150489234Y-89765870D01*
G37*
%TD.AperFunction*%
M02*
