M48
; DRILL file {KiCad 9.0.6} date 2026-03-10T21:32:55+0300
; FORMAT={3:3/ absolute / metric / keep zeros}
; #@! TF.CreationDate,2026-03-10T21:32:55+03:00
; #@! TF.GenerationSoftware,Kicad,Pcbnew,9.0.6
; #@! TF.FileFunction,Plated,1,4,PTH
FMAT,2
METRIC
; #@! TA.AperFunction,Plated,PTH,ViaDrill
T1C0.300
; #@! TA.AperFunction,Plated,PTH,ComponentDrill
T2C1.000
%
G90
G05
T1
X127000Y-087884
X127200Y-084450
X129032Y-091440
X129392Y-083977
X135941Y-073914
X137160Y-067310
X137160Y-068580
X138430Y-067310
X138430Y-068580
X138684Y-084328
X139700Y-067310
X139700Y-068580
X140555Y-084569
X141732Y-068580
X141732Y-069088
X141986Y-068326
X142014Y-089829
X142042Y-091144
X142291Y-092761
X143408Y-083668
X143764Y-074676
X144780Y-076708
X145040Y-085690
X145128Y-084878
X145474Y-092751
X145516Y-093563
X145745Y-089103
X145745Y-089865
X145748Y-088545
X146370Y-093798
X148340Y-093869
X148576Y-077888
X149309Y-078638
X149368Y-085734
X149860Y-090932
X150012Y-069190
X150114Y-075540
X150196Y-085802
X150809Y-082905
X150816Y-086383
X151028Y-069310
X151514Y-085703
X151943Y-075082
X152095Y-081788
X152110Y-091237
X152197Y-078334
X152263Y-082660
X153010Y-069748
X153010Y-075540
X153721Y-083447
X154940Y-093980
X154940Y-096520
X154940Y-096520
X155971Y-077063
X157480Y-093980
X157480Y-096520
X158125Y-086375
X158385Y-071587
X158398Y-070719
X158465Y-085596
X158648Y-083515
X158771Y-084803
X159614Y-083820
X160020Y-093980
X160020Y-096520
X160274Y-067487
X160285Y-071360
X160528Y-074168
X160528Y-075692
X161036Y-074676
X161349Y-075302
X161349Y-075302
X161873Y-070708
X162052Y-074168
X162179Y-071501
X162560Y-093980
X162560Y-096520
X162694Y-078599
X163271Y-082296
X163367Y-067487
X163648Y-073369
X164084Y-077724
X164309Y-074655
X164400Y-082600
X164594Y-071538
X165100Y-093980
X165100Y-096520
X166650Y-084650
X167132Y-072263
X167640Y-093980
X167640Y-096520
X168733Y-077896
X169950Y-078950
X170180Y-093980
X170180Y-096520
X170800Y-085550
X172720Y-093980
X172720Y-096520
X172900Y-085850
X173650Y-085850
X175260Y-093980
X175260Y-096520
X181610Y-087630
X181610Y-088900
X181610Y-090170
X181610Y-091440
X181610Y-092710
X181610Y-093980
X181610Y-095250
X181610Y-096520
T2
X126086Y-066802
X127610Y-070409
X128626Y-066802
X130150Y-070409
X131166Y-066802
X132690Y-070409
X133706Y-066802
X147828Y-068326
X147850Y-064600
X178689Y-073279
X178689Y-081407
X178816Y-067056
M30
