%TF.GenerationSoftware,KiCad,Pcbnew,9.0.6*%
%TF.CreationDate,2026-03-10T21:33:07+03:00*%
%TF.ProjectId,R_esc,525f6573-632e-46b6-9963-61645f706362,rev?*%
%TF.SameCoordinates,Original*%
%TF.FileFunction,Soldermask,Top*%
%TF.FilePolarity,Negative*%
%FSLAX46Y46*%
G04 Gerber Fmt 4.6, Leading zero omitted, Abs format (unit mm)*
G04 Created by KiCad (PCBNEW 9.0.6) date 2026-03-10 21:33:07*
%MOMM*%
%LPD*%
G01*
G04 APERTURE LIST*
G04 Aperture macros list*
%AMRoundRect*
0 Rectangle with rounded corners*
0 $1 Rounding radius*
0 $2 $3 $4 $5 $6 $7 $8 $9 X,Y pos of 4 corners*
0 Add a 4 corners polygon primitive as box body*
4,1,4,$2,$3,$4,$5,$6,$7,$8,$9,$2,$3,0*
0 Add four circle primitives for the rounded corners*
1,1,$1+$1,$2,$3*
1,1,$1+$1,$4,$5*
1,1,$1+$1,$6,$7*
1,1,$1+$1,$8,$9*
0 Add four rect primitives between the rounded corners*
20,1,$1+$1,$2,$3,$4,$5,0*
20,1,$1+$1,$4,$5,$6,$7,0*
20,1,$1+$1,$6,$7,$8,$9,0*
20,1,$1+$1,$8,$9,$2,$3,0*%
G04 Aperture macros list end*
%ADD10R,0.250000X0.907999*%
%ADD11R,0.907999X0.250000*%
%ADD12R,2.794000X2.794000*%
%ADD13R,2.400000X1.500000*%
%ADD14RoundRect,0.250000X-1.000000X-0.650000X1.000000X-0.650000X1.000000X0.650000X-1.000000X0.650000X0*%
%ADD15RoundRect,0.102000X-1.060000X1.140000X-1.060000X-1.140000X1.060000X-1.140000X1.060000X1.140000X0*%
%ADD16RoundRect,0.200000X-0.200000X-0.275000X0.200000X-0.275000X0.200000X0.275000X-0.200000X0.275000X0*%
%ADD17RoundRect,0.250000X-0.475000X0.250000X-0.475000X-0.250000X0.475000X-0.250000X0.475000X0.250000X0*%
%ADD18RoundRect,0.102000X-0.430000X-0.125000X0.430000X-0.125000X0.430000X0.125000X-0.430000X0.125000X0*%
%ADD19RoundRect,0.102000X-0.125000X-0.430000X0.125000X-0.430000X0.125000X0.430000X-0.125000X0.430000X0*%
%ADD20RoundRect,0.102000X-1.750000X-1.750000X1.750000X-1.750000X1.750000X1.750000X-1.750000X1.750000X0*%
%ADD21R,1.700000X1.700000*%
%ADD22RoundRect,0.200000X0.275000X-0.200000X0.275000X0.200000X-0.275000X0.200000X-0.275000X-0.200000X0*%
%ADD23RoundRect,0.200000X-0.275000X0.200000X-0.275000X-0.200000X0.275000X-0.200000X0.275000X0.200000X0*%
%ADD24RoundRect,0.250000X-0.325000X-0.650000X0.325000X-0.650000X0.325000X0.650000X-0.325000X0.650000X0*%
%ADD25RoundRect,0.375000X-0.375000X0.625000X-0.375000X-0.625000X0.375000X-0.625000X0.375000X0.625000X0*%
%ADD26RoundRect,0.500000X-1.400000X0.500000X-1.400000X-0.500000X1.400000X-0.500000X1.400000X0.500000X0*%
%ADD27RoundRect,0.225000X-0.250000X0.225000X-0.250000X-0.225000X0.250000X-0.225000X0.250000X0.225000X0*%
%ADD28RoundRect,0.250000X0.362500X1.425000X-0.362500X1.425000X-0.362500X-1.425000X0.362500X-1.425000X0*%
%ADD29RoundRect,0.250000X0.650000X-0.325000X0.650000X0.325000X-0.650000X0.325000X-0.650000X-0.325000X0*%
%ADD30RoundRect,0.075500X-0.621500X-0.226500X0.621500X-0.226500X0.621500X0.226500X-0.621500X0.226500X0*%
%ADD31RoundRect,0.250000X-0.250000X-0.475000X0.250000X-0.475000X0.250000X0.475000X-0.250000X0.475000X0*%
%ADD32RoundRect,0.225000X0.250000X-0.225000X0.250000X0.225000X-0.250000X0.225000X-0.250000X-0.225000X0*%
%ADD33RoundRect,0.200000X0.200000X0.275000X-0.200000X0.275000X-0.200000X-0.275000X0.200000X-0.275000X0*%
%ADD34C,1.700000*%
%ADD35R,1.524000X0.533400*%
%ADD36R,4.902200X4.114800*%
%ADD37RoundRect,0.150000X-0.200000X0.150000X-0.200000X-0.150000X0.200000X-0.150000X0.200000X0.150000X0*%
%ADD38RoundRect,0.150000X-0.150000X-0.200000X0.150000X-0.200000X0.150000X0.200000X-0.150000X0.200000X0*%
%ADD39RoundRect,0.250000X-0.650000X0.325000X-0.650000X-0.325000X0.650000X-0.325000X0.650000X0.325000X0*%
%ADD40RoundRect,0.150000X-0.512500X-0.150000X0.512500X-0.150000X0.512500X0.150000X-0.512500X0.150000X0*%
%ADD41RoundRect,0.250000X0.475000X-0.250000X0.475000X0.250000X-0.475000X0.250000X-0.475000X-0.250000X0*%
G04 APERTURE END LIST*
D10*
%TO.C,driver1*%
X159913000Y-76920700D03*
X160412999Y-76920700D03*
X160913000Y-76920700D03*
X161413000Y-76920700D03*
X161913001Y-76920700D03*
X162413000Y-76920700D03*
D11*
X163153700Y-76180000D03*
X163153700Y-75680001D03*
X163153700Y-75180000D03*
X163153700Y-74680000D03*
X163153700Y-74179999D03*
X163153700Y-73680000D03*
D10*
X162413000Y-72939300D03*
X161913001Y-72939300D03*
X161413000Y-72939300D03*
X160913000Y-72939300D03*
X160412999Y-72939300D03*
X159913000Y-72939300D03*
D11*
X159172300Y-73680000D03*
X159172300Y-74179999D03*
X159172300Y-74680000D03*
X159172300Y-75180000D03*
X159172300Y-75680001D03*
X159172300Y-76180000D03*
D12*
X161163000Y-74930000D03*
%TD*%
D13*
%TO.C,L1*%
X125679200Y-73551600D03*
X125679200Y-79051600D03*
%TD*%
D14*
%TO.C,D1*%
X136023600Y-81483200D03*
X140023600Y-81483200D03*
%TD*%
D15*
%TO.C,D5*%
X140970000Y-71444200D03*
X140970000Y-75774200D03*
%TD*%
D16*
%TO.C,R26*%
X163208200Y-86868000D03*
X164858200Y-86868000D03*
%TD*%
D17*
%TO.C,C11*%
X163703000Y-78806000D03*
X163703000Y-80706000D03*
%TD*%
%TO.C,C12*%
X156210000Y-74107000D03*
X156210000Y-76007000D03*
%TD*%
D18*
%TO.C,U1*%
X143310200Y-87353200D03*
X143310200Y-87853200D03*
X143310200Y-88353200D03*
X143310200Y-88853200D03*
X143310200Y-89353200D03*
X143310200Y-89853200D03*
X143310200Y-90353200D03*
X143310200Y-90853200D03*
D19*
X143995200Y-91538200D03*
X144495200Y-91538200D03*
X144995200Y-91538200D03*
X145495200Y-91538200D03*
X145995200Y-91538200D03*
X146495200Y-91538200D03*
X146995200Y-91538200D03*
X147495200Y-91538200D03*
D18*
X148180200Y-90853200D03*
X148180200Y-90353200D03*
X148180200Y-89853200D03*
X148180200Y-89353200D03*
X148180200Y-88853200D03*
X148180200Y-88353200D03*
X148180200Y-87853200D03*
X148180200Y-87353200D03*
D19*
X147495200Y-86668200D03*
X146995200Y-86668200D03*
X146495200Y-86668200D03*
X145995200Y-86668200D03*
X145495200Y-86668200D03*
X144995200Y-86668200D03*
X144495200Y-86668200D03*
X143995200Y-86668200D03*
D20*
X145745200Y-89103200D03*
%TD*%
D21*
%TO.C,J7*%
X147828000Y-68326000D03*
%TD*%
D22*
%TO.C,R2*%
X146354800Y-84848200D03*
X146354800Y-83198200D03*
%TD*%
D23*
%TO.C,R14*%
X165735000Y-81344000D03*
X165735000Y-82994000D03*
%TD*%
D21*
%TO.C,J3*%
X178816000Y-67056000D03*
%TD*%
D23*
%TO.C,R4*%
X135585200Y-76086200D03*
X135585200Y-77736200D03*
%TD*%
D24*
%TO.C,C9*%
X158672000Y-81915000D03*
X161622000Y-81915000D03*
%TD*%
D23*
%TO.C,R1*%
X147878800Y-83147400D03*
X147878800Y-84797400D03*
%TD*%
D25*
%TO.C,U4*%
X136107200Y-84632400D03*
X133807200Y-84632400D03*
D26*
X133807200Y-90932400D03*
D25*
X131507200Y-84632400D03*
%TD*%
D27*
%TO.C,C7*%
X147218400Y-80149400D03*
X147218400Y-81699400D03*
%TD*%
D28*
%TO.C,R32*%
X150790500Y-72136000D03*
X144865500Y-72136000D03*
%TD*%
D23*
%TO.C,R12*%
X165735000Y-73407000D03*
X165735000Y-75057000D03*
%TD*%
D29*
%TO.C,C4*%
X138582400Y-89257400D03*
X138582400Y-86307400D03*
%TD*%
D16*
%TO.C,R23*%
X163259000Y-85344000D03*
X164909000Y-85344000D03*
%TD*%
%TO.C,R24*%
X159855400Y-86817200D03*
X161505400Y-86817200D03*
%TD*%
D30*
%TO.C,U2*%
X143515200Y-79207600D03*
X143515200Y-79857600D03*
X143515200Y-80507600D03*
X145435200Y-80507600D03*
X145435200Y-79857600D03*
X145435200Y-79207600D03*
%TD*%
D21*
%TO.C,J5*%
X178689000Y-81407000D03*
%TD*%
D31*
%TO.C,C10*%
X159578000Y-79756000D03*
X161478000Y-79756000D03*
%TD*%
D22*
%TO.C,R18*%
X167386000Y-75056000D03*
X167386000Y-73406000D03*
%TD*%
%TO.C,R9*%
X165800000Y-69025000D03*
X165800000Y-67375000D03*
%TD*%
D16*
%TO.C,R29*%
X163208200Y-88493600D03*
X164858200Y-88493600D03*
%TD*%
D23*
%TO.C,R28*%
X150774400Y-79997800D03*
X150774400Y-81647800D03*
%TD*%
%TO.C,R22*%
X150774400Y-77000600D03*
X150774400Y-78650600D03*
%TD*%
D21*
%TO.C,J6*%
X147850000Y-64600000D03*
%TD*%
D32*
%TO.C,C2*%
X129863600Y-75451000D03*
X129863600Y-73901000D03*
%TD*%
D16*
%TO.C,R27*%
X159906200Y-88544400D03*
X161556200Y-88544400D03*
%TD*%
D33*
%TO.C,R5*%
X133705600Y-78689200D03*
X132055600Y-78689200D03*
%TD*%
D21*
%TO.C,J1*%
X127609600Y-70408800D03*
D34*
X130149600Y-70408800D03*
X132689600Y-70408800D03*
%TD*%
D23*
%TO.C,R30*%
X153060400Y-71311000D03*
X153060400Y-72961000D03*
%TD*%
D21*
%TO.C,J2*%
X126085600Y-66802000D03*
D34*
X128625600Y-66802000D03*
X131165600Y-66802000D03*
X133705600Y-66802000D03*
%TD*%
D23*
%TO.C,R7*%
X149250400Y-80048600D03*
X149250400Y-81698600D03*
%TD*%
D35*
%TO.C,U9*%
X169418000Y-80264000D03*
X169418000Y-81534000D03*
X169418000Y-82804000D03*
X169418000Y-84074000D03*
D36*
X174155100Y-82169000D03*
%TD*%
D33*
%TO.C,R25*%
X149262600Y-76809600D03*
X147612600Y-76809600D03*
%TD*%
D32*
%TO.C,C8*%
X149352000Y-84734400D03*
X149352000Y-83184400D03*
%TD*%
D35*
%TO.C,U7*%
X169412900Y-72545000D03*
X169412900Y-73815000D03*
X169412900Y-75085000D03*
X169412900Y-76355000D03*
D36*
X174150000Y-74450000D03*
%TD*%
D37*
%TO.C,D4*%
X154305000Y-76519000D03*
X154305000Y-75119000D03*
%TD*%
D38*
%TO.C,D2*%
X158942000Y-67208400D03*
X157542000Y-67208400D03*
%TD*%
D39*
%TO.C,C6*%
X154127200Y-78077800D03*
X154127200Y-81027800D03*
%TD*%
D40*
%TO.C,U3*%
X131586600Y-75227200D03*
X131586600Y-76177200D03*
X131586600Y-77127200D03*
X133861600Y-77127200D03*
X133861600Y-76177200D03*
X133861600Y-75227200D03*
%TD*%
D35*
%TO.C,U5*%
X169393200Y-65970000D03*
X169393200Y-67240000D03*
X169393200Y-68510000D03*
X169393200Y-69780000D03*
D36*
X174130300Y-67875000D03*
%TD*%
D22*
%TO.C,R15*%
X167400000Y-69025000D03*
X167400000Y-67375000D03*
%TD*%
D41*
%TO.C,C13*%
X156210000Y-72578000D03*
X156210000Y-70678000D03*
%TD*%
D23*
%TO.C,R3*%
X144627600Y-81826600D03*
X144627600Y-83476600D03*
%TD*%
D22*
%TO.C,R20*%
X167386000Y-82994000D03*
X167386000Y-81344000D03*
%TD*%
%TO.C,R6*%
X129895600Y-78536800D03*
X129895600Y-76886800D03*
%TD*%
D24*
%TO.C,C3*%
X130605000Y-81788000D03*
X133555000Y-81788000D03*
%TD*%
D33*
%TO.C,R8*%
X141033000Y-92202000D03*
X139383000Y-92202000D03*
%TD*%
D39*
%TO.C,C5*%
X129032000Y-86409000D03*
X129032000Y-89359000D03*
%TD*%
D38*
%TO.C,D3*%
X162701200Y-67310000D03*
X161301200Y-67310000D03*
%TD*%
D41*
%TO.C,C1*%
X137382000Y-77556400D03*
X137382000Y-75656400D03*
%TD*%
D16*
%TO.C,R21*%
X159804600Y-85140800D03*
X161454600Y-85140800D03*
%TD*%
%TO.C,R31*%
X152337000Y-68275200D03*
X153987000Y-68275200D03*
%TD*%
D21*
%TO.C,J4*%
X178689000Y-73279000D03*
%TD*%
M02*
